<?xml version="1.0" encoding="utf-8"?>
<!-- Generator: Adobe Illustrator 16.0.0, SVG Export Plug-In . SVG Version: 6.00 Build 0)  -->
<!DOCTYPE svg PUBLIC "-//W3C//DTD SVG 1.1//EN" "http://www.w3.org/Graphics/SVG/1.1/DTD/svg11.dtd">
<svg version="1.1" id="Layer_1" xmlns="http://www.w3.org/2000/svg" xmlns:xlink="http://www.w3.org/1999/xlink" x="0px" y="0px"
	 width="56px" height="56px" viewBox="0 0 56 56" enable-background="new 0 0 56 56" xml:space="preserve">
<g>
	<rect opacity="0" fill="#FFFFFF" width="56" height="56"/>
	<path fill="#D1D3D4" d="M31.113,40H17.162C16.52,40,16,40.52,16,41.163c0,0.642,0.52,1.162,1.162,1.162h13.951
		c0.32,0,0.58,0.262,0.58,0.581c0,0.32-0.26,0.58-0.58,0.58c-0.643,0-1.162,0.521-1.162,1.164s0.52,1.163,1.162,1.163
		c1.602,0,2.906-1.306,2.906-2.907S32.715,40,31.113,40z"/>
	<path fill="#D1D3D4" d="M47.486,28.188c-0.641,0-1.162,0.52-1.162,1.161c0,0.643,0.521,1.162,1.162,1.162
		c0.32,0,0.582,0.263,0.582,0.582c0,0.32-0.262,0.582-0.582,0.582h-2.324c-0.643,0-1.162,0.52-1.162,1.162S44.52,34,45.162,34h2.324
		c1.602,0,2.906-1.305,2.906-2.906S49.088,28.188,47.486,28.188z"/>
	<g>
		<path fill="#CCCCCC" d="M36.941,33.883H22.502c-0.127,0.533-0.393,1.04-0.809,1.458c-0.344,0.343-0.771,0.585-1.232,0.735
			c-0.051,0.129-0.113,0.253-0.182,0.372h16.662c2.477,0,4.492,2.016,4.492,4.493c0,2.477-2.016,4.491-4.492,4.491
			c-0.709,0-1.283,0.575-1.283,1.282c0,0.711,0.574,1.285,1.283,1.285C40.832,48,44,44.833,44,40.941
			C44,37.049,40.832,33.883,36.941,33.883z"/>
		<path fill="#CCCCCC" d="M31.053,29.621c-0.086,0.318-0.221,0.611-0.387,0.879h8.303c2.895,0,5.25-2.355,5.25-5.25
			S41.863,20,38.969,20s-5.25,2.355-5.25,5.25c0,0.725,0.588,1.313,1.312,1.313s1.312-0.589,1.312-1.313
			c0-1.447,1.178-2.625,2.625-2.625s2.625,1.178,2.625,2.625s-1.178,2.625-2.625,2.625H30.98
			C31.166,28.423,31.213,29.021,31.053,29.621z"/>
	</g>
	<path fill="#FFFFFF" d="M28.625,27.928c-0.305-0.176-0.612-0.353-0.917-0.528c0.021-0.005,0.043-0.01,0.064-0.015
		c1.381-0.321,0.797-2.445-0.586-2.124c-0.758,0.176-1.514,0.352-2.27,0.527c-0.459-0.266-0.92-0.531-1.379-0.797
		c0-0.38,0-0.761,0-1.141c0.469,0,0.938,0,1.406,0c1.42,0,1.42-2.202,0-2.202c-0.469,0-0.938,0-1.406,0c0-0.331,0-0.662,0-0.993
		c0.461-0.267,0.922-0.532,1.383-0.799c0.756,0.177,1.512,0.352,2.268,0.527c1.381,0.321,1.967-1.802,0.584-2.124
		c-0.02-0.005-0.041-0.01-0.061-0.015c0.303-0.175,0.608-0.351,0.913-0.526c1.228-0.709,0.121-2.613-1.112-1.9
		c-0.303,0.174-0.604,0.349-0.906,0.522c0.006-0.016,0.01-0.032,0.016-0.049c0.414-1.362-1.711-1.94-2.125-0.586
		c-0.227,0.749-0.455,1.498-0.682,2.247c-0.459,0.265-0.918,0.529-1.377,0.795c-0.32-0.185-0.639-0.369-0.959-0.554
		c0.244-0.422,0.488-0.844,0.732-1.267c0.713-1.232-1.191-2.341-1.9-1.111c-0.246,0.426-0.492,0.852-0.738,1.277
		c-0.297-0.172-0.596-0.344-0.893-0.516c0-0.531,0-1.063,0-1.595c0.531-0.568,1.064-1.138,1.598-1.707
		c0.408-0.438,0.434-1.122,0-1.557c-0.416-0.415-1.148-0.438-1.559,0c-0.014,0.015-0.025,0.028-0.039,0.043c0-0.351,0-0.701,0-1.052
		c0-1.42-2.201-1.42-2.201,0c0,0.351,0,0.702,0,1.053c-0.014-0.015-0.027-0.029-0.041-0.044c-0.41-0.438-1.143-0.415-1.557,0
		c-0.434,0.435-0.41,1.119,0,1.557c0.531,0.569,1.064,1.138,1.598,1.707c0,0.531,0,1.063,0,1.595
		c-0.299,0.172-0.596,0.344-0.895,0.516c-0.246-0.426-0.49-0.852-0.736-1.277c-0.709-1.229-2.613-0.121-1.9,1.111
		c0.244,0.423,0.486,0.845,0.73,1.267c-0.318,0.185-0.637,0.369-0.957,0.553c-0.459-0.266-0.92-0.531-1.379-0.797
		c-0.229-0.748-0.455-1.496-0.684-2.244c-0.41-1.354-2.535-0.776-2.123,0.586c0.004,0.016,0.01,0.03,0.014,0.046
		c-0.301-0.174-0.604-0.348-0.904-0.521c-1.232-0.711-2.34,1.191-1.111,1.9c0.305,0.177,0.611,0.354,0.918,0.53
		c-0.021,0.005-0.043,0.01-0.064,0.015c-1.383,0.32-0.797,2.445,0.586,2.124c0.756-0.177,1.514-0.352,2.27-0.527
		c0.459,0.266,0.92,0.53,1.379,0.796c0,0.331,0,0.663,0,0.994c-0.469,0-0.938,0-1.406,0c-1.422,0-1.422,2.202,0,2.202
		c0.469,0,0.938,0,1.406,0c0,0.381,0,0.761,0,1.142c-0.461,0.266-0.922,0.531-1.381,0.798c-0.758-0.177-1.514-0.352-2.27-0.528
		c-1.383-0.32-1.969,1.802-0.586,2.125c0.021,0.005,0.041,0.01,0.062,0.015c-0.305,0.176-0.609,0.353-0.914,0.528
		c-1.229,0.707-0.119,2.611,1.111,1.9c0.303-0.175,0.604-0.349,0.906-0.523c-0.004,0.017-0.01,0.032-0.014,0.048
		c-0.414,1.362,1.711,1.94,2.123,0.585c0.229-0.748,0.455-1.496,0.682-2.244c0.461-0.266,0.92-0.531,1.381-0.797
		c0.297,0.172,0.594,0.344,0.891,0.516c-0.223,0.387-0.445,0.772-0.668,1.159c-0.711,1.232,1.191,2.339,1.9,1.111
		c0.225-0.39,0.451-0.779,0.676-1.169c0.318,0.184,0.639,0.368,0.957,0.552c0,0.532,0,1.063,0,1.596
		c-0.533,0.568-1.066,1.137-1.598,1.707c-0.41,0.437-0.434,1.122,0,1.557c0.414,0.414,1.146,0.438,1.557,0
		c0.014-0.015,0.027-0.029,0.041-0.044c0,0.351,0,0.701,0,1.052c0,1.421,2.201,1.421,2.201,0c0-0.351,0-0.7,0-1.051
		c0.014,0.015,0.025,0.028,0.039,0.043c0.41,0.438,1.145,0.414,1.559,0c0.434-0.435,0.408-1.12,0-1.557
		c-0.533-0.569-1.066-1.138-1.598-1.707c0-0.532,0-1.063,0-1.596c0.318-0.184,0.637-0.368,0.957-0.552
		c0.225,0.39,0.449,0.779,0.674,1.169c0.709,1.228,2.613,0.119,1.902-1.111c-0.225-0.387-0.447-0.772-0.67-1.159
		c0.297-0.172,0.596-0.344,0.893-0.516c0.461,0.266,0.92,0.53,1.381,0.796c0.227,0.749,0.455,1.497,0.682,2.245
		c0.412,1.355,2.537,0.777,2.125-0.585c-0.006-0.016-0.01-0.032-0.016-0.048c0.301,0.174,0.604,0.348,0.904,0.521
		C28.747,30.541,29.854,28.637,28.625,27.928z"/>
</g>
</svg>
