<?xml version="1.0" encoding="utf-8"?>
<!-- Generator: Adobe Illustrator 16.0.0, SVG Export Plug-In . SVG Version: 6.00 Build 0)  -->
<!DOCTYPE svg PUBLIC "-//W3C//DTD SVG 1.1//EN" "http://www.w3.org/Graphics/SVG/1.1/DTD/svg11.dtd">
<svg version="1.1" id="Layer_1" xmlns="http://www.w3.org/2000/svg" xmlns:xlink="http://www.w3.org/1999/xlink" x="0px" y="0px"
	 width="56px" height="56px" viewBox="0 0 56 56" enable-background="new 0 0 56 56" xml:space="preserve">
<g>
	<rect opacity="0" fill="#FFFFFF" width="56" height="56"/>
	<rect x="7.5" y="48" fill="#8DC63F" width="40" height="2"/>
	<g>
		<rect x="26" y="26" fill="#FBB040" width="2" height="8"/>
		<rect x="39" y="44" fill="#FBB040" width="8" height="2"/>
		<rect x="7" y="44" fill="#FBB040" width="8" height="2"/>
		
			<rect x="15.392" y="32.393" transform="matrix(-0.7074 0.7069 -0.7069 -0.7074 53.0059 48.8411)" fill="#FBB040" width="2.002" height="6.001"/>
		
			<rect x="36.607" y="32.393" transform="matrix(-0.7069 -0.7074 0.7074 -0.7069 39.1557 87.0119)" fill="#FBB040" width="2" height="6"/>
		<path fill="#FBE200" d="M35.941,45.001c-0.037-0.34-0.1-0.673-0.174-1C34.857,39.994,31.281,37,27,37s-7.857,2.994-8.766,7.001
			c-0.076,0.327-0.139,0.66-0.176,1C18.023,45.329,18,45.662,18,46v0.001h18V46C36,45.662,35.979,45.329,35.941,45.001z"/>
		<g>
			<rect x="26" y="10" fill="#FFFFFF" width="2" height="6"/>
			<rect x="24" y="12" fill="#FFFFFF" width="6" height="2"/>
			<rect x="22" y="10" fill="#FFFFFF" width="10" height="2"/>
		</g>
	</g>
</g>
</svg>
