<?xml version="1.0" encoding="utf-8"?>
<!-- Generator: Adobe Illustrator 19.0.0, SVG Export Plug-In . SVG Version: 6.00 Build 0)  -->
<svg version="1.1" id="Layer_1" xmlns="http://www.w3.org/2000/svg" xmlns:xlink="http://www.w3.org/1999/xlink" x="0px" y="0px"
	 viewBox="0 0 56 56" style="enable-background:new 0 0 56 56;" xml:space="preserve">
<style type="text/css">
	.st0{fill:#FFFFFF;fill-opacity:0;}
	.st1{fill:#FFFFFF;}
	.st2{fill:#A1A4AC;}
</style>
<g id="XMLID_2_">
	<rect id="XMLID_38_" class="st0" width="56" height="56"/>
	<g id="XMLID_35_">
		<rect id="XMLID_37_" x="46" y="40" class="st1" width="2" height="6"/>
		<rect id="XMLID_36_" x="44" y="42" class="st1" width="6" height="2"/>
	</g>
	<g id="XMLID_32_">
		<rect id="XMLID_34_" x="10" y="38" class="st1" width="2" height="6"/>
		<rect id="XMLID_33_" x="8" y="40" class="st1" width="6" height="2"/>
	</g>
	<g id="XMLID_30_">
		<path id="XMLID_31_" class="st2" d="M48.3,26.2c0-3.8-2.7-7-6.4-7.6c0-0.3,0-0.6,0-0.9c0-5.4-4.4-9.7-9.7-9.7
			c-4.2,0-7.7,2.6-9.1,6.3c-0.9-1-2.2-1.6-3.7-1.6c-2.8,0-5,2.2-5,5c0,0.3,0,0.6,0.1,1C10.8,19.2,8,22.4,8,26.2
			c0,4.3,3.5,7.8,7.8,7.8h2.7c0.4-0.4,0.9-0.6,1.5-0.7c0-0.2,0-0.3,0-0.5c0-0.1,0-0.3,0-0.4c-1.3-0.2-2.4-1.3-2.6-2.8
			c0-0.3,0-0.6,0-0.9C16.9,28,16.7,27,16.9,26c0.4-1.4,1.6-2.4,3-2.4c0.1,0,0.3,0,0.4,0c0.6-0.5,1.3-0.8,2.1-0.8
			c0.9,0,1.8,0.4,2.3,1.1c0.2-0.2,0.5-0.3,0.8-0.5c-0.4-1.1-0.1-2.4,0.7-3.2c0.3-0.3,0.8-0.6,1.2-0.8c0.5-1.1,1.6-1.9,2.9-1.9
			s2.4,0.8,2.9,1.9c0.5,0.2,0.9,0.4,1.2,0.8c0.9,0.9,1.1,2.1,0.7,3.2c0.3,0.1,0.5,0.3,0.8,0.5c0.6-0.7,1.4-1.1,2.3-1.1
			c0.8,0,1.5,0.3,2.1,0.8c0.1,0,0.3,0,0.4,0c1.4,0,2.6,1,3,2.4c0.3,1,0,1.9-0.5,2.7c0.1,0.3,0.1,0.6,0,0.9C43,31,42,32.1,40.6,32.4
			c0,0.1,0,0.2,0,0.4s0,0.4,0,0.5c0.5,0.1,0.9,0.3,1.3,0.6C45.6,33.1,48.3,30,48.3,26.2z"/>
	</g>
	<g id="XMLID_5_">
		<path id="XMLID_29_" class="st1" d="M29.3,20.7c0,8.1,0,16.1,0,24.2c0,1.4,2.2,1.4,2.2,0c0-8.1,0-16.1,0-24.2
			C31.5,19.3,29.3,19.3,29.3,20.7z"/>
		<path id="XMLID_28_" class="st1" d="M31.2,23.8c-0.6-0.7-1.3-1.4-1.9-2.1c-0.4-0.4-1.1-0.4-1.6,0c-0.4,0.4-0.4,1.1,0,1.6
			c0.6,0.7,1.3,1.4,1.9,2.1c0.4,0.4,1.1,0.4,1.6,0C31.6,24.9,31.6,24.2,31.2,23.8z"/>
		<path id="XMLID_27_" class="st1" d="M31.2,25.3c0.6-0.7,1.3-1.4,1.9-2.1c0.4-0.4,0.4-1.1,0-1.6c-0.4-0.4-1.1-0.4-1.6,0
			c-0.6,0.7-1.3,1.4-1.9,2.1c-0.4,0.4-0.4,1.1,0,1.6C30.1,25.7,30.8,25.8,31.2,25.3z"/>
		<path id="XMLID_26_" class="st1" d="M29.6,40.3c-0.6,0.7-1.3,1.4-1.9,2.1c-0.4,0.4-0.4,1.1,0,1.6c0.4,0.4,1.1,0.4,1.6,0
			c0.6-0.7,1.3-1.4,1.9-2.1c0.4-0.4,0.4-1.1,0-1.6C30.8,39.9,30.1,39.9,29.6,40.3z"/>
		<path id="XMLID_25_" class="st1" d="M29.6,41.9c0.6,0.7,1.3,1.4,1.9,2.1c0.4,0.4,1.1,0.4,1.6,0c0.4-0.4,0.4-1.1,0-1.6
			c-0.6-0.7-1.3-1.4-1.9-2.1c-0.4-0.4-1.1-0.4-1.6,0C29.2,40.8,29.2,41.4,29.6,41.9z"/>
		<path id="XMLID_24_" class="st1" d="M29.9,28.2c1.6,0.9,3.2,1.9,4.9,2.8c1.2,0.7,2.3-1.2,1.1-1.9c-1.6-0.9-3.2-1.9-4.9-2.8
			C29.7,25.6,28.6,27.5,29.9,28.2z"/>
		<path id="XMLID_23_" class="st1" d="M34.2,30c0,1.9,0,3.7,0,5.6c0,1.4,2.2,1.4,2.2,0c0-1.9,0-3.7,0-5.6
			C36.4,28.6,34.2,28.6,34.2,30z"/>
		<path id="XMLID_22_" class="st1" d="M34.7,34.7c-1.6,0.9-3.2,1.9-4.9,2.8c-1.2,0.7-0.1,2.6,1.1,1.9c1.6-0.9,3.2-1.9,4.9-2.8
			C37.1,35.9,36,34,34.7,34.7z"/>
		<path id="XMLID_21_" class="st1" d="M31,37.5c-1.6-0.9-3.2-1.9-4.9-2.8c-1.2-0.7-2.3,1.2-1.1,1.9c1.6,0.9,3.2,1.9,4.9,2.8
			C31.1,40.1,32.2,38.2,31,37.5z"/>
		<path id="XMLID_20_" class="st1" d="M26.7,35.6c0-1.9,0-3.7,0-5.6c0-1.4-2.2-1.4-2.2,0c0,1.9,0,3.7,0,5.6
			C24.5,37,26.7,37,26.7,35.6z"/>
		<path id="XMLID_19_" class="st1" d="M26.1,31c1.6-0.9,3.2-1.9,4.9-2.8c1.2-0.7,0.1-2.6-1.1-1.9c-1.6,0.9-3.2,1.9-4.9,2.8
			C23.8,29.8,24.9,31.7,26.1,31z"/>
		<path id="XMLID_18_" class="st1" d="M20.5,39.8c7-4,14-8.1,21-12.1c1.2-0.7,0.1-2.6-1.1-1.9c-7,4-14,8.1-21,12.1
			C18.1,38.6,19.3,40.5,20.5,39.8z"/>
		<path id="XMLID_17_" class="st1" d="M22.2,36.7c-0.3,0.9-0.5,1.8-0.8,2.7c-0.4,1.4,1.7,1.9,2.1,0.6c0.3-0.9,0.5-1.8,0.8-2.7
			C24.7,35.9,22.6,35.3,22.2,36.7z"/>
		<path id="XMLID_16_" class="st1" d="M23.5,35.9c-0.9-0.2-1.8-0.4-2.7-0.6c-1.4-0.3-2,1.8-0.6,2.1c0.9,0.2,1.8,0.4,2.7,0.6
			C24.3,38.3,24.9,36.2,23.5,35.9z"/>
		<path id="XMLID_15_" class="st1" d="M37.3,29.7c0.9,0.2,1.8,0.4,2.7,0.6c1.4,0.3,2-1.8,0.6-2.1c-0.9-0.2-1.8-0.4-2.7-0.6
			C36.5,27.3,35.9,29.4,37.3,29.7z"/>
		<path id="XMLID_14_" class="st1" d="M38.6,29c0.3-0.9,0.5-1.8,0.8-2.7c0.4-1.4-1.7-1.9-2.1-0.6c-0.3,0.9-0.5,1.8-0.8,2.7
			C36.1,29.8,38.2,30.3,38.6,29z"/>
		<path id="XMLID_13_" class="st1" d="M41.5,37.9c-7-4-14-8.1-21-12.1c-1.2-0.7-2.3,1.2-1.1,1.9c7,4,14,8.1,21,12.1
			C41.6,40.5,42.7,38.6,41.5,37.9z"/>
		<path id="XMLID_12_" class="st1" d="M23.1,33.9c4.9,0,9.8,0,14.7,0c1.4,0,1.4-2.2,0-2.2c-4.9,0-9.8,0-14.7,0
			C21.6,31.6,21.6,33.9,23.1,33.9z"/>
		<path id="XMLID_11_" class="st1" d="M35.1,38.6c-2.5-4.3-4.9-8.5-7.4-12.8c-0.7-1.2-2.6-0.1-1.9,1.1c2.5,4.3,4.9,8.5,7.4,12.8
			C33.9,40.9,35.8,39.8,35.1,38.6z"/>
		<path id="XMLID_10_" class="st1" d="M33.2,25.8c-2.5,4.3-4.9,8.5-7.4,12.8c-0.7,1.2,1.2,2.3,1.9,1.1c2.5-4.3,4.9-8.5,7.4-12.8
			C35.8,25.7,33.9,24.6,33.2,25.8z"/>
		<path id="XMLID_9_" class="st1" d="M37.9,38c0.9-0.2,1.8-0.4,2.7-0.6c1.4-0.3,0.8-2.4-0.6-2.1c-0.9,0.2-1.8,0.4-2.7,0.6
			C35.9,36.2,36.5,38.3,37.9,38z"/>
		<path id="XMLID_8_" class="st1" d="M36.5,37.3c0.3,0.9,0.5,1.8,0.8,2.7c0.4,1.4,2.5,0.8,2.1-0.6c-0.3-0.9-0.5-1.8-0.8-2.7
			C38.2,35.3,36.1,35.9,36.5,37.3z"/>
		<path id="XMLID_7_" class="st1" d="M24.3,28.4c-0.3-0.9-0.5-1.8-0.8-2.7c-0.4-1.4-2.5-0.8-2.1,0.6c0.3,0.9,0.5,1.8,0.8,2.7
			C22.6,30.3,24.7,29.8,24.3,28.4z"/>
		<path id="XMLID_6_" class="st1" d="M23,27.6c-0.9,0.2-1.8,0.4-2.7,0.6c-1.4,0.3-0.8,2.4,0.6,2.1c0.9-0.2,1.8-0.4,2.7-0.6
			C24.9,29.4,24.3,27.3,23,27.6z"/>
	</g>
	<rect id="XMLID_4_" x="20" y="46" class="st1" width="2" height="2"/>
	<rect id="XMLID_3_" x="36" y="50" class="st1" width="2" height="2"/>
</g>
</svg>
