<?xml version="1.0" encoding="utf-8"?>
<!-- Generator: Adobe Illustrator 16.0.0, SVG Export Plug-In . SVG Version: 6.00 Build 0)  -->
<!DOCTYPE svg PUBLIC "-//W3C//DTD SVG 1.1//EN" "http://www.w3.org/Graphics/SVG/1.1/DTD/svg11.dtd">
<svg version="1.1" id="Layer_1" xmlns="http://www.w3.org/2000/svg" xmlns:xlink="http://www.w3.org/1999/xlink" x="0px" y="0px"
	 width="56px" height="56px" viewBox="0 0 56 56" enable-background="new 0 0 56 56" xml:space="preserve">
<g>
	<rect opacity="0" fill="#FFFFFF" width="56" height="56"/>
	<rect x="26" y="8" fill="#FBE200" width="2" height="8"/>
	<rect x="7" y="27" fill="#FBE200" width="8" height="2"/>
	
		<rect x="15.392" y="14.393" transform="matrix(-0.7074 0.7069 -0.7069 -0.7074 40.2824 18.1088)" fill="#FBE200" width="2.002" height="6.001"/>
	
		<rect x="15.828" y="35.606" transform="matrix(-0.7074 -0.7069 0.7069 -0.7074 1.4437 77.8106)" fill="#FBE200" width="2.002" height="6"/>
	
		<rect x="36.828" y="14.606" transform="matrix(-0.7071 -0.7071 0.7071 -0.7071 52.129 56.8045)" fill="#FBE200" width="2.003" height="6"/>
	<g>
		<path fill="#FBE200" d="M27,19c-4.969,0-9,4.029-9,9c0,2.235,0.82,4.276,2.17,5.851L32.852,21.17C31.277,19.82,29.236,19,27,19z"
			/>
		<path fill="#FBE200" d="M32.852,21.17L20.17,33.851c0.436,0.508,0.93,0.964,1.467,1.364l12.578-12.578
			C33.814,22.099,33.359,21.605,32.852,21.17z"/>
	</g>
	<rect x="22" y="40" fill="#C2B59B" width="2" height="2"/>
	<rect x="26" y="36" fill="#C2B59B" width="2" height="2"/>
	<rect x="30" y="32" fill="#C2B59B" width="2" height="2"/>
	<rect x="34" y="28" fill="#C2B59B" width="2" height="2"/>
	<rect x="38" y="24" fill="#C2B59B" width="2" height="2"/>
	<rect x="42" y="20" fill="#C2B59B" width="2" height="2"/>
	<rect x="18" y="44" fill="#C2B59B" width="2" height="2"/>
	<rect x="26" y="44" fill="#C2B59B" width="2" height="2"/>
	<rect x="30" y="40" fill="#C2B59B" width="2" height="2"/>
	<rect x="34" y="36" fill="#C2B59B" width="2" height="2"/>
	<rect x="38" y="32" fill="#C2B59B" width="2" height="2"/>
	<rect x="46" y="24" fill="#C2B59B" width="2" height="2"/>
	<rect x="30" y="48" fill="#C2B59B" width="2" height="2"/>
	<rect x="34" y="44" fill="#C2B59B" width="2" height="2"/>
	<rect x="38" y="40" fill="#C2B59B" width="2" height="2"/>
	<rect x="42" y="36" fill="#C2B59B" width="2" height="2"/>
	<rect x="46" y="32" fill="#C2B59B" width="2" height="2"/>
	<rect x="38" y="48" fill="#C2B59B" width="2" height="2"/>
	<rect x="42" y="44" fill="#C2B59B" width="2" height="2"/>
	<rect x="46" y="40" fill="#C2B59B" width="2" height="2"/>
	<rect x="46" y="48" fill="#C2B59B" width="2" height="2"/>
</g>
</svg>
