<?xml version="1.0" encoding="utf-8"?>
<!-- Generator: Adobe Illustrator 19.0.0, SVG Export Plug-In . SVG Version: 6.00 Build 0)  -->
<svg version="1.1" id="Layer_1" xmlns="http://www.w3.org/2000/svg" xmlns:xlink="http://www.w3.org/1999/xlink" x="0px" y="0px"
	 viewBox="0 0 56 56" style="enable-background:new 0 0 56 56;" xml:space="preserve">
<style type="text/css">
	.st0{fill:#FFFFFF;fill-opacity:0;}
	.st1{fill:#FBE200;}
	.st2{fill:#C2B59B;}
</style>
<g>
	<rect class="st0" width="56" height="56"/>
	<rect x="26" y="8" class="st1" width="2" height="8"/>
	<rect x="7" y="27" class="st1" width="8" height="2"/>
	<rect x="15.4" y="14.4" transform="matrix(0.7074 -0.7069 0.7069 0.7074 -7.4977 16.6757)" class="st1" width="2" height="6"/>
	<rect x="15.8" y="35.6" transform="matrix(0.7074 0.7069 -0.7069 0.7074 32.2127 -0.5987)" class="st1" width="2" height="6"/>
	<rect x="36.8" y="14.6" transform="matrix(0.7071 0.7071 -0.7071 0.7071 23.5292 -21.5924)" class="st1" width="2" height="6"/>
	<g>
		<path class="st1" d="M27,19c-5,0-9,4-9,9c0,2.2,0.8,4.3,2.2,5.9l12.7-12.7C31.3,19.8,29.2,19,27,19z"/>
		<path class="st1" d="M32.9,21.2L20.2,33.9c0.4,0.5,0.9,1,1.5,1.4l12.6-12.6C33.8,22.1,33.4,21.6,32.9,21.2z"/>
	</g>
	<rect x="22" y="40" class="st2" width="2" height="2"/>
	<rect x="26" y="36" class="st2" width="2" height="2"/>
	<rect x="30" y="32" class="st2" width="2" height="2"/>
	<rect x="34" y="28" class="st2" width="2" height="2"/>
	<rect x="38" y="24" class="st2" width="2" height="2"/>
	<rect x="42" y="20" class="st2" width="2" height="2"/>
	<rect x="18" y="44" class="st2" width="2" height="2"/>
	<rect x="26" y="44" class="st2" width="2" height="2"/>
	<rect x="30" y="40" class="st2" width="2" height="2"/>
	<rect x="34" y="36" class="st2" width="2" height="2"/>
	<rect x="38" y="32" class="st2" width="2" height="2"/>
	<rect x="46" y="24" class="st2" width="2" height="2"/>
	<rect x="30" y="48" class="st2" width="2" height="2"/>
	<rect x="34" y="44" class="st2" width="2" height="2"/>
	<rect x="38" y="40" class="st2" width="2" height="2"/>
	<rect x="42" y="36" class="st2" width="2" height="2"/>
	<rect x="46" y="32" class="st2" width="2" height="2"/>
	<rect x="38" y="48" class="st2" width="2" height="2"/>
	<rect x="42" y="44" class="st2" width="2" height="2"/>
	<rect x="46" y="40" class="st2" width="2" height="2"/>
	<rect x="46" y="48" class="st2" width="2" height="2"/>
</g>
</svg>
