<?xml version="1.0" encoding="utf-8"?>
<!-- Generator: Adobe Illustrator 19.0.0, SVG Export Plug-In . SVG Version: 6.00 Build 0)  -->
<svg version="1.1" id="Layer_1" xmlns="http://www.w3.org/2000/svg" xmlns:xlink="http://www.w3.org/1999/xlink" x="0px" y="0px"
	 viewBox="-71 73 56 56" style="enable-background:new -71 73 56 56;" xml:space="preserve">
<style type="text/css">
	.st0{fill:#FFFFFF;fill-opacity:0;}
	.st1{fill:#9FC9EB;}
	.st2{fill:#FFFFFF;}
	.st3{fill:#FBF49C;}
</style>
<g id="XMLID_2_">
	<g id="XMLID_7_">
		<g id="XMLID_8_">
			<rect id="XMLID_18_" x="-71" y="73" class="st0" width="56" height="56"/>
			<rect id="XMLID_17_" x="-31" y="107" class="st1" width="2" height="4"/>
			<rect id="XMLID_16_" x="-35" y="107" class="st1" width="2" height="6"/>
			<rect id="XMLID_15_" x="-39" y="107" class="st1" width="2" height="10"/>
			<g id="XMLID_12_">
				<path id="XMLID_14_" class="st2" d="M-55.5,105.1c-4.3,0-7.8-3.5-7.8-7.8c0-3.9,2.8-7,6.5-7.7c-0.1-0.3-0.1-0.6-0.1-1
					c0-2.8,2.2-5,5-5c1.5,0,2.8,0.6,3.7,1.6c1.4-3.6,5-6.2,9.1-6.2c5.4,0,9.7,4.4,9.7,9.7c0,0.3,0,0.6,0,0.9
					c3.6,0.7,6.4,3.8,6.4,7.6c0,4.3-3.5,7.8-7.8,7.8L-55.5,105.1L-55.5,105.1z"/>
			</g>
			<rect id="XMLID_11_" x="-57" y="107" class="st1" width="2" height="8"/>
			<rect id="XMLID_10_" x="-61" y="107" class="st1" width="2" height="4"/>
			<rect id="XMLID_9_" x="-53" y="107" class="st1" width="2" height="4"/>
		</g>
	</g>
	<g id="XMLID_3_">
		<polygon id="XMLID_13_" class="st3" points="-45.4,107 -41,107 -45,112.7 -41,112.7 -51,123 -47,114.9 -51,114.9 		"/>
	</g>
</g>
</svg>
