<?xml version="1.0" encoding="utf-8"?>
<!-- Generator: Adobe Illustrator 19.0.0, SVG Export Plug-In . SVG Version: 6.00 Build 0)  -->
<svg version="1.1" id="Layer_1" xmlns="http://www.w3.org/2000/svg" xmlns:xlink="http://www.w3.org/1999/xlink" x="0px" y="0px"
	 viewBox="0 0 56 56" style="enable-background:new 0 0 56 56;" xml:space="preserve">
<style type="text/css">
	.st0{fill:#FFFFFF;fill-opacity:0;}
	.st1{fill:#FFFFFF;}
	.st2{fill:#F9EF6B;}
	.st3{fill:#FBE200;}
</style>
<g>
	<rect class="st0" width="56" height="56"/>
	<rect x="7.5" y="32" class="st1" width="10" height="2"/>
	<rect x="39.5" y="32" class="st1" width="8" height="2"/>
	<rect x="19.5" y="32" class="st2" width="18" height="2"/>
	<rect x="7.5" y="36" class="st1" width="14" height="2"/>
	<rect x="33.5" y="36" class="st1" width="14" height="2"/>
	<rect x="23.5" y="36" class="st2" width="8" height="2"/>
	<rect x="7.5" y="40" class="st1" width="40" height="2"/>
	<g>
		<rect x="26" y="10" class="st3" width="2" height="8"/>
		<rect x="39" y="28" class="st3" width="8" height="2"/>
		<rect x="7" y="28" class="st3" width="8" height="2"/>
		<rect x="15.4" y="16.4" transform="matrix(0.7074 -0.7069 0.7069 0.7074 -8.9113 17.2608)" class="st3" width="2" height="6"/>
		<rect x="36.6" y="16.4" transform="matrix(0.7069 0.7074 -0.7074 0.7069 24.74 -20.9179)" class="st3" width="2" height="6"/>
		<path class="st3" d="M35.9,29c0-0.3-0.1-0.7-0.2-1c-0.9-4-4.5-7-8.8-7s-7.9,3-8.8,7c-0.1,0.3-0.1,0.7-0.2,1c0,0.3-0.1,0.7-0.1,1v0
			h18v0C36,29.7,36,29.3,35.9,29z"/>
	</g>
</g>
</svg>
