<?xml version="1.0" encoding="utf-8"?>
<!-- Generator: Adobe Illustrator 19.0.0, SVG Export Plug-In . SVG Version: 6.00 Build 0)  -->
<svg version="1.1" id="Layer_1" xmlns="http://www.w3.org/2000/svg" xmlns:xlink="http://www.w3.org/1999/xlink" x="0px" y="0px"
	 viewBox="-71 73 56 56" style="enable-background:new -71 73 56 56;" xml:space="preserve">
<style type="text/css">
	.st0{fill:#FFFFFF;fill-opacity:0;}
	.st1{fill:#FFFFFF;}
	.st2{fill:#FBF49C;}
</style>
<g id="XMLID_2_">
	<rect id="XMLID_20_" x="-71" y="73" class="st0" width="56" height="56"/>
	<g id="XMLID_18_">
		<path id="XMLID_19_" class="st1" d="M-29.4,89.6c0-0.3,0-0.6,0-0.9c0-5.4-4.4-9.7-9.7-9.7c-4.2,0-7.7,2.6-9.1,6.3
			c-0.9-1-2.2-1.6-3.7-1.6c-2.8,0-5,2.2-5,5c0,0.3,0,0.6,0.1,1c-3.7,0.6-6.5,3.8-6.5,7.7c0,4.3,3.5,7.8,7.8,7.8h3.8l3.5-6.1H-37
			l-4,6.1h10.2c4.3,0,7.8-3.5,7.8-7.8C-23,93.5-25.8,90.3-29.4,89.6z"/>
	</g>
	<g id="XMLID_12_">
		<polygon id="XMLID_17_" class="st2" points="-46.5,101 -41,101 -47,109 -41,109 -53,119 -49,111.1 -53,111.1 		"/>
	</g>
	<g id="XMLID_9_">
		<polygon id="XMLID_15_" class="st2" points="-37,107 -35,107 -37.7,111 -35,111 -41,117 -39,113 -41,113 		"/>
	</g>
	<g id="XMLID_3_">
		<polygon id="XMLID_13_" class="st2" points="-57,107 -55,107 -57.7,111 -55,111 -61,117 -59,113 -61,113 		"/>
	</g>
</g>
</svg>
