<?xml version="1.0" encoding="utf-8"?>
<!-- Generator: Adobe Illustrator 19.0.0, SVG Export Plug-In . SVG Version: 6.00 Build 0)  -->
<svg version="1.1" id="Layer_1" xmlns="http://www.w3.org/2000/svg" xmlns:xlink="http://www.w3.org/1999/xlink" x="0px" y="0px"
	 viewBox="0 0 56 56" style="enable-background:new 0 0 56 56;" xml:space="preserve">
<style type="text/css">
	.st0{opacity:0;fill:#FFFFFF;}
	.st1{fill:#D1D3D4;}
</style>
<g id="XMLID_2_">
	<rect id="XMLID_7_" x="0" class="st0" width="56" height="56"/>
	<path id="XMLID_6_" class="st1" d="M36.5,27.9H9.7c-0.7,0-1.3,0.6-1.3,1.3c0,0.7,0.6,1.3,1.3,1.3h26.9c2.5,0,4.5,2,4.5,4.5
		c0,2.5-2,4.5-4.5,4.5c-0.7,0-1.3,0.6-1.3,1.3c0,0.7,0.6,1.3,1.3,1.3c3.9,0,7.1-3.2,7.1-7.1S40.4,27.9,36.5,27.9z"/>
	<path id="XMLID_5_" class="st1" d="M30.7,34H9.2C8.5,34,8,34.5,8,35.2c0,0.6,0.5,1.2,1.2,1.2h21.6c0.3,0,0.6,0.3,0.6,0.6
		c0,0.3-0.3,0.6-0.6,0.6c-0.6,0-1.2,0.5-1.2,1.2c0,0.6,0.5,1.2,1.2,1.2c1.6,0,2.9-1.3,2.9-2.9C33.6,35.3,32.3,34,30.7,34z"/>
	<path id="XMLID_4_" class="st1" d="M47.1,22.2c-0.6,0-1.2,0.5-1.2,1.2c0,0.6,0.5,1.2,1.2,1.2c0.3,0,0.6,0.3,0.6,0.6
		c0,0.3-0.3,0.6-0.6,0.6h-2.3c-0.6,0-1.2,0.5-1.2,1.2c0,0.6,0.5,1.2,1.2,1.2h2.3c1.6,0,2.9-1.3,2.9-2.9C50,23.5,48.7,22.2,47.1,22.2
		z"/>
	<path id="XMLID_3_" class="st1" d="M9.3,24.5h29.3c2.9,0,5.2-2.4,5.2-5.2S41.5,14,38.6,14c-2.9,0-5.2,2.4-5.2,5.2
		c0,0.7,0.6,1.3,1.3,1.3c0.7,0,1.3-0.6,1.3-1.3c0-1.4,1.2-2.6,2.6-2.6c1.4,0,2.6,1.2,2.6,2.6s-1.2,2.6-2.6,2.6H9.3
		c-0.7,0-1.3,0.6-1.3,1.3C8,23.9,8.6,24.5,9.3,24.5z"/>
</g>
</svg>
