<?xml version="1.0" encoding="utf-8"?>
<!-- Generator: Adobe Illustrator 19.0.0, SVG Export Plug-In . SVG Version: 6.00 Build 0)  -->
<svg version="1.1" id="Layer_1" xmlns="http://www.w3.org/2000/svg" xmlns:xlink="http://www.w3.org/1999/xlink" x="0px" y="0px"
	 viewBox="-71 73 56 56" style="enable-background:new -71 73 56 56;" xml:space="preserve">
<style type="text/css">
	.st0{fill:#FFFFFF;fill-opacity:0;}
	.st1{fill:#BFC9CD;}
	.st2{fill:#FBF49C;}
	.st3{fill:#9FC9EB;}
</style>
<g id="XMLID_2_">
	<g id="XMLID_16_">
		<rect id="XMLID_22_" x="-71" y="73" class="st0" width="56" height="56"/>
		<g id="XMLID_20_">
			<path id="XMLID_21_" class="st1" d="M-29.4,89.6c0-0.3,0-0.6,0-0.9c0-5.4-4.4-9.7-9.7-9.7c-4.2,0-7.7,2.6-9.1,6.3
				c-0.9-1-2.2-1.6-3.7-1.6c-2.8,0-5,2.2-5,5c0,0.3,0,0.6,0.1,1c-3.7,0.6-6.5,3.8-6.5,7.7c0,4.3,3.5,7.8,7.8,7.8h3.8l3.5-6.1H-37
				l-4,6.1h10.2c4.3,0,7.8-3.5,7.8-7.8C-23,93.5-25.8,90.3-29.4,89.6z"/>
		</g>
		<g id="XMLID_17_">
			<polygon id="XMLID_13_" class="st2" points="-46.5,101 -41,101 -47,109 -41,109 -53,119 -49,111.1 -53,111.1 			"/>
		</g>
	</g>
	<g id="XMLID_3_">
		<g id="XMLID_4_">
			<g id="XMLID_5_">
				<rect id="XMLID_15_" x="-31" y="107" class="st3" width="2" height="2"/>
				<rect id="XMLID_14_" x="-35" y="107" class="st3" width="2" height="4"/>
				<rect id="XMLID_12_" x="-39" y="107" class="st3" width="2" height="2"/>
				<rect id="XMLID_11_" x="-39" y="111" class="st3" width="2" height="2"/>
				<rect id="XMLID_10_" x="-61" y="111" class="st3" width="2" height="2"/>
				<rect id="XMLID_9_" x="-31" y="111" class="st3" width="2" height="2"/>
				<rect id="XMLID_8_" x="-57" y="107" class="st3" width="2" height="4"/>
				<rect id="XMLID_7_" x="-61" y="107" class="st3" width="2" height="2"/>
			</g>
		</g>
	</g>
</g>
</svg>
