<?xml version="1.0" encoding="utf-8"?>
<!-- Generator: Adobe Illustrator 19.0.0, SVG Export Plug-In . SVG Version: 6.00 Build 0)  -->
<svg version="1.1" id="Layer_1" xmlns="http://www.w3.org/2000/svg" xmlns:xlink="http://www.w3.org/1999/xlink" x="0px" y="0px"
	 viewBox="0 0 56 56" style="enable-background:new 0 0 56 56;" xml:space="preserve">
<style type="text/css">
	.st0{opacity:0;fill:#FFFFFF;}
	.st1{fill:#FFFFFF;}
	.st2{fill:#D1D3D4;}
</style>
<g id="XMLID_2_">
	<rect id="XMLID_9_" x="0" class="st0" width="56" height="56"/>
	<g id="XMLID_7_">
		<path id="XMLID_8_" class="st1" d="M12.5,25.6h-2.4c-2.9,0-5.3-2.4-5.3-5.3c0-2.6,1.9-4.8,4.4-5.2c0-0.2-0.1-0.4-0.1-0.6
			c0-1.9,1.5-3.4,3.4-3.4c1,0,1.9,0.4,2.5,1.1C16,9.8,18.4,8,21.2,8c3.6,0,6.6,2.9,6.6,6.6c0,0.2,0,0.4,0,0.6
			c2.4,0.5,4.3,2.6,4.3,5.2c0,2.9-2.4,5.3-5.3,5.3h-7.3H12.5z"/>
	</g>
	<path id="XMLID_6_" class="st2" d="M36.9,33.9H17.7c-0.7,0-1.3,0.6-1.3,1.3c0,0.7,0.6,1.3,1.3,1.3h19.3c2.5,0,4.5,2,4.5,4.5
		c0,2.5-2,4.5-4.5,4.5c-0.7,0-1.3,0.6-1.3,1.3c0,0.7,0.6,1.3,1.3,1.3c3.9,0,7.1-3.2,7.1-7.1S40.8,33.9,36.9,33.9z"/>
	<path id="XMLID_5_" class="st2" d="M31.1,40h-14c-0.6,0-1.2,0.5-1.2,1.2c0,0.6,0.5,1.2,1.2,1.2h14c0.3,0,0.6,0.3,0.6,0.6
		c0,0.3-0.3,0.6-0.6,0.6c-0.6,0-1.2,0.5-1.2,1.2c0,0.6,0.5,1.2,1.2,1.2c1.6,0,2.9-1.3,2.9-2.9C34,41.3,32.7,40,31.1,40z"/>
	<path id="XMLID_4_" class="st2" d="M47.5,28.2c-0.6,0-1.2,0.5-1.2,1.2c0,0.6,0.5,1.2,1.2,1.2c0.3,0,0.6,0.3,0.6,0.6
		c0,0.3-0.3,0.6-0.6,0.6h-2.3c-0.6,0-1.2,0.5-1.2,1.2c0,0.6,0.5,1.2,1.2,1.2h2.3c1.6,0,2.9-1.3,2.9-2.9
		C50.4,29.5,49.1,28.2,47.5,28.2z"/>
	<path id="XMLID_3_" class="st2" d="M17.3,30.5H39c2.9,0,5.2-2.4,5.2-5.2S41.9,20,39,20c-2.9,0-5.2,2.4-5.2,5.2
		c0,0.7,0.6,1.3,1.3,1.3c0.7,0,1.3-0.6,1.3-1.3c0-1.4,1.2-2.6,2.6-2.6c1.4,0,2.6,1.2,2.6,2.6s-1.2,2.6-2.6,2.6H17.3
		c-0.7,0-1.3,0.6-1.3,1.3C16,29.9,16.6,30.5,17.3,30.5z"/>
</g>
</svg>
