<?xml version="1.0" encoding="utf-8"?>
<!-- Generator: Adobe Illustrator 16.0.0, SVG Export Plug-In . SVG Version: 6.00 Build 0)  -->
<!DOCTYPE svg PUBLIC "-//W3C//DTD SVG 1.1//EN" "http://www.w3.org/Graphics/SVG/1.1/DTD/svg11.dtd">
<svg version="1.1" id="Layer_1" xmlns="http://www.w3.org/2000/svg" xmlns:xlink="http://www.w3.org/1999/xlink" x="0px" y="0px"
	 width="56px" height="56px" viewBox="0 0 56 56" enable-background="new 0 0 56 56" xml:space="preserve">
<g>
	<rect opacity="0" fill="#FFFFFF" width="56" height="56"/>
	<g>
		<path fill="#FFFFFF" d="M26.918,28.142c-0.459-0.266-0.92-0.531-1.379-0.797c0-0.38,0-0.76,0-1.141c0.469,0,0.938,0,1.406,0
			c0.225,0,0.4-0.068,0.555-0.161v-1.881c-0.154-0.093-0.33-0.161-0.555-0.161c-0.469,0-0.938,0-1.406,0c0-0.331,0-0.662,0-0.993
			c0.461-0.266,0.922-0.532,1.383-0.798c0.191,0.045,0.385,0.09,0.578,0.134v-5.053c-0.426,0.012-0.842,0.245-1.002,0.768
			c-0.227,0.749-0.455,1.497-0.682,2.246c-0.459,0.265-0.918,0.53-1.379,0.796c-0.318-0.184-0.637-0.369-0.957-0.553
			c0.244-0.422,0.488-0.845,0.732-1.267c0.713-1.233-1.191-2.341-1.9-1.112c-0.246,0.426-0.492,0.852-0.738,1.278
			c-0.297-0.172-0.596-0.344-0.893-0.516c0-0.531,0-1.062,0-1.594c0.531-0.569,1.064-1.138,1.598-1.708
			c0.408-0.438,0.434-1.123,0-1.557c-0.416-0.415-1.148-0.439-1.559,0c-0.014,0.014-0.025,0.029-0.039,0.043
			c0-0.351,0-0.701,0-1.051c0-1.42-2.201-1.42-2.201,0c0,0.351,0,0.701,0,1.052c-0.014-0.015-0.027-0.029-0.041-0.044
			c-0.41-0.439-1.143-0.415-1.557,0c-0.434,0.434-0.41,1.119,0,1.557c0.531,0.569,1.064,1.138,1.598,1.708c0,0.532,0,1.063,0,1.594
			c-0.299,0.172-0.596,0.344-0.895,0.516c-0.244-0.426-0.49-0.852-0.736-1.278c-0.709-1.229-2.613-0.121-1.9,1.112
			c0.244,0.422,0.486,0.845,0.73,1.267c-0.318,0.184-0.637,0.368-0.955,0.552c-0.461-0.266-0.922-0.532-1.381-0.797
			c-0.229-0.748-0.455-1.496-0.684-2.244c-0.41-1.354-2.535-0.777-2.123,0.586c0.004,0.015,0.01,0.031,0.014,0.046
			c-0.301-0.174-0.604-0.348-0.904-0.522c-1.232-0.711-2.34,1.191-1.111,1.901c0.305,0.177,0.611,0.353,0.916,0.53
			c-0.02,0.005-0.041,0.01-0.062,0.015c-1.383,0.321-0.797,2.445,0.586,2.124c0.756-0.176,1.512-0.352,2.268-0.528
			c0.461,0.266,0.92,0.531,1.381,0.797c0,0.331,0,0.662,0,0.994c-0.469,0-0.938,0-1.406,0c-1.422,0-1.422,2.202,0,2.202
			c0.469,0,0.938,0,1.406,0c0,0.38,0,0.761,0,1.141c-0.461,0.266-0.922,0.532-1.383,0.798c-0.756-0.176-1.512-0.351-2.268-0.527
			c-1.383-0.321-1.969,1.802-0.586,2.124c0.021,0.005,0.041,0.01,0.062,0.015c-0.305,0.177-0.609,0.353-0.914,0.528
			c-1.229,0.708-0.119,2.611,1.111,1.9c0.303-0.174,0.604-0.348,0.906-0.522c-0.004,0.016-0.01,0.031-0.014,0.048
			c-0.414,1.361,1.711,1.939,2.123,0.585c0.229-0.748,0.455-1.496,0.682-2.244c0.461-0.266,0.92-0.531,1.381-0.797
			c0.297,0.171,0.594,0.343,0.891,0.515c-0.223,0.387-0.445,0.773-0.668,1.16c-0.711,1.232,1.191,2.339,1.9,1.111
			c0.225-0.391,0.451-0.78,0.676-1.17c0.318,0.184,0.639,0.368,0.957,0.553c0,0.531,0,1.062,0,1.595
			c-0.533,0.568-1.066,1.138-1.598,1.708c-0.41,0.437-0.434,1.121,0,1.557c0.414,0.414,1.146,0.438,1.557,0
			c0.014-0.016,0.027-0.029,0.041-0.045c0,0.352,0,0.701,0,1.053c0,1.42,2.201,1.42,2.201,0c0-0.351,0-0.701,0-1.051
			c0.014,0.014,0.025,0.028,0.039,0.043c0.41,0.438,1.145,0.414,1.559,0c0.434-0.436,0.408-1.12,0-1.557
			c-0.533-0.569-1.066-1.139-1.598-1.708c0-0.532,0-1.063,0-1.595c0.318-0.185,0.637-0.369,0.957-0.553
			c0.225,0.39,0.449,0.779,0.674,1.17c0.709,1.228,2.613,0.119,1.902-1.111c-0.225-0.387-0.447-0.773-0.67-1.16
			c0.297-0.172,0.596-0.344,0.893-0.516c0.461,0.266,0.92,0.531,1.381,0.797c0.227,0.748,0.455,1.497,0.682,2.245
			c0.158,0.523,0.574,0.756,1,0.769v-5.056C27.307,28.052,27.111,28.097,26.918,28.142z"/>
		<g>
			<path fill="#FFFFFF" d="M26.051,42.023c0-2.722,1.379-5.104,3.449-6.533V14.089c0-2.5,2.027-4.523,4.525-4.525
				c2.496,0.002,4.523,2.026,4.523,4.525V35.49C40.621,36.922,42,39.305,42,42.024c-0.002,4.404-3.574,7.974-7.979,7.976
				C29.619,49.996,26.055,46.429,26.051,42.023z"/>
			<path fill="#27AAE1" d="M35.393,38.295V32h-2.596v6.295c-1.557,0.539-2.676,2.014-2.676,3.751c0,2.194,1.777,3.972,3.971,3.972
				c2.195,0,3.973-1.777,3.973-3.972C38.066,40.309,36.947,38.834,35.393,38.295z"/>
		</g>
	</g>
</g>
</svg>
