<?xml version="1.0" encoding="utf-8"?>
<!-- Generator: Adobe Illustrator 16.0.0, SVG Export Plug-In . SVG Version: 6.00 Build 0)  -->
<!DOCTYPE svg PUBLIC "-//W3C//DTD SVG 1.1//EN" "http://www.w3.org/Graphics/SVG/1.1/DTD/svg11.dtd">
<svg version="1.1" id="Layer_1" xmlns="http://www.w3.org/2000/svg" xmlns:xlink="http://www.w3.org/1999/xlink" x="0px" y="0px"
	 width="56px" height="56px" viewBox="0 0 56 56" enable-background="new 0 0 56 56" xml:space="preserve">
<g>
	<rect opacity="0" fill="#FFFFFF" width="56" height="56"/>
	<g>
		<g>
			<path fill="#FFFFFF" d="M46.235,23.513c1.552-0.587,2.79-1.637,3.638-2.93c-3.152,1.076-6.611-0.581-7.736-3.725
				c-1.098-3.075,0.436-6.466,3.423-7.701c-1.491-0.411-3.117-0.38-4.67,0.206c-3.407,1.288-5.347,4.798-4.797,8.264
				c2.16,1.328,3.825,3.379,4.658,5.816C42.449,24.127,44.395,24.209,46.235,23.513z"/>
		</g>
		<rect x="8" y="8" fill="#FFFFFF" width="2" height="2"/>
		<g>
			<rect x="20" y="8" fill="#FFFFFF" width="2" height="6"/>
			<rect x="18" y="10" fill="#FFFFFF" width="6" height="2"/>
		</g>
		<g>
			<rect x="10" y="16" fill="#FFFFFF" width="2" height="6"/>
			<rect x="8" y="18" fill="#FFFFFF" width="6" height="2"/>
		</g>
		<path fill="#A1A4AC" d="M39.303,27.83c0.031-0.278,0.041-0.562,0.041-0.848c0-4.963-4.021-8.982-8.982-8.982
			c-3.848,0-7.125,2.426-8.401,5.832c-0.846-0.93-2.052-1.521-3.408-1.521c-2.556,0-4.625,2.068-4.625,4.624
			c0,0.303,0.031,0.595,0.089,0.882C10.608,28.381,8,31.319,8,34.883c0,3.971,3.216,7.186,7.184,7.186h22.814
			c3.969,0,7.186-3.215,7.186-7.186C45.184,31.362,42.645,28.448,39.303,27.83z"/>
	</g>
</g>
</svg>
