<?xml version="1.0" encoding="utf-8"?>
<!-- Generator: Adobe Illustrator 16.0.0, SVG Export Plug-In . SVG Version: 6.00 Build 0)  -->
<!DOCTYPE svg PUBLIC "-//W3C//DTD SVG 1.1//EN" "http://www.w3.org/Graphics/SVG/1.1/DTD/svg11.dtd">
<svg version="1.1" id="Layer_1" xmlns="http://www.w3.org/2000/svg" xmlns:xlink="http://www.w3.org/1999/xlink" x="0px" y="0px"
	 width="56px" height="56px" viewBox="0 0 56 56" enable-background="new 0 0 56 56" xml:space="preserve">
<g>
	<rect opacity="0" fill="#FFFFFF" width="56" height="56"/>
	<path fill="#FFFFFF" d="M29.217,43.289c2.893-1.096,5.203-3.052,6.783-5.464c-5.877,2.007-12.328-1.084-14.426-6.946
		c-2.049-5.735,0.811-12.059,6.383-14.363c-2.783-0.767-5.814-0.709-8.709,0.384c-7.27,2.747-10.957,10.915-8.211,18.181
		C13.781,42.346,21.949,46.038,29.217,43.289z"/>
	<rect x="34" y="10" fill="#FFFFFF" width="2" height="2"/>
	<g>
		<rect x="44" y="12" fill="#FFFFFF" width="2" height="6"/>
		<rect x="42" y="14" fill="#FFFFFF" width="6" height="2"/>
	</g>
	<g>
		<rect x="36" y="20" fill="#FFFFFF" width="2" height="6"/>
		<rect x="34" y="22" fill="#FFFFFF" width="6" height="2"/>
	</g>
</g>
</svg>
