<?xml version="1.0" encoding="utf-8"?>
<!-- Generator: Adobe Illustrator 19.0.0, SVG Export Plug-In . SVG Version: 6.00 Build 0)  -->
<svg version="1.1" id="Layer_1" xmlns="http://www.w3.org/2000/svg" xmlns:xlink="http://www.w3.org/1999/xlink" x="0px" y="0px"
	 viewBox="0 0 56 56" style="enable-background:new 0 0 56 56;" xml:space="preserve">
<style type="text/css">
	.st0{opacity:0;fill:#FFFFFF;}
	.st1{fill:#FBE200;}
</style>
<g id="XMLID_2_">
	<rect id="XMLID_13_" x="0" class="st0" width="56" height="56"/>
	<g id="XMLID_3_">
		<circle id="XMLID_12_" class="st1" cx="27" cy="28" r="9"/>
		<rect id="XMLID_11_" x="26" y="8" class="st1" width="2" height="8"/>
		<rect id="XMLID_10_" x="26" y="40" class="st1" width="2" height="8"/>
		<rect id="XMLID_9_" x="39" y="27" class="st1" width="8" height="2"/>
		
			<rect id="XMLID_8_" x="36.6" y="35.6" transform="matrix(-0.7069 0.7074 -0.7074 -0.7069 91.499 39.2937)" class="st1" width="2" height="6"/>
		<rect id="XMLID_7_" x="7" y="27" class="st1" width="8" height="2"/>
		
			<rect id="XMLID_6_" x="15.4" y="14.4" transform="matrix(-0.7074 0.7069 -0.7069 -0.7074 40.2824 18.109)" class="st1" width="2" height="6"/>
		
			<rect id="XMLID_5_" x="15.4" y="35.6" transform="matrix(-0.7074 -0.7068 0.7068 -0.7074 0.7016 77.5033)" class="st1" width="2" height="6"/>
		
			<rect id="XMLID_4_" x="36.6" y="14.4" transform="matrix(-0.7069 -0.7074 0.7074 -0.7069 51.8879 56.2884)" class="st1" width="2" height="6"/>
	</g>
</g>
</svg>
