<?xml version="1.0" encoding="utf-8"?>
<!-- Generator: Adobe Illustrator 19.0.0, SVG Export Plug-In . SVG Version: 6.00 Build 0)  -->
<svg version="1.1" id="Layer_1" xmlns="http://www.w3.org/2000/svg" xmlns:xlink="http://www.w3.org/1999/xlink" x="0px" y="0px"
	 viewBox="-71 73 56 56" style="enable-background:new -71 73 56 56;" xml:space="preserve">
<style type="text/css">
	.st0{fill:#FFFFFF;fill-opacity:0;}
	.st1{fill:#9FC9EB;}
	.st2{fill:#FFFFFF;}
</style>
<g id="XMLID_2_">
	<g id="XMLID_26_">
		<g id="XMLID_27_">
			<rect id="XMLID_28_" x="-71" y="73" class="st0" width="56" height="56"/>
		</g>
	</g>
	<g id="XMLID_4_">
		<polygon id="XMLID_25_" class="st1" points="-56,115 -58,115 -59,117 -57,117 		"/>
		<polygon id="XMLID_24_" class="st1" points="-61,121 -59,121 -58,119 -60,119 		"/>
		<polygon id="XMLID_23_" class="st1" points="-54,115 -55,117 -53,117 -52,115 		"/>
		<polygon id="XMLID_22_" class="st1" points="-57,121 -55,121 -54,119 -56,119 		"/>
		<polygon id="XMLID_21_" class="st1" points="-53,121 -51,121 -50,119 -52,119 		"/>
		<polygon id="XMLID_20_" class="st1" points="-50,115 -51,117 -49,117 -48,115 		"/>
		<polygon id="XMLID_19_" class="st1" points="-46,115 -47,117 -45,117 -44,115 		"/>
		<polygon id="XMLID_18_" class="st1" points="-49,121 -47,121 -46,119 -48,119 		"/>
		<polygon id="XMLID_17_" class="st1" points="-45,121 -43,121 -42,119 -44,119 		"/>
		<polygon id="XMLID_16_" class="st1" points="-42,115 -43,117 -41,117 -40,115 		"/>
		<polygon id="XMLID_15_" class="st1" points="-41,121 -39,121 -38,119 -40,119 		"/>
		<polygon id="XMLID_14_" class="st1" points="-38,115 -39,117 -37,117 -36,115 		"/>
		<polygon id="XMLID_13_" class="st1" points="-34,115 -35,117 -33,117 -32,115 		"/>
		<polygon id="XMLID_12_" class="st1" points="-37,121 -35,121 -34,119 -36,119 		"/>
		<polygon id="XMLID_11_" class="st1" points="-57,113 -55,113 -54,111 -56,111 		"/>
		<polygon id="XMLID_10_" class="st1" points="-53,113 -51,113 -50,111 -52,111 		"/>
		<polygon id="XMLID_9_" class="st1" points="-49,113 -47,113 -46,111 -48,111 		"/>
		<polygon id="XMLID_8_" class="st1" points="-45,113 -43,113 -42,111 -44,111 		"/>
		<polygon id="XMLID_7_" class="st1" points="-41,113 -39,113 -38,111 -40,111 		"/>
		<polygon id="XMLID_6_" class="st1" points="-37,113 -35,113 -34,111 -36,111 		"/>
		<polygon id="XMLID_5_" class="st1" points="-33,113 -31,113 -30,111 -32,111 		"/>
	</g>
	<path id="XMLID_3_" class="st2" d="M-29.4,93.6c0-0.3,0-0.6,0-0.9c0-5.4-4.4-9.7-9.7-9.7c-4.2,0-7.7,2.6-9.1,6.3
		c-0.9-1-2.2-1.6-3.7-1.6c-2.8,0-5,2.2-5,5c0,0.3,0,0.6,0.1,1c-3.7,0.6-6.5,3.8-6.5,7.7c0,4.3,3.5,7.8,7.8,7.8h24.7
		c4.3,0,7.8-3.5,7.8-7.8C-23,97.5-25.8,94.3-29.4,93.6z"/>
</g>
</svg>
