<?xml version="1.0" encoding="utf-8"?>
<!-- Generator: Adobe Illustrator 19.0.0, SVG Export Plug-In . SVG Version: 6.00 Build 0)  -->
<svg version="1.1" id="Layer_1" xmlns="http://www.w3.org/2000/svg" xmlns:xlink="http://www.w3.org/1999/xlink" x="0px" y="0px"
	 viewBox="0 0 56 56" style="enable-background:new 0 0 56 56;" xml:space="preserve">
<style type="text/css">
	.st0{opacity:0;fill:#FFFFFF;}
	.st1{fill:#FBE200;}
	.st2{fill:#FFFFFF;}
</style>
<g>
	<rect id="XMLID_3_" x="0" class="st0" width="56" height="56"/>
	<g>
		<circle id="XMLID_2_" class="st1" cx="18.5" cy="21" r="13"/>
	</g>
	<path id="XMLID_1_" class="st2" d="M47,40.4c0-0.1,0-0.3,0-0.4c0-0.1,0-0.2,0-0.3c0-0.2,0-0.5,0-0.7c0-0.3-0.1-0.7-0.2-1
		c-0.8-3.1-3.5-5.5-6.9-5.6c-0.1,0-0.2,0-0.2,0c-0.4,0-0.8,0-1.2,0.1c-0.4,0.1-0.8,0.2-1.2,0.3c-2,0.7-3.7,2.3-4.4,4.3
		c-0.7-0.8-1.7-1.2-2.8-1.2c-1.2,0-2.3,0.6-3,1.5c-0.2,0.3-0.4,0.6-0.5,0.9c-0.1,0.3-0.2,0.6-0.2,1c0,0.1,0,0.3,0,0.4
		c0,0.2,0,0.5,0.1,0.7c-1.9,0.3-3.5,1.5-4.3,3.2c-0.2,0.3-0.3,0.7-0.4,1c-0.1,0.3-0.2,0.7-0.2,1c0,0.2-0.1,0.4-0.1,0.6
		c0,3.2,2.6,5.8,5.8,5.8h2.7h7.7h8.2c3.2,0,5.8-2.6,5.8-5.8C51.8,43.3,49.7,40.9,47,40.4z"/>
</g>
</svg>
