<?xml version="1.0" encoding="utf-8"?>
<!-- Generator: Adobe Illustrator 16.0.0, SVG Export Plug-In . SVG Version: 6.00 Build 0)  -->
<!DOCTYPE svg PUBLIC "-//W3C//DTD SVG 1.1//EN" "http://www.w3.org/Graphics/SVG/1.1/DTD/svg11.dtd">
<svg version="1.1" id="Layer_1" xmlns="http://www.w3.org/2000/svg" xmlns:xlink="http://www.w3.org/1999/xlink" x="0px" y="0px"
	 width="56px" height="56px" viewBox="0 0 56 56" enable-background="new 0 0 56 56" xml:space="preserve">
<g>
	<rect opacity="0" fill="#FFFFFF" width="56" height="56"/>
	<g>
		<path fill="#FFFFFF" d="M26.051,42.023c0-2.722,1.379-5.104,3.449-6.533V14.089c0-2.5,2.027-4.523,4.525-4.525
			c2.496,0.002,4.523,2.026,4.523,4.525V35.49C40.621,36.922,42,39.305,42,42.024c-0.002,4.404-3.574,7.974-7.979,7.976
			C29.619,49.996,26.055,46.429,26.051,42.023z"/>
		<path fill="#BE1E2D" d="M35.393,38.295V23.332h-2.596v14.963c-1.557,0.539-2.676,2.014-2.676,3.751
			c0,2.194,1.777,3.972,3.971,3.972c2.195,0,3.973-1.777,3.973-3.972C38.066,40.309,36.947,38.834,35.393,38.295z"/>
	</g>
	<g>
		<rect x="25.262" y="8" fill="#FBE200" width="2" height="5.563"/>
		<path fill="#FBE200" d="M26.262,16.563c-0.338,0-0.672,0.022-1,0.059c-4.498,0.498-8,4.309-8,8.941c0,4.632,3.502,8.443,8,8.941
			c0.328,0.036,0.662,0.059,1,0.059s0.672-0.022,1-0.059V16.622C26.934,16.586,26.6,16.563,26.262,16.563z"/>
		<rect x="6.262" y="24.563" fill="#FBE200" width="8" height="2"/>
		
			<rect x="14.653" y="11.956" transform="matrix(-0.7074 0.7069 -0.7069 -0.7074 37.2996 14.4706)" fill="#FBE200" width="2.002" height="6.001"/>
		
			<rect x="14.654" y="33.17" transform="matrix(-0.7074 -0.7069 0.7069 -0.7074 1.1619 72.8209)" fill="#FBE200" width="2.002" height="6"/>
	</g>
</g>
</svg>
