<?xml version="1.0" encoding="utf-8"?>
<!-- Generator: Adobe Illustrator 19.0.0, SVG Export Plug-In . SVG Version: 6.00 Build 0)  -->
<svg version="1.1" id="Layer_1" xmlns="http://www.w3.org/2000/svg" xmlns:xlink="http://www.w3.org/1999/xlink" x="0px" y="0px"
	 viewBox="0 0 56 56" style="enable-background:new 0 0 56 56;" xml:space="preserve">
<style type="text/css">
	.st0{fill:#FFFFFF;fill-opacity:0;}
	.st1{fill:#FFFFFF;}
	.st2{fill:#BE1E2D;}
	.st3{fill:#FBE200;}
</style>
<g>
	<rect class="st0" width="56" height="56"/>
	<g>
		<path class="st1" d="M26.1,42c0-2.7,1.4-5.1,3.4-6.5V14.1c0-2.5,2-4.5,4.5-4.5c2.5,0,4.5,2,4.5,4.5v21.4c2.1,1.4,3.5,3.8,3.5,6.5
			c0,4.4-3.6,8-8,8C29.6,50,26.1,46.4,26.1,42z"/>
		<path class="st2" d="M35.4,38.3v-15h-2.6v15c-1.6,0.5-2.7,2-2.7,3.8c0,2.2,1.8,4,4,4c2.2,0,4-1.8,4-4
			C38.1,40.3,36.9,38.8,35.4,38.3z"/>
	</g>
	<g>
		<rect x="25.3" y="8" class="st3" width="2" height="5.6"/>
		<path class="st3" d="M26.3,16.6c-0.3,0-0.7,0-1,0.1c-4.5,0.5-8,4.3-8,8.9s3.5,8.4,8,8.9c0.3,0,0.7,0.1,1,0.1s0.7,0,1-0.1V16.6
			C26.9,16.6,26.6,16.6,26.3,16.6z"/>
		<rect x="6.3" y="24.6" class="st3" width="8" height="2"/>
		<rect x="14.7" y="12" transform="matrix(0.7074 -0.7069 0.7069 0.7074 -5.9911 15.4414)" class="st3" width="2" height="6"/>
		<rect x="14.7" y="33.2" transform="matrix(0.7074 0.7069 -0.7069 0.7074 30.1471 -0.4824)" class="st3" width="2" height="6"/>
	</g>
</g>
</svg>
