<?xml version="1.0" encoding="utf-8"?>
<!-- Generator: Adobe Illustrator 19.0.0, SVG Export Plug-In . SVG Version: 6.00 Build 0)  -->
<svg version="1.1" id="Layer_1" xmlns="http://www.w3.org/2000/svg" xmlns:xlink="http://www.w3.org/1999/xlink" x="0px" y="0px"
	 viewBox="0 0 56 56" style="enable-background:new 0 0 56 56;" xml:space="preserve">
<style type="text/css">
	.st0{opacity:0;fill:#FFFFFF;}
	.st1{fill:#A1A4AC;}
	.st2{fill:#FBF49C;}
</style>
<g id="XMLID_2_">
	<rect id="XMLID_9_" x="0" class="st0" width="56" height="56"/>
	<g id="XMLID_7_">
		<path id="XMLID_8_" class="st1" d="M29.4,36.1L29.4,36.1h11.5c4.3,0,7.8-3.5,7.8-7.8c0-3.8-2.7-7-6.4-7.6c0-0.3,0-0.6,0-0.9
			c0-5.4-4.4-9.7-9.7-9.7c-4.2,0-7.7,2.6-9.1,6.3c-0.9-1-2.2-1.6-3.7-1.6c-2.8,0-5,2.2-5,5c0,0.3,0,0.6,0.1,1
			c-3.7,0.6-6.5,3.8-6.5,7.7c0,4.3,3.5,7.8,7.8,7.8H20H29.4z"/>
	</g>
	<g id="XMLID_3_">
		<polygon id="XMLID_13_" class="st2" points="27.5,38 29.9,38 27.8,41.5 30.2,41.5 24.7,47 26.6,42.8 24.7,42.8 		"/>
	</g>
</g>
</svg>
