<?xml version="1.0" encoding="utf-8"?>
<!-- Generator: Adobe Illustrator 19.0.0, SVG Export Plug-In . SVG Version: 6.00 Build 0)  -->
<svg version="1.1" id="Layer_1" xmlns="http://www.w3.org/2000/svg" xmlns:xlink="http://www.w3.org/1999/xlink" x="0px" y="0px"
	 viewBox="0 0 56 56" style="enable-background:new 0 0 56 56;" xml:space="preserve">
<style type="text/css">
	.st0{opacity:0;fill:#FFFFFF;}
	.st1{fill:#A1A4AC;}
	.st2{fill:#FBF49C;}
</style>
<g id="XMLID_2_">
	<rect id="XMLID_9_" x="0" class="st0" width="56" height="56"/>
	<g id="XMLID_7_">
		<path id="XMLID_8_" class="st1" d="M40,19.8c0-0.3,0-0.6,0-0.8c0-5-4-9-9-9c-3.8,0-7.1,2.4-8.4,5.8c-0.8-0.9-2.1-1.5-3.4-1.5
			c-2.6,0-4.6,2.1-4.6,4.6c0,0.3,0,0.6,0.1,0.9c-3.4,0.6-6,3.5-6,7.1c0,4,3.2,7.2,7.2,7.2h3.3l3.4-5.8l0.6-1h1.1h4.8h3.5l-1.8,3
			l-2.2,3.7h10c4,0,7.2-3.2,7.2-7.2C45.9,23.4,43.3,20.4,40,19.8z"/>
	</g>
	<g id="XMLID_3_">
		<polygon id="XMLID_13_" class="st2" points="24.3,29.3 29.1,29.3 24.8,36.5 29.9,36.5 18.3,48.1 22.3,39.4 18.3,39.4 		"/>
	</g>
</g>
</svg>
