<?xml version="1.0" encoding="utf-8"?>
<!-- Generator: Adobe Illustrator 16.0.0, SVG Export Plug-In . SVG Version: 6.00 Build 0)  -->
<!DOCTYPE svg PUBLIC "-//W3C//DTD SVG 1.1//EN" "http://www.w3.org/Graphics/SVG/1.1/DTD/svg11.dtd">
<svg version="1.1" id="Layer_1" xmlns="http://www.w3.org/2000/svg" xmlns:xlink="http://www.w3.org/1999/xlink" x="0px" y="0px"
	 width="56px" height="56px" viewBox="0 0 56 56" enable-background="new 0 0 56 56" xml:space="preserve">
<g>
	<rect opacity="0" fill="#FFFFFF" width="56" height="56"/>
	<g>
		<path fill="#FFFFFF" d="M41.631,20.646c0.035-0.301,0.045-0.609,0.045-0.918c0-5.375-4.355-9.729-9.729-9.729
			c-4.168,0-7.717,2.628-9.1,6.316c-0.916-1.007-2.223-1.646-3.691-1.646c-2.768,0-5.01,2.24-5.01,5.008
			c0,0.328,0.034,0.645,0.097,0.955c-3.691,0.61-6.517,3.793-6.517,7.653c0,4.301,3.483,7.782,7.781,7.782h3.776l3.466-5.829
			l0.582-0.978h1.138h4.808h3.532l-1.816,3.028l-2.267,3.778h0.078h11.412c4.3,0,7.783-3.481,7.783-7.782
			C48,24.473,45.25,21.316,41.631,20.646z"/>
	</g>
	<g>
		<polygon fill="#FBF49C" points="24.469,31.262 29.277,31.262 24.954,38.471 30,38.471 18.469,50 22.469,41.354 18.469,41.354 		
			"/>
	</g>
	<g>
		<polygon fill="#FBF49C" points="36.878,39.262 39.185,39.262 37.11,42.72 39.531,42.72 34,48.25 35.918,44.103 34,44.103 		"/>
	</g>
</g>
</svg>
