<?xml version="1.0" encoding="utf-8"?>
<!-- Generator: Adobe Illustrator 19.0.0, SVG Export Plug-In . SVG Version: 6.00 Build 0)  -->
<svg version="1.1" id="Layer_1" xmlns="http://www.w3.org/2000/svg" xmlns:xlink="http://www.w3.org/1999/xlink" x="0px" y="0px"
	 viewBox="0 0 56 56" style="enable-background:new 0 0 56 56;" xml:space="preserve">
<style type="text/css">
	.st0{opacity:0;fill:#FFFFFF;}
	.st1{fill:#9FA3AC;}
	.st2{fill:#FAF39A;}
</style>
<g>
	<rect class="st0" width="56" height="56"/>
	<g>
		<path class="st1" d="M42.3,20.6c0-0.3,0-0.6,0-0.9c0-5.4-4.4-9.7-9.7-9.7c-4.2,0-7.7,2.6-9.1,6.3c-0.9-1-2.2-1.6-3.7-1.6
			c-2.8,0-5,2.2-5,5c0,0.3,0,0.6,0.1,1c-3.7,0.6-6.5,3.8-6.5,7.7c0,4.3,3.5,7.8,7.8,7.8H20l3.5-5.8l0.6-1h1.1h4.8h3.5l-1.8,3
			l-2.3,3.8h0.1h11.4c4.3,0,7.8-3.5,7.8-7.8C48.7,24.5,45.9,21.3,42.3,20.6z"/>
	</g>
	<g>
		<polygon class="st2" points="25.1,31.3 29.9,31.3 25.6,38.5 30.7,38.5 19.1,50 23.1,41.4 19.1,41.4 		"/>
	</g>
	<g>
		<polygon class="st2" points="35.2,37 37.5,37 35.4,40.5 37.9,40.5 32.3,46 34.3,41.9 32.3,41.9 		"/>
	</g>
</g>
</svg>
