<?xml version="1.0" encoding="utf-8"?>
<!-- Generator: Adobe Illustrator 19.0.0, SVG Export Plug-In . SVG Version: 6.00 Build 0)  -->
<svg version="1.1" id="Layer_1" xmlns="http://www.w3.org/2000/svg" xmlns:xlink="http://www.w3.org/1999/xlink" x="0px" y="0px"
	 viewBox="0 0 56 56" style="enable-background:new 0 0 56 56;" xml:space="preserve">
<style type="text/css">
	.st0{opacity:0;fill:#FFFFFF;}
	.st1{fill:#FFFFFF;}
	.st2{fill:#9FC9EB;}
</style>
<rect id="XMLID_16_" x="0" class="st0" width="56" height="56"/>
<g id="XMLID_2_">
	<g id="XMLID_14_">
		<path id="XMLID_15_" class="st1" d="M19.2,37.5h-3.3c-4,0-7.2-3.2-7.2-7.2c0-3.6,2.6-6.5,6-7.1c-0.1-0.3-0.1-0.6-0.1-0.9
			c0-2.6,2.1-4.6,4.6-4.6c1.4,0,2.6,0.6,3.4,1.5c1.3-3.4,4.6-5.8,8.4-5.8c5,0,9,4,9,9c0,0.3,0,0.6,0,0.8c3.3,0.6,5.9,3.5,5.9,7.1
			c0,4-3.2,7.2-7.2,7.2h-10H19.2z"/>
	</g>
	<g id="XMLID_9_">
		<g id="XMLID_10_">
			<rect id="XMLID_13_" x="40.7" y="39.4" class="st2" width="2" height="6.6"/>
		</g>
	</g>
	<rect id="XMLID_8_" x="16.7" y="39.4" class="st2" width="2" height="6.6"/>
	<rect id="XMLID_7_" x="22.7" y="39.4" class="st2" width="2" height="4"/>
	<rect id="XMLID_5_" x="28.7" y="39.4" class="st2" width="2" height="6.6"/>
	<rect id="XMLID_4_" x="34.7" y="39.4" class="st2" width="2" height="4"/>
	<rect id="XMLID_3_" x="10.7" y="39.4" class="st2" width="2" height="4"/>
</g>
</svg>
