<?xml version="1.0" encoding="utf-8"?>
<!-- Generator: Adobe Illustrator 19.0.0, SVG Export Plug-In . SVG Version: 6.00 Build 0)  -->
<svg version="1.1" id="Layer_1" xmlns="http://www.w3.org/2000/svg" xmlns:xlink="http://www.w3.org/1999/xlink" x="0px" y="0px"
	 viewBox="0 0 56 56" style="enable-background:new 0 0 56 56;" xml:space="preserve">
<style type="text/css">
	.st0{opacity:0;fill:#FFFFFF;}
	.st1{fill:#FFFFFF;}
</style>
<g id="XMLID_2_">
	<g id="XMLID_11_">
		<rect id="XMLID_37_" x="0" class="st0" width="56" height="56"/>
		<g id="XMLID_12_">
			<path id="XMLID_36_" class="st1" d="M26.8,5.2c0,11.8,0,23.5,0,35.3c0,2.1,3.2,2.1,3.2,0c0-11.8,0-23.5,0-35.3
				C30,3.1,26.8,3.1,26.8,5.2z"/>
			<path id="XMLID_35_" class="st1" d="M29.5,9.6c-0.9-1-1.9-2-2.8-3c-0.6-0.6-1.7-0.6-2.3,0c-0.6,0.6-0.6,1.6,0,2.3
				c0.9,1,1.9,2,2.8,3c0.6,0.6,1.7,0.6,2.3,0C30.1,11.3,30.1,10.3,29.5,9.6z"/>
			<path id="XMLID_34_" class="st1" d="M29.5,11.9c0.9-1,1.9-2,2.8-3c0.6-0.6,0.6-1.6,0-2.3c-0.6-0.6-1.7-0.6-2.3,0
				c-0.9,1-1.9,2-2.8,3c-0.6,0.6-0.6,1.6,0,2.3C27.8,12.5,28.9,12.6,29.5,11.9z"/>
			<path id="XMLID_33_" class="st1" d="M27.2,33.7c-0.9,1-1.9,2-2.8,3c-0.6,0.6-0.6,1.6,0,2.3c0.6,0.6,1.7,0.6,2.3,0
				c0.9-1,1.9-2,2.8-3c0.6-0.6,0.6-1.6,0-2.3C28.9,33.1,27.8,33.1,27.2,33.7z"/>
			<path id="XMLID_32_" class="st1" d="M27.2,36c0.9,1,1.9,2,2.8,3c0.6,0.6,1.7,0.6,2.3,0c0.6-0.6,0.6-1.6,0-2.3c-0.9-1-1.9-2-2.8-3
				c-0.6-0.6-1.7-0.6-2.3,0C26.6,34.4,26.6,35.4,27.2,36z"/>
			<path id="XMLID_31_" class="st1" d="M27.6,16c2.4,1.4,4.7,2.7,7.1,4.1c1.8,1,3.4-1.7,1.6-2.8c-2.4-1.4-4.7-2.7-7.1-4.1
				C27.4,12.2,25.8,15,27.6,16z"/>
			<path id="XMLID_30_" class="st1" d="M33.8,18.7c0,2.7,0,5.4,0,8.2c0,2.1,3.2,2.1,3.2,0c0-2.7,0-5.4,0-8.2
				C37,16.7,33.8,16.7,33.8,18.7z"/>
			<path id="XMLID_29_" class="st1" d="M34.6,25.5c-2.4,1.4-4.7,2.7-7.1,4.1c-1.8,1-0.2,3.8,1.6,2.8c2.4-1.4,4.7-2.7,7.1-4.1
				C38,27.3,36.4,24.5,34.6,25.5z"/>
			<path id="XMLID_28_" class="st1" d="M29.2,29.6c-2.4-1.4-4.7-2.7-7.1-4.1c-1.8-1-3.4,1.7-1.6,2.8c2.4,1.4,4.7,2.7,7.1,4.1
				C29.4,33.4,31,30.6,29.2,29.6z"/>
			<path id="XMLID_27_" class="st1" d="M22.9,26.9c0-2.7,0-5.4,0-8.2c0-2.1-3.2-2.1-3.2,0c0,2.7,0,5.4,0,8.2
				C19.7,29,22.9,29,22.9,26.9z"/>
			<path id="XMLID_26_" class="st1" d="M22.1,20.1c2.4-1.4,4.7-2.7,7.1-4.1c1.8-1,0.2-3.8-1.6-2.8c-2.4,1.4-4.7,2.7-7.1,4.1
				C18.7,18.4,20.3,21.2,22.1,20.1z"/>
			<path id="XMLID_25_" class="st1" d="M13.9,33c10.2-5.9,20.4-11.8,30.5-17.6c1.8-1,0.2-3.8-1.6-2.8c-10.2,5.9-20.4,11.7-30.5,17.6
				C10.5,31.3,12.1,34.1,13.9,33z"/>
			<path id="XMLID_24_" class="st1" d="M16.4,28.4c-0.4,1.3-0.8,2.6-1.2,3.9c-0.6,2,2.5,2.8,3.1,0.9c0.4-1.3,0.8-2.6,1.2-3.9
				C20.1,27.3,17,26.4,16.4,28.4z"/>
			<path id="XMLID_23_" class="st1" d="M18.4,27.3c-1.3-0.3-2.7-0.6-4-0.9c-2-0.5-2.9,2.6-0.9,3.1c1.3,0.3,2.7,0.6,4,0.9
				C19.5,30.9,20.4,27.8,18.4,27.3z"/>
			<path id="XMLID_22_" class="st1" d="M38.4,18.3c1.3,0.3,2.7,0.6,4,0.9c2,0.5,2.9-2.6,0.9-3.1c-1.3-0.3-2.7-0.6-4-0.9
				C37.2,14.8,36.4,17.9,38.4,18.3z"/>
			<path id="XMLID_21_" class="st1" d="M40.3,17.2c0.4-1.3,0.8-2.6,1.2-3.9c0.6-2-2.5-2.8-3.1-0.9c-0.4,1.3-0.8,2.6-1.2,3.9
				C36.7,18.4,39.7,19.2,40.3,17.2z"/>
			<path id="XMLID_20_" class="st1" d="M44.5,30.3c-10.2-5.9-20.4-11.8-30.5-17.6c-1.8-1-3.4,1.7-1.6,2.8
				C22.5,21.3,32.7,27.1,42.8,33C44.6,34.1,46.2,31.3,44.5,30.3z"/>
			<path id="XMLID_19_" class="st1" d="M17.7,24.3c7.1,0,14.3,0,21.4,0c2.1,0,2.1-3.2,0-3.2c-7.1,0-14.3,0-21.4,0
				C15.6,21.1,15.6,24.3,17.7,24.3z"/>
			<path id="XMLID_18_" class="st1" d="M35.1,31.2C31.5,25,28,18.8,24.4,12.6c-1-1.8-3.8-0.2-2.8,1.6c3.6,6.2,7.1,12.4,10.7,18.6
				C33.4,34.6,36.2,33,35.1,31.2z"/>
			<path id="XMLID_17_" class="st1" d="M32.4,12.6c-3.6,6.2-7.1,12.4-10.7,18.6c-1,1.8,1.7,3.4,2.8,1.6c3.6-6.2,7.1-12.4,10.7-18.6
				C36.2,12.4,33.4,10.8,32.4,12.6z"/>
			<path id="XMLID_16_" class="st1" d="M39.2,30.4c1.3-0.3,2.7-0.6,4-0.9c2-0.5,1.2-3.6-0.9-3.1c-1.3,0.3-2.7,0.6-4,0.9
				C36.4,27.8,37.2,30.9,39.2,30.4z"/>
			<path id="XMLID_15_" class="st1" d="M37.3,29.3c0.4,1.3,0.8,2.6,1.2,3.9c0.6,2,3.7,1.1,3.1-0.9c-0.4-1.3-0.8-2.6-1.2-3.9
				C39.7,26.4,36.7,27.3,37.3,29.3z"/>
			<path id="XMLID_14_" class="st1" d="M19.5,16.4c-0.4-1.3-0.8-2.6-1.2-3.9c-0.6-2-3.7-1.1-3.1,0.9c0.4,1.3,0.8,2.6,1.2,3.9
				C17,19.2,20.1,18.4,19.5,16.4z"/>
			<path id="XMLID_13_" class="st1" d="M17.5,15.3c-1.3,0.3-2.7,0.6-4,0.9c-2,0.5-1.2,3.6,0.9,3.1c1.3-0.3,2.7-0.6,4-0.9
				C20.4,17.9,19.5,14.8,17.5,15.3z"/>
		</g>
	</g>
	<g id="XMLID_8_">
		<rect id="XMLID_10_" x="43.5" y="40" class="st1" width="2" height="6"/>
		<rect id="XMLID_9_" x="41.5" y="42" class="st1" width="6" height="2"/>
	</g>
	<g id="XMLID_5_">
		<rect id="XMLID_7_" x="7.5" y="38" class="st1" width="2" height="6"/>
		<rect id="XMLID_6_" x="5.5" y="40" class="st1" width="6" height="2"/>
	</g>
	<rect id="XMLID_4_" x="17.5" y="46" class="st1" width="2" height="2"/>
	<rect id="XMLID_3_" x="33.5" y="50" class="st1" width="2" height="2"/>
</g>
</svg>
