<?xml version="1.0" encoding="utf-8"?>
<!-- Generator: Adobe Illustrator 16.0.0, SVG Export Plug-In . SVG Version: 6.00 Build 0)  -->
<!DOCTYPE svg PUBLIC "-//W3C//DTD SVG 1.1//EN" "http://www.w3.org/Graphics/SVG/1.1/DTD/svg11.dtd">
<svg version="1.1" id="Layer_1" xmlns="http://www.w3.org/2000/svg" xmlns:xlink="http://www.w3.org/1999/xlink" x="0px" y="0px"
	 width="56px" height="56px" viewBox="0 0 56 56" enable-background="new 0 0 56 56" xml:space="preserve">
<g>
	<rect opacity="0" fill="#FFFFFF" width="56" height="56"/>
	<g>
		<path fill="#FBE200" d="M21.37,20.312c0.895,0,1.772,0.19,2.584,0.538C23.983,20.57,24,20.287,24,20c0-4.418-3.582-8-8-8
			s-8,3.582-8,8c0,3.288,1.986,6.111,4.823,7.341c0.604-0.412,1.248-0.774,1.951-1.036C15.093,22.947,17.929,20.312,21.37,20.312z"
			/>
	</g>
	<path fill="#FFFFFF" d="M42.119,27.83c0.032-0.278,0.042-0.562,0.042-0.848c0-4.963-4.021-8.982-8.982-8.982
		c-3.849,0-7.125,2.426-8.401,5.832c-0.846-0.93-2.052-1.521-3.408-1.521c-2.556,0-4.625,2.068-4.625,4.624
		c0,0.303,0.031,0.595,0.089,0.882c-3.408,0.563-6.017,3.502-6.017,7.065c0,3.971,3.216,7.186,7.184,7.186h22.813
		c3.969,0,7.186-3.215,7.186-7.186C48,31.362,45.461,28.448,42.119,27.83z"/>
</g>
</svg>
