<?xml version="1.0" encoding="utf-8"?>
<!-- Generator: Adobe Illustrator 19.0.0, SVG Export Plug-In . SVG Version: 6.00 Build 0)  -->
<svg version="1.1" id="Layer_1" xmlns="http://www.w3.org/2000/svg" xmlns:xlink="http://www.w3.org/1999/xlink" x="0px" y="0px"
	 viewBox="0 0 56 56" style="enable-background:new 0 0 56 56;" xml:space="preserve">
<style type="text/css">
	.st0{opacity:0;fill:#FFFFFF;}
	.st1{fill:#FFFFFF;}
</style>
<g id="XMLID_2_">
	<rect id="XMLID_4_" x="0" class="st0" width="56" height="56"/>
	<path id="XMLID_3_" class="st1" d="M37.4,27.4c0-0.2,0-0.4,0-0.6c0-3.7-3-6.7-6.7-6.7c-2.9,0-5.3,1.8-6.3,4.4
		c-0.6-0.7-1.5-1.1-2.6-1.1c-1.9,0-3.5,1.6-3.5,3.5c0,0.2,0,0.4,0.1,0.7c-2.6,0.4-4.5,2.6-4.5,5.3c0,3,2.4,5.4,5.4,5.4h17.1
		c3,0,5.4-2.4,5.4-5.4C41.8,30,39.9,27.8,37.4,27.4z"/>
</g>
</svg>
