<?xml version="1.0" encoding="utf-8"?>
<!-- Generator: Adobe Illustrator 16.0.0, SVG Export Plug-In . SVG Version: 6.00 Build 0)  -->
<!DOCTYPE svg PUBLIC "-//W3C//DTD SVG 1.1//EN" "http://www.w3.org/Graphics/SVG/1.1/DTD/svg11.dtd">
<svg version="1.1" id="Layer_1" xmlns="http://www.w3.org/2000/svg" xmlns:xlink="http://www.w3.org/1999/xlink" x="0px" y="0px"
	 width="56px" height="56px" viewBox="0 0 56 56" enable-background="new 0 0 56 56" xml:space="preserve">
<g>
	<rect opacity="0" fill="#FFFFFF" width="56" height="56"/>
	<g>
		<path fill="#979BA4" d="M18.637,38h-3.324c-3.969,0-7.186-3.215-7.186-7.186c0-3.563,2.609-6.502,6.018-7.065
			c-0.059-0.287-0.09-0.579-0.09-0.882c0-2.556,2.07-4.624,4.625-4.624c1.355,0,2.562,0.591,3.408,1.521
			c1.277-3.406,4.553-5.832,8.402-5.832c4.961,0,8.982,4.02,8.982,8.982c0,0.285-0.01,0.569-0.043,0.848
			c3.342,0.618,5.881,3.532,5.881,7.053c0,3.971-3.217,7.186-7.186,7.186H18.637z"/>
	</g>
	<g>
		<g>
			<path fill="#FFFFFF" d="M46.363,19.444c1.551-0.587,2.789-1.637,3.637-2.93c-3.152,1.076-6.611-0.581-7.736-3.725
				c-1.098-3.075,0.436-6.466,3.424-7.701c-1.492-0.411-3.117-0.38-4.67,0.206c-3.408,1.288-5.348,4.798-4.797,8.264
				c2.16,1.328,3.824,3.379,4.658,5.816C42.576,20.059,44.521,20.141,46.363,19.444z"/>
		</g>
		<rect x="8.127" y="12" fill="#FFFFFF" width="2" height="2"/>
		<g>
			<rect x="20.127" y="6" fill="#FFFFFF" width="2" height="6"/>
			<rect x="18.127" y="8" fill="#FFFFFF" width="6" height="2"/>
		</g>
	</g>
	<g>
		<g>
			<rect x="18" y="42.645" fill="#9FC9EB" width="2" height="9.355"/>
		</g>
	</g>
	<g>
		<g>
			<rect x="26" y="42.645" fill="#9FC9EB" width="2" height="9.355"/>
		</g>
	</g>
	<rect x="22" y="40" fill="#9FC9EB" width="2" height="6.508"/>
	<g>
		<g>
			<rect x="34" y="42.645" fill="#9FC9EB" width="2" height="9.355"/>
		</g>
	</g>
	<rect x="30" y="40" fill="#9FC9EB" width="2" height="6.508"/>
	<rect x="38" y="40" fill="#9FC9EB" width="2" height="6.508"/>
	<rect x="14" y="40" fill="#9FC9EB" width="2" height="6.508"/>
</g>
</svg>
