<?xml version="1.0" encoding="utf-8"?>
<!-- Generator: Adobe Illustrator 19.0.0, SVG Export Plug-In . SVG Version: 6.00 Build 0)  -->
<svg version="1.1" id="Layer_1" xmlns="http://www.w3.org/2000/svg" xmlns:xlink="http://www.w3.org/1999/xlink" x="0px" y="0px"
	 viewBox="0 0 56 56" style="enable-background:new 0 0 56 56;" xml:space="preserve">
<style type="text/css">
	.st0{opacity:0;fill:#FFFFFF;}
	.st1{fill:#9FC9EB;}
	.st2{fill:#A1A4AC;}
	.st3{fill:#FBF49C;}
</style>
<g id="XMLID_2_">
	<rect id="XMLID_16_" x="0" class="st0" width="56" height="56"/>
	<rect id="XMLID_15_" x="40" y="38" class="st1" width="2" height="10"/>
	<rect id="XMLID_14_" x="36" y="34" class="st1" width="2" height="8"/>
	<rect id="XMLID_12_" x="32" y="38" class="st1" width="2" height="6"/>
	<rect id="XMLID_11_" x="28" y="42" class="st1" width="2" height="6"/>
	<g id="XMLID_9_">
		<path id="XMLID_10_" class="st2" d="M41.6,16.6c0-0.3,0-0.6,0-0.9c0-5.4-4.4-9.7-9.7-9.7c-4.2,0-7.7,2.6-9.1,6.3
			c-0.9-1-2.2-1.6-3.7-1.6c-2.8,0-5,2.2-5,5c0,0.3,0,0.6,0.1,1c-3.7,0.6-6.5,3.8-6.5,7.7c0,4.3,3.5,7.8,7.8,7.8h3.8l3.5-5.8l0.6-1
			h1.1h4.8h3.5l-1.8,3l-2.3,3.8h0.1h11.4c4.3,0,7.8-3.5,7.8-7.8C48,20.5,45.3,17.3,41.6,16.6z"/>
	</g>
	<g id="XMLID_5_">
		<polygon id="XMLID_13_" class="st3" points="24.5,27.3 29.3,27.3 25,34.5 30,34.5 18.5,46 22.5,37.4 18.5,37.4 		"/>
	</g>
	<rect id="XMLID_4_" x="14" y="34" class="st1" width="2" height="8"/>
	<rect id="XMLID_3_" x="10" y="38" class="st1" width="2" height="10"/>
</g>
</svg>
