<?xml version="1.0" encoding="utf-8"?>
<!-- Generator: Adobe Illustrator 19.0.0, SVG Export Plug-In . SVG Version: 6.00 Build 0)  -->
<svg version="1.1" id="Layer_1" xmlns="http://www.w3.org/2000/svg" xmlns:xlink="http://www.w3.org/1999/xlink" x="0px" y="0px"
	 viewBox="0 0 56 56" style="enable-background:new 0 0 56 56;" xml:space="preserve">
<style type="text/css">
	.st0{opacity:0;fill:#FFFFFF;}
	.st1{fill:#A1A4AC;}
	.st2{fill:#FFFFFF;}
</style>
<g id="XMLID_2_">
	<g id="XMLID_33_">
		<rect id="XMLID_36_" x="0" class="st0" width="56" height="56"/>
		<g id="XMLID_34_">
			<path id="XMLID_35_" class="st1" d="M18.6,30.1h-3.3c-4,0-7.2-3.2-7.2-7.2c0-3.6,2.6-6.5,6-7.1c-0.1-0.3-0.1-0.6-0.1-0.9
				c0-2.6,2.1-4.6,4.6-4.6c1.4,0,2.6,0.6,3.4,1.5C23.4,8.4,26.6,6,30.5,6c5,0,9,4,9,9c0,0.3,0,0.6,0,0.8c3.3,0.6,5.9,3.5,5.9,7.1
				c0,4-3.2,7.2-7.2,7.2H18.6z"/>
		</g>
	</g>
	<g id="XMLID_30_">
		<rect id="XMLID_32_" x="30.7" y="32" class="st2" width="2" height="6"/>
		<rect id="XMLID_31_" x="28.7" y="34" class="st2" width="6" height="2"/>
	</g>
	<rect id="XMLID_29_" x="38.7" y="38" class="st2" width="2" height="2"/>
	<rect id="XMLID_28_" x="32.7" y="44" class="st2" width="2" height="2"/>
	<g id="XMLID_3_">
		<path id="XMLID_27_" class="st2" d="M17.2,33c0,4.8,0,9.6,0,14.3c0,0.8,1.3,0.8,1.3,0c0-4.8,0-9.6,0-14.3
			C18.5,32.2,17.2,32.2,17.2,33z"/>
		<path id="XMLID_26_" class="st2" d="M18.3,34.8c-0.4-0.4-0.8-0.8-1.1-1.2c-0.2-0.3-0.7-0.2-0.9,0c-0.3,0.3-0.2,0.7,0,0.9
			c0.4,0.4,0.8,0.8,1.1,1.2c0.2,0.3,0.7,0.2,0.9,0C18.5,35.5,18.5,35.1,18.3,34.8z"/>
		<path id="XMLID_25_" class="st2" d="M18.3,35.8c0.4-0.4,0.8-0.8,1.1-1.2c0.2-0.3,0.3-0.7,0-0.9c-0.2-0.2-0.7-0.3-0.9,0
			c-0.4,0.4-0.8,0.8-1.1,1.2c-0.2,0.3-0.3,0.7,0,0.9C17.6,36,18,36,18.3,35.8z"/>
		<path id="XMLID_24_" class="st2" d="M17.4,44.6c-0.4,0.4-0.8,0.8-1.1,1.2c-0.2,0.3-0.3,0.7,0,0.9c0.2,0.2,0.7,0.3,0.9,0
			c0.4-0.4,0.8-0.8,1.1-1.2c0.2-0.3,0.3-0.7,0-0.9C18,44.4,17.6,44.4,17.4,44.6z"/>
		<path id="XMLID_23_" class="st2" d="M17.4,45.6c0.4,0.4,0.8,0.8,1.1,1.2c0.2,0.3,0.7,0.2,0.9,0c0.3-0.3,0.2-0.7,0-0.9
			c-0.4-0.4-0.8-0.8-1.1-1.2c-0.2-0.3-0.7-0.2-0.9,0C17.1,44.9,17.1,45.3,17.4,45.6z"/>
		<path id="XMLID_22_" class="st2" d="M17.5,37.4c1,0.6,1.9,1.1,2.9,1.7c0.7,0.4,1.4-0.7,0.7-1.1c-1-0.6-1.9-1.1-2.9-1.7
			C17.4,35.9,16.8,37,17.5,37.4z"/>
		<path id="XMLID_21_" class="st2" d="M20,38.5c0,1.1,0,2.2,0,3.3c0,0.8,1.3,0.8,1.3,0c0-1.1,0-2.2,0-3.3C21.3,37.7,20,37.7,20,38.5
			z"/>
		<path id="XMLID_20_" class="st2" d="M20.4,41.3c-1,0.6-1.9,1.1-2.9,1.7c-0.7,0.4-0.1,1.5,0.7,1.1c1-0.6,1.9-1.1,2.9-1.7
			C21.7,42,21.1,40.9,20.4,41.3z"/>
		<path id="XMLID_19_" class="st2" d="M18.1,43c-1-0.6-1.9-1.1-2.9-1.7c-0.7-0.4-1.4,0.7-0.7,1.1c1,0.6,1.9,1.1,2.9,1.7
			C18.2,44.5,18.9,43.4,18.1,43z"/>
		<path id="XMLID_18_" class="st2" d="M15.6,41.9c0-1.1,0-2.2,0-3.3c0-0.8-1.3-0.8-1.3,0c0,1.1,0,2.2,0,3.3
			C14.3,42.7,15.6,42.7,15.6,41.9z"/>
		<path id="XMLID_17_" class="st2" d="M15.3,39.1c1-0.6,1.9-1.1,2.9-1.7c0.7-0.4,0.1-1.5-0.7-1.1c-1,0.6-1.9,1.1-2.9,1.7
			C13.9,38.4,14.5,39.5,15.3,39.1z"/>
		<path id="XMLID_16_" class="st2" d="M11.9,44.3c4.1-2.4,8.3-4.8,12.4-7.2c0.7-0.4,0.1-1.5-0.7-1.1c-4.1,2.4-8.3,4.8-12.4,7.2
			C10.6,43.6,11.2,44.8,11.9,44.3z"/>
		<path id="XMLID_15_" class="st2" d="M12.9,42.5c-0.2,0.5-0.3,1.1-0.5,1.6c-0.2,0.8,1,1.1,1.3,0.3c0.2-0.5,0.3-1.1,0.5-1.6
			C14.4,42,13.2,41.7,12.9,42.5z"/>
		<path id="XMLID_14_" class="st2" d="M13.7,42c-0.5-0.1-1.1-0.3-1.6-0.4c-0.8-0.2-1.2,1.1-0.3,1.3c0.5,0.1,1.1,0.3,1.6,0.4
			C14.2,43.5,14.6,42.2,13.7,42z"/>
		<path id="XMLID_13_" class="st2" d="M21.9,38.4c0.5,0.1,1.1,0.3,1.6,0.4c0.8,0.2,1.2-1.1,0.3-1.3c-0.5-0.1-1.1-0.3-1.6-0.4
			C21.4,36.9,21.1,38.2,21.9,38.4z"/>
		<path id="XMLID_12_" class="st2" d="M22.7,37.9c0.2-0.5,0.3-1.1,0.5-1.6c0.2-0.8-1-1.1-1.3-0.3c-0.2,0.5-0.3,1.1-0.5,1.6
			C21.2,38.4,22.4,38.7,22.7,37.9z"/>
		<path id="XMLID_11_" class="st2" d="M24.4,43.2c-4.1-2.4-8.3-4.8-12.4-7.2c-0.7-0.4-1.4,0.7-0.7,1.1c4.1,2.4,8.3,4.8,12.4,7.2
			C24.4,44.8,25.1,43.6,24.4,43.2z"/>
		<path id="XMLID_10_" class="st2" d="M13.5,40.8c2.9,0,5.8,0,8.7,0c0.8,0,0.8-1.3,0-1.3c-2.9,0-5.8,0-8.7,0
			C12.6,39.5,12.6,40.8,13.5,40.8z"/>
		<path id="XMLID_9_" class="st2" d="M20.6,43.6c-1.5-2.5-2.9-5-4.4-7.5c-0.4-0.7-1.5-0.1-1.1,0.7c1.5,2.5,2.9,5,4.4,7.5
			C19.9,45,21,44.3,20.6,43.6z"/>
		<path id="XMLID_8_" class="st2" d="M19.4,36.1c-1.5,2.5-2.9,5-4.4,7.5c-0.4,0.7,0.7,1.4,1.1,0.7c1.5-2.5,2.9-5,4.4-7.5
			C21,36,19.9,35.3,19.4,36.1z"/>
		<path id="XMLID_7_" class="st2" d="M22.2,43.3c0.5-0.1,1.1-0.3,1.6-0.4c0.8-0.2,0.5-1.4-0.3-1.3c-0.5,0.1-1.1,0.3-1.6,0.4
			C21.1,42.2,21.4,43.5,22.2,43.3z"/>
		<path id="XMLID_6_" class="st2" d="M21.4,42.8c0.2,0.5,0.3,1.1,0.5,1.6c0.2,0.8,1.5,0.5,1.3-0.3c-0.2-0.5-0.3-1.1-0.5-1.6
			C22.4,41.7,21.2,42,21.4,42.8z"/>
		<path id="XMLID_5_" class="st2" d="M14.2,37.6c-0.2-0.5-0.3-1.1-0.5-1.6c-0.2-0.8-1.5-0.5-1.3,0.3c0.2,0.5,0.3,1.1,0.5,1.6
			C13.2,38.7,14.4,38.4,14.2,37.6z"/>
		<path id="XMLID_4_" class="st2" d="M13.4,37.1c-0.5,0.1-1.1,0.3-1.6,0.4c-0.8,0.2-0.5,1.4,0.3,1.3c0.5-0.1,1.1-0.3,1.6-0.4
			C14.6,38.2,14.2,36.9,13.4,37.1z"/>
	</g>
</g>
</svg>
