<?xml version="1.0" encoding="utf-8"?>
<!-- Generator: Adobe Illustrator 16.0.0, SVG Export Plug-In . SVG Version: 6.00 Build 0)  -->
<!DOCTYPE svg PUBLIC "-//W3C//DTD SVG 1.1//EN" "http://www.w3.org/Graphics/SVG/1.1/DTD/svg11.dtd">
<svg version="1.1" id="Layer_1" xmlns="http://www.w3.org/2000/svg" xmlns:xlink="http://www.w3.org/1999/xlink" x="0px" y="0px"
	 width="56px" height="56px" viewBox="0 0 56 56" enable-background="new 0 0 56 56" xml:space="preserve">
<g>
	<rect opacity="0" fill="#FFFFFF" width="56" height="56"/>
	<rect x="40" y="38" fill="#9FC9EB" width="2" height="10"/>
	<rect x="36" y="34" fill="#9FC9EB" width="2" height="8"/>
	<rect x="32" y="38" fill="#9FC9EB" width="2" height="6"/>
	<rect x="28" y="42" fill="#9FC9EB" width="2" height="6"/>
	<g>
		<path fill="#A1A4AC" d="M41.631,16.646c0.035-0.301,0.045-0.609,0.045-0.918C41.676,10.354,37.32,6,31.947,6
			c-4.168,0-7.717,2.628-9.1,6.316c-0.916-1.007-2.223-1.646-3.691-1.646c-2.768,0-5.01,2.24-5.01,5.008
			c0,0.328,0.034,0.645,0.097,0.955c-3.691,0.61-6.517,3.793-6.517,7.653c0,4.301,3.483,7.782,7.781,7.782h3.776l3.466-5.829
			l0.582-0.978h1.138h4.808h3.532l-1.816,3.028l-2.267,3.778h0.078h11.412c4.3,0,7.783-3.481,7.783-7.782
			C48,20.473,45.25,17.316,41.631,16.646z"/>
	</g>
	<g>
		<polygon fill="#FBF49C" points="24.469,27.262 29.277,27.262 24.954,34.471 30,34.471 18.469,46 22.469,37.354 18.469,37.354 		
			"/>
	</g>
	<rect x="14" y="34" fill="#9FC9EB" width="2" height="8"/>
	<rect x="10" y="38" fill="#9FC9EB" width="2" height="10"/>
</g>
</svg>
