<?xml version="1.0" encoding="utf-8"?>
<!-- Generator: Adobe Illustrator 19.0.0, SVG Export Plug-In . SVG Version: 6.00 Build 0)  -->
<svg version="1.1" id="Layer_1" xmlns="http://www.w3.org/2000/svg" xmlns:xlink="http://www.w3.org/1999/xlink" x="0px" y="0px"
	 viewBox="0 0 56 56" style="enable-background:new 0 0 56 56;" xml:space="preserve">
<style type="text/css">
	.st0{opacity:0;fill:#FFFFFF;}
	.st1{fill:#9FC9EB;}
	.st2{fill:#A1A4AC;}
	.st3{fill:#FBF49C;}
</style>
<g id="XMLID_2_">
	<g id="XMLID_7_">
		<rect id="XMLID_17_" x="0" class="st0" width="56" height="56"/>
		<rect id="XMLID_16_" x="40" y="34" class="st1" width="2" height="4"/>
		<rect id="XMLID_15_" x="36" y="34" class="st1" width="2" height="8"/>
		<rect id="XMLID_14_" x="32" y="38" class="st1" width="2" height="6"/>
		<g id="XMLID_11_">
			<path id="XMLID_12_" class="st2" d="M15.5,32.1c-4.3,0-7.8-3.5-7.8-7.8c0-3.9,2.8-7,6.5-7.7c-0.1-0.3-0.1-0.6-0.1-1
				c0-2.8,2.2-5,5-5c1.5,0,2.8,0.6,3.7,1.6C24.2,8.6,27.8,6,31.9,6c5.4,0,9.7,4.4,9.7,9.7c0,0.3,0,0.6,0,0.9
				c3.6,0.7,6.4,3.8,6.4,7.6c0,4.3-3.5,7.8-7.8,7.8H15.5z"/>
		</g>
		<rect id="XMLID_10_" x="14" y="34" class="st1" width="2" height="8"/>
		<rect id="XMLID_9_" x="10" y="34" class="st1" width="2" height="4"/>
		<rect id="XMLID_8_" x="18.7" y="34" class="st1" width="2" height="2"/>
	</g>
	<g id="XMLID_3_">
		<polygon id="XMLID_13_" class="st3" points="24.3,35.3 28.1,35.3 24.7,40.9 28.7,40.9 19.6,50 22.7,43.2 19.6,43.2 		"/>
	</g>
</g>
</svg>
