<?xml version="1.0" encoding="utf-8"?>
<!-- Generator: Adobe Illustrator 19.0.0, SVG Export Plug-In . SVG Version: 6.00 Build 0)  -->
<svg version="1.1" id="Layer_1" xmlns="http://www.w3.org/2000/svg" xmlns:xlink="http://www.w3.org/1999/xlink" x="0px" y="0px"
	 viewBox="-71 73 56 56" style="enable-background:new -71 73 56 56;" xml:space="preserve">
<style type="text/css">
	.st0{fill:#FFFFFF;fill-opacity:0;}
	.st1{fill:#FBE200;}
	.st2{fill:#FFFFFF;}
	.st3{fill:#9FC9EB;}
</style>
<g id="XMLID_2_">
	<rect id="XMLID_15_" x="-71" y="73" class="st0" width="56" height="56"/>
	<g id="XMLID_13_">
		<path id="XMLID_14_" class="st1" d="M-49.6,87.3c0.9,0,1.8,0.2,2.6,0.5c0-0.3,0-0.6,0-0.8c0-4.4-3.6-8-8-8s-8,3.6-8,8
			c0,3.3,2,6.1,4.8,7.3c0.6-0.4,1.2-0.8,2-1C-55.9,89.9-53.1,87.3-49.6,87.3z"/>
	</g>
	<path id="XMLID_12_" class="st2" d="M-28.9,94.8c0-0.3,0-0.6,0-0.8c0-5-4-9-9-9c-3.8,0-7.1,2.4-8.4,5.8c-0.8-0.9-2.1-1.5-3.4-1.5
		c-2.6,0-4.6,2.1-4.6,4.6c0,0.3,0,0.6,0.1,0.9c-3.4,0.6-6,3.5-6,7.1c0,4,3.2,7.2,7.2,7.2h22.8c4,0,7.2-3.2,7.2-7.2
		C-23,98.4-25.5,95.4-28.9,94.8z"/>
	<g id="XMLID_3_">
		<g id="XMLID_9_">
			<polygon id="XMLID_11_" class="st3" points="-57,119 -59,119 -55,111 -53,111 			"/>
			<polygon id="XMLID_10_" class="st3" points="-53,119 -55,119 -51,111 -49,111 			"/>
		</g>
		<polygon id="XMLID_8_" class="st3" points="-49,119 -51,119 -47,111 -45,111 		"/>
		<polygon id="XMLID_7_" class="st3" points="-45,119 -47,119 -43,111 -41,111 		"/>
		<polygon id="XMLID_6_" class="st3" points="-41,119 -43,119 -39,111 -37,111 		"/>
		<polygon id="XMLID_5_" class="st3" points="-37,119 -39,119 -35,111 -33,111 		"/>
		<polygon id="XMLID_4_" class="st3" points="-33,119 -35,119 -31,111 -29,111 		"/>
	</g>
</g>
</svg>
