<?xml version="1.0" encoding="utf-8"?>
<!-- Generator: Adobe Illustrator 19.0.0, SVG Export Plug-In . SVG Version: 6.00 Build 0)  -->
<svg version="1.1" id="Layer_1" xmlns="http://www.w3.org/2000/svg" xmlns:xlink="http://www.w3.org/1999/xlink" x="0px" y="0px"
	 viewBox="-71 73 56 56" style="enable-background:new -71 73 56 56;" xml:space="preserve">
<style type="text/css">
	.st0{fill:#FFFFFF;}
	.st1{fill:#BFC9CD;}
	.st2{fill:#9FC9EB;}
</style>
<g id="XMLID_2_">
	<g id="XMLID_13_">
		<g id="XMLID_14_">
			<g id="XMLID_23_">
				<path id="XMLID_24_" class="st0" d="M-25.7,94.5c1.6-0.6,2.8-1.6,3.6-2.9c-3.2,1.1-6.6-0.6-7.7-3.7c-1.1-3.1,0.4-6.5,3.4-7.7
					c-1.5-0.4-3.1-0.4-4.7,0.2c-3.4,1.3-5.3,4.8-4.8,8.3c2.2,1.3,3.8,3.4,4.7,5.8C-29.4,95.1-27.6,95.2-25.7,94.5z"/>
			</g>
			<rect id="XMLID_22_" x="-63.9" y="79" class="st0" width="2" height="2"/>
			<g id="XMLID_19_">
				<rect id="XMLID_21_" x="-51.9" y="79" class="st0" width="2" height="6"/>
				<rect id="XMLID_20_" x="-53.9" y="81" class="st0" width="6" height="2"/>
			</g>
			<g id="XMLID_16_">
				<rect id="XMLID_18_" x="-61.9" y="87" class="st0" width="2" height="6"/>
				<rect id="XMLID_17_" x="-63.9" y="89" class="st0" width="6" height="2"/>
			</g>
			<path id="XMLID_15_" class="st1" d="M-32.7,98.8c0-0.3,0-0.6,0-0.8c0-5-4-9-9-9c-3.8,0-7.1,2.4-8.4,5.8c-0.8-0.9-2.1-1.5-3.4-1.5
				c-2.6,0-4.6,2.1-4.6,4.6c0,0.3,0,0.6,0.1,0.9c-3.4,0.6-6,3.5-6,7.1c0,4,3.2,7.2,7.2,7.2h22.8c4,0,7.2-3.2,7.2-7.2
				C-26.8,102.4-29.3,99.4-32.7,98.8z"/>
		</g>
	</g>
	<g id="XMLID_3_">
		<g id="XMLID_9_">
			<polygon id="XMLID_11_" class="st2" points="-60.1,123 -62.1,123 -58.1,115 -56.1,115 			"/>
			<polygon id="XMLID_10_" class="st2" points="-56.1,123 -58.1,123 -54.1,115 -52.1,115 			"/>
		</g>
		<polygon id="XMLID_8_" class="st2" points="-52.1,123 -54.1,123 -50.1,115 -48.1,115 		"/>
		<polygon id="XMLID_7_" class="st2" points="-48.1,123 -50.1,123 -46.1,115 -44.1,115 		"/>
		<polygon id="XMLID_6_" class="st2" points="-44.1,123 -46.1,123 -42.1,115 -40.1,115 		"/>
		<polygon id="XMLID_5_" class="st2" points="-40.1,123 -42.1,123 -38.1,115 -36.1,115 		"/>
		<polygon id="XMLID_4_" class="st2" points="-36.1,123 -38.1,123 -34.1,115 -32.1,115 		"/>
	</g>
</g>
</svg>
