<?xml version="1.0" encoding="utf-8"?>
<!-- Generator: Adobe Illustrator 19.0.0, SVG Export Plug-In . SVG Version: 6.00 Build 0)  -->
<svg version="1.1" id="Layer_1" xmlns="http://www.w3.org/2000/svg" xmlns:xlink="http://www.w3.org/1999/xlink" x="0px" y="0px"
	 viewBox="-71 73 56 56" style="enable-background:new -71 73 56 56;" xml:space="preserve">
<style type="text/css">
	.st0{fill:#FFFFFF;fill-opacity:0;}
	.st1{fill:#BFC9CD;}
	.st2{fill:#9FC9EB;}
</style>
<g id="XMLID_2_">
	<rect id="XMLID_11_" x="-71" y="73" class="st0" width="56" height="56"/>
	<path id="XMLID_10_" class="st1" d="M-29.4,89.6c0-0.3,0-0.6,0-0.9c0-5.4-4.4-9.7-9.7-9.7c-4.2,0-7.7,2.6-9.1,6.3
		c-0.9-1-2.2-1.6-3.7-1.6c-2.8,0-5,2.2-5,5c0,0.3,0,0.6,0.1,1c-3.7,0.6-6.5,3.8-6.5,7.7c0,4.3,3.5,7.8,7.8,7.8h24.7
		c4.3,0,7.8-3.5,7.8-7.8C-23,93.5-25.8,90.3-29.4,89.6z"/>
	<polygon id="XMLID_9_" class="st2" points="-63,119 -65,119 -59,107 -57,107 	"/>
	<polygon id="XMLID_8_" class="st2" points="-59,121 -61,121 -55,109 -53,109 	"/>
	<polygon id="XMLID_7_" class="st2" points="-49,121 -51,121 -45,109 -43,109 	"/>
	<polygon id="XMLID_6_" class="st2" points="-39,121 -41,121 -35,109 -33,109 	"/>
	<polygon id="XMLID_5_" class="st2" points="-53,119 -55,119 -49,107 -47,107 	"/>
	<polygon id="XMLID_4_" class="st2" points="-43,119 -45,119 -39,107 -37,107 	"/>
	<polygon id="XMLID_3_" class="st2" points="-33,119 -35,119 -29,107 -27,107 	"/>
</g>
</svg>
