<?xml version="1.0" encoding="utf-8"?>
<!-- Generator: Adobe Illustrator 19.0.0, SVG Export Plug-In . SVG Version: 6.00 Build 0)  -->
<svg version="1.1" id="Layer_1" xmlns="http://www.w3.org/2000/svg" xmlns:xlink="http://www.w3.org/1999/xlink" x="0px" y="0px"
	 viewBox="0 0 56 56" style="enable-background:new 0 0 56 56;" xml:space="preserve">
<style type="text/css">
	.st0{opacity:0;fill:#FFFFFF;}
	.st1{fill:#9FA3AC;}
	.st2{fill:#9EC8EA;}
	.st3{fill:#FFFFFF;}
</style>
<g>
	<rect x="0" class="st0" width="56" height="56"/>
	<path class="st1" d="M41.6,16.6c0-0.3,0-0.6,0-0.9c0-5.4-4.4-9.7-9.7-9.7c-4.2,0-7.7,2.6-9.1,6.3c-0.9-1-2.2-1.6-3.7-1.6
		c-2.8,0-5,2.2-5,5c0,0.3,0,0.6,0.1,1c-3.7,0.6-6.5,3.8-6.5,7.7c0,4.3,3.5,7.8,7.8,7.8h24.7c4.3,0,7.8-3.5,7.8-7.8
		C48,20.5,45.2,17.3,41.6,16.6z"/>
	<g>
		<g>
			<rect x="20" y="38" class="st2" width="2" height="6"/>
		</g>
	</g>
	<g>
		<g>
			<rect x="28" y="38" class="st2" width="2" height="4"/>
		</g>
	</g>
	<rect x="24" y="34" class="st3" width="2" height="4"/>
	<g>
		<g>
			<rect x="36" y="38" class="st3" width="2" height="2"/>
		</g>
	</g>
	<rect x="32" y="34" class="st2" width="2" height="8"/>
	<rect x="40" y="34" class="st2" width="2" height="6"/>
	<rect x="16" y="34" class="st2" width="2" height="2"/>
	<rect x="12" y="34" class="st3" width="2" height="2"/>
	<rect x="12" y="38" class="st2" width="2" height="2"/>
	<rect x="20" y="34" class="st3" width="2" height="2"/>
	<rect x="16" y="38" class="st3" width="2" height="2"/>
	<rect x="28" y="34" class="st3" width="2" height="2"/>
	<rect x="32" y="44" class="st3" width="2" height="2"/>
	<rect x="24" y="40" class="st3" width="2" height="2"/>
	<rect x="36" y="42" class="st2" width="2" height="2"/>
	<rect x="36" y="34" class="st3" width="2" height="2"/>
	<rect x="24" y="44" class="st2" width="2" height="2"/>
	<rect x="28" y="44" class="st2" width="2" height="2"/>
	<rect x="28" y="48" class="st3" width="2" height="2"/>
</g>
</svg>
