<?xml version="1.0" encoding="utf-8"?>
<!-- Generator: Adobe Illustrator 19.0.0, SVG Export Plug-In . SVG Version: 6.00 Build 0)  -->
<svg version="1.1" id="Layer_1" xmlns="http://www.w3.org/2000/svg" xmlns:xlink="http://www.w3.org/1999/xlink" x="0px" y="0px"
	 viewBox="-71 73 56 56" style="enable-background:new -71 73 56 56;" xml:space="preserve">
<style type="text/css">
	.st0{fill:#FFFFFF;fill-opacity:0;}
	.st1{fill:#FFFFFF;}
</style>
<g id="XMLID_2_">
	<g id="XMLID_15_">
		<g id="XMLID_45_">
			<rect id="XMLID_46_" x="-71" y="73" class="st0" width="56" height="56"/>
		</g>
		<rect id="XMLID_44_" x="-53" y="107" class="st1" width="2" height="2"/>
		<rect id="XMLID_43_" x="-29" y="93" class="st1" width="2" height="2"/>
		<rect id="XMLID_42_" x="-43" y="93" class="st1" width="2" height="2"/>
		<rect id="XMLID_41_" x="-31" y="115" class="st1" width="2" height="2"/>
		<g id="XMLID_16_">
			<path id="XMLID_40_" class="st1" d="M-56.5,87.6c0,4.8,0,9.6,0,14.3c0,0.8,1.3,0.8,1.3,0c0-4.8,0-9.6,0-14.3
				C-55.2,86.8-56.5,86.8-56.5,87.6z"/>
			<path id="XMLID_39_" class="st1" d="M-55.4,89.4c-0.4-0.4-0.8-0.8-1.1-1.2c-0.2-0.3-0.7-0.2-0.9,0c-0.3,0.3-0.2,0.7,0,0.9
				c0.4,0.4,0.8,0.8,1.1,1.2c0.2,0.3,0.7,0.2,0.9,0C-55.1,90.1-55.1,89.7-55.4,89.4z"/>
			<path id="XMLID_38_" class="st1" d="M-55.4,90.4c0.4-0.4,0.8-0.8,1.1-1.2c0.2-0.3,0.3-0.7,0-0.9c-0.2-0.2-0.7-0.3-0.9,0
				c-0.4,0.4-0.8,0.8-1.1,1.2c-0.2,0.3-0.3,0.7,0,0.9C-56.1,90.6-55.6,90.6-55.4,90.4z"/>
			<path id="XMLID_37_" class="st1" d="M-56.3,99.2c-0.4,0.4-0.8,0.8-1.1,1.2c-0.2,0.3-0.3,0.7,0,0.9c0.2,0.2,0.7,0.3,0.9,0
				c0.4-0.4,0.8-0.8,1.1-1.2c0.2-0.3,0.3-0.7,0-0.9C-55.6,99-56.1,99-56.3,99.2z"/>
			<path id="XMLID_36_" class="st1" d="M-56.3,100.2c0.4,0.4,0.8,0.8,1.1,1.2c0.2,0.3,0.7,0.2,0.9,0c0.3-0.3,0.2-0.7,0-0.9
				c-0.4-0.4-0.8-0.8-1.1-1.2c-0.2-0.3-0.7-0.2-0.9,0C-56.6,99.5-56.6,99.9-56.3,100.2z"/>
			<path id="XMLID_35_" class="st1" d="M-56.2,92c1,0.6,1.9,1.1,2.9,1.7c0.7,0.4,1.4-0.7,0.7-1.1c-1-0.6-1.9-1.1-2.9-1.7
				C-56.3,90.5-56.9,91.6-56.2,92z"/>
			<path id="XMLID_34_" class="st1" d="M-53.6,93.1c0,1.1,0,2.2,0,3.3c0,0.8,1.3,0.8,1.3,0c0-1.1,0-2.2,0-3.3
				C-52.3,92.3-53.6,92.3-53.6,93.1z"/>
			<path id="XMLID_33_" class="st1" d="M-53.3,95.9c-1,0.6-1.9,1.1-2.9,1.7c-0.7,0.4-0.1,1.5,0.7,1.1c1-0.6,1.9-1.1,2.9-1.7
				C-51.9,96.6-52.6,95.5-53.3,95.9z"/>
			<path id="XMLID_32_" class="st1" d="M-55.5,97.6c-1-0.6-1.9-1.1-2.9-1.7c-0.7-0.4-1.4,0.7-0.7,1.1c1,0.6,1.9,1.1,2.9,1.7
				C-55.5,99.1-54.8,98-55.5,97.6z"/>
			<path id="XMLID_31_" class="st1" d="M-58.1,96.5c0-1.1,0-2.2,0-3.3c0-0.8-1.3-0.8-1.3,0c0,1.1,0,2.2,0,3.3
				C-59.4,97.3-58.1,97.3-58.1,96.5z"/>
			<path id="XMLID_30_" class="st1" d="M-58.4,93.7c1-0.6,1.9-1.1,2.9-1.7c0.7-0.4,0.1-1.5-0.7-1.1c-1,0.6-1.9,1.1-2.9,1.7
				C-59.8,93-59.1,94.1-58.4,93.7z"/>
			<path id="XMLID_29_" class="st1" d="M-61.7,98.9c4.1-2.4,8.3-4.8,12.4-7.2c0.7-0.4,0.1-1.5-0.7-1.1c-4.1,2.4-8.3,4.8-12.4,7.2
				C-63.1,98.2-62.5,99.4-61.7,98.9z"/>
			<path id="XMLID_28_" class="st1" d="M-60.7,97.1c-0.2,0.5-0.3,1.1-0.5,1.6c-0.2,0.8,1,1.1,1.3,0.3c0.2-0.5,0.3-1.1,0.5-1.6
				C-59.2,96.6-60.5,96.3-60.7,97.1z"/>
			<path id="XMLID_27_" class="st1" d="M-59.9,96.6c-0.5-0.1-1.1-0.3-1.6-0.4c-0.8-0.2-1.2,1.1-0.3,1.3c0.5,0.1,1.1,0.3,1.6,0.4
				C-59.4,98.1-59.1,96.8-59.9,96.6z"/>
			<path id="XMLID_26_" class="st1" d="M-51.8,93c0.5,0.1,1.1,0.3,1.6,0.4c0.8,0.2,1.2-1.1,0.3-1.3c-0.5-0.1-1.1-0.3-1.6-0.4
				C-52.3,91.5-52.6,92.8-51.8,93z"/>
			<path id="XMLID_25_" class="st1" d="M-51,92.5c0.2-0.5,0.3-1.1,0.5-1.6c0.2-0.8-1-1.1-1.3-0.3c-0.2,0.5-0.3,1.1-0.5,1.6
				C-52.5,93-51.2,93.3-51,92.5z"/>
			<path id="XMLID_24_" class="st1" d="M-49.3,97.8c-4.1-2.4-8.3-4.8-12.4-7.2c-0.7-0.4-1.4,0.7-0.7,1.1c4.1,2.4,8.3,4.8,12.4,7.2
				C-49.2,99.4-48.6,98.2-49.3,97.8z"/>
			<path id="XMLID_23_" class="st1" d="M-60.2,95.4c2.9,0,5.8,0,8.7,0c0.8,0,0.8-1.3,0-1.3c-2.9,0-5.8,0-8.7,0
				C-61.1,94.1-61.1,95.4-60.2,95.4z"/>
			<path id="XMLID_22_" class="st1" d="M-53.1,98.2c-1.5-2.5-2.9-5-4.4-7.5c-0.4-0.7-1.5-0.1-1.1,0.7c1.5,2.5,2.9,5,4.4,7.5
				C-53.8,99.6-52.7,98.9-53.1,98.2z"/>
			<path id="XMLID_21_" class="st1" d="M-54.2,90.7c-1.5,2.5-2.9,5-4.4,7.5c-0.4,0.7,0.7,1.4,1.1,0.7c1.5-2.5,2.9-5,4.4-7.5
				C-52.7,90.6-53.8,89.9-54.2,90.7z"/>
			<path id="XMLID_20_" class="st1" d="M-51.4,97.9c0.5-0.1,1.1-0.3,1.6-0.4c0.8-0.2,0.5-1.4-0.3-1.3c-0.5,0.1-1.1,0.3-1.6,0.4
				C-52.6,96.8-52.3,98.1-51.4,97.9z"/>
			<path id="XMLID_19_" class="st1" d="M-52.2,97.4c0.2,0.5,0.3,1.1,0.5,1.6c0.2,0.8,1.5,0.5,1.3-0.3c-0.2-0.5-0.3-1.1-0.5-1.6
				C-51.2,96.3-52.5,96.6-52.2,97.4z"/>
			<path id="XMLID_18_" class="st1" d="M-59.5,92.2c-0.2-0.5-0.3-1.1-0.5-1.6c-0.2-0.8-1.5-0.5-1.3,0.3c0.2,0.5,0.3,1.1,0.5,1.6
				C-60.5,93.3-59.2,93-59.5,92.2z"/>
			<path id="XMLID_17_" class="st1" d="M-60.3,91.7c-0.5,0.1-1.1,0.3-1.6,0.4c-0.8,0.2-0.5,1.4,0.3,1.3c0.5-0.1,1.1-0.3,1.6-0.4
				C-59.1,92.8-59.4,91.5-60.3,91.7z"/>
		</g>
	</g>
	<g id="XMLID_12_">
		<rect id="XMLID_14_" x="-35" y="103" class="st1" width="2" height="6"/>
		<rect id="XMLID_13_" x="-37" y="105" class="st1" width="6" height="2"/>
	</g>
	<g id="XMLID_9_">
		<rect id="XMLID_11_" x="-45" y="115" class="st1" width="2" height="6"/>
		<rect id="XMLID_10_" x="-47" y="117" class="st1" width="6" height="2"/>
	</g>
	<rect id="XMLID_8_" x="-63" y="83" class="st1" width="2" height="2"/>
	<rect id="XMLID_7_" x="-49" y="79" class="st1" width="2" height="2"/>
	<rect id="XMLID_6_" x="-35" y="83" class="st1" width="2" height="2"/>
	<rect id="XMLID_5_" x="-23" y="87" class="st1" width="2" height="2"/>
	<rect id="XMLID_4_" x="-23" y="115" class="st1" width="2" height="2"/>
	<rect id="XMLID_3_" x="-61" y="115" class="st1" width="2" height="2"/>
</g>
</svg>
