<?xml version="1.0" encoding="utf-8"?>
<!-- Generator: Adobe Illustrator 19.0.0, SVG Export Plug-In . SVG Version: 6.00 Build 0)  -->
<svg version="1.1" id="Layer_1" xmlns="http://www.w3.org/2000/svg" xmlns:xlink="http://www.w3.org/1999/xlink" x="0px" y="0px"
	 viewBox="-71 73 56 56" style="enable-background:new -71 73 56 56;" xml:space="preserve">
<style type="text/css">
	.st0{fill:#FFFFFF;fill-opacity:0;}
	.st1{fill:#FFFFFF;}
</style>
<g id="XMLID_2_">
	<g id="XMLID_66_">
		<rect id="XMLID_67_" x="-71" y="73" class="st0" width="56" height="56"/>
	</g>
	<g id="XMLID_63_">
		<rect id="XMLID_65_" x="-27.5" y="113" class="st1" width="2" height="6"/>
		<rect id="XMLID_64_" x="-29.5" y="115" class="st1" width="6" height="2"/>
	</g>
	<g id="XMLID_60_">
		<rect id="XMLID_62_" x="-39" y="83" class="st1" width="2" height="6"/>
		<rect id="XMLID_61_" x="-41" y="85" class="st1" width="6" height="2"/>
	</g>
	<g id="XMLID_57_">
		<rect id="XMLID_59_" x="-63.5" y="111" class="st1" width="2" height="6"/>
		<rect id="XMLID_58_" x="-65.5" y="113" class="st1" width="6" height="2"/>
	</g>
	<rect id="XMLID_56_" x="-53.5" y="119" class="st1" width="2" height="2"/>
	<rect id="XMLID_55_" x="-53" y="107" class="st1" width="2" height="2"/>
	<rect id="XMLID_54_" x="-29" y="93" class="st1" width="2" height="2"/>
	<rect id="XMLID_53_" x="-23" y="81" class="st1" width="2" height="2"/>
	<g id="XMLID_28_">
		<path id="XMLID_52_" class="st1" d="M-56.9,78.7c0,7.8,0,15.5,0,23.3c0,1.4,2.1,1.4,2.1,0c0-7.8,0-15.5,0-23.3
			C-54.8,77.3-56.9,77.3-56.9,78.7z"/>
		<path id="XMLID_51_" class="st1" d="M-55.1,81.6c-0.6-0.7-1.2-1.3-1.8-2c-0.4-0.4-1.1-0.4-1.5,0c-0.4,0.4-0.4,1.1,0,1.5
			c0.6,0.7,1.2,1.3,1.8,2c0.4,0.4,1.1,0.4,1.5,0C-54.7,82.7-54.7,82-55.1,81.6z"/>
		<path id="XMLID_50_" class="st1" d="M-55.1,83.1c0.6-0.7,1.2-1.3,1.8-2c0.4-0.4,0.4-1.1,0-1.5c-0.4-0.4-1.1-0.4-1.5,0
			c-0.6,0.7-1.2,1.3-1.8,2c-0.4,0.4-0.4,1.1,0,1.5C-56.2,83.5-55.5,83.5-55.1,83.1z"/>
		<path id="XMLID_49_" class="st1" d="M-56.6,97.5c-0.6,0.7-1.2,1.3-1.8,2c-0.4,0.4-0.4,1.1,0,1.5c0.4,0.4,1.1,0.4,1.5,0
			c0.6-0.7,1.2-1.3,1.8-2c0.4-0.4,0.4-1.1,0-1.5C-55.5,97.1-56.2,97.1-56.6,97.5z"/>
		<path id="XMLID_48_" class="st1" d="M-56.6,99c0.6,0.7,1.2,1.3,1.8,2c0.4,0.4,1.1,0.4,1.5,0c0.4-0.4,0.4-1.1,0-1.5
			c-0.6-0.7-1.2-1.3-1.8-2c-0.4-0.4-1.1-0.4-1.5,0C-57,97.9-57,98.6-56.6,99z"/>
		<path id="XMLID_47_" class="st1" d="M-56.4,85.8c1.6,0.9,3.1,1.8,4.7,2.7c1.2,0.7,2.3-1.1,1.1-1.8c-1.6-0.9-3.1-1.8-4.7-2.7
			C-56.5,83.3-57.6,85.1-56.4,85.8z"/>
		<path id="XMLID_46_" class="st1" d="M-52.2,87.6c0,1.8,0,3.6,0,5.4c0,1.4,2.1,1.4,2.1,0c0-1.8,0-3.6,0-5.4
			C-50.1,86.2-52.2,86.2-52.2,87.6z"/>
		<path id="XMLID_45_" class="st1" d="M-51.7,92.1c-1.6,0.9-3.1,1.8-4.7,2.7c-1.2,0.7-0.1,2.5,1.1,1.8c1.6-0.9,3.1-1.8,4.7-2.7
			C-49.5,93.2-50.5,91.4-51.7,92.1z"/>
		<path id="XMLID_44_" class="st1" d="M-55.3,94.8c-1.6-0.9-3.1-1.8-4.7-2.7c-1.2-0.7-2.3,1.1-1.1,1.8c1.6,0.9,3.1,1.8,4.7,2.7
			C-55.2,97.3-54.1,95.5-55.3,94.8z"/>
		<path id="XMLID_43_" class="st1" d="M-59.5,93c0-1.8,0-3.6,0-5.4c0-1.4-2.1-1.4-2.1,0c0,1.8,0,3.6,0,5.4
			C-61.6,94.4-59.5,94.4-59.5,93z"/>
		<path id="XMLID_42_" class="st1" d="M-60,88.5c1.6-0.9,3.1-1.8,4.7-2.7c1.2-0.7,0.1-2.5-1.1-1.8c-1.6,0.9-3.1,1.8-4.7,2.7
			C-62.2,87.4-61.2,89.2-60,88.5z"/>
		<path id="XMLID_41_" class="st1" d="M-65.4,97.1c6.7-3.9,13.5-7.8,20.2-11.7c1.2-0.7,0.1-2.5-1.1-1.8c-6.7,3.9-13.5,7.7-20.2,11.6
			C-67.7,95.9-66.6,97.7-65.4,97.1z"/>
		<path id="XMLID_40_" class="st1" d="M-63.8,94c-0.3,0.9-0.5,1.7-0.8,2.6c-0.4,1.3,1.6,1.9,2,0.6c0.3-0.9,0.5-1.7,0.8-2.6
			C-61.3,93.3-63.4,92.7-63.8,94z"/>
		<path id="XMLID_39_" class="st1" d="M-62.5,93.3c-0.9-0.2-1.8-0.4-2.6-0.6c-1.3-0.3-1.9,1.7-0.6,2c0.9,0.2,1.8,0.4,2.6,0.6
			C-61.7,95.6-61.1,93.6-62.5,93.3z"/>
		<path id="XMLID_38_" class="st1" d="M-49.2,87.4c0.9,0.2,1.8,0.4,2.6,0.6c1.3,0.3,1.9-1.7,0.6-2c-0.9-0.2-1.8-0.4-2.6-0.6
			C-50,85-50.6,87-49.2,87.4z"/>
		<path id="XMLID_37_" class="st1" d="M-47.9,86.6c0.3-0.9,0.5-1.7,0.8-2.6c0.4-1.3-1.6-1.9-2-0.6c-0.3,0.9-0.5,1.7-0.8,2.6
			C-50.4,87.4-48.3,87.9-47.9,86.6z"/>
		<path id="XMLID_36_" class="st1" d="M-45.2,95.2c-6.8-3.9-13.5-7.7-20.2-11.6c-1.2-0.7-2.3,1.1-1.1,1.8
			c6.7,3.9,13.5,7.8,20.2,11.7C-45.1,97.7-44,95.9-45.2,95.2z"/>
		<path id="XMLID_35_" class="st1" d="M-62.9,91.3c4.7,0,9.5,0,14.2,0c1.4,0,1.4-2.1,0-2.1c-4.7,0-9.5,0-14.2,0
			C-64.3,89.2-64.3,91.3-62.9,91.3z"/>
		<path id="XMLID_34_" class="st1" d="M-51.4,95.8c-2.4-4.1-4.7-8.2-7.1-12.3c-0.7-1.2-2.5-0.1-1.8,1.1c2.4,4.1,4.7,8.2,7.1,12.3
			C-52.5,98.1-50.7,97-51.4,95.8z"/>
		<path id="XMLID_33_" class="st1" d="M-53.2,83.6c-2.4,4.1-4.7,8.2-7.1,12.3c-0.7,1.2,1.1,2.3,1.8,1.1c2.4-4.1,4.7-8.2,7.1-12.3
			C-50.7,83.5-52.5,82.4-53.2,83.6z"/>
		<path id="XMLID_32_" class="st1" d="M-48.7,95.3c0.9-0.2,1.8-0.4,2.6-0.6c1.3-0.3,0.8-2.4-0.6-2c-0.9,0.2-1.8,0.4-2.6,0.6
			C-50.6,93.6-50,95.6-48.7,95.3z"/>
		<path id="XMLID_31_" class="st1" d="M-50,94.6c0.3,0.9,0.5,1.7,0.8,2.6c0.4,1.3,2.4,0.7,2-0.6c-0.3-0.9-0.5-1.7-0.8-2.6
			C-48.3,92.7-50.4,93.3-50,94.6z"/>
		<path id="XMLID_30_" class="st1" d="M-61.7,86c-0.3-0.9-0.5-1.7-0.8-2.6c-0.4-1.2-2.5-0.7-2.1,0.6c0.3,0.9,0.5,1.7,0.8,2.6
			C-63.4,87.9-61.3,87.4-61.7,86z"/>
		<path id="XMLID_29_" class="st1" d="M-63,85.3c-0.9,0.2-1.8,0.4-2.6,0.6c-1.3,0.3-0.8,2.4,0.6,2c0.9-0.2,1.8-0.4,2.6-0.6
			C-61.1,87-61.7,85-63,85.3z"/>
	</g>
	<g id="XMLID_3_">
		<path id="XMLID_27_" class="st1" d="M-38.5,99.9c0,4.8,0,9.6,0,14.3c0,0.8,1.3,0.8,1.3,0c0-4.8,0-9.6,0-14.3
			C-37.2,99.1-38.5,99.1-38.5,99.9z"/>
		<path id="XMLID_26_" class="st1" d="M-37.4,101.7c-0.4-0.4-0.8-0.8-1.1-1.2c-0.2-0.3-0.7-0.2-0.9,0c-0.3,0.3-0.2,0.7,0,0.9
			c0.4,0.4,0.8,0.8,1.1,1.2c0.2,0.3,0.7,0.2,0.9,0C-37.1,102.4-37.1,102-37.4,101.7z"/>
		<path id="XMLID_25_" class="st1" d="M-37.4,102.6c0.4-0.4,0.8-0.8,1.1-1.2c0.2-0.3,0.3-0.7,0-0.9c-0.2-0.2-0.7-0.3-0.9,0
			c-0.4,0.4-0.8,0.8-1.1,1.2c-0.2,0.3-0.3,0.7,0,0.9C-38.1,102.9-37.6,102.9-37.4,102.6z"/>
		<path id="XMLID_24_" class="st1" d="M-38.3,111.5c-0.4,0.4-0.8,0.8-1.1,1.2c-0.2,0.3-0.3,0.7,0,0.9c0.2,0.2,0.7,0.3,0.9,0
			c0.4-0.4,0.8-0.8,1.1-1.2c0.2-0.3,0.3-0.7,0-0.9C-37.6,111.3-38.1,111.2-38.3,111.5z"/>
		<path id="XMLID_23_" class="st1" d="M-38.3,112.4c0.4,0.4,0.8,0.8,1.1,1.2c0.2,0.3,0.7,0.2,0.9,0c0.3-0.3,0.2-0.7,0-0.9
			c-0.4-0.4-0.8-0.8-1.1-1.2c-0.2-0.3-0.7-0.2-0.9,0C-38.6,111.8-38.6,112.2-38.3,112.4z"/>
		<path id="XMLID_22_" class="st1" d="M-38.2,104.3c1,0.6,1.9,1.1,2.9,1.7c0.7,0.4,1.4-0.7,0.7-1.1c-1-0.6-1.9-1.1-2.9-1.7
			C-38.3,102.8-38.9,103.9-38.2,104.3z"/>
		<path id="XMLID_21_" class="st1" d="M-35.6,105.4c0,1.1,0,2.2,0,3.3c0,0.8,1.3,0.8,1.3,0c0-1.1,0-2.2,0-3.3
			C-34.3,104.6-35.6,104.6-35.6,105.4z"/>
		<path id="XMLID_20_" class="st1" d="M-35.3,108.2c-1,0.6-1.9,1.1-2.9,1.7c-0.7,0.4-0.1,1.5,0.7,1.1c1-0.6,1.9-1.1,2.9-1.7
			C-33.9,108.9-34.6,107.7-35.3,108.2z"/>
		<path id="XMLID_19_" class="st1" d="M-37.5,109.8c-1-0.6-1.9-1.1-2.9-1.7c-0.7-0.4-1.4,0.7-0.7,1.1c1,0.6,1.9,1.1,2.9,1.7
			C-37.5,111.4-36.8,110.2-37.5,109.8z"/>
		<path id="XMLID_18_" class="st1" d="M-40.1,108.7c0-1.1,0-2.2,0-3.3c0-0.8-1.3-0.8-1.3,0c0,1.1,0,2.2,0,3.3
			C-41.4,109.6-40.1,109.6-40.1,108.7z"/>
		<path id="XMLID_17_" class="st1" d="M-40.4,106c1-0.6,1.9-1.1,2.9-1.7c0.7-0.4,0.1-1.5-0.7-1.1c-1,0.6-1.9,1.1-2.9,1.7
			C-41.8,105.3-41.1,106.4-40.4,106z"/>
		<path id="XMLID_16_" class="st1" d="M-43.7,111.2c4.1-2.4,8.3-4.8,12.4-7.2c0.7-0.4,0.1-1.5-0.7-1.1c-4.1,2.4-8.3,4.8-12.4,7.2
			C-45.1,110.5-44.5,111.6-43.7,111.2z"/>
		<path id="XMLID_15_" class="st1" d="M-42.7,109.3c-0.2,0.5-0.3,1.1-0.5,1.6c-0.2,0.8,1,1.1,1.3,0.3c0.2-0.5,0.3-1.1,0.5-1.6
			C-41.2,108.9-42.5,108.5-42.7,109.3z"/>
		<path id="XMLID_14_" class="st1" d="M-41.9,108.9c-0.5-0.1-1.1-0.3-1.6-0.4c-0.8-0.2-1.2,1.1-0.3,1.3c0.5,0.1,1.1,0.3,1.6,0.4
			C-41.4,110.3-41.1,109.1-41.9,108.9z"/>
		<path id="XMLID_13_" class="st1" d="M-33.8,105.3c0.5,0.1,1.1,0.3,1.6,0.4c0.8,0.2,1.2-1.1,0.3-1.3c-0.5-0.1-1.1-0.3-1.6-0.4
			C-34.3,103.8-34.6,105.1-33.8,105.3z"/>
		<path id="XMLID_12_" class="st1" d="M-33,104.8c0.2-0.5,0.3-1.1,0.5-1.6c0.2-0.8-1-1.1-1.3-0.3c-0.2,0.5-0.3,1.1-0.5,1.6
			C-34.5,105.3-33.2,105.6-33,104.8z"/>
		<path id="XMLID_11_" class="st1" d="M-31.3,110.1c-4.1-2.4-8.3-4.8-12.4-7.2c-0.7-0.4-1.4,0.7-0.7,1.1c4.1,2.4,8.3,4.8,12.4,7.2
			C-31.2,111.6-30.6,110.5-31.3,110.1z"/>
		<path id="XMLID_10_" class="st1" d="M-42.2,107.7c2.9,0,5.8,0,8.7,0c0.8,0,0.8-1.3,0-1.3c-2.9,0-5.8,0-8.7,0
			C-43.1,106.4-43.1,107.7-42.2,107.7z"/>
		<path id="XMLID_9_" class="st1" d="M-35.1,110.5c-1.5-2.5-2.9-5-4.4-7.5c-0.4-0.7-1.5-0.1-1.1,0.7c1.5,2.5,2.9,5,4.4,7.5
			C-35.8,111.9-34.7,111.2-35.1,110.5z"/>
		<path id="XMLID_8_" class="st1" d="M-36.2,102.9c-1.5,2.5-2.9,5-4.4,7.5c-0.4,0.7,0.7,1.4,1.1,0.7c1.5-2.5,2.9-5,4.4-7.5
			C-34.7,102.9-35.8,102.2-36.2,102.9z"/>
		<path id="XMLID_7_" class="st1" d="M-33.4,110.1c0.5-0.1,1.1-0.3,1.6-0.4c0.8-0.2,0.5-1.4-0.3-1.3c-0.5,0.1-1.1,0.3-1.6,0.4
			C-34.6,109.1-34.3,110.3-33.4,110.1z"/>
		<path id="XMLID_6_" class="st1" d="M-34.2,109.7c0.2,0.5,0.3,1.1,0.5,1.6c0.2,0.8,1.5,0.5,1.3-0.3c-0.2-0.5-0.3-1.1-0.5-1.6
			C-33.2,108.5-34.5,108.9-34.2,109.7z"/>
		<path id="XMLID_5_" class="st1" d="M-41.5,104.5c-0.2-0.5-0.3-1.1-0.5-1.6c-0.2-0.8-1.5-0.5-1.3,0.3c0.2,0.5,0.3,1.1,0.5,1.6
			C-42.5,105.6-41.2,105.3-41.5,104.5z"/>
		<path id="XMLID_4_" class="st1" d="M-42.3,104c-0.5,0.1-1.1,0.3-1.6,0.4c-0.8,0.2-0.5,1.4,0.3,1.3c0.5-0.1,1.1-0.3,1.6-0.4
			C-41.1,105.1-41.4,103.8-42.3,104z"/>
	</g>
</g>
</svg>
