<?xml version="1.0" encoding="utf-8"?>
<!-- Generator: Adobe Illustrator 19.0.0, SVG Export Plug-In . SVG Version: 6.00 Build 0)  -->
<svg version="1.1" id="Layer_1" xmlns="http://www.w3.org/2000/svg" xmlns:xlink="http://www.w3.org/1999/xlink" x="0px" y="0px"
	 viewBox="-71 73 56 56" style="enable-background:new -71 73 56 56;" xml:space="preserve">
<style type="text/css">
	.st0{fill:#FFFFFF;fill-opacity:0;}
	.st1{fill:#FFFFFF;}
</style>
<g id="XMLID_2_">
	<rect id="XMLID_28_" x="-71" y="73" class="st0" width="56" height="56"/>
	<g id="XMLID_3_">
		<path id="XMLID_27_" class="st1" d="M-44.6,83.4c0,11.8,0,23.5,0,35.3c0,2.1,3.2,2.1,3.2,0c0-11.8,0-23.5,0-35.3
			C-41.4,81.3-44.6,81.3-44.6,83.4z"/>
		<path id="XMLID_26_" class="st1" d="M-41.9,87.8c-0.9-1-1.9-2-2.8-3c-0.6-0.6-1.7-0.6-2.3,0c-0.6,0.6-0.6,1.6,0,2.3
			c0.9,1,1.9,2,2.8,3c0.6,0.6,1.7,0.6,2.3,0C-41.2,89.5-41.3,88.5-41.9,87.8z"/>
		<path id="XMLID_25_" class="st1" d="M-41.9,90.1c0.9-1,1.9-2,2.8-3c0.6-0.6,0.6-1.6,0-2.3c-0.6-0.6-1.7-0.6-2.3,0
			c-0.9,1-1.9,2-2.8,3c-0.6,0.6-0.6,1.6,0,2.3C-43.5,90.7-42.5,90.7-41.9,90.1z"/>
		<path id="XMLID_24_" class="st1" d="M-44.1,111.9c-0.9,1-1.9,2-2.8,3c-0.6,0.6-0.6,1.6,0,2.3c0.6,0.6,1.7,0.6,2.3,0
			c0.9-1,1.9-2,2.8-3c0.6-0.6,0.6-1.6,0-2.3C-42.5,111.3-43.5,111.3-44.1,111.9z"/>
		<path id="XMLID_23_" class="st1" d="M-44.1,114.2c0.9,1,1.9,2,2.8,3c0.6,0.6,1.7,0.6,2.3,0c0.6-0.6,0.6-1.6,0-2.3
			c-0.9-1-1.9-2-2.8-3c-0.6-0.6-1.7-0.6-2.3,0C-44.8,112.5-44.7,113.5-44.1,114.2z"/>
		<path id="XMLID_22_" class="st1" d="M-43.8,94.2c2.4,1.4,4.7,2.7,7.1,4.1c1.8,1,3.4-1.7,1.6-2.8c-2.4-1.4-4.7-2.7-7.1-4.1
			C-44,90.4-45.6,93.2-43.8,94.2z"/>
		<path id="XMLID_21_" class="st1" d="M-37.5,96.9c0,2.7,0,5.4,0,8.2c0,2.1,3.2,2.1,3.2,0c0-2.7,0-5.4,0-8.2
			C-34.3,94.9-37.5,94.9-37.5,96.9z"/>
		<path id="XMLID_20_" class="st1" d="M-36.7,103.7c-2.4,1.4-4.7,2.7-7.1,4.1c-1.8,1-0.2,3.8,1.6,2.8c2.4-1.4,4.7-2.7,7.1-4.1
			C-33.3,105.4-34.9,102.7-36.7,103.7z"/>
		<path id="XMLID_19_" class="st1" d="M-42.2,107.8c-2.4-1.4-4.7-2.7-7.1-4.1c-1.8-1-3.4,1.7-1.6,2.8c2.4,1.4,4.7,2.7,7.1,4.1
			C-42,111.6-40.4,108.8-42.2,107.8z"/>
		<path id="XMLID_18_" class="st1" d="M-48.5,105.1c0-2.7,0-5.4,0-8.2c0-2.1-3.2-2.1-3.2,0c0,2.7,0,5.4,0,8.2
			C-51.7,107.1-48.5,107.1-48.5,105.1z"/>
		<path id="XMLID_17_" class="st1" d="M-49.3,98.3c2.4-1.4,4.7-2.7,7.1-4.1c1.8-1,0.2-3.8-1.6-2.8c-2.4,1.4-4.7,2.7-7.1,4.1
			C-52.7,96.6-51.1,99.3-49.3,98.3z"/>
		<path id="XMLID_16_" class="st1" d="M-57.5,111.2c10.2-5.9,20.4-11.8,30.5-17.6c1.8-1,0.2-3.8-1.6-2.8
			c-10.2,5.9-20.4,11.8-30.5,17.6C-60.9,109.5-59.2,112.2-57.5,111.2z"/>
		<path id="XMLID_15_" class="st1" d="M-55,106.6c-0.4,1.3-0.8,2.6-1.2,3.9c-0.6,2,2.5,2.8,3.1,0.9c0.4-1.3,0.8-2.6,1.2-3.9
			C-51.3,105.5-54.4,104.6-55,106.6z"/>
		<path id="XMLID_14_" class="st1" d="M-53,105.5c-1.3-0.3-2.7-0.6-4-0.9c-2-0.5-2.9,2.6-0.9,3.1c1.3,0.3,2.7,0.6,4,0.9
			C-51.8,109-51,105.9-53,105.5z"/>
		<path id="XMLID_13_" class="st1" d="M-33,96.5c1.3,0.3,2.7,0.6,4,0.9c2,0.5,2.9-2.6,0.9-3.1c-1.3-0.3-2.7-0.6-4-0.9
			C-34.2,93-35,96.1-33,96.5z"/>
		<path id="XMLID_12_" class="st1" d="M-31,95.4c0.4-1.3,0.8-2.6,1.2-3.9c0.6-2-2.5-2.8-3.1-0.9c-0.4,1.3-0.8,2.6-1.2,3.9
			C-34.7,96.5-31.6,97.4-31,95.4z"/>
		<path id="XMLID_11_" class="st1" d="M-26.9,108.4c-10.2-5.9-20.4-11.8-30.5-17.6c-1.8-1-3.4,1.7-1.6,2.8
			c10.2,5.9,20.4,11.8,30.5,17.6C-26.8,112.2-25.1,109.5-26.9,108.4z"/>
		<path id="XMLID_10_" class="st1" d="M-53.7,102.5c7.1,0,14.3,0,21.4,0c2.1,0,2.1-3.2,0-3.2c-7.1,0-14.3,0-21.4,0
			C-55.8,99.3-55.8,102.5-53.7,102.5z"/>
		<path id="XMLID_9_" class="st1" d="M-36.3,109.4c-3.5-6.2-7.1-12.4-10.7-18.6c-1-1.8-3.8-0.2-2.8,1.6c3.6,6.2,7.2,12.4,10.8,18.6
			C-38,112.8-35.2,111.2-36.3,109.4z"/>
		<path id="XMLID_8_" class="st1" d="M-39,90.8c-3.6,6.2-7.1,12.4-10.7,18.6c-1,1.8,1.7,3.4,2.8,1.6c3.6-6.2,7.1-12.4,10.7-18.6
			C-35.2,90.6-38,89-39,90.8z"/>
		<path id="XMLID_7_" class="st1" d="M-32.1,108.6c1.3-0.3,2.7-0.6,4-0.9c2-0.5,1.2-3.6-0.9-3.1c-1.3,0.3-2.7,0.6-4,0.9
			C-35,105.9-34.2,109-32.1,108.6z"/>
		<path id="XMLID_6_" class="st1" d="M-34.1,107.4c0.4,1.3,0.8,2.6,1.2,3.9c0.6,2,3.7,1.1,3.1-0.9c-0.4-1.3-0.8-2.6-1.2-3.9
			C-31.6,104.6-34.7,105.5-34.1,107.4z"/>
		<path id="XMLID_5_" class="st1" d="M-51.9,94.6c-0.4-1.3-0.8-2.6-1.2-3.9c-0.6-2-3.7-1.1-3.1,0.9c0.4,1.3,0.8,2.6,1.2,3.9
			C-54.4,97.4-51.3,96.5-51.9,94.6z"/>
		<path id="XMLID_4_" class="st1" d="M-53.9,93.4c-1.3,0.3-2.7,0.6-4,0.9c-2,0.5-1.2,3.6,0.9,3.1c1.3-0.3,2.7-0.6,4-0.9
			C-51,96.1-51.8,93-53.9,93.4z"/>
	</g>
</g>
</svg>
