<?xml version="1.0" encoding="utf-8"?>
<!-- Generator: Adobe Illustrator 19.0.0, SVG Export Plug-In . SVG Version: 6.00 Build 0)  -->
<svg version="1.1" id="Layer_1" xmlns="http://www.w3.org/2000/svg" xmlns:xlink="http://www.w3.org/1999/xlink" x="0px" y="0px"
	 viewBox="-71 73 56 56" style="enable-background:new -71 73 56 56;" xml:space="preserve">
<style type="text/css">
	.st0{fill:#FFFFFF;fill-opacity:0;}
	.st1{fill:#FFFFFF;}
	.st2{fill:#9FC9EB;}
</style>
<g id="XMLID_2_">
	<rect id="XMLID_38_" x="-71" y="73" class="st0" width="56" height="56"/>
	<path id="XMLID_37_" class="st1" d="M-29.4,89.6c0-0.3,0-0.6,0-0.9c0-5.4-4.4-9.7-9.7-9.7c-4.2,0-7.7,2.6-9.1,6.3
		c-0.9-1-2.2-1.6-3.7-1.6c-2.8,0-5,2.2-5,5c0,0.3,0,0.6,0.1,1c-3.7,0.6-6.5,3.8-6.5,7.7c0,4.3,3.5,7.8,7.8,7.8h24.7
		c4.3,0,7.8-3.5,7.8-7.8C-23,93.5-25.8,90.3-29.4,89.6z"/>
	<g id="XMLID_33_">
		<g id="XMLID_34_">
			<rect id="XMLID_17_" x="-51" y="111" class="st2" width="2" height="6"/>
		</g>
	</g>
	<g id="XMLID_29_">
		<g id="XMLID_30_">
			<rect id="XMLID_15_" x="-43" y="111" class="st2" width="2" height="4"/>
		</g>
	</g>
	<rect id="XMLID_28_" x="-47" y="107" class="st1" width="2" height="4"/>
	<g id="XMLID_24_">
		<g id="XMLID_25_">
			<rect id="XMLID_13_" x="-35" y="111" class="st1" width="2" height="2"/>
		</g>
	</g>
	<rect id="XMLID_23_" x="-39" y="107" class="st2" width="2" height="8"/>
	<rect id="XMLID_22_" x="-31" y="107" class="st2" width="2" height="6"/>
	<rect id="XMLID_21_" x="-55" y="107" class="st2" width="2" height="2"/>
	<rect id="XMLID_20_" x="-59" y="107" class="st1" width="2" height="2"/>
	<rect id="XMLID_19_" x="-59" y="111" class="st2" width="2" height="2"/>
	<rect id="XMLID_18_" x="-51" y="107" class="st1" width="2" height="2"/>
	<rect id="XMLID_16_" x="-55" y="111" class="st1" width="2" height="2"/>
	<rect id="XMLID_14_" x="-43" y="107" class="st1" width="2" height="2"/>
	<rect id="XMLID_12_" x="-39" y="117" class="st1" width="2" height="2"/>
	<rect id="XMLID_11_" x="-47" y="113" class="st1" width="2" height="2"/>
	<rect id="XMLID_10_" x="-35" y="115" class="st2" width="2" height="2"/>
	<rect id="XMLID_9_" x="-35" y="107" class="st1" width="2" height="2"/>
	<rect id="XMLID_5_" x="-47" y="117" class="st2" width="2" height="2"/>
	<rect id="XMLID_4_" x="-43" y="117" class="st2" width="2" height="2"/>
	<rect id="XMLID_3_" x="-43" y="121" class="st1" width="2" height="2"/>
</g>
</svg>
