<?xml version="1.0" encoding="utf-8"?>
<!-- Generator: Adobe Illustrator 19.0.0, SVG Export Plug-In . SVG Version: 6.00 Build 0)  -->
<svg version="1.1" id="Layer_1" xmlns="http://www.w3.org/2000/svg" xmlns:xlink="http://www.w3.org/1999/xlink" x="0px" y="0px"
	 viewBox="-71 73 56 56" style="enable-background:new -71 73 56 56;" xml:space="preserve">
<style type="text/css">
	.st0{fill:#FFFFFF;fill-opacity:0;}
	.st1{fill:#BFC9CD;}
	.st2{fill:#9FC9EB;}
	.st3{fill:#FFFFFF;}
</style>
<g id="XMLID_2_">
	<rect id="XMLID_30_" x="-71" y="73" class="st0" width="56" height="56"/>
	<path id="XMLID_29_" class="st1" d="M-29.4,89.6c0-0.3,0-0.6,0-0.9c0-5.4-4.4-9.7-9.7-9.7c-4.2,0-7.7,2.6-9.1,6.3
		c-0.9-1-2.2-1.6-3.7-1.6c-2.8,0-5,2.2-5,5c0,0.3,0,0.6,0.1,1c-3.7,0.6-6.5,3.8-6.5,7.7c0,4.3,3.5,7.8,7.8,7.8h24.7
		c4.3,0,7.8-3.5,7.8-7.8C-23,93.4-25.8,90.2-29.4,89.6z"/>
	<g id="XMLID_25_">
		<g id="XMLID_26_">
			<rect id="XMLID_17_" x="-45" y="107" class="st2" width="2" height="6"/>
		</g>
	</g>
	<rect id="XMLID_24_" x="-49" y="107" class="st2" width="2" height="4"/>
	<rect id="XMLID_23_" x="-57" y="107" class="st3" width="2" height="2"/>
	<rect id="XMLID_22_" x="-59" y="113" class="st3" width="2" height="2"/>
	<rect id="XMLID_21_" x="-33" y="109" class="st3" width="2" height="2"/>
	<g id="XMLID_16_">
		<g id="XMLID_18_">
			<rect id="XMLID_15_" x="-37" y="107" class="st2" width="2" height="6"/>
		</g>
	</g>
	<g id="XMLID_10_">
		<g id="XMLID_11_">
			<rect id="XMLID_13_" x="-53" y="107" class="st2" width="2" height="6"/>
		</g>
	</g>
	<rect id="XMLID_9_" x="-41" y="107" class="st2" width="2" height="4"/>
	<g id="XMLID_3_">
		<rect id="XMLID_5_" x="-41" y="113" class="st3" width="2" height="6"/>
		<rect id="XMLID_4_" x="-43" y="115" class="st3" width="6" height="2"/>
	</g>
</g>
</svg>
