<?xml version="1.0" encoding="utf-8"?>
<!-- Generator: Adobe Illustrator 19.0.0, SVG Export Plug-In . SVG Version: 6.00 Build 0)  -->
<svg version="1.1" id="Layer_1" xmlns="http://www.w3.org/2000/svg" xmlns:xlink="http://www.w3.org/1999/xlink" x="0px" y="0px"
	 viewBox="-71 73 56 56" style="enable-background:new -71 73 56 56;" xml:space="preserve">
<style type="text/css">
	.st0{fill:#FFFFFF;fill-opacity:0;}
	.st1{fill:#9FC9EB;}
	.st2{fill:#DEE7EC;}
	.st3{fill:#FFFFFF;}
</style>
<g id="XMLID_2_">
	<rect id="XMLID_46_" x="-71" y="73" class="st0" width="56" height="56"/>
	<g id="XMLID_42_">
		<g id="XMLID_43_">
			<rect id="XMLID_15_" x="-45" y="107" class="st1" width="2" height="10"/>
		</g>
	</g>
	<rect id="XMLID_41_" x="-49" y="107" class="st1" width="2" height="6"/>
	<rect id="XMLID_40_" x="-57" y="107" class="st1" width="2" height="4"/>
	<g id="XMLID_36_">
		<g id="XMLID_37_">
			<rect id="XMLID_13_" x="-53" y="107" class="st1" width="2" height="8"/>
		</g>
	</g>
	<rect id="XMLID_35_" x="-41" y="113.2" class="st1" width="2" height="3.5"/>
	<rect id="XMLID_34_" x="-37" y="113.5" class="st1" width="2" height="5.5"/>
	<g id="XMLID_32_">
		<path id="XMLID_33_" class="st2" d="M-39.9,103.2c0.2-0.7,0.9-1.3,1.6-1.3c0.1,0,0.2,0,0.3,0c0.3-0.3,0.7-0.5,1.2-0.5
			c0.6,0,1.1,0.3,1.4,0.7c0.2-0.2,0.5-0.4,0.7-0.4c-0.3-0.6-0.2-1.4,0.3-1.9c0.2-0.2,0.5-0.3,0.7-0.4c0.2-0.7,0.8-1.1,1.6-1.1
			c0.8,0,1.4,0.4,1.6,1.1c0.3,0.1,0.5,0.2,0.7,0.4c0.5,0.5,0.6,1.3,0.3,1.9c0.3,0.1,0.5,0.2,0.7,0.4c0.3-0.4,0.8-0.7,1.4-0.7
			c0.4,0,0.9,0.2,1.2,0.5c0.1,0,0.2,0,0.3,0c0.4,0,0.7,0.1,1,0.4c1.2-1.4,1.9-3.2,1.9-5.1c0-3.8-2.7-7-6.4-7.6c0-0.3,0-0.6,0-0.9
			c0-5.4-4.4-9.7-9.7-9.7c-4.2,0-7.7,2.6-9.1,6.3c-0.9-1-2.2-1.6-3.7-1.6c-2.8,0-5,2.2-5,5c0,0.3,0,0.6,0.1,1
			c-3.7,0.6-6.5,3.8-6.5,7.7c0,4.3,3.5,7.8,7.8,7.8h15.9c0-0.1,0-0.2,0-0.3C-40,104.3-40.1,103.8-39.9,103.2z"/>
	</g>
	<g id="XMLID_3_">
		<path id="XMLID_31_" class="st3" d="M-32.8,100c0,4.8,0,9.6,0,14.3c0,0.8,1.3,0.8,1.3,0c0-4.8,0-9.6,0-14.3
			C-31.5,99.2-32.8,99.2-32.8,100z"/>
		<path id="XMLID_30_" class="st3" d="M-31.7,101.8c-0.4-0.4-0.8-0.8-1.1-1.2c-0.2-0.3-0.7-0.2-0.9,0c-0.3,0.3-0.2,0.7,0,0.9
			c0.4,0.4,0.8,0.8,1.1,1.2c0.2,0.3,0.7,0.2,0.9,0C-31.4,102.5-31.4,102.1-31.7,101.8z"/>
		<path id="XMLID_29_" class="st3" d="M-31.7,102.8c0.4-0.4,0.8-0.8,1.1-1.2c0.2-0.3,0.3-0.7,0-0.9c-0.2-0.2-0.7-0.3-0.9,0
			c-0.4,0.4-0.8,0.8-1.1,1.2c-0.2,0.3-0.3,0.7,0,0.9C-32.4,103-31.9,103-31.7,102.8z"/>
		<path id="XMLID_28_" class="st3" d="M-32.6,111.6c-0.4,0.4-0.8,0.8-1.1,1.2c-0.2,0.3-0.3,0.7,0,0.9c0.2,0.2,0.7,0.3,0.9,0
			c0.4-0.4,0.8-0.8,1.1-1.2c0.2-0.3,0.3-0.7,0-0.9C-31.9,111.4-32.4,111.4-32.6,111.6z"/>
		<path id="XMLID_27_" class="st3" d="M-32.6,112.6c0.4,0.4,0.8,0.8,1.1,1.2c0.2,0.3,0.7,0.2,0.9,0c0.3-0.3,0.2-0.7,0-0.9
			c-0.4-0.4-0.8-0.8-1.1-1.2c-0.2-0.3-0.7-0.2-0.9,0C-32.9,111.9-32.9,112.3-32.6,112.6z"/>
		<path id="XMLID_26_" class="st3" d="M-32.5,104.4c1,0.6,1.9,1.1,2.9,1.7c0.7,0.4,1.4-0.7,0.7-1.1c-1-0.6-1.9-1.1-2.9-1.7
			C-32.5,102.9-33.2,104-32.5,104.4z"/>
		<path id="XMLID_25_" class="st3" d="M-29.9,105.5c0,1.1,0,2.2,0,3.3c0,0.8,1.3,0.8,1.3,0c0-1.1,0-2.2,0-3.3
			C-28.6,104.7-29.9,104.7-29.9,105.5z"/>
		<path id="XMLID_24_" class="st3" d="M-29.6,108.3c-1,0.6-1.9,1.1-2.9,1.7c-0.7,0.4-0.1,1.5,0.7,1.1c1-0.6,1.9-1.1,2.9-1.7
			C-28.2,109-28.9,107.9-29.6,108.3z"/>
		<path id="XMLID_23_" class="st3" d="M-31.8,110c-1-0.6-1.9-1.1-2.9-1.7c-0.7-0.4-1.4,0.7-0.7,1.1c1,0.6,1.9,1.1,2.9,1.7
			C-31.7,111.5-31.1,110.4-31.8,110z"/>
		<path id="XMLID_22_" class="st3" d="M-34.4,108.9c0-1.1,0-2.2,0-3.3c0-0.8-1.3-0.8-1.3,0c0,1.1,0,2.2,0,3.3
			C-35.7,109.7-34.4,109.7-34.4,108.9z"/>
		<path id="XMLID_21_" class="st3" d="M-34.7,106.1c1-0.6,1.9-1.1,2.9-1.7c0.7-0.4,0.1-1.5-0.7-1.1c-1,0.6-1.9,1.1-2.9,1.7
			C-36.1,105.4-35.4,106.5-34.7,106.1z"/>
		<path id="XMLID_20_" class="st3" d="M-38,111.3c4.1-2.4,8.3-4.8,12.4-7.2c0.7-0.4,0.1-1.5-0.7-1.1c-4.1,2.4-8.3,4.8-12.4,7.2
			C-39.4,110.6-38.8,111.8-38,111.3z"/>
		<path id="XMLID_19_" class="st3" d="M-37,109.5c-0.2,0.5-0.3,1.1-0.5,1.6c-0.2,0.8,1,1.1,1.3,0.3c0.2-0.5,0.3-1.1,0.5-1.6
			C-35.5,109-36.8,108.7-37,109.5z"/>
		<path id="XMLID_18_" class="st3" d="M-36.2,109c-0.5-0.1-1.1-0.3-1.6-0.4c-0.8-0.2-1.2,1.1-0.3,1.3c0.5,0.1,1.1,0.3,1.6,0.4
			C-35.7,110.5-35.4,109.2-36.2,109z"/>
		<path id="XMLID_17_" class="st3" d="M-28.1,105.4c0.5,0.1,1.1,0.3,1.6,0.4c0.8,0.2,1.2-1.1,0.3-1.3c-0.5-0.1-1.1-0.3-1.6-0.4
			C-28.6,103.9-28.9,105.2-28.1,105.4z"/>
		<path id="XMLID_16_" class="st3" d="M-27.3,104.9c0.2-0.5,0.3-1.1,0.5-1.6c0.2-0.8-1-1.1-1.3-0.3c-0.2,0.5-0.3,1.1-0.5,1.6
			C-28.8,105.4-27.5,105.7-27.3,104.9z"/>
		<path id="XMLID_14_" class="st3" d="M-25.6,110.2c-4.1-2.4-8.3-4.8-12.4-7.2c-0.7-0.4-1.4,0.7-0.7,1.1c4.1,2.4,8.3,4.8,12.4,7.2
			C-25.5,111.8-24.9,110.6-25.6,110.2z"/>
		<path id="XMLID_12_" class="st3" d="M-36.5,107.8c2.9,0,5.8,0,8.7,0c0.8,0,0.8-1.3,0-1.3c-2.9,0-5.8,0-8.7,0
			C-37.3,106.5-37.3,107.8-36.5,107.8z"/>
		<path id="XMLID_11_" class="st3" d="M-29.4,110.6c-1.5-2.5-2.9-5-4.4-7.5c-0.4-0.7-1.5-0.1-1.1,0.7c1.5,2.5,2.9,5,4.4,7.5
			C-30.1,112-29,111.3-29.4,110.6z"/>
		<path id="XMLID_10_" class="st3" d="M-30.5,103.1c-1.5,2.5-2.9,5-4.4,7.5c-0.4,0.7,0.7,1.4,1.1,0.7c1.5-2.5,2.9-5,4.4-7.5
			C-29,103-30.1,102.3-30.5,103.1z"/>
		<path id="XMLID_9_" class="st3" d="M-27.7,110.3c0.5-0.1,1.1-0.3,1.6-0.4c0.8-0.2,0.5-1.4-0.3-1.3c-0.5,0.1-1.1,0.3-1.6,0.4
			C-28.9,109.2-28.6,110.5-27.7,110.3z"/>
		<path id="XMLID_8_" class="st3" d="M-28.5,109.8c0.2,0.5,0.3,1.1,0.5,1.6c0.2,0.8,1.5,0.5,1.3-0.3c-0.2-0.5-0.3-1.1-0.5-1.6
			C-27.5,108.7-28.8,109-28.5,109.8z"/>
		<path id="XMLID_5_" class="st3" d="M-35.8,104.6c-0.2-0.5-0.3-1.1-0.5-1.6c-0.2-0.8-1.5-0.5-1.3,0.3c0.2,0.5,0.3,1.1,0.5,1.6
			C-36.8,105.7-35.5,105.4-35.8,104.6z"/>
		<path id="XMLID_4_" class="st3" d="M-36.6,104.1c-0.5,0.1-1.1,0.3-1.6,0.4c-0.8,0.2-0.5,1.4,0.3,1.3c0.5-0.1,1.1-0.3,1.6-0.4
			C-35.4,105.2-35.7,103.9-36.6,104.1z"/>
	</g>
</g>
</svg>
