<?xml version="1.0" encoding="utf-8"?>
<!-- Generator: Adobe Illustrator 19.0.0, SVG Export Plug-In . SVG Version: 6.00 Build 0)  -->
<svg version="1.1" id="Layer_1" xmlns="http://www.w3.org/2000/svg" xmlns:xlink="http://www.w3.org/1999/xlink" x="0px" y="0px"
	 viewBox="-277 369 56 56" style="enable-background:new -277 369 56 56;" xml:space="preserve">
<style type="text/css">
	.st0{opacity:0;fill:#FFFFFF;}
	.st1{fill:#CCCBCB;}
	.st2{fill:#FFFFFF;}
</style>
<g id="XMLID_2227_">
	<g id="XMLID_2228_">
		<rect id="XMLID_2229_" x="-277" y="369" class="st0" width="56" height="56"/>
		<g id="XMLID_2238_">
			<path id="XMLID_2239_" class="st1" d="M-245.9,399.2c0.2-0.7,0.9-1.3,1.6-1.3c0.1,0,0.2,0,0.3,0c0.3-0.3,0.7-0.5,1.2-0.5
				c0.6,0,1.1,0.3,1.4,0.7c0.2-0.2,0.5-0.4,0.7-0.4c-0.3-0.6-0.2-1.4,0.3-1.9c0.2-0.2,0.5-0.3,0.7-0.4c0.2-0.7,0.8-1.1,1.6-1.1
				s1.4,0.4,1.6,1.1c0.3,0.1,0.5,0.2,0.7,0.4c0.5,0.5,0.6,1.3,0.3,1.9c0.3,0.1,0.5,0.2,0.7,0.4c0.3-0.4,0.8-0.7,1.4-0.7
				c0.4,0,0.9,0.2,1.2,0.5c0.1,0,0.2,0,0.3,0c0.4,0,0.7,0.1,1,0.4c1.2-1.4,1.9-3.2,1.9-5.1c0-3.8-2.7-7-6.4-7.6c0-0.3,0-0.6,0-0.9
				c0-5.4-4.4-9.7-9.7-9.7c-4.2,0-7.7,2.6-9.1,6.3c-0.9-1-2.2-1.6-3.7-1.6c-2.8,0-5,2.2-5,5c0,0.3,0,0.6,0.1,1
				c-3.7,0.6-6.5,3.8-6.5,7.7c0,4.3,3.5,7.8,7.8,7.8h15.9c0-0.1,0-0.2,0-0.3C-246,400.3-246.1,399.8-245.9,399.2z"/>
		</g>
		<g id="XMLID_2240_">
			<path id="XMLID_2241_" class="st2" d="M-238.8,396c0,4.8,0,9.6,0,14.3c0,0.8,1.3,0.8,1.3,0c0-4.8,0-9.6,0-14.3
				C-237.5,395.2-238.8,395.2-238.8,396z"/>
			<path id="XMLID_2242_" class="st2" d="M-237.7,397.8c-0.4-0.4-0.8-0.8-1.1-1.2c-0.2-0.3-0.7-0.2-0.9,0c-0.3,0.3-0.2,0.7,0,0.9
				c0.4,0.4,0.8,0.8,1.1,1.2c0.2,0.3,0.7,0.2,0.9,0C-237.4,398.5-237.4,398.1-237.7,397.8z"/>
			<path id="XMLID_2243_" class="st2" d="M-237.7,398.8c0.4-0.4,0.8-0.8,1.1-1.2c0.2-0.3,0.3-0.7,0-0.9c-0.2-0.2-0.7-0.3-0.9,0
				c-0.4,0.4-0.8,0.8-1.1,1.2c-0.2,0.3-0.3,0.7,0,0.9C-238.4,399-237.9,399-237.7,398.8z"/>
			<path id="XMLID_2244_" class="st2" d="M-238.6,407.6c-0.4,0.4-0.8,0.8-1.1,1.2c-0.2,0.3-0.3,0.7,0,0.9c0.2,0.2,0.7,0.3,0.9,0
				c0.4-0.4,0.8-0.8,1.1-1.2c0.2-0.3,0.3-0.7,0-0.9C-237.9,407.4-238.4,407.4-238.6,407.6z"/>
			<path id="XMLID_2245_" class="st2" d="M-238.6,408.6c0.4,0.4,0.8,0.8,1.1,1.2c0.2,0.3,0.7,0.2,0.9,0c0.3-0.3,0.2-0.7,0-0.9
				c-0.4-0.4-0.8-0.8-1.1-1.2c-0.2-0.3-0.7-0.2-0.9,0C-238.9,407.9-238.9,408.3-238.6,408.6z"/>
			<path id="XMLID_2246_" class="st2" d="M-238.5,400.4c1,0.6,1.9,1.1,2.9,1.7c0.7,0.4,1.4-0.7,0.7-1.1c-1-0.6-1.9-1.1-2.9-1.7
				C-238.5,398.9-239.2,400-238.5,400.4z"/>
			<path id="XMLID_2247_" class="st2" d="M-235.9,401.5c0,1.1,0,2.2,0,3.3c0,0.8,1.3,0.8,1.3,0c0-1.1,0-2.2,0-3.3
				C-234.6,400.7-235.9,400.7-235.9,401.5z"/>
			<path id="XMLID_2248_" class="st2" d="M-235.6,404.3c-1,0.6-1.9,1.1-2.9,1.7c-0.7,0.4-0.1,1.5,0.7,1.1c1-0.6,1.9-1.1,2.9-1.7
				C-234.2,405-234.9,403.9-235.6,404.3z"/>
			<path id="XMLID_2249_" class="st2" d="M-237.8,406c-1-0.6-1.9-1.1-2.9-1.7c-0.7-0.4-1.4,0.7-0.7,1.1c1,0.6,1.9,1.1,2.9,1.7
				C-237.7,407.5-237.1,406.4-237.8,406z"/>
			<path id="XMLID_2250_" class="st2" d="M-240.4,404.9c0-1.1,0-2.2,0-3.3c0-0.8-1.3-0.8-1.3,0c0,1.1,0,2.2,0,3.3
				C-241.7,405.7-240.4,405.7-240.4,404.9z"/>
			<path id="XMLID_2251_" class="st2" d="M-240.7,402.1c1-0.6,1.9-1.1,2.9-1.7c0.7-0.4,0.1-1.5-0.7-1.1c-1,0.6-1.9,1.1-2.9,1.7
				C-242.1,401.4-241.4,402.5-240.7,402.1z"/>
			<path id="XMLID_2252_" class="st2" d="M-244,407.3c4.1-2.4,8.3-4.8,12.4-7.2c0.7-0.4,0.1-1.5-0.7-1.1c-4.1,2.4-8.3,4.8-12.4,7.2
				C-245.4,406.6-244.8,407.8-244,407.3z"/>
			<path id="XMLID_2253_" class="st2" d="M-243,405.5c-0.2,0.5-0.3,1.1-0.5,1.6c-0.2,0.8,1,1.1,1.3,0.3c0.2-0.5,0.3-1.1,0.5-1.6
				C-241.5,405-242.8,404.7-243,405.5z"/>
			<path id="XMLID_2254_" class="st2" d="M-242.2,405c-0.5-0.1-1.1-0.3-1.6-0.4c-0.8-0.2-1.2,1.1-0.3,1.3c0.5,0.1,1.1,0.3,1.6,0.4
				C-241.7,406.5-241.4,405.2-242.2,405z"/>
			<path id="XMLID_2255_" class="st2" d="M-234.1,401.4c0.5,0.1,1.1,0.3,1.6,0.4c0.8,0.2,1.2-1.1,0.3-1.3c-0.5-0.1-1.1-0.3-1.6-0.4
				C-234.6,399.9-234.9,401.2-234.1,401.4z"/>
			<path id="XMLID_2256_" class="st2" d="M-233.3,400.9c0.2-0.5,0.3-1.1,0.5-1.6c0.2-0.8-1-1.1-1.3-0.3c-0.2,0.5-0.3,1.1-0.5,1.6
				C-234.8,401.4-233.5,401.7-233.3,400.9z"/>
			<path id="XMLID_2257_" class="st2" d="M-231.6,406.2c-4.1-2.4-8.3-4.8-12.4-7.2c-0.7-0.4-1.4,0.7-0.7,1.1
				c4.1,2.4,8.3,4.8,12.4,7.2C-231.5,407.8-230.9,406.6-231.6,406.2z"/>
			<path id="XMLID_2258_" class="st2" d="M-242.5,403.8c2.9,0,5.8,0,8.7,0c0.8,0,0.8-1.3,0-1.3c-2.9,0-5.8,0-8.7,0
				C-243.3,402.5-243.3,403.8-242.5,403.8z"/>
			<path id="XMLID_2259_" class="st2" d="M-235.4,406.6c-1.5-2.5-2.9-5-4.4-7.5c-0.4-0.7-1.5-0.1-1.1,0.7c1.5,2.5,2.9,5,4.4,7.5
				C-236.1,408-235,407.3-235.4,406.6z"/>
			<path id="XMLID_2260_" class="st2" d="M-236.5,399.1c-1.5,2.5-2.9,5-4.4,7.5c-0.4,0.7,0.7,1.4,1.1,0.7c1.5-2.5,2.9-5,4.4-7.5
				C-235,399-236.1,398.3-236.5,399.1z"/>
			<path id="XMLID_2261_" class="st2" d="M-233.7,406.3c0.5-0.1,1.1-0.3,1.6-0.4c0.8-0.2,0.5-1.4-0.3-1.3c-0.5,0.1-1.1,0.3-1.6,0.4
				C-234.9,405.2-234.6,406.5-233.7,406.3z"/>
			<path id="XMLID_2262_" class="st2" d="M-234.5,405.8c0.2,0.5,0.3,1.1,0.5,1.6c0.2,0.8,1.5,0.5,1.3-0.3c-0.2-0.5-0.3-1.1-0.5-1.6
				C-233.5,404.7-234.8,405-234.5,405.8z"/>
			<path id="XMLID_2263_" class="st2" d="M-241.8,400.6c-0.2-0.5-0.3-1.1-0.5-1.6c-0.2-0.8-1.5-0.5-1.3,0.3c0.2,0.5,0.3,1.1,0.5,1.6
				C-242.8,401.7-241.5,401.4-241.8,400.6z"/>
			<path id="XMLID_2264_" class="st2" d="M-242.6,400.1c-0.5,0.1-1.1,0.3-1.6,0.4c-0.8,0.2-0.5,1.4,0.3,1.3c0.5-0.1,1.1-0.3,1.6-0.4
				C-241.4,401.2-241.7,399.9-242.6,400.1z"/>
		</g>
	</g>
	<g id="XMLID_2265_">
		<rect id="XMLID_2266_" x="-245" y="411" class="st2" width="2" height="6"/>
		<rect id="XMLID_3724_" x="-247" y="413" class="st2" width="6" height="2"/>
	</g>
	<g id="XMLID_2267_">
		<rect id="XMLID_2268_" x="-237" y="415" class="st2" width="2" height="6"/>
		<rect id="XMLID_3721_" x="-239" y="417" class="st2" width="6" height="2"/>
	</g>
	<rect id="XMLID_2269_" x="-269" y="403" class="st2" width="2" height="2"/>
	<rect id="XMLID_2270_" x="-267" y="407" class="st2" width="2" height="2"/>
	<rect id="XMLID_773_" x="-251" y="407" class="st2" width="2" height="2"/>
	<rect id="XMLID_774_" x="-255" y="411" class="st2" width="2" height="2"/>
	<rect id="XMLID_913_" x="-257" y="415" class="st2" width="2" height="2"/>
	<rect id="XMLID_915_" x="-271" y="411" class="st2" width="2" height="2"/>
	<rect id="XMLID_916_" x="-257" y="403" class="st2" width="2" height="2"/>
	<rect id="XMLID_917_" x="-259" y="407" class="st2" width="2" height="2"/>
	<rect id="XMLID_2011_" x="-263" y="411" class="st2" width="2" height="2"/>
	<rect id="XMLID_2057_" x="-267" y="415" class="st2" width="2" height="2"/>
	<rect id="XMLID_2065_" x="-263" y="403" class="st2" width="2" height="2"/>
	<rect id="XMLID_2271_" x="-249" y="403" class="st2" width="2" height="2"/>
	<rect id="XMLID_2272_" x="-229" y="403" class="st2" width="2" height="2"/>
	<rect id="XMLID_2273_" x="-233" y="411" class="st2" width="2" height="2"/>
</g>
</svg>
