<?xml version="1.0" encoding="utf-8"?>
<!-- Generator: Adobe Illustrator 19.0.0, SVG Export Plug-In . SVG Version: 6.00 Build 0)  -->
<svg version="1.1" id="Layer_1" xmlns="http://www.w3.org/2000/svg" xmlns:xlink="http://www.w3.org/1999/xlink" x="0px" y="0px"
	 viewBox="-71 73 56 56" style="enable-background:new -71 73 56 56;" xml:space="preserve">
<style type="text/css">
	.st0{fill:#FFFFFF;fill-opacity:0;}
	.st1{fill:#CCCCCC;}
</style>
<g id="XMLID_2_">
	<g id="XMLID_10_">
		<rect id="XMLID_11_" x="-71" y="73" class="st0" width="56" height="56"/>
	</g>
	<path id="XMLID_9_" class="st1" d="M-24,99h-38c-0.5,0-1,0.4-1,1l0,0c0,0.5,0.4,1,1,1h38c0.5,0,1-0.4,1-1l0,0
		C-23,99.4-23.5,99-24,99z"/>
	<path id="XMLID_8_" class="st1" d="M-22,95h-30c-0.5,0-1,0.4-1,1l0,0c0,0.5,0.4,1,1,1h30c0.5,0,1-0.4,1-1l0,0
		C-21,95.4-21.5,95-22,95z"/>
	<path id="XMLID_7_" class="st1" d="M-36,105h-30c-0.5,0-1,0.5-1,1l0,0c0,0.5,0.4,1,1,1h30c0.5,0,1-0.5,1-1l0,0
		C-35,105.5-35.5,105-36,105z"/>
	<path id="XMLID_6_" class="st1" d="M-28,109h-30c-0.5,0-1,0.5-1,1l0,0c0,0.5,0.4,1,1,1h30c0.5,0,1-0.5,1-1l0,0
		C-27,109.5-27.5,109-28,109z"/>
	<path id="XMLID_5_" class="st1" d="M-28,91h-30c-0.5,0-1,0.4-1,1l0,0c0,0.5,0.4,1,1,1h30c0.5,0,1-0.4,1-1l0,0
		C-27,91.4-27.5,91-28,91z"/>
	<path id="XMLID_4_" class="st1" d="M-32,87h-22c-0.5,0-1,0.4-1,1l0,0c0,0.5,0.4,1,1,1h22c0.5,0,1-0.4,1-1l0,0
		C-31,87.4-31.5,87-32,87z"/>
	<path id="XMLID_3_" class="st1" d="M-32,113h-22c-0.5,0-1,0.5-1,1l0,0c0,0.5,0.4,1,1,1h22c0.5,0,1-0.5,1-1l0,0
		C-31,113.5-31.5,113-32,113z"/>
</g>
</svg>
