<?xml version="1.0" encoding="utf-8"?>
<!-- Generator: Adobe Illustrator 19.0.0, SVG Export Plug-In . SVG Version: 6.00 Build 0)  -->
<svg version="1.1" id="Layer_1" xmlns="http://www.w3.org/2000/svg" xmlns:xlink="http://www.w3.org/1999/xlink" x="0px" y="0px"
	 viewBox="-71 73 56 56" style="enable-background:new -71 73 56 56;" xml:space="preserve">
<style type="text/css">
	.st0{fill:#FFFFFF;fill-opacity:0;}
	.st1{fill:#CCCCCC;}
</style>
<g id="XMLID_2_">
	<g id="XMLID_10_">
		<rect id="XMLID_11_" x="-71" y="73" class="st0" width="56" height="56"/>
	</g>
	<path id="XMLID_9_" class="st1" d="M-28,97h-30c-0.5,0-1,0.4-1,1l0,0c0,0.5,0.4,1,1,1h30c0.5,0,1-0.4,1-1l0,0
		C-27,97.4-27.5,97-28,97z"/>
	<path id="XMLID_8_" class="st1" d="M-25,101h-37c-0.5,0-1,0.4-1,1l0,0c0,0.5,0.4,1,1,1h37c0.5,0,1-0.4,1-1l0,0
		C-24,101.4-24.5,101-25,101z"/>
	<path id="XMLID_7_" class="st1" d="M-28,105h-30c-0.5,0-1,0.5-1,1l0,0c0,0.5,0.4,1,1,1h30c0.5,0,1-0.5,1-1l0,0
		C-27,105.5-27.5,105-28,105z"/>
	<path id="XMLID_6_" class="st1" d="M-32,109h-30c-0.5,0-1,0.5-1,1l0,0c0,0.5,0.4,1,1,1h30c0.5,0,1-0.5,1-1l0,0
		C-31,109.5-31.5,109-32,109z"/>
	<path id="XMLID_5_" class="st1" d="M-24,93h-30c-0.5,0-1,0.4-1,1l0,0c0,0.5,0.4,1,1,1h30c0.5,0,1-0.4,1-1l0,0
		C-23,93.4-23.5,93-24,93z"/>
	<path id="XMLID_4_" class="st1" d="M-22,89h-26c-0.5,0-1,0.4-1,1l0,0c0,0.5,0.4,1,1,1h26c0.5,0,1-0.4,1-1l0,0
		C-21,89.4-21.5,89-22,89z"/>
	<path id="XMLID_3_" class="st1" d="M-38,113h-26c-0.5,0-1,0.5-1,1l0,0c0,0.5,0.4,1,1,1h26c0.5,0,1-0.5,1-1l0,0
		C-37,113.5-37.5,113-38,113z"/>
</g>
</svg>
