<?xml version="1.0" encoding="utf-8"?>
<!-- Generator: Adobe Illustrator 19.0.0, SVG Export Plug-In . SVG Version: 6.00 Build 0)  -->
<svg version="1.1" id="Layer_1" xmlns="http://www.w3.org/2000/svg" xmlns:xlink="http://www.w3.org/1999/xlink" x="0px" y="0px"
	 viewBox="-71 73 56 56" style="enable-background:new -71 73 56 56;" xml:space="preserve">
<style type="text/css">
	.st0{fill:#FFFFFF;fill-opacity:0;}
	.st1{fill:#FBE200;}
	.st2{fill:#FFFFFF;}
	.st3{fill:#F3EBA5;}
</style>
<g id="XMLID_2_">
	<rect id="XMLID_17_" x="-71" y="73" class="st0" width="56" height="56"/>
	<g id="XMLID_15_">
		<path id="XMLID_16_" class="st1" d="M-35.1,102c0-0.3-0.1-0.7-0.2-1c-0.9-4-4.5-7-8.8-7s-7.9,3-8.8,7c-0.1,0.3-0.1,0.7-0.2,1
			c0,0.3-0.1,0.7-0.1,1l0,0h18l0,0C-35,102.7-35,102.3-35.1,102z"/>
	</g>
	<path id="XMLID_14_" class="st2" d="M-24,113h-38c-0.5,0-1,0.5-1,1l0,0c0,0.5,0.4,1,1,1h38c0.5,0,1-0.5,1-1l0,0
		C-23,113.5-23.5,113-24,113z"/>
	<path id="XMLID_13_" class="st3" d="M-40,109h-8c-0.5,0-1,0.5-1,1l0,0c0,0.5,0.4,1,1,1h8c0.5,0,1-0.5,1-1l0,0
		C-39,109.5-39.5,109-40,109z"/>
	<path id="XMLID_12_" class="st3" d="M-34,105h-20c-0.5,0-1,0.5-1,1l0,0c0,0.5,0.4,1,1,1h20c0.5,0,1-0.5,1-1l0,0
		C-33,105.5-33.5,105-34,105z"/>
	<path id="XMLID_11_" class="st1" d="M-56,101h-6c-0.5,0-1,0.4-1,1l0,0c0,0.5,0.4,1,1,1h6c0.5,0,1-0.4,1-1l0,0
		C-55,101.4-55.5,101-56,101z"/>
	<path id="XMLID_10_" class="st1" d="M-26,101h-6c-0.5,0-1,0.4-1,1l0,0c0,0.5,0.4,1,1,1h6c0.5,0,1-0.4,1-1l0,0
		C-25,101.4-25.5,101-26,101z"/>
	<path id="XMLID_9_" class="st1" d="M-45,84v6c0,0.5,0.4,1,1,1l0,0c0.5,0,1-0.4,1-1v-6c0-0.5-0.4-1-1-1l0,0C-44.6,83-45,83.4-45,84z
		"/>
	<path id="XMLID_8_" class="st1" d="M-30.7,89.3l-4.2,4.2c-0.4,0.4-0.4,1,0,1.4l0,0c0.4,0.4,1,0.4,1.4,0l4.2-4.2
		c0.4-0.4,0.4-1,0-1.4l0,0C-29.7,88.9-30.3,88.9-30.7,89.3z"/>
	<path id="XMLID_7_" class="st1" d="M-54.5,94.9l-4.2-4.2c-0.4-0.4-0.4-1,0-1.4l0,0c0.4-0.4,1-0.4,1.4,0l4.2,4.2
		c0.4,0.4,0.4,1,0,1.4l0,0C-53.4,95.3-54.1,95.3-54.5,94.9z"/>
	<path id="XMLID_6_" class="st2" d="M-52,109h-10c-0.5,0-1,0.5-1,1l0,0c0,0.5,0.4,1,1,1h10c0.5,0,1-0.5,1-1l0,0
		C-51,109.5-51.5,109-52,109z"/>
	<path id="XMLID_5_" class="st2" d="M-24,109h-12c-0.5,0-1,0.5-1,1l0,0c0,0.5,0.4,1,1,1h12c0.5,0,1-0.5,1-1l0,0
		C-23,109.5-23.5,109-24,109z"/>
	<path id="XMLID_4_" class="st2" d="M-58,105h-4c-0.5,0-1,0.5-1,1l0,0c0,0.5,0.4,1,1,1h4c0.5,0,1-0.5,1-1l0,0
		C-57,105.5-57.5,105-58,105z"/>
	<path id="XMLID_3_" class="st2" d="M-24,107h-6c-0.5,0-1-0.5-1-1l0,0c0-0.5,0.4-1,1-1h6c0.5,0,1,0.5,1,1l0,0
		C-23,106.5-23.5,107-24,107z"/>
</g>
</svg>
