<?xml version="1.0" encoding="utf-8"?>
<!-- Generator: Adobe Illustrator 19.0.0, SVG Export Plug-In . SVG Version: 6.00 Build 0)  -->
<svg version="1.1" id="Layer_1" xmlns="http://www.w3.org/2000/svg" xmlns:xlink="http://www.w3.org/1999/xlink" x="0px" y="0px"
	 viewBox="-71 73 56 56" style="enable-background:new -71 73 56 56;" xml:space="preserve">
<style type="text/css">
	.st0{fill:#FFFFFF;fill-opacity:0;}
	.st1{fill:#FFFFFF;}
	.st2{fill:#D7F0F8;}
</style>
<g id="XMLID_2_">
	<g id="XMLID_5_">
		<rect id="XMLID_13_" x="-71" y="73" class="st0" width="56" height="56"/>
		<path id="XMLID_12_" class="st1" d="M-24,113h-38c-0.5,0-1,0.5-1,1l0,0c0,0.5,0.4,1,1,1h38c0.5,0,1-0.5,1-1l0,0
			C-23,113.5-23.5,113-24,113z"/>
		<path id="XMLID_11_" class="st2" d="M-40,109h-8c-0.5,0-1,0.5-1,1l0,0c0,0.5,0.4,1,1,1h8c0.5,0,1-0.5,1-1l0,0
			C-39,109.5-39.5,109-40,109z"/>
		<path id="XMLID_10_" class="st2" d="M-34,105h-20c-0.5,0-1,0.5-1,1l0,0c0,0.5,0.4,1,1,1h20c0.5,0,1-0.5,1-1l0,0
			C-33,105.5-33.5,105-34,105z"/>
		<path id="XMLID_9_" class="st1" d="M-52,109h-10c-0.5,0-1,0.5-1,1l0,0c0,0.5,0.4,1,1,1h10c0.5,0,1-0.5,1-1l0,0
			C-51,109.5-51.5,109-52,109z"/>
		<path id="XMLID_8_" class="st1" d="M-24,109h-12c-0.5,0-1,0.5-1,1l0,0c0,0.5,0.4,1,1,1h12c0.5,0,1-0.5,1-1l0,0
			C-23,109.5-23.5,109-24,109z"/>
		<path id="XMLID_7_" class="st1" d="M-58,105h-4c-0.5,0-1,0.5-1,1l0,0c0,0.5,0.4,1,1,1h4c0.5,0,1-0.5,1-1l0,0
			C-57,105.5-57.5,105-58,105z"/>
		<path id="XMLID_6_" class="st1" d="M-24,107h-6c-0.5,0-1-0.5-1-1l0,0c0-0.5,0.4-1,1-1h6c0.5,0,1,0.5,1,1l0,0
			C-23,106.5-23.5,107-24,107z"/>
	</g>
	<g id="XMLID_3_">
		<path id="XMLID_4_" class="st1" d="M-28.9,96.2c-4.3,4.5-11.4,4.7-16,0.5c-4.5-4.1-4.9-11.1-1-15.7c-2.8,0.6-5.5,2.1-7.5,4.4
			c-4.5,5-4.7,12.4-0.9,17.6h22.9C-30,100.9-29.1,98.6-28.9,96.2z"/>
	</g>
</g>
</svg>
