<?xml version="1.0" encoding="utf-8"?>
<!-- Generator: Adobe Illustrator 19.0.0, SVG Export Plug-In . SVG Version: 6.00 Build 0)  -->
<svg version="1.1" id="Layer_1" xmlns="http://www.w3.org/2000/svg" xmlns:xlink="http://www.w3.org/1999/xlink" x="0px" y="0px"
	 viewBox="-71 73 56 56" style="enable-background:new -71 73 56 56;" xml:space="preserve">
<style type="text/css">
	.st0{fill:#C51F46;}
	.st1{fill:#A1A4AC;}
	.st2{opacity:0.75;fill:#898080;enable-background:new    ;}
	.st3{opacity:0.5;fill:#898080;enable-background:new    ;}
	.st4{fill:#8C633B;}
	.st5{fill:#898080;}
	.st6{opacity:0.2;fill:#898080;enable-background:new    ;}
	.st7{fill:#FFFFFF;fill-opacity:0;}
</style>
<g id="XMLID_11_">
	<path id="XMLID_70_" class="st0" d="M-38,103h-10c-0.5,0-1-0.4-1-1l0,0c0-0.5,0.4-1,1-1h10c0.5,0,1,0.4,1,1l0,0
		C-37,102.6-37.5,103-38,103z"/>
	<path id="XMLID_69_" class="st0" d="M-48,105L-48,105c-0.6,0-1-0.4-1-1v-2c0-0.5,0.4-1,1-1l0,0c0.5,0,1,0.4,1,1v2
		C-47,104.6-47.5,105-48,105z"/>
	<path id="XMLID_68_" class="st0" d="M-38,107L-38,107c-0.6,0-1-0.5-1-1v-4c0-0.5,0.4-1,1-1l0,0c0.5,0,1,0.4,1,1v4
		C-37,106.5-37.5,107-38,107z"/>
	<path id="XMLID_67_" class="st0" d="M-42,109L-42,109c-0.6,0-1-0.5-1-1v-6c0-0.5,0.4-1,1-1l0,0c0.5,0,1,0.4,1,1v6
		C-41,108.5-41.5,109-42,109z"/>
	<path id="XMLID_66_" class="st1" d="M-38,97h-10c-0.5,0-1,0.4-1,1l0,0c0,0.5,0.4,1,1,1h10c0.5,0,1-0.4,1-1l0,0
		C-37,97.4-37.5,97-38,97z"/>
	<path id="XMLID_65_" class="st2" d="M-37,97h-12c-1.1,0-2-0.9-2-2l0,0c0-1.1,0.9-2,2-2h12c1.1,0,2,0.9,2,2l0,0
		C-35,96.1-35.9,97-37,97z"/>
	<path id="XMLID_64_" class="st3" d="M-52,87h14c1.6,0,3,1.3,3,3l0,0c0,1.6-1.4,3-3,3h-14c-1.6,0-3-1.3-3-3l0,0
		C-55,88.3-53.7,87-52,87z"/>
	<g id="XMLID_56_">
		<polygon id="XMLID_63_" class="st4" points="-61,121 -25,121 -39,101 -47,101 		"/>
		<circle id="XMLID_62_" class="st5" cx="-34" cy="100" r="1"/>
		<circle id="XMLID_61_" class="st5" cx="-52" cy="102" r="1"/>
		<circle id="XMLID_60_" class="st6" cx="-56" cy="84" r="1"/>
		<circle id="XMLID_59_" class="st6" cx="-31" cy="87" r="2"/>
		<circle id="XMLID_58_" class="st6" cx="-62" cy="82" r="1"/>
		<circle id="XMLID_57_" class="st5" cx="-30" cy="108" r="1"/>
	</g>
	<path id="XMLID_55_" class="st0" d="M-38,103h-10c-0.5,0-1-0.4-1-1l0,0c0-0.5,0.4-1,1-1h10c0.5,0,1,0.4,1,1l0,0
		C-37,102.6-37.5,103-38,103z"/>
	<path id="XMLID_54_" class="st0" d="M-48,105L-48,105c-0.6,0-1-0.4-1-1v-2c0-0.5,0.4-1,1-1l0,0c0.5,0,1,0.4,1,1v2
		C-47,104.6-47.5,105-48,105z"/>
	<path id="XMLID_53_" class="st0" d="M-38,107L-38,107c-0.6,0-1-0.5-1-1v-4c0-0.5,0.4-1,1-1l0,0c0.5,0,1,0.4,1,1v4
		C-37,106.5-37.5,107-38,107z"/>
	<path id="XMLID_52_" class="st0" d="M-42,109L-42,109c-0.6,0-1-0.5-1-1v-6c0-0.5,0.4-1,1-1l0,0c0.5,0,1,0.4,1,1v6
		C-41,108.5-41.5,109-42,109z"/>
	<path id="XMLID_51_" class="st5" d="M-38,97h-10c-0.5,0-1,0.4-1,1l0,0c0,0.5,0.4,1,1,1h10c0.5,0,1-0.4,1-1l0,0
		C-37,97.4-37.5,97-38,97z"/>
	<g id="XMLID_48_">
		<g id="XMLID_49_">
			<rect id="XMLID_50_" x="-71" y="73" class="st7" width="56" height="56"/>
		</g>
	</g>
</g>
</svg>
