<?xml version="1.0" encoding="utf-8"?>
<!-- Generator: Adobe Illustrator 19.0.0, SVG Export Plug-In . SVG Version: 6.00 Build 0)  -->
<svg version="1.1" id="Layer_1" xmlns="http://www.w3.org/2000/svg" xmlns:xlink="http://www.w3.org/1999/xlink" x="0px" y="0px"
	 viewBox="-71 73 56 56" style="enable-background:new -71 73 56 56;" xml:space="preserve">
<style type="text/css">
	.st0{fill:#FFFFFF;fill-opacity:0;}
	.st1{fill:#BEC8CC;}
	.st2{fill:#9FC9EB;}
</style>
<g id="XMLID_72_">
	<g id="XMLID_93_">
		<g id="XMLID_94_">
			<rect id="XMLID_96_" x="-71" y="73" class="st0" width="56" height="56"/>
			<path id="XMLID_95_" class="st1" d="M-29.4,93.6c0-0.3,0-0.6,0-0.9c0-5.4-4.4-9.7-9.7-9.7c-4.2,0-7.7,2.6-9.1,6.3
				c-0.9-1-2.2-1.6-3.7-1.6c-2.8,0-5,2.2-5,5c0,0.3,0,0.6,0.1,1c-3.7,0.6-6.5,3.8-6.5,7.7c0,4.3,3.5,7.8,7.8,7.8h24.7
				c4.3,0,7.8-3.5,7.8-7.8C-23,97.5-25.8,94.3-29.4,93.6z"/>
		</g>
	</g>
	<g id="XMLID_89_">
		<g id="XMLID_90_">
			<polygon id="XMLID_22_" class="st2" points="-55,111 -57,111 -59,117 -57,117 			"/>
		</g>
	</g>
	<g id="XMLID_85_">
		<g id="XMLID_86_">
			<polygon id="XMLID_20_" class="st2" points="-49,111 -51,111 -53,117 -51,117 			"/>
		</g>
	</g>
	<g id="XMLID_81_">
		<g id="XMLID_82_">
			<polygon id="XMLID_18_" class="st2" points="-43,111 -45,111 -47,117 -45,117 			"/>
		</g>
	</g>
	<g id="XMLID_77_">
		<g id="XMLID_78_">
			<polygon id="XMLID_16_" class="st2" points="-37,111 -39,111 -41,117 -39,117 			"/>
		</g>
	</g>
	<g id="XMLID_73_">
		<g id="XMLID_74_">
			<polygon id="XMLID_14_" class="st2" points="-31,111 -33,111 -35,117 -33,117 			"/>
		</g>
	</g>
</g>
</svg>
