<?xml version="1.0" encoding="utf-8"?>
<!-- Generator: Adobe Illustrator 19.0.0, SVG Export Plug-In . SVG Version: 6.00 Build 0)  -->
<svg version="1.1" id="Layer_1" xmlns="http://www.w3.org/2000/svg" xmlns:xlink="http://www.w3.org/1999/xlink" x="0px" y="0px"
	 viewBox="-71 73 56 56" style="enable-background:new -71 73 56 56;" xml:space="preserve">
<style type="text/css">
	.st0{fill:#FFFFFF;fill-opacity:0;}
	.st1{fill:#A1A4AC;}
</style>
<g id="XMLID_72_">
	<g id="XMLID_79_">
		<rect id="XMLID_80_" x="-71" y="73" class="st0" width="56" height="56"/>
	</g>
	<path id="XMLID_78_" class="st1" d="M-26,87h-36c-0.5,0-1,0.4-1,1l0,0c0,0.5,0.4,1,1,1h36c0.5,0,1-0.4,1-1l0,0
		C-25,87.4-25.5,87-26,87z"/>
	<path id="XMLID_77_" class="st1" d="M-58,95h28c0.5,0,1-0.4,1-1l0,0c0-0.5-0.5-1-1-1h-28c-0.5,0-1,0.5-1,1l0,0
		C-59,94.5-58.6,95-58,95z"/>
	<path id="XMLID_76_" class="st1" d="M-24,99h-28c-0.5,0-1,0.5-1,1l0,0c0,0.5,0.4,1,1,1h28c0.5,0,1-0.4,1-1l0,0
		C-23,99.4-23.5,99-24,99z"/>
	<path id="XMLID_75_" class="st1" d="M-48,107h20c0.5,0,1-0.5,1-1l0,0c0-0.5-0.5-1-1-1h-20c-0.5,0-1,0.4-1,1l0,0
		C-49,106.5-48.6,107-48,107z"/>
	<path id="XMLID_74_" class="st1" d="M-36,111h-10.7c-0.6,0-1,0.5-1,1l0,0c0,0.6,0.5,1,1,1H-36c0.5,0,1-0.5,1-1l0,0
		C-35,111.4-35.5,111-36,111z"/>
	<path id="XMLID_73_" class="st1" d="M-42,117h-6c-0.5,0-1,0.4-1,1l0,0c0,0.5,0.4,1,1,1h6c0.5,0,1-0.5,1-1l0,0
		C-41,117.4-41.5,117-42,117z"/>
</g>
</svg>
