<?xml version="1.0" encoding="utf-8"?>
<!-- Generator: Adobe Illustrator 16.0.0, SVG Export Plug-In . SVG Version: 6.00 Build 0)  -->
<!DOCTYPE svg PUBLIC "-//W3C//DTD SVG 1.1//EN" "http://www.w3.org/Graphics/SVG/1.1/DTD/svg11.dtd">
<svg version="1.1" id="Layer_1" xmlns="http://www.w3.org/2000/svg" xmlns:xlink="http://www.w3.org/1999/xlink" x="0px" y="0px"
	 width="56px" height="56px" viewBox="0 0 56 56" enable-background="new 0 0 56 56" xml:space="preserve">
<g>
	<rect opacity="0" fill="#FFFFFF" width="56" height="56"/>
	<g>
		<path fill="#FFFFFF" d="M26.4,10.371c0,11.752,0,23.502,0,35.254c0,2.068,3.203,2.068,3.203,0c0-11.752,0-23.502,0-35.254
			C29.604,8.306,26.4,8.306,26.4,10.371z"/>
		<path fill="#FFFFFF" d="M29.135,14.825c-0.931-0.994-1.863-1.989-2.795-2.985c-0.596-0.639-1.662-0.604-2.266,0
			c-0.631,0.633-0.596,1.629,0,2.266c0.932,0.994,1.865,1.989,2.795,2.985c0.596,0.64,1.665,0.603,2.266,0
			C29.768,16.461,29.73,15.462,29.135,14.825z"/>
		<path fill="#FFFFFF" d="M29.135,17.091c0.93-0.994,1.861-1.989,2.793-2.985c0.596-0.637,0.631-1.633,0-2.266
			c-0.604-0.604-1.672-0.639-2.266,0c-0.931,0.994-1.863,1.99-2.793,2.985c-0.598,0.637-0.633,1.636,0,2.266
			C27.469,17.693,28.538,17.73,29.135,17.091z"/>
		<path fill="#FFFFFF" d="M26.869,38.907c-0.93,0.994-1.863,1.988-2.795,2.986c-0.596,0.636-0.631,1.632,0,2.266
			c0.604,0.602,1.67,0.638,2.266,0c0.932-0.995,1.864-1.99,2.795-2.986c0.596-0.637,0.633-1.635,0-2.266
			C28.534,38.303,27.465,38.268,26.869,38.907z"/>
		<path fill="#FFFFFF" d="M26.869,41.173c0.93,0.994,1.862,1.989,2.793,2.986c0.594,0.638,1.664,0.602,2.266,0
			c0.631-0.634,0.596-1.63,0-2.266c-0.932-0.995-1.863-1.99-2.793-2.986c-0.597-0.64-1.666-0.604-2.266,0
			C26.236,39.538,26.271,40.536,26.869,41.173z"/>
		<path fill="#FFFFFF" d="M27.193,21.22c2.357,1.36,4.713,2.723,7.068,4.082c1.793,1.034,3.406-1.733,1.617-2.768
			c-2.355-1.358-4.713-2.72-7.066-4.081C27.016,17.417,25.404,20.188,27.193,21.22z"/>
		<path fill="#FFFFFF" d="M33.467,23.917c0,2.723,0,5.442,0,8.163c0,2.069,3.205,2.069,3.205,0c0-2.721,0-5.44,0-8.163
			C36.672,21.852,33.467,21.852,33.467,23.917z"/>
		<path fill="#FFFFFF" d="M34.262,30.695c-2.355,1.361-4.715,2.724-7.068,4.082c-1.789,1.033-0.178,3.803,1.62,2.767
			c2.357-1.36,4.712-2.721,7.066-4.082C37.67,32.432,36.055,29.66,34.262,30.695z"/>
		<path fill="#FFFFFF" d="M28.811,34.777c-2.358-1.358-4.715-2.721-7.069-4.082c-1.795-1.035-3.406,1.733-1.619,2.767
			c2.357,1.361,4.713,2.722,7.068,4.082C28.985,38.58,30.598,35.811,28.811,34.777z"/>
		<path fill="#FFFFFF" d="M22.535,32.08c0-2.721,0-5.44,0-8.163c0-2.067-3.205-2.067-3.205,0c0,2.723,0,5.442,0,8.163
			C19.33,34.146,22.535,34.146,22.535,32.08z"/>
		<path fill="#FFFFFF" d="M21.742,25.302c2.355-1.359,4.711-2.722,7.069-4.082c1.787-1.032,0.174-3.803-1.62-2.767
			c-2.357,1.361-4.715,2.723-7.068,4.081C18.334,23.566,19.947,26.336,21.742,25.302z"/>
		<path fill="#FFFFFF" d="M13.545,38.196C23.723,32.32,33.896,26.445,44.074,20.57c1.789-1.031,0.176-3.803-1.617-2.766
			c-10.18,5.876-20.354,11.75-30.531,17.627C10.139,36.459,11.752,39.23,13.545,38.196z"/>
		<path fill="#FFFFFF" d="M16.031,33.592c-0.396,1.305-0.795,2.608-1.189,3.912c-0.602,1.983,2.49,2.825,3.09,0.852
			c0.398-1.303,0.793-2.605,1.189-3.911C19.723,32.46,16.629,31.622,16.031,33.592z"/>
		<path fill="#FFFFFF" d="M18,32.475c-1.33-0.31-2.654-0.617-3.982-0.927c-2.012-0.467-2.863,2.622-0.852,3.093
			c1.33,0.309,2.654,0.615,3.98,0.925C19.16,36.031,20.012,32.941,18,32.475z"/>
		<path fill="#FFFFFF" d="M38.002,23.523c1.33,0.31,2.656,0.617,3.982,0.926c2.012,0.468,2.863-2.622,0.852-3.091
			c-1.328-0.311-2.654-0.617-3.98-0.926C36.844,19.968,35.988,23.056,38.002,23.523z"/>
		<path fill="#FFFFFF" d="M39.973,22.407c0.395-1.306,0.791-2.61,1.188-3.913c0.604-1.983-2.488-2.824-3.09-0.853
			c-0.398,1.304-0.793,2.607-1.189,3.913C36.279,23.536,39.373,24.376,39.973,22.407z"/>
		<path fill="#FFFFFF" d="M44.074,35.428c-10.178-5.875-20.352-11.751-30.529-17.626c-1.793-1.034-3.406,1.733-1.619,2.766
			c10.178,5.876,20.352,11.751,30.531,17.627C44.25,39.23,45.863,36.459,44.074,35.428z"/>
		<path fill="#FFFFFF" d="M17.285,29.494c7.145,0,14.291,0,21.434,0c2.068,0,2.068-3.205,0-3.205c-7.145,0-14.291,0-21.434,0
			C15.217,26.289,15.217,29.494,17.285,29.494z"/>
		<path fill="#FFFFFF" d="M34.744,36.367C31.172,30.179,27.6,23.99,24.027,17.802c-1.033-1.789-3.805-0.177-2.768,1.618
			c3.574,6.188,7.147,12.375,10.719,18.564C33.008,39.771,35.779,38.158,34.744,36.367z"/>
		<path fill="#FFFFFF" d="M31.977,17.802c-3.572,6.187-7.143,12.377-10.719,18.565c-1.035,1.794,1.734,3.403,2.768,1.617
			c3.57-6.189,7.145-12.376,10.717-18.564C35.779,17.625,33.008,16.013,31.977,17.802z"/>
		<path fill="#FFFFFF" d="M38.852,35.564c1.33-0.31,2.656-0.617,3.982-0.927c2.012-0.468,1.16-3.559-0.852-3.091
			c-1.33,0.309-2.654,0.615-3.982,0.926C35.988,32.941,36.844,36.031,38.852,35.564z"/>
		<path fill="#FFFFFF" d="M36.883,34.444c0.396,1.306,0.793,2.608,1.188,3.911c0.602,1.974,3.693,1.132,3.094-0.852
			c-0.398-1.304-0.793-2.607-1.189-3.912C39.373,31.622,36.279,32.46,36.883,34.444z"/>
		<path fill="#FFFFFF" d="M19.121,21.555c-0.398-1.306-0.795-2.609-1.189-3.913c-0.6-1.972-3.691-1.131-3.092,0.853
			c0.396,1.303,0.793,2.607,1.188,3.913C16.629,24.376,19.723,23.536,19.121,21.555z"/>
		<path fill="#FFFFFF" d="M17.15,20.434c-1.33,0.31-2.654,0.617-3.982,0.927c-2.012,0.467-1.16,3.559,0.852,3.091
			c1.328-0.31,2.656-0.616,3.984-0.925C20.012,23.056,19.16,19.968,17.15,20.434z"/>
	</g>
</g>
</svg>
