<?xml version="1.0" encoding="utf-8"?>
<!-- Generator: Adobe Illustrator 19.0.0, SVG Export Plug-In . SVG Version: 6.00 Build 0)  -->
<svg version="1.1" id="Layer_1" xmlns="http://www.w3.org/2000/svg" xmlns:xlink="http://www.w3.org/1999/xlink" x="0px" y="0px"
	 viewBox="-71 73 56 56" style="enable-background:new -71 73 56 56;" xml:space="preserve">
<style type="text/css">
	.st0{fill:#FFFFFF;fill-opacity:0;}
	.st1{fill:#FBE200;}
</style>
<g id="XMLID_72_">
	<g id="XMLID_89_">
		<rect id="XMLID_90_" x="-71" y="73" class="st0" width="56" height="56"/>
	</g>
	<g id="XMLID_73_">
		<g id="XMLID_76_">
			<g id="XMLID_86_">
				<path id="XMLID_88_" class="st1" d="M-43,78L-43,78c-0.6,0-1,0.4-1,1v8c0,0.5,0.5,1,1,1l0,0c0.5,0,1-0.4,1-1v-8
					C-42,78.4-42.5,78-43,78z"/>
				<path id="XMLID_87_" class="st1" d="M-43,114L-43,114c-0.6,0-1,0.5-1,1v8c0,0.5,0.5,1,1,1l0,0c0.5,0,1-0.5,1-1v-8
					C-42,114.5-42.5,114-43,114z"/>
			</g>
			<g id="XMLID_83_">
				<path id="XMLID_85_" class="st1" d="M-20,101L-20,101c0-0.6-0.5-1-1-1h-8c-0.5,0-1,0.4-1,1l0,0c0,0.5,0.4,1,1,1h8
					C-20.5,102-20,101.6-20,101z"/>
				<path id="XMLID_84_" class="st1" d="M-56,101L-56,101c0-0.6-0.4-1-1-1h-8c-0.5,0-1,0.4-1,1l0,0c0,0.5,0.4,1,1,1h8
					C-56.5,102-56,101.6-56,101z"/>
			</g>
			<g id="XMLID_80_">
				<path id="XMLID_82_" class="st1" d="M-26.7,117.3L-26.7,117.3c0.4-0.4,0.4-1,0-1.4l-5.7-5.7c-0.4-0.4-1-0.4-1.4,0l0,0
					c-0.4,0.4-0.4,1,0,1.4l5.7,5.7C-27.8,117.7-27.1,117.7-26.7,117.3z"/>
				<path id="XMLID_81_" class="st1" d="M-52.2,91.8L-52.2,91.8c0.4-0.4,0.4-1,0-1.4l-5.7-5.7c-0.4-0.4-1-0.4-1.4,0l0,0
					c-0.4,0.4-0.4,1,0,1.4l5.7,5.7C-53.2,92.2-52.6,92.2-52.2,91.8z"/>
			</g>
			<g id="XMLID_77_">
				<path id="XMLID_79_" class="st1" d="M-59.3,117.3L-59.3,117.3c0.4,0.4,1,0.4,1.4,0l5.7-5.7c0.4-0.4,0.4-1,0-1.4l0,0
					c-0.4-0.4-1-0.4-1.4,0l-5.7,5.7C-59.7,116.2-59.7,116.9-59.3,117.3z"/>
				<path id="XMLID_78_" class="st1" d="M-33.8,91.8L-33.8,91.8c0.4,0.4,1,0.4,1.4,0l5.7-5.7c0.4-0.4,0.4-1,0-1.4l0,0
					c-0.4-0.4-1-0.4-1.4,0l-5.7,5.7C-34.2,90.8-34.2,91.4-33.8,91.8z"/>
			</g>
		</g>
		<g id="XMLID_74_">
			<circle id="XMLID_75_" class="st1" cx="-43" cy="101" r="9"/>
		</g>
	</g>
</g>
</svg>
