<?xml version="1.0" encoding="utf-8"?>
<!-- Generator: Adobe Illustrator 19.0.0, SVG Export Plug-In . SVG Version: 6.00 Build 0)  -->
<svg version="1.1" id="Layer_1" xmlns="http://www.w3.org/2000/svg" xmlns:xlink="http://www.w3.org/1999/xlink" x="0px" y="0px"
	 viewBox="-71 73 56 56" style="enable-background:new -71 73 56 56;" xml:space="preserve">
<style type="text/css">
	.st0{fill:#FFFFFF;fill-opacity:0;}
	.st1{fill:#FFFFFF;}
</style>
<g id="XMLID_91_">
	<rect id="XMLID_100_" x="-71" y="73" class="st0" width="56" height="56"/>
	<path id="XMLID_99_" class="st1" d="M-41.8,116.3c2.9-1.1,5.2-3.1,6.8-5.5c-5.9,2-12.3-1.1-14.4-6.9c-2-5.7,0.8-12.1,6.4-14.4
		c-2.8-0.8-5.8-0.7-8.7,0.4c-7.3,2.7-11,10.9-8.3,18.2C-57.2,115.3-49.1,119-41.8,116.3z"/>
	<rect id="XMLID_98_" x="-37" y="83" class="st1" width="2" height="2"/>
	<g id="XMLID_95_">
		<rect id="XMLID_97_" x="-27" y="85" class="st1" width="2" height="6"/>
		<rect id="XMLID_96_" x="-29" y="87" class="st1" width="6" height="2"/>
	</g>
	<g id="XMLID_92_">
		<rect id="XMLID_94_" x="-35" y="93" class="st1" width="2" height="6"/>
		<rect id="XMLID_93_" x="-37" y="95" class="st1" width="6" height="2"/>
	</g>
</g>
</svg>
