<?xml version="1.0" encoding="utf-8"?>
<!-- Generator: Adobe Illustrator 19.0.0, SVG Export Plug-In . SVG Version: 6.00 Build 0)  -->
<svg version="1.1" id="Layer_1" xmlns="http://www.w3.org/2000/svg" xmlns:xlink="http://www.w3.org/1999/xlink" x="0px" y="0px"
	 viewBox="-71 73 56 56" style="enable-background:new -71 73 56 56;" xml:space="preserve">
<style type="text/css">
	.st0{fill:#FFFFFF;fill-opacity:0;}
	.st1{fill:#FFFFFF;}
</style>
<g id="XMLID_91_">
	<rect id="XMLID_97_" x="-71" y="73" class="st0" width="56" height="56"/>
	<g id="XMLID_92_">
		<path id="XMLID_94_" class="st1" d="M-30.2,87.2c-1.6-1.2-3.7-1.9-6.1-1.9c-5.1,0-11.1,2.9-16,7.8c-4.1,4-4.8,10.3-1.9,15.2
			c0.5,0.9,1.2,1.7,1.9,2.5c0.2,0.2,0.3,0.3,0.5,0.4c-2.1,1.5-3.5,2.2-4.2,2.4c-0.7,0.2-1.2,0.7-1.3,1.3c-0.1,0.7,0.1,1.3,0.6,1.8
			c1.6,1.2,3.7,1.9,6.1,1.9c5.1,0,11.1-2.9,16-7.8c4.1-4,4.8-10.3,1.9-15.2c-0.5-0.9-1.2-1.7-1.9-2.5c-0.2-0.2-0.3-0.3-0.5-0.4
			c2.1-1.5,3.5-2.3,4.2-2.4s1.2-0.7,1.3-1.3C-29.4,88.3-29.7,87.6-30.2,87.2z M-43.5,109.8c-4.3,0-7.9-3.5-7.9-7.9
			c0-4.3,3.5-7.9,7.9-7.9c4.3,0,7.9,3.5,7.9,7.9S-39.2,109.8-43.5,109.8z"/>
		<circle id="XMLID_93_" class="st1" cx="-43.5" cy="102" r="4.1"/>
	</g>
</g>
</svg>
