<?xml version="1.0" encoding="utf-8"?>
<!-- Generator: Adobe Illustrator 19.0.0, SVG Export Plug-In . SVG Version: 6.00 Build 0)  -->
<svg version="1.1" id="Layer_1" xmlns="http://www.w3.org/2000/svg" xmlns:xlink="http://www.w3.org/1999/xlink" x="0px" y="0px"
	 viewBox="-71 73 56 56" style="enable-background:new -71 73 56 56;" xml:space="preserve">
<style type="text/css">
	.st0{fill:#FFFFFF;fill-opacity:0;}
	.st1{fill:#FFFFFF;}
	.st2{fill:#BE1E2D;}
	.st3{fill:#FBE200;}
</style>
<g id="XMLID_91_">
	<rect id="XMLID_102_" x="-71" y="73" class="st0" width="56" height="56"/>
	<g id="XMLID_98_">
		<path id="XMLID_100_" class="st1" d="M-44.9,115c0-2.7,1.4-5.1,3.4-6.5V87.1c0-2.5,2-4.5,4.5-4.5s4.5,2,4.5,4.5v21.4
			c2.1,1.4,3.5,3.8,3.5,6.5c0,4.4-3.6,8-8,8S-44.9,119.4-44.9,115z"/>
		<path id="XMLID_99_" class="st2" d="M-35.6,111.3v-15h-2.6v15c-1.6,0.5-2.7,2-2.7,3.8c0,2.2,1.8,4,4,4s4-1.8,4-4
			C-32.9,113.3-34.1,111.8-35.6,111.3z"/>
	</g>
	<g id="XMLID_92_">
		<rect id="XMLID_97_" x="-45.7" y="81" class="st3" width="2" height="5.6"/>
		<path id="XMLID_96_" class="st3" d="M-44.7,89.6c-0.3,0-0.7,0-1,0.1c-4.5,0.5-8,4.3-8,8.9s3.5,8.4,8,8.9c0.3,0,0.7,0.1,1,0.1
			s0.7,0,1-0.1V89.6C-44.1,89.6-44.4,89.6-44.7,89.6z"/>
		<rect id="XMLID_95_" x="-64.7" y="97.6" class="st3" width="8" height="2"/>
		
			<rect id="XMLID_94_" x="-56.4" y="85" transform="matrix(-0.7073 0.7069 -0.7069 -0.7073 -32.3466 189.354)" class="st3" width="2" height="6"/>
		
			<rect id="XMLID_93_" x="-56.4" y="106.1" transform="matrix(-0.7074 -0.7069 0.7069 -0.7074 -171.6601 147.0812)" class="st3" width="2" height="6"/>
	</g>
</g>
</svg>
