<?xml version="1.0" encoding="utf-8"?>
<!-- Generator: Adobe Illustrator 19.0.0, SVG Export Plug-In . SVG Version: 6.00 Build 0)  -->
<svg version="1.1" id="Layer_1" xmlns="http://www.w3.org/2000/svg" xmlns:xlink="http://www.w3.org/1999/xlink" x="0px" y="0px"
	 viewBox="-71 73 56 56" style="enable-background:new -71 73 56 56;" xml:space="preserve">
<style type="text/css">
	.st0{fill:#FFFFFF;fill-opacity:0;}
	.st1{fill:#BEC8CC;}
	.st2{fill:#DCE6EB;}
</style>
<g id="XMLID_10_">
	<g id="XMLID_129_">
		<rect id="XMLID_130_" x="-71" y="73" class="st0" width="56" height="56"/>
	</g>
	<g id="XMLID_97_">
		<path id="XMLID_103_" class="st1" d="M-61.6,105.2l1,2.3l-1.4,3l2.3,2.2l2.9-1.6l2.4,0.8l1.1,3.1l3.3-0.1l0.9-3.1l2.3-1l3,1.5
			l2.2-2.3l-1.6-2.9l0.9-2.4l3.1-1.1v-3.2l-3.2-1l-1-2.3L-42,94l-2.3-2.2l-2.9,1.6l-2.4-0.9l-1.1-3.1l-3.2,0.1l-1,3.2l-2.3,1l-3-1.4
			l-2.2,2.3l1.6,2.9l-0.8,2.4l-3.2,1.1l0.1,3.3L-61.6,105.2z M-56.4,98.2c2.3-2.4,6-2.5,8.4-0.2s2.5,6,0.2,8.4s-6,2.5-8.4,0.2
			C-58.6,104.4-58.7,100.6-56.4,98.2z"/>
		<circle id="XMLID_102_" class="st2" cx="-52.1" cy="102.3" r="3.5"/>
		<path id="XMLID_99_" class="st1" d="M-38.4,98l1.2,1.4l-0.4,2.4l2,1.1l1.8-1.6l1.8,0.1l1.4,2l2.3-0.7l0.1-2.4l1.4-1.2l2.4,0.5
			l1.1-2l-1.6-1.7l0.2-1.8l2-1.4l-0.6-2.2l-2.7-0.1l-1.2-1.4l0.4-2.5l-2-1.1l-1.8,1.7l-1.8-0.1l-1.4-2l-2.2,0.6v2.5l-1.4,1.2
			l-2.4-0.4l-1.1,2l1.6,1.7l-0.1,1.8l-2,1.3l0.7,2.3L-38.4,98L-38.4,98z M-36,92.2c1.1-2.1,3.8-2.9,5.8-1.7c2.1,1.1,2.9,3.8,1.7,5.8
			c-1.1,2.1-3.8,2.9-5.8,1.7C-36.4,96.9-37.2,94.3-36,92.2z"/>
		<path id="XMLID_98_" class="st2" d="M-31.2,92.3c1.1,0.6,1.5,1.9,0.9,3s-1.9,1.5-3,0.9s-1.5-1.9-0.9-3
			C-33.6,92.2-32.3,91.8-31.2,92.3z"/>
	</g>
</g>
</svg>
