<?xml version="1.0" encoding="utf-8"?>
<!-- Generator: Adobe Illustrator 19.0.0, SVG Export Plug-In . SVG Version: 6.00 Build 0)  -->
<svg version="1.1" id="Layer_1" xmlns="http://www.w3.org/2000/svg" xmlns:xlink="http://www.w3.org/1999/xlink" x="0px" y="0px"
	 viewBox="-71 73 56 56" style="enable-background:new -71 73 56 56;" xml:space="preserve">
<style type="text/css">
	.st0{fill:#FFFFFF;fill-opacity:0;}
	.st1{fill:#FBE200;}
</style>
<g id="XMLID_120_">
	<g id="XMLID_125_">
		<rect id="XMLID_126_" x="-71" y="73" class="st0" width="56" height="56"/>
	</g>
	<g id="XMLID_121_">
		<polygon id="XMLID_124_" class="st1" points="-30.6,109 -31.5,113.7 -41.4,113.7 -43.7,113.7 -53.6,113.7 -54.5,109 		"/>
		<path id="XMLID_122_" class="st1" d="M-25.9,94.6c0,0.7-0.6,1.3-1.3,1.3c-0.1,0-0.2,0-0.3,0l-2.8,11.7h-24.4l-3-11.6
			c-0.1,0-0.2,0-0.3,0c-0.7,0-1.3-0.6-1.3-1.3c0-0.7,0.6-1.3,1.3-1.3s1.3,0.6,1.3,1.3c0,0.3-0.1,0.6-0.3,0.9l4.8,4.6l1.1-7.7
			c-0.6-0.1-1.1-0.6-1.1-1.2c0-0.7,0.6-1.3,1.3-1.3s1.3,0.6,1.3,1.3c0,0.4-0.2,0.8-0.6,1.1l3.9,6l3.5-9c-0.5-0.2-0.8-0.6-0.8-1.2
			c0-0.7,0.6-1.3,1.3-1.3s1.3,0.6,1.3,1.3c0,0.5-0.4,1-0.8,1.2l3.6,9.6l3.4-6.3c-0.4-0.2-0.7-0.6-0.7-1.1c0-0.7,0.6-1.3,1.3-1.3
			s1.3,0.6,1.3,1.3c0,0.6-0.4,1.1-1,1.2l1.6,7.7l4.7-5c-0.3-0.2-0.5-0.6-0.5-1c0-0.7,0.6-1.3,1.3-1.3
			C-26.4,93.3-25.9,93.9-25.9,94.6z"/>
	</g>
</g>
</svg>
