<?xml version="1.0" encoding="utf-8"?>
<!-- Generator: Adobe Illustrator 19.0.0, SVG Export Plug-In . SVG Version: 6.00 Build 0)  -->
<svg version="1.1" id="Layer_1" xmlns="http://www.w3.org/2000/svg" xmlns:xlink="http://www.w3.org/1999/xlink" x="0px" y="0px"
	 viewBox="-71 73 56 56" style="enable-background:new -71 73 56 56;" xml:space="preserve">
<style type="text/css">
	.st0{fill:#FFFFFF;fill-opacity:0;}
	.st1{fill:#D1D3D4;}
</style>
<g id="XMLID_145_">
	<rect id="XMLID_150_" x="-71" y="73" class="st0" width="56" height="56"/>
	<path id="XMLID_149_" class="st1" d="M-34.1,100.9h-29.2c-0.7,0-1.3,0.6-1.3,1.3c0,0.7,0.6,1.3,1.3,1.3H-34c2.5,0,4.5,2,4.5,4.5
		s-2,4.5-4.5,4.5c-0.7,0-1.3,0.6-1.3,1.3c0,0.7,0.6,1.3,1.3,1.3c3.9,0,7.1-3.2,7.1-7.1S-30.2,100.9-34.1,100.9z"/>
	<path id="XMLID_148_" class="st1" d="M-39.9,107h-24c-0.6,0-1.1,0.5-1.1,1.2c0,0.6,0.5,1.2,1.2,1.2h24c0.3,0,0.6,0.3,0.6,0.6
		s-0.3,0.6-0.6,0.6c-0.6,0-1.2,0.5-1.2,1.2c0,0.6,0.5,1.2,1.2,1.2c1.6,0,2.9-1.3,2.9-2.9C-37,108.3-38.3,107-39.9,107z"/>
	<path id="XMLID_147_" class="st1" d="M-23.5,95.2c-0.6,0-1.2,0.5-1.2,1.2c0,0.6,0.5,1.2,1.2,1.2c0.3,0,0.6,0.3,0.6,0.6
		c0,0.3-0.3,0.6-0.6,0.6h-2.3c-0.6,0-1.2,0.5-1.2,1.2c0,0.6,0.5,1.2,1.2,1.2h2.3c1.6,0,2.9-1.3,2.9-2.9
		C-20.6,96.5-21.9,95.2-23.5,95.2z"/>
	<path id="XMLID_146_" class="st1" d="M-63.7,97.5H-32c2.9,0,5.2-2.4,5.2-5.2c0-2.8-2.3-5.3-5.2-5.3s-5.2,2.4-5.2,5.2
		c0,0.7,0.6,1.3,1.3,1.3s1.3-0.6,1.3-1.3c0-1.4,1.2-2.6,2.6-2.6c1.4,0,2.6,1.2,2.6,2.6s-1.2,2.6-2.6,2.6h-31.7
		c-0.7,0-1.3,0.6-1.3,1.3C-65,96.9-64.4,97.5-63.7,97.5z"/>
</g>
</svg>
