<?xml version="1.0" encoding="utf-8"?>
<!-- Generator: Adobe Illustrator 16.0.0, SVG Export Plug-In . SVG Version: 6.00 Build 0)  -->
<!DOCTYPE svg PUBLIC "-//W3C//DTD SVG 1.1//EN" "http://www.w3.org/Graphics/SVG/1.1/DTD/svg11.dtd">
<svg version="1.1" id="Layer_1" xmlns="http://www.w3.org/2000/svg" xmlns:xlink="http://www.w3.org/1999/xlink" x="0px" y="0px"
	 width="56px" height="56px" viewBox="0 0 56 56" enable-background="new 0 0 56 56" xml:space="preserve">
<g>
	<rect opacity="0" fill="#FFFFFF" width="56" height="56"/>
	<g>
		<path fill="#979BA4" d="M39.43,23.762c0.033-0.278,0.043-0.562,0.043-0.848c0-4.963-4.021-8.982-8.982-8.982
			c-3.85,0-7.125,2.426-8.402,5.832c-0.846-0.93-2.053-1.521-3.408-1.521c-2.555,0-4.625,2.068-4.625,4.624
			c0,0.303,0.031,0.595,0.09,0.882c-3.408,0.563-6.018,3.502-6.018,7.065c0,3.971,3.217,7.186,7.186,7.186h3.324l3.424-5.76
			l0.582-0.979h1.137h4.809h3.531l-1.816,3.029L28.078,38h10.047c3.969,0,7.186-3.215,7.186-7.186
			C45.311,27.294,42.771,24.38,39.43,23.762z"/>
	</g>
	<g>
		<polygon fill="#FBF49C" points="23.779,33.262 28.588,33.262 24.266,40.471 29.311,40.471 17.779,52 21.779,43.354 17.779,43.354 
					"/>
	</g>
	<g>
		<g>
			<path fill="#FFFFFF" d="M46.363,19.444c1.551-0.587,2.789-1.637,3.637-2.93c-3.152,1.076-6.611-0.581-7.736-3.725
				c-1.098-3.075,0.436-6.466,3.424-7.701c-1.492-0.411-3.117-0.38-4.67,0.206c-3.408,1.288-5.348,4.798-4.797,8.264
				c2.16,1.328,3.824,3.379,4.658,5.816C42.576,20.059,44.521,20.141,46.363,19.444z"/>
		</g>
		<rect x="8.127" y="12" fill="#FFFFFF" width="2" height="2"/>
		<g>
			<rect x="20.127" y="6" fill="#FFFFFF" width="2" height="6"/>
			<rect x="18.127" y="8" fill="#FFFFFF" width="6" height="2"/>
		</g>
	</g>
</g>
</svg>
