<?xml version="1.0" encoding="utf-8"?>
<!-- Generator: Adobe Illustrator 16.0.0, SVG Export Plug-In . SVG Version: 6.00 Build 0)  -->
<!DOCTYPE svg PUBLIC "-//W3C//DTD SVG 1.1//EN" "http://www.w3.org/Graphics/SVG/1.1/DTD/svg11.dtd">
<svg version="1.1" id="Layer_1" xmlns="http://www.w3.org/2000/svg" xmlns:xlink="http://www.w3.org/1999/xlink" x="0px" y="0px"
	 width="56px" height="56px" viewBox="0 0 56 56" enable-background="new 0 0 56 56" xml:space="preserve">
<g>
	<rect opacity="0" fill="#FFFFFF" width="56" height="56"/>
	<g>
		<path fill="#9FC9EB" d="M40.762,14.152c-1.615-1.24-3.729-1.896-6.109-1.896c-5.143,0-11.139,2.928-16.041,7.832
			c-4.053,4.049-4.846,10.321-1.932,15.25c0.529,0.895,1.178,1.729,1.932,2.482c0.15,0.15,0.305,0.298,0.463,0.441
			c-2.117,1.531-3.525,2.249-4.193,2.4c-0.662,0.15-1.176,0.67-1.322,1.332c-0.145,0.662,0.105,1.349,0.645,1.762
			c1.615,1.24,3.729,1.896,6.107,1.896c5.139,0,11.135-2.927,16.039-7.83c4.051-4.051,4.846-10.321,1.932-15.25
			c-0.527-0.893-1.178-1.729-1.932-2.482c-0.15-0.151-0.305-0.298-0.461-0.44c2.129-1.54,3.531-2.255,4.189-2.402
			c0.662-0.148,1.182-0.667,1.328-1.33S41.301,14.565,40.762,14.152z M27.482,36.826c-4.348,0-7.871-3.523-7.871-7.872
			c0-4.348,3.523-7.872,7.871-7.872s7.873,3.524,7.873,7.872C35.355,33.303,31.83,36.826,27.482,36.826z"/>
		<circle fill="#FFFFFF" cx="27.482" cy="28.955" r="4.123"/>
	</g>
</g>
</svg>
