<?xml version="1.0" encoding="utf-8"?>
<!-- Generator: Adobe Illustrator 16.0.0, SVG Export Plug-In . SVG Version: 6.00 Build 0)  -->
<!DOCTYPE svg PUBLIC "-//W3C//DTD SVG 1.1//EN" "http://www.w3.org/Graphics/SVG/1.1/DTD/svg11.dtd">
<svg version="1.1" id="Layer_1" xmlns="http://www.w3.org/2000/svg" xmlns:xlink="http://www.w3.org/1999/xlink" x="0px" y="0px"
	 width="56px" height="56px" viewBox="0 0 56 56" enable-background="new 0 0 56 56" xml:space="preserve">
<g>
	<rect opacity="0" fill="#FFFFFF" width="56" height="56"/>
	<g>
		<path fill="#D1D3D4" d="M45.213,20.003c0.025-0.227,0.033-0.457,0.033-0.69c0-4.04-3.273-7.312-7.312-7.312
			c-3.133,0-5.801,1.975-6.84,4.748c-0.689-0.757-1.672-1.237-2.775-1.237c-0.643,0-1.239,0.176-1.768,0.46
			c3.623,1.062,6.338,4.272,6.662,8.152c0.096,0.04,0.182,0.097,0.275,0.141C34.189,24.093,34.918,24,35.66,24
			c4.535,0,8.32,3.26,9.143,7.558C47.727,31.232,50,28.757,50,25.746C50,22.879,47.934,20.507,45.213,20.003z"/>
		<path fill="#D1D3D4" d="M20.332,32.497c0.035-0.264,0.105-0.516,0.176-0.768c0.098-0.349,0.225-0.683,0.383-1.001
			c0.15-0.307,0.328-0.596,0.529-0.868c1.051-1.419,2.727-2.35,4.625-2.35c0.707,0,1.402,0.133,2.053,0.384
			c0.827-1.148,1.908-2.083,3.137-2.753c0.004-0.078,0.012-0.154,0.012-0.233c0-3.703-2.753-6.754-6.322-7.238
			c-0.324-0.044-0.654-0.074-0.99-0.074c-0.02,0-0.039,0.005-0.061,0.005c-0.367,0.003-0.729,0.029-1.082,0.085
			c-2.627,0.413-4.787,2.229-5.697,4.658c-0.689-0.757-1.672-1.237-2.775-1.237c-2.08,0-3.766,1.684-3.766,3.764
			c0,0.247,0.027,0.484,0.074,0.719c-2.775,0.459-4.9,2.851-4.9,5.753c0,3.231,2.619,5.85,5.85,5.85h2.705h1.611
			C16.623,35.074,18.225,33.352,20.332,32.497z"/>
		<path fill="#D1D3D4" d="M42.939,34.003c0.016-0.134,0.016-0.271,0.02-0.407c0.004-0.095,0.014-0.188,0.014-0.283
			c0-0.242-0.014-0.48-0.035-0.717c-0.033-0.342-0.098-0.674-0.176-1c-0.756-3.136-3.525-5.478-6.867-5.584
			C35.816,26.01,35.74,26,35.66,26c-0.393,0-0.777,0.031-1.152,0.091c-0.43,0.068-0.842,0.184-1.244,0.323
			c-2.047,0.714-3.684,2.306-4.443,4.334c-0.69-0.757-1.672-1.237-2.776-1.237c-1.229,0-2.309,0.596-2.996,1.505
			c-0.201,0.266-0.371,0.553-0.496,0.867c-0.125,0.312-0.197,0.648-0.234,0.996c-0.014,0.132-0.039,0.26-0.039,0.396
			c0,0.247,0.027,0.484,0.074,0.719c-1.893,0.313-3.465,1.537-4.285,3.198c-0.156,0.318-0.283,0.651-0.381,1
			c-0.09,0.323-0.15,0.656-0.184,1c-0.018,0.185-0.051,0.365-0.051,0.555c0,3.231,2.619,5.85,5.85,5.85h2.705h7.689h8.18
			c3.23,0,5.85-2.618,5.85-5.85C47.727,36.879,45.66,34.507,42.939,34.003z"/>
	</g>
</g>
</svg>
