<?xml version="1.0" encoding="utf-8"?>
<!-- Generator: Adobe Illustrator 16.0.0, SVG Export Plug-In . SVG Version: 6.00 Build 0)  -->
<!DOCTYPE svg PUBLIC "-//W3C//DTD SVG 1.1//EN" "http://www.w3.org/Graphics/SVG/1.1/DTD/svg11.dtd">
<svg version="1.1" id="Layer_1" xmlns="http://www.w3.org/2000/svg" xmlns:xlink="http://www.w3.org/1999/xlink" x="0px" y="0px"
	 width="56px" height="56px" viewBox="0 0 56 56" enable-background="new 0 0 56 56" xml:space="preserve">
<rect x="1055.809" y="772" opacity="0" fill="#FFFFFF" width="56" height="56"/>
<g>
	<path fill="#FFFFFF" d="M1068.307,797.596h-2.428c-2.902,0-5.254-2.351-5.254-5.253c0-2.605,1.908-4.753,4.4-5.165
		c-0.043-0.211-0.066-0.424-0.066-0.646c0-1.868,1.514-3.38,3.381-3.38c0.99,0,1.873,0.432,2.492,1.111
		c0.934-2.49,3.328-4.264,6.143-4.264c3.625,0,6.566,2.938,6.566,6.566c0,0.209-0.008,0.416-0.031,0.62
		c2.443,0.452,4.299,2.582,4.299,5.156c0,2.902-2.352,5.253-5.252,5.253h-7.346H1068.307z"/>
</g>
<path fill="#D1D3D4" d="M1092.75,805.883h-19.252c-0.709,0-1.283,0.573-1.283,1.283c0,0.709,0.574,1.282,1.283,1.282h19.252
	c2.477,0,4.492,2.016,4.492,4.493c0,2.477-2.016,4.491-4.492,4.491c-0.709,0-1.283,0.575-1.283,1.282
	c0,0.711,0.574,1.285,1.283,1.285c3.891,0,7.059-3.167,7.059-7.059C1099.809,809.049,1096.641,805.883,1092.75,805.883z"/>
<path fill="#D1D3D4" d="M1086.922,812h-13.951c-0.643,0-1.162,0.52-1.162,1.163c0,0.642,0.52,1.162,1.162,1.162h13.951
	c0.32,0,0.58,0.262,0.58,0.581c0,0.32-0.26,0.58-0.58,0.58c-0.643,0-1.162,0.521-1.162,1.164s0.52,1.163,1.162,1.163
	c1.602,0,2.906-1.306,2.906-2.907S1088.523,812,1086.922,812z"/>
<path fill="#D1D3D4" d="M1103.295,800.188c-0.641,0-1.162,0.52-1.162,1.161c0,0.643,0.521,1.162,1.162,1.162
	c0.32,0,0.582,0.263,0.582,0.582c0,0.32-0.262,0.582-0.582,0.582h-2.324c-0.643,0-1.162,0.52-1.162,1.162s0.52,1.162,1.162,1.162
	h2.324c1.602,0,2.906-1.305,2.906-2.906S1104.896,800.188,1103.295,800.188z"/>
<path fill="#D1D3D4" d="M1073.121,802.5h21.656c2.895,0,5.25-2.355,5.25-5.25s-2.355-5.25-5.25-5.25s-5.25,2.355-5.25,5.25
	c0,0.725,0.588,1.313,1.312,1.313s1.312-0.589,1.312-1.313c0-1.447,1.178-2.625,2.625-2.625s2.625,1.178,2.625,2.625
	s-1.178,2.625-2.625,2.625h-21.656c-0.725,0-1.312,0.588-1.312,1.312C1071.809,801.912,1072.396,802.5,1073.121,802.5z"/>
<g>
	<rect opacity="0" fill="#FFFFFF" width="56" height="56"/>
	<g>
		<path fill="#FFFFFF" d="M12.498,25.596H10.07c-2.902,0-5.254-2.351-5.254-5.253c0-2.605,1.908-4.753,4.4-5.166
			c-0.043-0.21-0.066-0.423-0.066-0.645c0-1.868,1.514-3.38,3.381-3.38c0.99,0,1.873,0.432,2.492,1.112
			C15.957,9.773,18.352,8,21.166,8c3.625,0,6.566,2.938,6.566,6.567c0,0.208-0.008,0.416-0.031,0.62
			C30.145,15.638,32,17.769,32,20.343c0,2.902-2.352,5.253-5.252,5.253h-7.346H12.498z"/>
	</g>
	<path fill="#D1D3D4" d="M36.941,33.883H17.689c-0.709,0-1.283,0.573-1.283,1.283c0,0.709,0.574,1.282,1.283,1.282h19.252
		c2.477,0,4.492,2.016,4.492,4.493c0,2.477-2.016,4.491-4.492,4.491c-0.709,0-1.283,0.575-1.283,1.282
		c0,0.711,0.574,1.285,1.283,1.285C40.832,48,44,44.833,44,40.941C44,37.049,40.832,33.883,36.941,33.883z"/>
	<path fill="#D1D3D4" d="M31.113,40H17.162C16.52,40,16,40.52,16,41.163c0,0.642,0.52,1.162,1.162,1.162h13.951
		c0.32,0,0.58,0.262,0.58,0.581c0,0.32-0.26,0.58-0.58,0.58c-0.643,0-1.162,0.521-1.162,1.164s0.52,1.163,1.162,1.163
		c1.602,0,2.906-1.306,2.906-2.907S32.715,40,31.113,40z"/>
	<path fill="#D1D3D4" d="M47.486,28.188c-0.641,0-1.162,0.52-1.162,1.161c0,0.643,0.521,1.162,1.162,1.162
		c0.32,0,0.582,0.263,0.582,0.582c0,0.32-0.262,0.582-0.582,0.582h-2.324c-0.643,0-1.162,0.52-1.162,1.162S44.52,34,45.162,34h2.324
		c1.602,0,2.906-1.305,2.906-2.906S49.088,28.188,47.486,28.188z"/>
	<path fill="#D1D3D4" d="M17.312,30.5h21.656c2.895,0,5.25-2.356,5.25-5.25S41.863,20,38.969,20s-5.25,2.356-5.25,5.25
		c0,0.725,0.588,1.313,1.312,1.313s1.312-0.588,1.312-1.313c0-1.447,1.178-2.625,2.625-2.625s2.625,1.178,2.625,2.625
		s-1.178,2.625-2.625,2.625H17.312c-0.725,0-1.312,0.587-1.312,1.312C16,29.912,16.588,30.5,17.312,30.5z"/>
</g>
</svg>
