<?xml version="1.0" encoding="utf-8"?>
<!-- Generator: Adobe Illustrator 16.0.0, SVG Export Plug-In . SVG Version: 6.00 Build 0)  -->
<!DOCTYPE svg PUBLIC "-//W3C//DTD SVG 1.1//EN" "http://www.w3.org/Graphics/SVG/1.1/DTD/svg11.dtd">
<svg version="1.1" id="Layer_1" xmlns="http://www.w3.org/2000/svg" xmlns:xlink="http://www.w3.org/1999/xlink" x="0px" y="0px"
	 width="56px" height="56px" viewBox="0 0 56 56" enable-background="new 0 0 56 56" xml:space="preserve">
<g>
	<rect opacity="0" fill="#FFFFFF" width="56" height="56"/>
	<g>
		<circle fill="#FBE200" cx="27" cy="28" r="9"/>
		<rect x="26" y="8" fill="#FBE200" width="2" height="8"/>
		<rect x="26" y="40" fill="#FBE200" width="2" height="8"/>
		<rect x="39" y="27" fill="#FBE200" width="8" height="2"/>
		
			<rect x="36.607" y="35.606" transform="matrix(-0.7069 0.7074 -0.7074 -0.7069 91.499 39.2943)" fill="#FBE200" width="2" height="6"/>
		<rect x="7" y="27" fill="#FBE200" width="8" height="2"/>
		
			<rect x="15.392" y="14.393" transform="matrix(-0.7074 0.7069 -0.7069 -0.7074 40.2824 18.1088)" fill="#FBE200" width="2.002" height="6.001"/>
		
			<rect x="15.393" y="35.606" transform="matrix(-0.7074 -0.7069 0.7069 -0.7074 0.7001 77.5027)" fill="#FBE200" width="2.002" height="6"/>
		
			<rect x="36.607" y="14.393" transform="matrix(-0.7069 -0.7074 0.7074 -0.7069 51.888 56.2884)" fill="#FBE200" width="2" height="6"/>
	</g>
</g>
</svg>
