<?xml version="1.0" encoding="utf-8"?>
<!-- Generator: Adobe Illustrator 16.0.0, SVG Export Plug-In . SVG Version: 6.00 Build 0)  -->
<!DOCTYPE svg PUBLIC "-//W3C//DTD SVG 1.1//EN" "http://www.w3.org/Graphics/SVG/1.1/DTD/svg11.dtd">
<svg version="1.1" id="Layer_1" xmlns="http://www.w3.org/2000/svg" xmlns:xlink="http://www.w3.org/1999/xlink" x="0px" y="0px"
	 width="56px" height="56px" viewBox="0 0 56 56" enable-background="new 0 0 56 56" xml:space="preserve">
<g>
	<rect opacity="0" fill="#FFFFFF" width="56" height="56"/>
	<g>
		<rect x="46" y="40" fill="#FFFFFF" width="2" height="6"/>
		<rect x="44" y="42" fill="#FFFFFF" width="6" height="2"/>
	</g>
	<g>
		<rect x="10" y="38" fill="#FFFFFF" width="2" height="6"/>
		<rect x="8" y="40" fill="#FFFFFF" width="6" height="2"/>
	</g>
	<g>
		<path fill="#FFFFFF" d="M48.273,26.218c0-3.813-2.75-6.97-6.369-7.64c0.034-0.3,0.045-0.609,0.045-0.918
			c0-5.375-4.355-9.728-9.729-9.728c-4.169,0-7.718,2.628-9.1,6.317c-0.916-1.007-2.223-1.647-3.691-1.647
			c-2.768,0-5.01,2.241-5.01,5.008c0,0.327,0.034,0.644,0.097,0.955C10.825,19.175,8,22.357,8,26.218C8,30.519,11.483,34,15.781,34
			h2.75c0.422-0.371,0.934-0.633,1.501-0.729c-0.027-0.17-0.042-0.344-0.042-0.521c0-0.128,0.007-0.254,0.021-0.377
			c-1.331-0.235-2.388-1.35-2.552-2.773c-0.036-0.312-0.024-0.62,0.028-0.912c-0.582-0.735-0.797-1.708-0.54-2.666
			c0.373-1.391,1.603-2.362,2.989-2.362c0.146,0,0.293,0.011,0.438,0.033c0.569-0.483,1.312-0.758,2.089-0.758
			c0.938,0,1.772,0.394,2.338,1.06c0.237-0.189,0.5-0.345,0.78-0.463c-0.39-1.098-0.147-2.354,0.723-3.224
			c0.344-0.345,0.77-0.603,1.234-0.753c0.453-1.129,1.557-1.909,2.88-1.909s2.427,0.779,2.88,1.909
			c0.463,0.151,0.889,0.407,1.232,0.751c0.871,0.872,1.115,2.128,0.725,3.226c0.279,0.118,0.543,0.273,0.779,0.462
			c0.566-0.666,1.4-1.06,2.339-1.06c0.778,0,1.521,0.276,2.09,0.759c0.146-0.021,0.292-0.033,0.438-0.033
			c1.388,0,2.616,0.972,2.989,2.364c0.256,0.957,0.041,1.927-0.539,2.661c0.055,0.293,0.064,0.601,0.029,0.916
			c-0.164,1.423-1.223,2.536-2.554,2.77c0.015,0.124,0.022,0.25,0.022,0.379c0,0.178-0.015,0.352-0.042,0.52
			c0.478,0.082,0.917,0.279,1.297,0.561C45.629,33.086,48.273,29.964,48.273,26.218z"/>
	</g>
	<g>
		<path fill="#FFFFFF" d="M29.32,20.711c0,8.075,0,16.148,0,24.223c0,1.421,2.201,1.421,2.201,0c0-8.075,0-16.148,0-24.223
			C31.521,19.291,29.32,19.291,29.32,20.711z"/>
		<path fill="#FFFFFF" d="M31.199,23.772c-0.64-0.684-1.279-1.367-1.92-2.052c-0.409-0.439-1.143-0.415-1.556,0
			c-0.434,0.434-0.41,1.119,0,1.557c0.639,0.684,1.281,1.367,1.919,2.052c0.41,0.439,1.145,0.414,1.557,0
			C31.634,24.894,31.609,24.209,31.199,23.772z"/>
		<path fill="#FFFFFF" d="M31.199,25.329c0.639-0.684,1.279-1.367,1.92-2.052c0.409-0.438,0.434-1.123,0-1.557
			c-0.415-0.415-1.148-0.439-1.558,0c-0.64,0.684-1.28,1.367-1.919,2.052c-0.41,0.437-0.435,1.122,0,1.557
			C30.055,25.743,30.789,25.768,31.199,25.329z"/>
		<path fill="#FFFFFF" d="M29.643,40.318c-0.639,0.684-1.28,1.366-1.919,2.052c-0.41,0.437-0.434,1.122,0,1.557
			c0.415,0.414,1.147,0.438,1.556,0c0.641-0.684,1.28-1.367,1.92-2.052c0.41-0.438,0.435-1.123,0-1.557
			C30.787,39.903,30.053,39.879,29.643,40.318z"/>
		<path fill="#FFFFFF" d="M29.643,41.875c0.639,0.684,1.279,1.367,1.919,2.052c0.409,0.438,1.144,0.414,1.558,0
			c0.434-0.435,0.409-1.12,0-1.557c-0.641-0.684-1.281-1.367-1.92-2.052c-0.41-0.439-1.145-0.415-1.557,0
			C29.208,40.752,29.232,41.438,29.643,41.875z"/>
		<path fill="#FFFFFF" d="M29.865,28.165c1.62,0.935,3.239,1.87,4.857,2.805c1.232,0.711,2.34-1.191,1.111-1.901
			c-1.619-0.934-3.238-1.87-4.856-2.804C29.744,25.552,28.637,27.456,29.865,28.165z"/>
		<path fill="#FFFFFF" d="M34.177,30.019c0,1.87,0,3.739,0,5.608c0,1.422,2.202,1.422,2.202,0c0-1.869,0-3.738,0-5.608
			C36.379,28.6,34.177,28.6,34.177,30.019z"/>
		<path fill="#FFFFFF" d="M34.723,34.676c-1.619,0.936-3.239,1.871-4.857,2.805c-1.229,0.71-0.121,2.613,1.112,1.901
			c1.62-0.935,3.239-1.87,4.856-2.805C37.064,35.869,35.955,33.965,34.723,34.676z"/>
		<path fill="#FFFFFF" d="M30.977,37.48c-1.62-0.934-3.239-1.869-4.857-2.805c-1.233-0.711-2.34,1.191-1.112,1.901
			c1.62,0.935,3.239,1.87,4.857,2.805C31.097,40.094,32.205,38.19,30.977,37.48z"/>
		<path fill="#FFFFFF" d="M26.665,35.627c0-1.869,0-3.738,0-5.608c0-1.421-2.202-1.421-2.202,0c0,1.87,0,3.739,0,5.608
			C24.463,37.047,26.665,37.047,26.665,35.627z"/>
		<path fill="#FFFFFF" d="M26.119,30.97c1.619-0.935,3.238-1.87,4.857-2.805c1.229-0.709,0.12-2.613-1.112-1.901
			c-1.62,0.935-3.239,1.871-4.857,2.804C23.778,29.777,24.886,31.681,26.119,30.97z"/>
		<path fill="#FFFFFF" d="M20.487,39.83c6.993-4.037,13.984-8.074,20.978-12.111c1.229-0.709,0.121-2.614-1.111-1.901
			c-6.994,4.038-13.985,8.075-20.978,12.112C18.147,38.637,19.256,40.541,20.487,39.83z"/>
		<path fill="#FFFFFF" d="M22.195,36.666c-0.272,0.896-0.544,1.792-0.816,2.688c-0.414,1.362,1.711,1.94,2.124,0.585
			c0.272-0.896,0.545-1.791,0.817-2.688C24.732,35.889,22.606,35.312,22.195,36.666z"/>
		<path fill="#FFFFFF" d="M23.548,35.898c-0.913-0.213-1.824-0.424-2.735-0.637c-1.382-0.32-1.968,1.802-0.586,2.125
			c0.913,0.212,1.824,0.423,2.736,0.636C24.345,38.342,24.932,36.219,23.548,35.898z"/>
		<path fill="#FFFFFF" d="M37.293,29.748c0.913,0.213,1.824,0.424,2.736,0.636c1.382,0.321,1.967-1.801,0.585-2.124
			c-0.913-0.212-1.824-0.423-2.735-0.636C36.496,27.304,35.909,29.427,37.293,29.748z"/>
		<path fill="#FFFFFF" d="M38.646,28.98c0.271-0.896,0.544-1.792,0.816-2.688c0.414-1.363-1.711-1.94-2.124-0.586
			c-0.272,0.896-0.544,1.792-0.816,2.689C36.109,29.757,38.234,30.334,38.646,28.98z"/>
		<path fill="#FFFFFF" d="M41.465,37.928c-6.993-4.037-13.985-8.074-20.978-12.111c-1.232-0.711-2.34,1.191-1.112,1.901
			c6.993,4.037,13.984,8.074,20.978,12.111C41.586,40.541,42.694,38.637,41.465,37.928z"/>
		<path fill="#FFFFFF" d="M23.056,33.851c4.91,0,9.821,0,14.729,0c1.421,0,1.421-2.202,0-2.202c-4.91,0-9.82,0-14.729,0
			C21.636,31.648,21.636,33.851,23.056,33.851z"/>
		<path fill="#FFFFFF" d="M35.055,38.573c-2.455-4.253-4.91-8.505-7.365-12.757c-0.709-1.229-2.613-0.121-1.9,1.112
			c2.455,4.252,4.91,8.503,7.364,12.756C33.861,40.912,35.766,39.804,35.055,38.573z"/>
		<path fill="#FFFFFF" d="M33.152,25.816c-2.455,4.251-4.908,8.504-7.365,12.757c-0.71,1.232,1.191,2.339,1.901,1.111
			c2.454-4.253,4.909-8.504,7.364-12.756C35.766,25.695,33.861,24.587,33.152,25.816z"/>
		<path fill="#FFFFFF" d="M37.877,38.021c0.913-0.213,1.824-0.424,2.736-0.637c1.382-0.321,0.797-2.445-0.586-2.124
			c-0.913,0.212-1.824,0.423-2.736,0.636C35.909,36.219,36.496,38.342,37.877,38.021z"/>
		<path fill="#FFFFFF" d="M36.523,37.252c0.272,0.896,0.545,1.792,0.816,2.688c0.412,1.355,2.537,0.777,2.125-0.585
			c-0.273-0.896-0.545-1.792-0.816-2.688C38.234,35.312,36.109,35.889,36.523,37.252z"/>
		<path fill="#FFFFFF" d="M24.318,28.395c-0.272-0.896-0.544-1.792-0.817-2.689c-0.411-1.354-2.537-0.777-2.124,0.586
			c0.272,0.896,0.544,1.792,0.816,2.688C22.606,30.334,24.732,29.757,24.318,28.395z"/>
		<path fill="#FFFFFF" d="M22.964,27.625c-0.913,0.212-1.824,0.423-2.736,0.636c-1.382,0.321-0.796,2.445,0.586,2.124
			c0.913-0.213,1.824-0.424,2.736-0.636C24.932,29.427,24.345,27.304,22.964,27.625z"/>
	</g>
	<rect x="20" y="46" fill="#FFFFFF" width="2" height="2"/>
	<rect x="36" y="50" fill="#FFFFFF" width="2" height="2"/>
</g>
</svg>
