<?xml version="1.0" encoding="utf-8"?>
<!-- Generator: Adobe Illustrator 16.0.0, SVG Export Plug-In . SVG Version: 6.00 Build 0)  -->
<!DOCTYPE svg PUBLIC "-//W3C//DTD SVG 1.1//EN" "http://www.w3.org/Graphics/SVG/1.1/DTD/svg11.dtd">
<svg version="1.1" id="Layer_1" xmlns="http://www.w3.org/2000/svg" xmlns:xlink="http://www.w3.org/1999/xlink" x="0px" y="0px"
	 width="56px" height="56px" viewBox="0 0 56 56" enable-background="new 0 0 56 56" xml:space="preserve">
<g>
	<rect opacity="0" fill="#FFFFFF" width="56" height="56"/>
	<g>
		<path fill="#FBE200" d="M21.369,16.243c0.896,0,1.773,0.19,2.584,0.538C23.984,16.502,24,16.219,24,15.932c0-4.418-3.582-8-8-8
			s-8,3.582-8,8c0,3.288,1.986,6.111,4.822,7.341c0.605-0.412,1.248-0.774,1.951-1.036C15.094,18.879,17.93,16.243,21.369,16.243z"
			/>
	</g>
	<g>
		<path fill="#FFFFFF" d="M21.326,38h-3.324c-3.969,0-7.186-3.215-7.186-7.186c0-3.563,2.609-6.502,6.018-7.065
			c-0.059-0.287-0.09-0.579-0.09-0.882c0-2.556,2.07-4.624,4.625-4.624c1.355,0,2.562,0.591,3.408,1.521
			c1.277-3.406,4.553-5.832,8.402-5.832c4.961,0,8.982,4.02,8.982,8.982c0,0.285-0.01,0.569-0.043,0.848
			C45.461,24.38,48,27.294,48,30.814C48,34.785,44.783,38,40.814,38H30.768H21.326z"/>
	</g>
	<g>
		<g>
			<rect x="20" y="42.645" fill="#9FC9EB" width="2" height="9.355"/>
		</g>
	</g>
	<g>
		<g>
			<rect x="28" y="42.645" fill="#9FC9EB" width="2" height="9.355"/>
		</g>
	</g>
	<rect x="24" y="40" fill="#9FC9EB" width="2" height="6.508"/>
	<g>
		<g>
			<rect x="36" y="42.645" fill="#9FC9EB" width="2" height="9.355"/>
		</g>
	</g>
	<rect x="32" y="40" fill="#9FC9EB" width="2" height="6.508"/>
	<rect x="40" y="40" fill="#9FC9EB" width="2" height="6.508"/>
	<rect x="16" y="40" fill="#9FC9EB" width="2" height="6.508"/>
</g>
</svg>
