<?xml version="1.0" encoding="utf-8"?>
<!-- Generator: Adobe Illustrator 16.0.0, SVG Export Plug-In . SVG Version: 6.00 Build 0)  -->
<!DOCTYPE svg PUBLIC "-//W3C//DTD SVG 1.1//EN" "http://www.w3.org/Graphics/SVG/1.1/DTD/svg11.dtd">
<svg version="1.1" id="Layer_1" xmlns="http://www.w3.org/2000/svg" xmlns:xlink="http://www.w3.org/1999/xlink" x="0px" y="0px"
	 width="56px" height="56px" viewBox="0 0 56 56" enable-background="new 0 0 56 56" xml:space="preserve">
<g>
	<rect opacity="0" fill="#FFFFFF" width="56" height="56"/>
	<path fill="#A1A4AC" d="M41.631,24.646c0.035-0.3,0.045-0.609,0.045-0.918c0-5.375-4.355-9.728-9.729-9.728
		c-4.168,0-7.717,2.628-9.1,6.317c-0.916-1.007-2.223-1.647-3.691-1.647c-2.768,0-5.01,2.241-5.01,5.008
		c0,0.327,0.034,0.644,0.097,0.955c-3.691,0.61-6.517,3.792-6.517,7.653c0,4.301,3.483,7.782,7.781,7.782h24.708
		c4.3,0,7.783-3.481,7.783-7.782C48,28.473,45.25,25.316,41.631,24.646z"/>
</g>
</svg>
