<?xml version="1.0" encoding="utf-8"?>
<!-- Generator: Adobe Illustrator 16.0.0, SVG Export Plug-In . SVG Version: 6.00 Build 0)  -->
<!DOCTYPE svg PUBLIC "-//W3C//DTD SVG 1.1//EN" "http://www.w3.org/Graphics/SVG/1.1/DTD/svg11.dtd">
<svg version="1.1" id="Layer_1" xmlns="http://www.w3.org/2000/svg" xmlns:xlink="http://www.w3.org/1999/xlink" x="0px" y="0px"
	 width="56px" height="56px" viewBox="0 0 56 56" enable-background="new 0 0 56 56" xml:space="preserve">
<g>
	<rect opacity="0" fill="#FFFFFF" width="56" height="56"/>
	<g>
		<path fill="#A1A4AC" d="M48.273,24.278c0-3.813-2.75-6.97-6.369-7.64c0.035-0.3,0.045-0.609,0.045-0.918
			c0-5.375-4.355-9.728-9.729-9.728c-4.168,0-7.717,2.628-9.1,6.317c-0.916-1.007-2.223-1.647-3.691-1.647
			c-2.768,0-5.01,2.241-5.01,5.008c0,0.327,0.033,0.644,0.098,0.955C10.826,17.235,8,20.417,8,24.278
			c0,4.301,3.484,7.783,7.781,7.783h2.75c0.422-0.371,0.934-0.634,1.502-0.729c-0.027-0.169-0.043-0.343-0.043-0.521
			c0-0.128,0.008-0.253,0.021-0.376c-1.33-0.236-2.387-1.35-2.551-2.773c-0.035-0.313-0.025-0.62,0.027-0.913
			c-0.582-0.735-0.797-1.708-0.539-2.666c0.373-1.391,1.602-2.362,2.988-2.362c0.146,0,0.293,0.011,0.439,0.033
			c0.568-0.483,1.312-0.758,2.09-0.758c0.938,0,1.771,0.394,2.338,1.06c0.236-0.189,0.5-0.345,0.779-0.463
			c-0.391-1.098-0.146-2.354,0.723-3.224c0.344-0.345,0.77-0.603,1.234-0.753c0.453-1.129,1.557-1.909,2.881-1.909
			c1.322,0,2.426,0.779,2.879,1.909c0.463,0.151,0.889,0.407,1.232,0.751c0.871,0.872,1.115,2.128,0.725,3.226
			c0.279,0.118,0.543,0.273,0.779,0.462c0.566-0.666,1.4-1.06,2.34-1.06c0.777,0,1.52,0.276,2.09,0.759
			c0.145-0.021,0.291-0.033,0.438-0.033c1.387,0,2.615,0.972,2.988,2.364c0.256,0.957,0.041,1.927-0.539,2.661
			c0.055,0.293,0.064,0.601,0.029,0.915c-0.164,1.423-1.223,2.536-2.553,2.771c0.014,0.123,0.021,0.25,0.021,0.378
			c0,0.178-0.014,0.352-0.041,0.521c0.477,0.081,0.916,0.279,1.297,0.56C45.629,31.146,48.273,28.024,48.273,24.278z"/>
	</g>
	<g>
		<path fill="#FFFFFF" d="M29.32,18.771c0,8.075,0,16.148,0,24.223c0,1.421,2.201,1.421,2.201,0c0-8.074,0-16.148,0-24.223
			C31.521,17.351,29.32,17.351,29.32,18.771z"/>
		<path fill="#FFFFFF" d="M31.199,21.832c-0.639-0.684-1.279-1.367-1.92-2.052c-0.408-0.439-1.143-0.415-1.557,0
			c-0.434,0.434-0.408,1.119,0,1.557c0.641,0.684,1.281,1.367,1.92,2.052c0.41,0.439,1.145,0.414,1.557,0
			C31.635,22.954,31.609,22.269,31.199,21.832z"/>
		<path fill="#FFFFFF" d="M31.199,23.389c0.639-0.684,1.279-1.367,1.92-2.052c0.41-0.438,0.434-1.123,0-1.557
			c-0.414-0.415-1.148-0.439-1.557,0c-0.641,0.684-1.281,1.367-1.92,2.052c-0.41,0.437-0.434,1.122,0,1.557
			C30.055,23.803,30.789,23.828,31.199,23.389z"/>
		<path fill="#FFFFFF" d="M29.643,38.378c-0.639,0.684-1.279,1.366-1.92,2.052c-0.408,0.438-0.434,1.123,0,1.557
			c0.416,0.414,1.149,0.439,1.557,0c0.641-0.684,1.281-1.367,1.92-2.052c0.41-0.438,0.436-1.122,0-1.557
			C30.787,37.963,30.053,37.939,29.643,38.378z"/>
		<path fill="#FFFFFF" d="M29.643,39.935c0.639,0.684,1.279,1.367,1.92,2.052c0.408,0.439,1.143,0.414,1.557,0
			c0.434-0.434,0.41-1.119,0-1.557c-0.641-0.684-1.281-1.367-1.92-2.052c-0.41-0.438-1.145-0.415-1.557,0
			C29.209,38.812,29.232,39.497,29.643,39.935z"/>
		<path fill="#FFFFFF" d="M29.865,26.225c1.621,0.935,3.24,1.87,4.857,2.804c1.232,0.711,2.34-1.191,1.111-1.9
			c-1.619-0.934-3.238-1.87-4.855-2.805C29.744,23.612,28.637,25.516,29.865,26.225z"/>
		<path fill="#FFFFFF" d="M34.178,28.079c0,1.871,0,3.739,0,5.609c0,1.421,2.201,1.421,2.201,0c0-1.87,0-3.738,0-5.609
			C36.379,26.66,34.178,26.66,34.178,28.079z"/>
		<path fill="#FFFFFF" d="M34.723,32.736c-1.619,0.935-3.238,1.871-4.857,2.805c-1.228,0.709-0.121,2.613,1.113,1.9
			c1.619-0.934,3.238-1.869,4.855-2.805C37.064,33.93,35.955,32.025,34.723,32.736z"/>
		<path fill="#FFFFFF" d="M30.977,35.541c-1.619-0.934-3.238-1.87-4.857-2.805c-1.232-0.711-2.34,1.191-1.111,1.9
			c1.619,0.936,3.239,1.871,4.857,2.805C31.098,38.154,32.205,36.25,30.977,35.541z"/>
		<path fill="#FFFFFF" d="M26.666,33.688c0-1.87,0-3.738,0-5.609c0-1.421-2.203-1.421-2.203,0c0,1.871,0,3.739,0,5.609
			C24.463,35.107,26.666,35.107,26.666,33.688z"/>
		<path fill="#FFFFFF" d="M26.119,29.029c1.619-0.934,3.238-1.87,4.857-2.804c1.229-0.709,0.121-2.613-1.111-1.901
			c-1.621,0.935-3.24,1.871-4.857,2.805C23.777,27.837,24.887,29.74,26.119,29.029z"/>
		<path fill="#FFFFFF" d="M20.488,37.891c6.992-4.037,13.984-8.074,20.977-12.112c1.23-0.709,0.121-2.614-1.111-1.901
			c-6.994,4.037-13.984,8.074-20.979,12.111C18.148,36.697,19.256,38.602,20.488,37.891z"/>
		<path fill="#FFFFFF" d="M22.195,34.727c-0.271,0.896-0.545,1.791-0.816,2.688c-0.414,1.363,1.711,1.941,2.123,0.586
			c0.273-0.896,0.545-1.792,0.818-2.688C24.732,33.949,22.607,33.373,22.195,34.727z"/>
		<path fill="#FFFFFF" d="M23.549,33.959c-0.914-0.213-1.824-0.424-2.736-0.637c-1.381-0.321-1.967,1.801-0.586,2.124
			c0.914,0.212,1.824,0.423,2.736,0.636C24.346,36.402,24.932,34.279,23.549,33.959z"/>
		<path fill="#FFFFFF" d="M37.293,27.808c0.914,0.213,1.824,0.423,2.736,0.636c1.383,0.321,1.967-1.801,0.586-2.124
			c-0.914-0.212-1.824-0.423-2.736-0.636C36.496,25.364,35.91,27.487,37.293,27.808z"/>
		<path fill="#FFFFFF" d="M38.646,27.041c0.271-0.896,0.545-1.792,0.816-2.688c0.414-1.363-1.711-1.94-2.123-0.586
			c-0.273,0.896-0.545,1.792-0.816,2.689C36.109,27.817,38.234,28.394,38.646,27.041z"/>
		<path fill="#FFFFFF" d="M41.465,35.988c-6.992-4.037-13.984-8.075-20.977-12.112c-1.232-0.711-2.34,1.191-1.113,1.901
			c6.994,4.037,13.984,8.074,20.979,12.111C41.586,38.602,42.695,36.697,41.465,35.988z"/>
		<path fill="#FFFFFF" d="M23.057,31.91c4.91,0,9.82,0,14.729,0c1.422,0,1.422-2.201,0-2.201c-4.91,0-9.82,0-14.729,0
			C21.637,29.709,21.637,31.91,23.057,31.91z"/>
		<path fill="#FFFFFF" d="M35.055,36.633c-2.455-4.252-4.91-8.504-7.365-12.756c-0.709-1.229-2.613-0.121-1.9,1.112
			c2.456,4.252,4.91,8.504,7.365,12.756C33.861,38.973,35.766,37.863,35.055,36.633z"/>
		<path fill="#FFFFFF" d="M33.152,23.876c-2.455,4.251-4.908,8.504-7.365,12.756c-0.711,1.232,1.191,2.34,1.902,1.111
			c2.453-4.252,4.908-8.504,7.363-12.756C35.766,23.755,33.861,22.647,33.152,23.876z"/>
		<path fill="#FFFFFF" d="M37.877,36.081c0.914-0.213,1.824-0.424,2.736-0.636c1.383-0.322,0.797-2.445-0.586-2.125
			c-0.912,0.213-1.824,0.424-2.736,0.637C35.91,34.279,36.496,36.402,37.877,36.081z"/>
		<path fill="#FFFFFF" d="M36.523,35.312c0.273,0.896,0.545,1.792,0.816,2.688c0.412,1.355,2.537,0.777,2.125-0.586
			c-0.273-0.896-0.545-1.792-0.816-2.688C38.234,33.373,36.109,33.949,36.523,35.312z"/>
		<path fill="#FFFFFF" d="M24.318,26.455c-0.273-0.896-0.545-1.792-0.816-2.689c-0.412-1.354-2.537-0.777-2.125,0.586
			c0.273,0.896,0.545,1.792,0.816,2.688C22.607,28.394,24.732,27.817,24.318,26.455z"/>
		<path fill="#FFFFFF" d="M22.965,25.686c-0.914,0.212-1.824,0.423-2.736,0.636c-1.381,0.321-0.797,2.445,0.586,2.124
			c0.912-0.213,1.824-0.424,2.736-0.636C24.932,27.487,24.346,25.364,22.965,25.686z"/>
	</g>
	<rect x="20" y="42.12" fill="#9FC9EB" width="2" height="7.94"/>
	<rect x="16" y="38.12" fill="#9FC9EB" width="2" height="7.94"/>
	<rect x="12" y="34.12" fill="#9FC9EB" width="2" height="7.94"/>
	<rect x="24" y="42.12" fill="#9FC9EB" width="2" height="3.94"/>
	<rect x="28" y="46.061" fill="#9FC9EB" width="2" height="3.939"/>
	<rect x="32" y="48.061" fill="#9FC9EB" width="2" height="3.939"/>
	<rect x="36" y="44.12" fill="#9FC9EB" width="2" height="5.94"/>
	<rect x="40" y="42.12" fill="#9FC9EB" width="2" height="3.94"/>
</g>
</svg>
