<?xml version="1.0" encoding="utf-8"?>
<!-- Generator: Adobe Illustrator 19.0.0, SVG Export Plug-In . SVG Version: 6.00 Build 0)  -->
<svg version="1.1" id="Layer_1" xmlns="http://www.w3.org/2000/svg" xmlns:xlink="http://www.w3.org/1999/xlink" x="0px" y="0px"
	 viewBox="-71 73 580 320" style="enable-background:new -71 73 580 320;" xml:space="preserve">
<style type="text/css">
	.st0{opacity:0.9;}
	.st1{fill:#BE1E2D;}
	.st2{fill:#FFFFFF;}
	.st3{fill:none;}
	.st4{font-family:'OpenSans';}
	.st5{font-size:36px;}
</style>
<path class="st0" d="M479,393H-41c-16.5,0-30-13.5-30-30V103c0-16.5,13.5-30,30-30h520c16.5,0,30,13.5,30,30v260
	C509,379.5,495.5,393,479,393z"/>
<g id="XMLID_2942_">
	<g id="XMLID_174_">
		<path class="st1" d="M481,126.6c-14.1,0-25.6-11.5-25.6-25.6s11.5-25.6,25.6-25.6s25.6,11.5,25.6,25.6S495.1,126.6,481,126.6z"/>
		<path class="st2" d="M481,77.4c13.1,0,23.6,10.6,23.6,23.6S494,124.6,481,124.6S457.4,114,457.4,101S467.9,77.4,481,77.4
			 M481,73.4c-15.2,0-27.6,12.4-27.6,27.6s12.4,27.6,27.6,27.6s27.6-12.4,27.6-27.6S496.2,73.4,481,73.4L481,73.4z"/>
	</g>
	<path id="XMLID_2943_" class="st2" d="M491.6,111.6L491.6,111.6c-1,1-2.6,1-3.5,0L470.5,94c-1-1-1-2.6,0-3.5l0,0c1-1,2.6-1,3.5,0
		l17.5,17.5C492.6,109,492.6,110.6,491.6,111.6z"/>
	<path id="XMLID_2961_" class="st2" d="M470.4,111.6L470.4,111.6c-1-1-1-2.6,0-3.5L488,90.5c1-1,2.6-1,3.5,0l0,0c1,1,1,2.6,0,3.5
		L474,111.5C473,112.6,471.4,112.6,470.4,111.6z"/>
</g>
<rect x="-15.4" y="154" class="st3" width="488.5" height="178"/>
<text transform="matrix(1 0 0 1 78.978 181.3678)"><tspan x="0" y="0" class="st2 st4 st5">You &apos;ve added the  </tspan><tspan x="-27.8" y="43.2" class="st2 st4 st5">maximum amount of </tspan><tspan x="-37.9" y="86.4" class="st2 st4 st5">locations, delete some </tspan><tspan x="-63.9" y="129.6" class="st2 st4 st5">before adding a new one.</tspan></text>
</svg>
