<?xml version="1.0" encoding="utf-8"?>
<!-- Generator: Adobe Illustrator 19.0.0, SVG Export Plug-In . SVG Version: 6.00 Build 0)  -->
<svg version="1.1" id="Layer_1" xmlns="http://www.w3.org/2000/svg" xmlns:xlink="http://www.w3.org/1999/xlink" x="0px" y="0px"
	 viewBox="-71 73 720 59" style="enable-background:new -71 73 720 59;" xml:space="preserve">
<style type="text/css">
	.st0{fill:#FFFFFF;}
	.st1{fill:#CCCCCC;}
	.st2{fill:#4FAADF;}
</style>
<g id="XMLID_1_">
	<g>
		<path id="XMLID_3_" class="st0" d="M-20.9,83.4L-20.9,83.4c2,2,2,5.1,0,6.8L-36.7,106c-2,2-5.1,2-6.8,0l0,0c-2-2-2-5.1,0-6.8
			l15.9-15.8C-25.9,81.4-22.9,81.4-20.9,83.4z"/>
		<path id="XMLID_4_" class="st0" d="M-20.9,121.6L-20.9,121.6c-2,2-5.1,2-6.8,0l-15.8-15.8c-2-2-2-5.1,0-6.8l0,0c2-2,5.1-2,6.8,0
			l15.8,15.8C-19,116.5-19,119.6-20.9,121.6z"/>
	</g>
</g>
<g>
	<path class="st0" d="M39.5,131C23.8,131,11,118.2,11,102.5S23.8,74,39.5,74h540c15.7,0,28.5,12.8,28.5,28.5S595.2,131,579.5,131
		H39.5z"/>
	<path class="st1" d="M579.5,75c15.2,0,27.5,12.3,27.5,27.5S594.7,130,579.5,130h-540C24.3,130,12,117.7,12,102.5S24.3,75,39.5,75
		H579.5 M579.5,73h-540C23.3,73,10,86.3,10,102.5S23.3,132,39.5,132h540c16.2,0,29.5-13.3,29.5-29.5S595.7,73,579.5,73L579.5,73z"/>
</g>
<g id="XMLID_2942_">
	<g id="XMLID_174_">
		<path class="st2" d="M577.1,126.4c-13.2,0-23.9-10.7-23.9-23.9s10.7-23.9,23.9-23.9c13.2,0,23.9,10.7,23.9,23.9
			S590.3,126.4,577.1,126.4z"/>
		<path class="st0" d="M577.1,80.5c12.2,0,22,9.9,22,22s-9.9,22-22,22c-12.1,0-22-9.9-22-22S564.9,80.5,577.1,80.5 M577.1,76.8
			c-14.2,0-25.7,11.6-25.7,25.7s11.6,25.8,25.7,25.8c14.2,0,25.8-11.6,25.8-25.7S591.3,76.8,577.1,76.8L577.1,76.8z"/>
	</g>
	<path id="XMLID_2943_" class="st0" d="M577.1,116.5L577.1,116.5c-1.3,0-2.3-1-2.3-2.3V90.9c0-1.3,1-2.3,2.3-2.3l0,0
		c1.3,0,2.3,1,2.3,2.3v23C579.6,115.5,578.4,116.5,577.1,116.5z"/>
	<path id="XMLID_2961_" class="st0" d="M563.1,102.5L563.1,102.5c0-1.3,1-2.3,2.3-2.3h23.2c1.3,0,2.3,1,2.3,2.3l0,0
		c0,1.3-1,2.3-2.3,2.3h-23C564.3,104.9,563.1,103.8,563.1,102.5z"/>
</g>
</svg>
