<?xml version="1.0" encoding="utf-8"?>
<!-- Generator: Adobe Illustrator 19.0.0, SVG Export Plug-In . SVG Version: 6.00 Build 0)  -->
<svg version="1.1" id="Layer_1" xmlns="http://www.w3.org/2000/svg" xmlns:xlink="http://www.w3.org/1999/xlink" x="0px" y="0px"
	 viewBox="-49 51 100 100" style="enable-background:new -49 51 100 100;" xml:space="preserve">
<style type="text/css">
	.st0{fill:#FFFFFF;}
	.st1{enable-background:new    ;}
</style>
<g id="XMLID_1_">
	<path id="XMLID_16_" class="st0" d="M1,56c24.8,0,45,20.2,45,45s-20.2,45-45,45s-45-20.2-45-45S-23.8,56,1,56 M1,51
		c-27.6,0-50,22.4-50,50s22.4,50,50,50s50-22.4,50-50S28.6,51,1,51L1,51z"/>
</g>
<g class="st1">
	<path class="st0" d="M-22.2,87.6c0-2.1,0.8-4,2.3-5.5c1.5-1.5,3.4-2.3,5.6-2.3c2.2,0,4,0.8,5.5,2.3c1.5,1.5,2.3,3.4,2.3,5.6
		c0,2.2-0.8,4-2.3,5.5c-1.5,1.5-3.4,2.2-5.5,2.2c-1.4,0-2.7-0.3-3.9-1c-1.2-0.7-2.2-1.6-2.9-2.8C-21.9,90.3-22.2,89-22.2,87.6z
		 M-18.6,87.6c0,1.1,0.4,2.1,1.2,2.9s1.8,1.2,3,1.2s2.2-0.4,3-1.2s1.2-1.8,1.2-2.9c0-1.2-0.4-2.2-1.2-3s-1.8-1.2-2.9-1.2
		s-2.1,0.4-2.9,1.2C-18.2,85.4-18.6,86.4-18.6,87.6z"/>
	<path class="st0" d="M15.3,84.6c-3.3,0-5.8,1.2-7.7,3.5c-1.9,2.3-2.8,5.5-2.8,9.6c0,4.3,0.9,7.5,2.7,9.7s4.4,3.3,7.8,3.3
		c1.5,0,2.9-0.1,4.3-0.4c1.4-0.3,2.8-0.7,4.3-1.1v4.9c-2.7,1-5.8,1.5-9.3,1.5c-5.1,0-9-1.5-11.7-4.6c-2.7-3.1-4.1-7.5-4.1-13.2
		c0-3.6,0.7-6.8,2-9.5c1.3-2.7,3.2-4.8,5.7-6.2c2.5-1.4,5.4-2.2,8.8-2.2c3.5,0,6.8,0.7,9.8,2.2l-2,4.7c-1.2-0.6-2.4-1-3.7-1.5
		S16.8,84.6,15.3,84.6z"/>
</g>
</svg>
