<?xml version="1.0" encoding="utf-8"?>
<!-- Generator: Adobe Illustrator 19.0.0, SVG Export Plug-In . SVG Version: 6.00 Build 0)  -->
<svg version="1.1" id="Layer_1" xmlns="http://www.w3.org/2000/svg" xmlns:xlink="http://www.w3.org/1999/xlink" x="0px" y="0px"
	 viewBox="-71 73 56 56" style="enable-background:new -71 73 56 56;" xml:space="preserve">
<style type="text/css">
	.st0{fill:#FFFFFF;fill-opacity:0;}
	.st1{fill:#BE1E2D;}
	.st2{fill:#FFFFFF;}
</style>
<g id="XMLID_2942_">
	<g id="XMLID_3338_">
		<rect id="XMLID_3339_" x="-71" y="73" class="st0" width="56" height="56"/>
	</g>
	<g id="XMLID_174_">
		<path class="st1" d="M-43,126.6c-14.1,0-25.6-11.5-25.6-25.6S-57.1,75.4-43,75.4s25.6,11.5,25.6,25.6S-28.9,126.6-43,126.6z"/>
		<path class="st2" d="M-43,77.4c13.1,0,23.6,10.6,23.6,23.6S-30,124.6-43,124.6S-66.6,114-66.6,101S-56.1,77.4-43,77.4 M-43,73.4
			c-15.2,0-27.6,12.4-27.6,27.6s12.4,27.6,27.6,27.6s27.6-12.4,27.6-27.6S-27.8,73.4-43,73.4L-43,73.4z"/>
	</g>
	<path id="XMLID_2943_" class="st2" d="M-32.4,111.6L-32.4,111.6c-1,1-2.6,1-3.5,0L-53.5,94c-1-1-1-2.6,0-3.5l0,0c1-1,2.6-1,3.5,0
		l17.5,17.5C-31.4,109-31.4,110.6-32.4,111.6z"/>
	<path id="XMLID_2961_" class="st2" d="M-53.6,111.6L-53.6,111.6c-1-1-1-2.6,0-3.5L-36,90.5c1-1,2.6-1,3.5,0l0,0c1,1,1,2.6,0,3.5
		L-50,111.5C-51,112.6-52.6,112.6-53.6,111.6z"/>
</g>
</svg>
