<?xml version="1.0" encoding="utf-8"?>
<!-- Generator: Adobe Illustrator 19.0.0, SVG Export Plug-In . SVG Version: 6.00 Build 0)  -->
<svg version="1.1" id="Layer_1" xmlns="http://www.w3.org/2000/svg" xmlns:xlink="http://www.w3.org/1999/xlink" x="0px" y="0px"
	 viewBox="190 -60 580 320" style="enable-background:new 190 -60 580 320;" xml:space="preserve">
<style type="text/css">
	.st0{opacity:0.9;enable-background:new    ;}
	.st1{fill:#BE1E2D;}
	.st2{fill:#FFFFFF;}
	.st3{fill:none;}
	.st4{enable-background:new    ;}
</style>
<g>
	<path class="st0" d="M740,260H220c-16.5,0-30-13.5-30-30V-30c0-16.5,13.5-30,30-30h520c16.5,0,30,13.5,30,30v260
		C770,246.5,756.5,260,740,260z"/>
	<g id="XMLID_2942_">
		<g id="XMLID_174_">
			<path class="st1" d="M742-6.4c-14.1,0-25.6-11.5-25.6-25.6s11.5-25.6,25.6-25.6s25.6,11.5,25.6,25.6S756.1-6.4,742-6.4z"/>
			<path class="st2" d="M742-55.6c13.1,0,23.6,10.6,23.6,23.6S755-8.4,742-8.4S718.4-19,718.4-32S728.9-55.6,742-55.6 M742-59.6
				c-15.2,0-27.6,12.4-27.6,27.6S726.8-4.4,742-4.4s27.6-12.4,27.6-27.6S757.2-59.6,742-59.6L742-59.6z"/>
		</g>
		<path id="XMLID_2943_" class="st2" d="M752.6-21.4L752.6-21.4c-1,1-2.6,1-3.5,0L731.5-39c-1-1-1-2.6,0-3.5l0,0c1-1,2.6-1,3.5,0
			L752.5-25C753.6-24,753.6-22.4,752.6-21.4z"/>
		<path id="XMLID_2961_" class="st2" d="M731.4-21.4L731.4-21.4c-1-1-1-2.6,0-3.5L749-42.5c1-1,2.6-1,3.5,0l0,0c1,1,1,2.6,0,3.5
			L735-21.5C734-20.4,732.4-20.4,731.4-21.4z"/>
	</g>
	<rect x="245.6" y="21" class="st3" width="488.5" height="178"/>
	<g class="st4">
		<path class="st2" d="M350.1,35.5l6.9-12.8h3.2l-8.6,15.7v10h-3v-9.8L340,22.7h3.3L350.1,35.5z"/>
		<path class="st2" d="M379.9,38.7c0,3.1-0.8,5.6-2.4,7.4s-3.8,2.6-6.6,2.6c-1.7,0-3.3-0.4-4.6-1.2s-2.4-2-3.1-3.5s-1.1-3.3-1.1-5.3
			c0-3.1,0.8-5.6,2.4-7.3s3.8-2.6,6.5-2.6c2.7,0,4.8,0.9,6.4,2.7S379.9,35.7,379.9,38.7z M365.2,38.7c0,2.5,0.5,4.3,1.5,5.6
			s2.4,1.9,4.3,1.9s3.4-0.6,4.4-1.9s1.5-3.2,1.5-5.6c0-2.4-0.5-4.3-1.5-5.6s-2.5-1.9-4.4-1.9c-1.9,0-3.4,0.6-4.3,1.9
			S365.2,36.2,365.2,38.7z"/>
		<path class="st2" d="M387.7,29.1v12.5c0,1.6,0.4,2.7,1.1,3.5s1.8,1.2,3.4,1.2c2,0,3.5-0.6,4.4-1.7s1.4-2.9,1.4-5.4V29.1h2.9v19.3
			h-2.4l-0.4-2.6h-0.2c-0.6,0.9-1.4,1.7-2.5,2.2s-2.3,0.8-3.6,0.8c-2.3,0-4.1-0.6-5.3-1.7s-1.7-2.9-1.7-5.3V29.1H387.7z"/>
		<path class="st2" d="M418.9,22.7l-0.7,9.3h-1.8l-0.7-9.3H418.9z"/>
		<path class="st2" d="M428.6,48.4l-7.3-19.3h3.1l4.1,11.4c0.9,2.7,1.5,4.4,1.7,5.2h0.1c0.1-0.6,0.5-1.9,1.2-3.9s2.2-6.2,4.6-12.8
			h3.1L432,48.4H428.6z"/>
		<path class="st2" d="M450.6,48.7c-2.8,0-5.1-0.9-6.7-2.6s-2.5-4.1-2.5-7.2c0-3.1,0.8-5.6,2.3-7.4s3.6-2.7,6.2-2.7
			c2.4,0,4.3,0.8,5.7,2.4s2.1,3.7,2.1,6.3v1.8h-13.3c0.1,2.3,0.6,4,1.7,5.2s2.6,1.8,4.6,1.8c2.1,0,4.1-0.4,6.2-1.3v2.6
			c-1,0.4-2,0.8-2.9,1S451.9,48.7,450.6,48.7z M449.8,31.2c-1.5,0-2.8,0.5-3.7,1.5s-1.5,2.4-1.6,4.2h10.1c0-1.8-0.4-3.2-1.2-4.2
			S451.3,31.2,449.8,31.2z"/>
		<path class="st2" d="M483.8,48.4l-0.6-2.7h-0.1c-1,1.2-1.9,2-2.9,2.5c-1,0.4-2.1,0.6-3.6,0.6c-1.9,0-3.4-0.5-4.5-1.5
			s-1.6-2.4-1.6-4.2c0-3.9,3.1-5.9,9.3-6.1l3.3-0.1v-1.2c0-1.5-0.3-2.6-1-3.3s-1.7-1.1-3.1-1.1c-1.6,0-3.4,0.5-5.4,1.5l-0.9-2.2
			c0.9-0.5,2-0.9,3.1-1.2s2.3-0.4,3.4-0.4c2.3,0,4,0.5,5.1,1.5s1.7,2.7,1.7,4.9v13.1H483.8z M477.2,46.3c1.8,0,3.2-0.5,4.3-1.5
			s1.6-2.4,1.6-4.2v-1.7l-2.9,0.1c-2.3,0.1-4,0.4-5,1.1s-1.5,1.6-1.5,3c0,1.1,0.3,1.9,1,2.4S476.1,46.3,477.2,46.3z"/>
		<path class="st2" d="M505.1,45.8h-0.2c-1.3,2-3.4,2.9-6,2.9c-2.5,0-4.5-0.9-5.9-2.6s-2.1-4.2-2.1-7.3s0.7-5.6,2.1-7.4
			s3.4-2.6,5.9-2.6c2.6,0,4.6,0.9,6,2.8h0.2l-0.1-1.4l-0.1-1.4V21h2.9v27.4h-2.4L505.1,45.8z M499.3,46.3c2,0,3.4-0.5,4.3-1.6
			s1.3-2.8,1.3-5.2v-0.6c0-2.7-0.5-4.7-1.4-5.8s-2.4-1.7-4.4-1.7c-1.7,0-3,0.7-3.9,2s-1.4,3.2-1.4,5.6c0,2.5,0.5,4.3,1.4,5.6
			S497.5,46.3,499.3,46.3z"/>
		<path class="st2" d="M527.2,45.8H527c-1.3,2-3.4,2.9-6,2.9c-2.5,0-4.5-0.9-5.9-2.6S513,42,513,38.8s0.7-5.6,2.1-7.4
			s3.4-2.6,5.9-2.6c2.6,0,4.6,0.9,6,2.8h0.2l-0.1-1.4l-0.1-1.4V21h2.9v27.4h-2.4L527.2,45.8z M521.3,46.3c2,0,3.4-0.5,4.3-1.6
			s1.3-2.8,1.3-5.2v-0.6c0-2.7-0.5-4.7-1.4-5.8s-2.4-1.7-4.4-1.7c-1.7,0-3,0.7-3.9,2s-1.4,3.2-1.4,5.6c0,2.5,0.5,4.3,1.4,5.6
			S519.6,46.3,521.3,46.3z"/>
		<path class="st2" d="M544.3,48.7c-2.8,0-5.1-0.9-6.7-2.6S535,42,535,38.9c0-3.1,0.8-5.6,2.3-7.4s3.6-2.7,6.2-2.7
			c2.4,0,4.3,0.8,5.7,2.4s2.1,3.7,2.1,6.3v1.8h-13.3c0.1,2.3,0.6,4,1.7,5.2s2.6,1.8,4.6,1.8c2.1,0,4.1-0.4,6.2-1.3v2.6
			c-1,0.4-2,0.8-2.9,1S545.6,48.7,544.3,48.7z M543.5,31.2c-1.5,0-2.8,0.5-3.7,1.5s-1.5,2.4-1.6,4.2h10.1c0-1.8-0.4-3.2-1.2-4.2
			S545,31.2,543.5,31.2z"/>
		<path class="st2" d="M569.4,45.8h-0.2c-1.3,2-3.4,2.9-6,2.9c-2.5,0-4.5-0.9-5.9-2.6s-2.1-4.2-2.1-7.3s0.7-5.6,2.1-7.4
			s3.4-2.6,5.9-2.6c2.6,0,4.6,0.9,6,2.8h0.2l-0.1-1.4l-0.1-1.4V21h2.9v27.4h-2.4L569.4,45.8z M563.6,46.3c2,0,3.4-0.5,4.3-1.6
			s1.3-2.8,1.3-5.2v-0.6c0-2.7-0.5-4.7-1.4-5.8s-2.4-1.7-4.4-1.7c-1.7,0-3,0.7-3.9,2s-1.4,3.2-1.4,5.6c0,2.5,0.5,4.3,1.4,5.6
			S561.8,46.3,563.6,46.3z"/>
		<path class="st2" d="M593.9,46.3c0.5,0,1,0,1.5-0.1s0.9-0.2,1.1-0.2v2.2c-0.3,0.2-0.8,0.3-1.4,0.4s-1.2,0.1-1.7,0.1
			c-3.7,0-5.6-2-5.6-5.9V31.4h-2.8V30l2.8-1.2l1.2-4.1h1.7v4.5h5.6v2.3h-5.6v11.3c0,1.2,0.3,2.1,0.8,2.7S593,46.3,593.9,46.3z"/>
		<path class="st2" d="M613.6,48.4V35.9c0-1.6-0.4-2.7-1.1-3.5s-1.8-1.2-3.4-1.2c-2,0-3.5,0.6-4.4,1.7s-1.4,2.9-1.4,5.4v10.1h-2.9
			V21h2.9v8.3c0,1,0,1.8-0.1,2.5h0.2c0.6-0.9,1.4-1.7,2.5-2.2s2.3-0.8,3.6-0.8c2.4,0,4.1,0.6,5.3,1.7s1.8,2.9,1.8,5.3v12.6H613.6z"
			/>
		<path class="st2" d="M630.7,48.7c-2.8,0-5.1-0.9-6.7-2.6s-2.5-4.1-2.5-7.2c0-3.1,0.8-5.6,2.3-7.4s3.6-2.7,6.2-2.7
			c2.4,0,4.3,0.8,5.7,2.4s2.1,3.7,2.1,6.3v1.8h-13.3c0.1,2.3,0.6,4,1.7,5.2s2.6,1.8,4.6,1.8c2.1,0,4.1-0.4,6.2-1.3v2.6
			c-1,0.4-2,0.8-2.9,1S632,48.7,630.7,48.7z M629.9,31.2c-1.5,0-2.8,0.5-3.7,1.5s-1.5,2.4-1.6,4.2h10.1c0-1.8-0.4-3.2-1.2-4.2
			S631.4,31.2,629.9,31.2z"/>
	</g>
	<g class="st4">
		<path class="st2" d="M339.8,91.6V79c0-1.5-0.3-2.7-1-3.5s-1.7-1.2-3.1-1.2c-1.8,0-3.2,0.5-4,1.6s-1.3,2.6-1.3,4.8v10.8h-2.9V79
			c0-1.5-0.3-2.7-1-3.5s-1.7-1.2-3.1-1.2c-1.8,0-3.2,0.5-4,1.6s-1.3,2.9-1.3,5.4v10.1h-2.9V72.3h2.4l0.5,2.6h0.1
			c0.6-0.9,1.3-1.7,2.3-2.2s2.1-0.8,3.4-0.8c3,0,5,1.1,5.9,3.3h0.1c0.6-1,1.4-1.8,2.5-2.4s2.3-0.9,3.7-0.9c2.2,0,3.8,0.6,4.9,1.7
			s1.6,2.9,1.6,5.4v12.6H339.8z"/>
		<path class="st2" d="M360.6,91.6l-0.6-2.7h-0.1c-1,1.2-1.9,2-2.9,2.5s-2.1,0.6-3.6,0.6c-1.9,0-3.4-0.5-4.5-1.5s-1.6-2.4-1.6-4.2
			c0-3.9,3.1-5.9,9.3-6.1l3.3-0.1v-1.2c0-1.5-0.3-2.6-1-3.3s-1.7-1.1-3.1-1.1c-1.6,0-3.4,0.5-5.4,1.5l-0.9-2.2
			c0.9-0.5,2-0.9,3.1-1.2s2.3-0.4,3.4-0.4c2.3,0,4,0.5,5.1,1.5s1.7,2.7,1.7,4.9v13.1H360.6z M354,89.5c1.8,0,3.2-0.5,4.3-1.5
			s1.6-2.4,1.6-4.2v-1.7l-2.9,0.1c-2.3,0.1-4,0.4-5,1.1s-1.5,1.6-1.5,3c0,1.1,0.3,1.9,1,2.4S352.9,89.5,354,89.5z"/>
		<path class="st2" d="M373.4,81.7l-6.7-9.4h3.3l5.1,7.4l5.1-7.4h3.3l-6.7,9.4l7,9.9h-3.3l-5.4-7.8l-5.4,7.8h-3.3L373.4,81.7z"/>
		<path class="st2" d="M387.4,67.1c0-0.7,0.2-1.2,0.5-1.5s0.7-0.5,1.2-0.5c0.5,0,0.9,0.2,1.2,0.5s0.5,0.8,0.5,1.5s-0.2,1.1-0.5,1.5
			s-0.7,0.5-1.2,0.5c-0.5,0-0.9-0.2-1.2-0.5S387.4,67.7,387.4,67.1z M390.6,91.6h-2.9V72.3h2.9V91.6z"/>
		<path class="st2" d="M421.3,91.6V79c0-1.5-0.3-2.7-1-3.5s-1.7-1.2-3.1-1.2c-1.8,0-3.2,0.5-4,1.6s-1.3,2.6-1.3,4.8v10.8H409V79
			c0-1.5-0.3-2.7-1-3.5s-1.7-1.2-3.1-1.2c-1.8,0-3.2,0.5-4,1.6s-1.3,2.9-1.3,5.4v10.1h-2.9V72.3h2.4l0.5,2.6h0.1
			c0.6-0.9,1.3-1.7,2.3-2.2s2.1-0.8,3.4-0.8c3,0,5,1.1,5.9,3.3h0.1c0.6-1,1.4-1.8,2.5-2.4s2.3-0.9,3.7-0.9c2.2,0,3.8,0.6,4.9,1.7
			s1.6,2.9,1.6,5.4v12.6H421.3z"/>
		<path class="st2" d="M433,72.3v12.5c0,1.6,0.4,2.7,1.1,3.5s1.8,1.2,3.4,1.2c2,0,3.5-0.6,4.4-1.7s1.4-2.9,1.4-5.4V72.3h2.9v19.3
			h-2.4l-0.4-2.6h-0.2c-0.6,0.9-1.4,1.7-2.5,2.2s-2.3,0.8-3.6,0.8c-2.3,0-4.1-0.6-5.3-1.7s-1.7-2.9-1.7-5.3V72.3H433z"/>
		<path class="st2" d="M476.9,91.6V79c0-1.5-0.3-2.7-1-3.5s-1.7-1.2-3.1-1.2c-1.8,0-3.2,0.5-4,1.6s-1.3,2.6-1.3,4.8v10.8h-2.9V79
			c0-1.5-0.3-2.7-1-3.5s-1.7-1.2-3.1-1.2c-1.8,0-3.2,0.5-4,1.6s-1.3,2.9-1.3,5.4v10.1h-2.9V72.3h2.4l0.5,2.6h0.1
			c0.6-0.9,1.3-1.7,2.3-2.2s2.1-0.8,3.4-0.8c3,0,5,1.1,5.9,3.3h0.1c0.6-1,1.4-1.8,2.5-2.4s2.3-0.9,3.7-0.9c2.2,0,3.8,0.6,4.9,1.7
			s1.6,2.9,1.6,5.4v12.6H476.9z"/>
		<path class="st2" d="M507,91.6l-0.6-2.7h-0.1c-1,1.2-1.9,2-2.9,2.5s-2.1,0.6-3.6,0.6c-1.9,0-3.4-0.5-4.5-1.5s-1.6-2.4-1.6-4.2
			c0-3.9,3.1-5.9,9.3-6.1l3.3-0.1v-1.2c0-1.5-0.3-2.6-1-3.3s-1.7-1.1-3.1-1.1c-1.6,0-3.4,0.5-5.4,1.5l-0.9-2.2
			c0.9-0.5,2-0.9,3.1-1.2s2.3-0.4,3.4-0.4c2.3,0,4,0.5,5.1,1.5s1.7,2.7,1.7,4.9v13.1H507z M500.4,89.5c1.8,0,3.2-0.5,4.3-1.5
			s1.6-2.4,1.6-4.2v-1.7l-2.9,0.1c-2.3,0.1-4,0.4-5,1.1s-1.5,1.6-1.5,3c0,1.1,0.3,1.9,1,2.4S499.3,89.5,500.4,89.5z"/>
		<path class="st2" d="M539.7,91.6V79c0-1.5-0.3-2.7-1-3.5s-1.7-1.2-3.1-1.2c-1.8,0-3.2,0.5-4,1.6s-1.3,2.6-1.3,4.8v10.8h-2.9V79
			c0-1.5-0.3-2.7-1-3.5s-1.7-1.2-3.1-1.2c-1.8,0-3.2,0.5-4,1.6s-1.3,2.9-1.3,5.4v10.1h-2.9V72.3h2.4l0.5,2.6h0.1
			c0.6-0.9,1.3-1.7,2.3-2.2s2.1-0.8,3.4-0.8c3,0,5,1.1,5.9,3.3h0.1c0.6-1,1.4-1.8,2.5-2.4s2.3-0.9,3.7-0.9c2.2,0,3.8,0.6,4.9,1.7
			s1.6,2.9,1.6,5.4v12.6H539.7z"/>
		<path class="st2" d="M565.3,81.9c0,3.1-0.8,5.6-2.4,7.4s-3.8,2.6-6.6,2.6c-1.7,0-3.3-0.4-4.6-1.2s-2.4-2-3.1-3.5s-1.1-3.3-1.1-5.3
			c0-3.1,0.8-5.6,2.4-7.3s3.8-2.6,6.5-2.6c2.7,0,4.8,0.9,6.4,2.7S565.3,78.9,565.3,81.9z M550.6,81.9c0,2.5,0.5,4.3,1.5,5.6
			s2.4,1.9,4.3,1.9s3.4-0.6,4.4-1.9s1.5-3.2,1.5-5.6c0-2.4-0.5-4.3-1.5-5.6s-2.5-1.9-4.4-1.9c-1.9,0-3.4,0.6-4.3,1.9
			S550.6,79.4,550.6,81.9z"/>
		<path class="st2" d="M573.2,72.3v12.5c0,1.6,0.4,2.7,1.1,3.5s1.8,1.2,3.4,1.2c2,0,3.5-0.6,4.4-1.7s1.4-2.9,1.4-5.4V72.3h2.9v19.3
			h-2.4l-0.4-2.6h-0.2c-0.6,0.9-1.4,1.7-2.5,2.2s-2.3,0.8-3.6,0.8c-2.3,0-4.1-0.6-5.3-1.7s-1.7-2.9-1.7-5.3V72.3H573.2z"/>
		<path class="st2" d="M605.7,91.6V79.1c0-1.6-0.4-2.7-1.1-3.5s-1.8-1.2-3.4-1.2c-2,0-3.5,0.5-4.4,1.6s-1.4,2.9-1.4,5.4v10.1h-2.9
			V72.3h2.4l0.5,2.6h0.1c0.6-0.9,1.4-1.7,2.5-2.2s2.3-0.8,3.6-0.8c2.3,0,4.1,0.6,5.2,1.7s1.8,2.9,1.8,5.4v12.6H605.7z"/>
		<path class="st2" d="M620.8,89.5c0.5,0,1,0,1.5-0.1s0.9-0.2,1.1-0.2v2.2c-0.3,0.2-0.8,0.3-1.4,0.4s-1.2,0.1-1.7,0.1
			c-3.7,0-5.6-2-5.6-5.9V74.6h-2.8v-1.4l2.8-1.2l1.2-4.1h1.7v4.5h5.6v2.3h-5.6v11.3c0,1.2,0.3,2.1,0.8,2.7S619.9,89.5,620.8,89.5z"
			/>
		<path class="st2" d="M653.3,81.9c0,3.1-0.8,5.6-2.4,7.4s-3.8,2.6-6.6,2.6c-1.7,0-3.3-0.4-4.6-1.2s-2.4-2-3.1-3.5s-1.1-3.3-1.1-5.3
			c0-3.1,0.8-5.6,2.4-7.3s3.8-2.6,6.5-2.6c2.7,0,4.8,0.9,6.4,2.7S653.3,78.9,653.3,81.9z M638.6,81.9c0,2.5,0.5,4.3,1.5,5.6
			s2.4,1.9,4.3,1.9s3.4-0.6,4.4-1.9s1.5-3.2,1.5-5.6c0-2.4-0.5-4.3-1.5-5.6s-2.5-1.9-4.4-1.9c-1.9,0-3.4,0.6-4.3,1.9
			S638.6,79.4,638.6,81.9z"/>
		<path class="st2" d="M667.1,74.6h-4.9v17h-2.9v-17h-3.4v-1.3l3.4-1.1v-1.1c0-4.7,2.1-7.1,6.2-7.1c1,0,2.2,0.2,3.6,0.6l-0.8,2.3
			c-1.1-0.4-2.1-0.5-2.9-0.5c-1.1,0-1.9,0.4-2.4,1.1s-0.8,1.9-0.8,3.5v1.2h4.9V74.6z"/>
	</g>
	<g class="st4">
		<path class="st2" d="M308.1,134.8h-2.9v-27.4h2.9V134.8z"/>
		<path class="st2" d="M330.9,125.1c0,3.1-0.8,5.6-2.4,7.4s-3.8,2.6-6.6,2.6c-1.7,0-3.3-0.4-4.6-1.2s-2.4-2-3.1-3.5
			s-1.1-3.3-1.1-5.3c0-3.1,0.8-5.6,2.4-7.3s3.8-2.6,6.5-2.6c2.7,0,4.8,0.9,6.4,2.7S330.9,122.1,330.9,125.1z M316.2,125.1
			c0,2.5,0.5,4.3,1.5,5.6s2.4,1.9,4.3,1.9s3.4-0.6,4.4-1.9s1.5-3.2,1.5-5.6c0-2.4-0.5-4.3-1.5-5.6s-2.5-1.9-4.4-1.9
			c-1.9,0-3.4,0.6-4.3,1.9S316.2,122.6,316.2,125.1z"/>
		<path class="st2" d="M343.7,135.1c-2.8,0-4.9-0.9-6.5-2.6s-2.3-4.1-2.3-7.3c0-3.2,0.8-5.7,2.3-7.5s3.8-2.6,6.6-2.6
			c0.9,0,1.9,0.1,2.8,0.3s1.7,0.4,2.2,0.7l-0.9,2.5c-0.6-0.3-1.3-0.5-2.1-0.6s-1.4-0.3-2-0.3c-3.9,0-5.9,2.5-5.9,7.5
			c0,2.4,0.5,4.2,1.4,5.4s2.4,1.9,4.2,1.9c1.6,0,3.3-0.3,4.9-1v2.6C347.3,134.8,345.7,135.1,343.7,135.1z"/>
		<path class="st2" d="M365,134.8l-0.6-2.7h-0.1c-1,1.2-1.9,2-2.9,2.5s-2.1,0.6-3.6,0.6c-1.9,0-3.4-0.5-4.5-1.5s-1.6-2.4-1.6-4.2
			c0-3.9,3.1-5.9,9.3-6.1l3.3-0.1V122c0-1.5-0.3-2.6-1-3.3s-1.7-1.1-3.1-1.1c-1.6,0-3.4,0.5-5.4,1.5l-0.9-2.2c0.9-0.5,2-0.9,3.1-1.2
			s2.3-0.4,3.4-0.4c2.3,0,4,0.5,5.1,1.5s1.7,2.7,1.7,4.9v13.1H365z M358.4,132.7c1.8,0,3.2-0.5,4.3-1.5s1.6-2.4,1.6-4.2v-1.7
			l-2.9,0.1c-2.3,0.1-4,0.4-5,1.1s-1.5,1.6-1.5,3c0,1.1,0.3,1.9,1,2.4S357.3,132.7,358.4,132.7z"/>
		<path class="st2" d="M379.4,132.7c0.5,0,1,0,1.5-0.1s0.9-0.2,1.1-0.2v2.2c-0.3,0.2-0.8,0.3-1.4,0.4s-1.2,0.1-1.7,0.1
			c-3.7,0-5.6-2-5.6-5.9v-11.5h-2.8v-1.4l2.8-1.2l1.2-4.1h1.7v4.5h5.6v2.3h-5.6v11.3c0,1.2,0.3,2.1,0.8,2.7S378.4,132.7,379.4,132.7
			z"/>
		<path class="st2" d="M385.6,110.3c0-0.7,0.2-1.2,0.5-1.5s0.7-0.5,1.2-0.5c0.5,0,0.9,0.2,1.2,0.5s0.5,0.8,0.5,1.5s-0.2,1.1-0.5,1.5
			s-0.7,0.5-1.2,0.5c-0.5,0-0.9-0.2-1.2-0.5S385.6,110.9,385.6,110.3z M388.8,134.8h-2.9v-19.3h2.9V134.8z"/>
		<path class="st2" d="M411.6,125.1c0,3.1-0.8,5.6-2.4,7.4s-3.8,2.6-6.6,2.6c-1.7,0-3.3-0.4-4.6-1.2s-2.4-2-3.1-3.5
			s-1.1-3.3-1.1-5.3c0-3.1,0.8-5.6,2.4-7.3s3.8-2.6,6.5-2.6c2.7,0,4.8,0.9,6.4,2.7S411.6,122.1,411.6,125.1z M396.9,125.1
			c0,2.5,0.5,4.3,1.5,5.6s2.4,1.9,4.3,1.9s3.4-0.6,4.4-1.9s1.5-3.2,1.5-5.6c0-2.4-0.5-4.3-1.5-5.6s-2.5-1.9-4.4-1.9
			c-1.9,0-3.4,0.6-4.3,1.9S396.9,122.6,396.9,125.1z"/>
		<path class="st2" d="M429.9,134.8v-12.5c0-1.6-0.4-2.7-1.1-3.5s-1.8-1.2-3.4-1.2c-2,0-3.5,0.5-4.4,1.6s-1.4,2.9-1.4,5.4v10.1h-2.9
			v-19.3h2.4l0.5,2.6h0.1c0.6-0.9,1.4-1.7,2.5-2.2s2.3-0.8,3.6-0.8c2.3,0,4.1,0.6,5.2,1.7s1.8,2.9,1.8,5.4v12.6H429.9z"/>
		<path class="st2" d="M451.3,129.5c0,1.8-0.7,3.2-2,4.1s-3.2,1.5-5.6,1.5c-2.6,0-4.5-0.4-6-1.2v-2.7c0.9,0.5,1.9,0.8,3,1.1
			s2.1,0.4,3.1,0.4c1.5,0,2.7-0.2,3.5-0.7s1.2-1.2,1.2-2.2c0-0.8-0.3-1.4-1-1.9s-1.9-1.2-3.8-1.9c-1.8-0.7-3.1-1.3-3.8-1.7
			s-1.3-1.1-1.7-1.7s-0.6-1.4-0.6-2.3c0-1.6,0.6-2.8,1.9-3.7s3-1.4,5.3-1.4c2.1,0,4.1,0.4,6.1,1.3l-1,2.4c-1.9-0.8-3.7-1.2-5.3-1.2
			c-1.4,0-2.4,0.2-3.1,0.7s-1.1,1-1.1,1.8c0,0.5,0.1,1,0.4,1.3s0.7,0.7,1.3,1s1.7,0.8,3.4,1.4c2.3,0.8,3.8,1.7,4.6,2.5
			S451.3,128.2,451.3,129.5z"/>
		<path class="st2" d="M459.1,130.6l0.3,0.4c-0.3,1.2-0.7,2.5-1.3,4.1s-1.2,3-1.8,4.3H454c0.3-1.2,0.7-2.7,1-4.5s0.6-3.2,0.8-4.3
			H459.1z"/>
		<path class="st2" d="M487.3,132.2h-0.2c-1.3,2-3.4,2.9-6,2.9c-2.5,0-4.5-0.9-5.9-2.6s-2.1-4.2-2.1-7.3s0.7-5.6,2.1-7.4
			s3.4-2.6,5.9-2.6c2.6,0,4.6,0.9,6,2.8h0.2l-0.1-1.4l-0.1-1.4v-7.8h2.9v27.4h-2.4L487.3,132.2z M481.5,132.7c2,0,3.4-0.5,4.3-1.6
			s1.3-2.8,1.3-5.2v-0.6c0-2.7-0.5-4.7-1.4-5.8s-2.4-1.7-4.4-1.7c-1.7,0-3,0.7-3.9,2s-1.4,3.2-1.4,5.6c0,2.5,0.5,4.3,1.4,5.6
			S479.7,132.7,481.5,132.7z"/>
		<path class="st2" d="M504.4,135.1c-2.8,0-5.1-0.9-6.7-2.6s-2.5-4.1-2.5-7.2c0-3.1,0.8-5.6,2.3-7.4s3.6-2.7,6.2-2.7
			c2.4,0,4.3,0.8,5.7,2.4s2.1,3.7,2.1,6.3v1.8h-13.3c0.1,2.3,0.6,4,1.7,5.2s2.6,1.8,4.6,1.8c2.1,0,4.1-0.4,6.2-1.3v2.6
			c-1,0.4-2,0.8-2.9,1S505.7,135.1,504.4,135.1z M503.6,117.6c-1.5,0-2.8,0.5-3.7,1.5s-1.5,2.4-1.6,4.2h10.1c0-1.8-0.4-3.2-1.2-4.2
			S505.1,117.6,503.6,117.6z"/>
		<path class="st2" d="M519.4,134.8h-2.9v-27.4h2.9V134.8z"/>
		<path class="st2" d="M533.7,135.1c-2.8,0-5.1-0.9-6.7-2.6s-2.5-4.1-2.5-7.2c0-3.1,0.8-5.6,2.3-7.4s3.6-2.7,6.2-2.7
			c2.4,0,4.3,0.8,5.7,2.4s2.1,3.7,2.1,6.3v1.8h-13.3c0.1,2.3,0.6,4,1.7,5.2s2.6,1.8,4.6,1.8c2.1,0,4.1-0.4,6.2-1.3v2.6
			c-1,0.4-2,0.8-2.9,1S535,135.1,533.7,135.1z M532.9,117.6c-1.5,0-2.8,0.5-3.7,1.5s-1.5,2.4-1.6,4.2h10.1c0-1.8-0.4-3.2-1.2-4.2
			S534.4,117.6,532.9,117.6z"/>
		<path class="st2" d="M552,132.7c0.5,0,1,0,1.5-0.1s0.9-0.2,1.1-0.2v2.2c-0.3,0.2-0.8,0.3-1.4,0.4s-1.2,0.1-1.7,0.1
			c-3.7,0-5.6-2-5.6-5.9v-11.5h-2.8v-1.4l2.8-1.2l1.2-4.1h1.7v4.5h5.6v2.3h-5.6v11.3c0,1.2,0.3,2.1,0.8,2.7S551,132.7,552,132.7z"/>
		<path class="st2" d="M566.6,135.1c-2.8,0-5.1-0.9-6.7-2.6s-2.5-4.1-2.5-7.2c0-3.1,0.8-5.6,2.3-7.4s3.6-2.7,6.2-2.7
			c2.4,0,4.3,0.8,5.7,2.4s2.1,3.7,2.1,6.3v1.8h-13.3c0.1,2.3,0.6,4,1.7,5.2s2.6,1.8,4.6,1.8c2.1,0,4.1-0.4,6.2-1.3v2.6
			c-1,0.4-2,0.8-2.9,1S567.9,135.1,566.6,135.1z M565.8,117.6c-1.5,0-2.8,0.5-3.7,1.5s-1.5,2.4-1.6,4.2h10.1c0-1.8-0.4-3.2-1.2-4.2
			S567.3,117.6,565.8,117.6z"/>
		<path class="st2" d="M600.4,129.5c0,1.8-0.7,3.2-2,4.1s-3.2,1.5-5.6,1.5c-2.6,0-4.5-0.4-6-1.2v-2.7c0.9,0.5,1.9,0.8,3,1.1
			s2.1,0.4,3.1,0.4c1.5,0,2.7-0.2,3.5-0.7s1.2-1.2,1.2-2.2c0-0.8-0.3-1.4-1-1.9s-1.9-1.2-3.8-1.9c-1.8-0.7-3.1-1.3-3.8-1.7
			s-1.3-1.1-1.7-1.7s-0.6-1.4-0.6-2.3c0-1.6,0.6-2.8,1.9-3.7s3-1.4,5.3-1.4c2.1,0,4.1,0.4,6.1,1.3l-1,2.4c-1.9-0.8-3.7-1.2-5.3-1.2
			c-1.4,0-2.4,0.2-3.1,0.7s-1.1,1-1.1,1.8c0,0.5,0.1,1,0.4,1.3s0.7,0.7,1.3,1s1.7,0.8,3.4,1.4c2.3,0.8,3.8,1.7,4.6,2.5
			S600.4,128.2,600.4,129.5z"/>
		<path class="st2" d="M621.8,125.1c0,3.1-0.8,5.6-2.4,7.4s-3.8,2.6-6.6,2.6c-1.7,0-3.3-0.4-4.6-1.2s-2.4-2-3.1-3.5
			s-1.1-3.3-1.1-5.3c0-3.1,0.8-5.6,2.4-7.3s3.8-2.6,6.5-2.6c2.7,0,4.8,0.9,6.4,2.7S621.8,122.1,621.8,125.1z M607.1,125.1
			c0,2.5,0.5,4.3,1.5,5.6s2.4,1.9,4.3,1.9s3.4-0.6,4.4-1.9s1.5-3.2,1.5-5.6c0-2.4-0.5-4.3-1.5-5.6s-2.5-1.9-4.4-1.9
			c-1.9,0-3.4,0.6-4.3,1.9S607.1,122.6,607.1,125.1z"/>
		<path class="st2" d="M651.5,134.8v-12.5c0-1.5-0.3-2.7-1-3.5s-1.7-1.2-3.1-1.2c-1.8,0-3.2,0.5-4,1.6s-1.3,2.6-1.3,4.8v10.8h-2.9
			v-12.5c0-1.5-0.3-2.7-1-3.5s-1.7-1.2-3.1-1.2c-1.8,0-3.2,0.5-4,1.6s-1.3,2.9-1.3,5.4v10.1h-2.9v-19.3h2.4l0.5,2.6h0.1
			c0.6-0.9,1.3-1.7,2.3-2.2s2.1-0.8,3.4-0.8c3,0,5,1.1,5.9,3.3h0.1c0.6-1,1.4-1.8,2.5-2.4s2.3-0.9,3.7-0.9c2.2,0,3.8,0.6,4.9,1.7
			s1.6,2.9,1.6,5.4v12.6H651.5z"/>
		<path class="st2" d="M668.5,135.1c-2.8,0-5.1-0.9-6.7-2.6s-2.5-4.1-2.5-7.2c0-3.1,0.8-5.6,2.3-7.4s3.6-2.7,6.2-2.7
			c2.4,0,4.3,0.8,5.7,2.4s2.1,3.7,2.1,6.3v1.8h-13.3c0.1,2.3,0.6,4,1.7,5.2s2.6,1.8,4.6,1.8c2.1,0,4.1-0.4,6.2-1.3v2.6
			c-1,0.4-2,0.8-2.9,1S669.8,135.1,668.5,135.1z M667.8,117.6c-1.5,0-2.8,0.5-3.7,1.5s-1.5,2.4-1.6,4.2h10.1c0-1.8-0.4-3.2-1.2-4.2
			S669.3,117.6,667.8,117.6z"/>
	</g>
	<g class="st4">
		<path class="st2" d="M288.1,158.4c2.5,0,4.5,0.9,5.9,2.6s2.1,4.2,2.1,7.3s-0.7,5.6-2.1,7.4s-3.4,2.6-5.9,2.6
			c-1.3,0-2.4-0.2-3.4-0.7s-1.9-1.2-2.6-2.1h-0.2l-0.6,2.5h-2.1v-27.4h2.9v6.6c0,1.5,0,2.8-0.1,4h0.1
			C283.4,159.3,285.5,158.4,288.1,158.4z M287.7,160.8c-2,0-3.4,0.6-4.3,1.7s-1.3,3.1-1.3,5.8s0.5,4.6,1.4,5.8s2.3,1.7,4.3,1.7
			c1.8,0,3.1-0.7,4-2s1.3-3.2,1.3-5.6c0-2.5-0.4-4.4-1.3-5.6S289.6,160.8,287.7,160.8z"/>
		<path class="st2" d="M309.4,178.3c-2.8,0-5.1-0.9-6.7-2.6s-2.5-4.1-2.5-7.2c0-3.1,0.8-5.6,2.3-7.4s3.6-2.7,6.2-2.7
			c2.4,0,4.3,0.8,5.7,2.4s2.1,3.7,2.1,6.3v1.8h-13.3c0.1,2.3,0.6,4,1.7,5.2s2.6,1.8,4.6,1.8c2.1,0,4.1-0.4,6.2-1.3v2.6
			c-1,0.4-2,0.8-2.9,1S310.7,178.3,309.4,178.3z M308.6,160.8c-1.5,0-2.8,0.5-3.7,1.5s-1.5,2.4-1.6,4.2h10.1c0-1.8-0.4-3.2-1.2-4.2
			S310.1,160.8,308.6,160.8z"/>
		<path class="st2" d="M330.1,161h-4.9v17h-2.9v-17h-3.4v-1.3l3.4-1.1v-1.1c0-4.7,2.1-7.1,6.2-7.1c1,0,2.2,0.2,3.6,0.6l-0.8,2.3
			c-1.1-0.4-2.1-0.5-2.9-0.5c-1.1,0-1.9,0.4-2.4,1.1s-0.8,1.9-0.8,3.5v1.2h4.9V161z"/>
		<path class="st2" d="M350.3,168.3c0,3.1-0.8,5.6-2.4,7.4s-3.8,2.6-6.6,2.6c-1.7,0-3.3-0.4-4.6-1.2s-2.4-2-3.1-3.5
			s-1.1-3.3-1.1-5.3c0-3.1,0.8-5.6,2.4-7.3s3.8-2.6,6.5-2.6c2.7,0,4.8,0.9,6.4,2.7S350.3,165.3,350.3,168.3z M335.6,168.3
			c0,2.5,0.5,4.3,1.5,5.6s2.4,1.9,4.3,1.9s3.4-0.6,4.4-1.9s1.5-3.2,1.5-5.6c0-2.4-0.5-4.3-1.5-5.6s-2.5-1.9-4.4-1.9
			c-1.9,0-3.4,0.6-4.3,1.9S335.6,165.8,335.6,168.3z"/>
		<path class="st2" d="M364.2,158.4c0.9,0,1.6,0.1,2.3,0.2l-0.4,2.7c-0.8-0.2-1.5-0.3-2.1-0.3c-1.6,0-2.9,0.6-4,1.9
			s-1.7,2.8-1.7,4.7V178h-2.9v-19.3h2.4l0.3,3.6h0.1c0.7-1.3,1.6-2.2,2.6-2.9S363,158.4,364.2,158.4z"/>
		<path class="st2" d="M378.2,178.3c-2.8,0-5.1-0.9-6.7-2.6s-2.5-4.1-2.5-7.2c0-3.1,0.8-5.6,2.3-7.4s3.6-2.7,6.2-2.7
			c2.4,0,4.3,0.8,5.7,2.4s2.1,3.7,2.1,6.3v1.8H372c0.1,2.3,0.6,4,1.7,5.2s2.6,1.8,4.6,1.8c2.1,0,4.1-0.4,6.2-1.3v2.6
			c-1,0.4-2,0.8-2.9,1S379.5,178.3,378.2,178.3z M377.4,160.8c-1.5,0-2.8,0.5-3.7,1.5s-1.5,2.4-1.6,4.2h10.1c0-1.8-0.4-3.2-1.2-4.2
			S378.9,160.8,377.4,160.8z"/>
		<path class="st2" d="M411.5,178l-0.6-2.7h-0.1c-1,1.2-1.9,2-2.9,2.5s-2.1,0.6-3.6,0.6c-1.9,0-3.4-0.5-4.5-1.5s-1.6-2.4-1.6-4.2
			c0-3.9,3.1-5.9,9.3-6.1l3.3-0.1v-1.2c0-1.5-0.3-2.6-1-3.3s-1.7-1.1-3.1-1.1c-1.6,0-3.4,0.5-5.4,1.5l-0.9-2.2
			c0.9-0.5,2-0.9,3.1-1.2s2.3-0.4,3.4-0.4c2.3,0,4,0.5,5.1,1.5s1.7,2.7,1.7,4.9V178H411.5z M404.9,175.9c1.8,0,3.2-0.5,4.3-1.5
			s1.6-2.4,1.6-4.2v-1.7l-2.9,0.1c-2.3,0.1-4,0.4-5,1.1s-1.5,1.6-1.5,3c0,1.1,0.3,1.9,1,2.4S403.7,175.9,404.9,175.9z"/>
		<path class="st2" d="M432.8,175.4h-0.2c-1.3,2-3.4,2.9-6,2.9c-2.5,0-4.5-0.9-5.9-2.6s-2.1-4.2-2.1-7.3s0.7-5.6,2.1-7.4
			s3.4-2.6,5.9-2.6c2.6,0,4.6,0.9,6,2.8h0.2l-0.1-1.4l-0.1-1.4v-7.8h2.9V178h-2.4L432.8,175.4z M426.9,175.9c2,0,3.4-0.5,4.3-1.6
			s1.3-2.8,1.3-5.2v-0.6c0-2.7-0.5-4.7-1.4-5.8s-2.4-1.7-4.4-1.7c-1.7,0-3,0.7-3.9,2s-1.4,3.2-1.4,5.6c0,2.5,0.5,4.3,1.4,5.6
			S425.2,175.9,426.9,175.9z"/>
		<path class="st2" d="M454.8,175.4h-0.2c-1.3,2-3.4,2.9-6,2.9c-2.5,0-4.5-0.9-5.9-2.6s-2.1-4.2-2.1-7.3s0.7-5.6,2.1-7.4
			s3.4-2.6,5.9-2.6c2.6,0,4.6,0.9,6,2.8h0.2l-0.1-1.4l-0.1-1.4v-7.8h2.9V178h-2.4L454.8,175.4z M449,175.9c2,0,3.4-0.5,4.3-1.6
			s1.3-2.8,1.3-5.2v-0.6c0-2.7-0.5-4.7-1.4-5.8s-2.4-1.7-4.4-1.7c-1.7,0-3,0.7-3.9,2s-1.4,3.2-1.4,5.6c0,2.5,0.5,4.3,1.4,5.6
			S447.2,175.9,449,175.9z"/>
		<path class="st2" d="M463.5,153.5c0-0.7,0.2-1.2,0.5-1.5s0.7-0.5,1.2-0.5c0.5,0,0.9,0.2,1.2,0.5s0.5,0.8,0.5,1.5s-0.2,1.1-0.5,1.5
			s-0.7,0.5-1.2,0.5c-0.5,0-0.9-0.2-1.2-0.5S463.5,154.1,463.5,153.5z M466.7,178h-2.9v-19.3h2.9V178z"/>
		<path class="st2" d="M486,178v-12.5c0-1.6-0.4-2.7-1.1-3.5s-1.8-1.2-3.4-1.2c-2,0-3.5,0.5-4.4,1.6s-1.4,2.9-1.4,5.4V178h-2.9
			v-19.3h2.4l0.5,2.6h0.1c0.6-0.9,1.4-1.7,2.5-2.2s2.3-0.8,3.6-0.8c2.3,0,4.1,0.6,5.2,1.7s1.8,2.9,1.8,5.4V178H486z"/>
		<path class="st2" d="M510.7,158.7v1.8l-3.6,0.4c0.3,0.4,0.6,0.9,0.9,1.6s0.4,1.4,0.4,2.2c0,1.9-0.6,3.4-1.9,4.5s-3.1,1.7-5.3,1.7
			c-0.6,0-1.1,0-1.6-0.1c-1.2,0.7-1.9,1.5-1.9,2.5c0,0.5,0.2,0.9,0.7,1.2s1.2,0.4,2.2,0.4h3.4c2.1,0,3.7,0.4,4.8,1.3
			s1.7,2.2,1.7,3.8c0,2.1-0.9,3.8-2.6,4.9s-4.2,1.7-7.5,1.7c-2.5,0-4.5-0.5-5.8-1.4s-2-2.3-2-4c0-1.2,0.4-2.2,1.1-3s1.8-1.4,3.2-1.7
			c-0.5-0.2-0.9-0.6-1.2-1s-0.5-1-0.5-1.6c0-0.7,0.2-1.3,0.6-1.8s1-1,1.8-1.5c-1-0.4-1.8-1.1-2.4-2.1s-0.9-2.1-0.9-3.4
			c0-2.1,0.6-3.7,1.9-4.9s3.1-1.7,5.4-1.7c1,0,1.9,0.1,2.7,0.4H510.7z M495.4,181.2c0,1,0.4,1.8,1.3,2.4s2.1,0.8,3.8,0.8
			c2.4,0,4.3-0.4,5.4-1.1s1.8-1.7,1.8-3c0-1-0.3-1.8-1-2.2s-1.9-0.6-3.6-0.6h-3.5c-1.3,0-2.4,0.3-3.1,0.9S495.4,180,495.4,181.2z
			 M496.9,164.9c0,1.3,0.4,2.4,1.1,3.1s1.8,1,3.2,1c2.8,0,4.3-1.4,4.3-4.1c0-2.9-1.4-4.3-4.3-4.3c-1.4,0-2.4,0.4-3.2,1.1
			S496.9,163.4,496.9,164.9z"/>
		<path class="st2" d="M535.9,178l-0.6-2.7h-0.1c-1,1.2-1.9,2-2.9,2.5s-2.1,0.6-3.6,0.6c-1.9,0-3.4-0.5-4.5-1.5s-1.6-2.4-1.6-4.2
			c0-3.9,3.1-5.9,9.3-6.1l3.3-0.1v-1.2c0-1.5-0.3-2.6-1-3.3s-1.7-1.1-3.1-1.1c-1.6,0-3.4,0.5-5.4,1.5l-0.9-2.2
			c0.9-0.5,2-0.9,3.1-1.2s2.3-0.4,3.4-0.4c2.3,0,4,0.5,5.1,1.5s1.7,2.7,1.7,4.9V178H535.9z M529.3,175.9c1.8,0,3.2-0.5,4.3-1.5
			s1.6-2.4,1.6-4.2v-1.7l-2.9,0.1c-2.3,0.1-4,0.4-5,1.1s-1.5,1.6-1.5,3c0,1.1,0.3,1.9,1,2.4S528.1,175.9,529.3,175.9z"/>
		<path class="st2" d="M566.6,178v-12.5c0-1.6-0.4-2.7-1.1-3.5s-1.8-1.2-3.4-1.2c-2,0-3.5,0.5-4.4,1.6s-1.4,2.9-1.4,5.4V178h-2.9
			v-19.3h2.4l0.5,2.6h0.1c0.6-0.9,1.4-1.7,2.5-2.2s2.3-0.8,3.6-0.8c2.3,0,4.1,0.6,5.2,1.7s1.8,2.9,1.8,5.4V178H566.6z"/>
		<path class="st2" d="M583.6,178.3c-2.8,0-5.1-0.9-6.7-2.6s-2.5-4.1-2.5-7.2c0-3.1,0.8-5.6,2.3-7.4s3.6-2.7,6.2-2.7
			c2.4,0,4.3,0.8,5.7,2.4s2.1,3.7,2.1,6.3v1.8h-13.3c0.1,2.3,0.6,4,1.7,5.2s2.6,1.8,4.6,1.8c2.1,0,4.1-0.4,6.2-1.3v2.6
			c-1,0.4-2,0.8-2.9,1S584.9,178.3,583.6,178.3z M582.9,160.8c-1.5,0-2.8,0.5-3.7,1.5s-1.5,2.4-1.6,4.2h10.1c0-1.8-0.4-3.2-1.2-4.2
			S584.4,160.8,582.9,160.8z"/>
		<path class="st2" d="M611.4,178l-3.5-11.3c-0.2-0.7-0.6-2.3-1.2-4.7h-0.1c-0.5,2.1-0.9,3.6-1.2,4.7l-3.6,11.3h-3.4l-5.3-19.3h3.1
			c1.2,4.8,2.2,8.5,2.8,11.1s1,4.2,1.1,5.1h0.1c0.1-0.7,0.3-1.5,0.6-2.6s0.5-1.9,0.7-2.5l3.5-11.1h3.2l3.4,11.1
			c0.7,2,1.1,3.7,1.3,5.1h0.1c0-0.4,0.2-1.1,0.4-2s1.4-5.6,3.7-14.2h3l-5.3,19.3H611.4z"/>
		<path class="st2" d="M649.7,168.3c0,3.1-0.8,5.6-2.4,7.4s-3.8,2.6-6.6,2.6c-1.7,0-3.3-0.4-4.6-1.2s-2.4-2-3.1-3.5
			s-1.1-3.3-1.1-5.3c0-3.1,0.8-5.6,2.4-7.3s3.8-2.6,6.5-2.6c2.7,0,4.8,0.9,6.4,2.7S649.7,165.3,649.7,168.3z M635,168.3
			c0,2.5,0.5,4.3,1.5,5.6s2.4,1.9,4.3,1.9s3.4-0.6,4.4-1.9s1.5-3.2,1.5-5.6c0-2.4-0.5-4.3-1.5-5.6s-2.5-1.9-4.4-1.9
			c-1.9,0-3.4,0.6-4.3,1.9S635,165.8,635,168.3z"/>
		<path class="st2" d="M668,178v-12.5c0-1.6-0.4-2.7-1.1-3.5s-1.8-1.2-3.4-1.2c-2,0-3.5,0.5-4.4,1.6s-1.4,2.9-1.4,5.4V178h-2.9
			v-19.3h2.4l0.5,2.6h0.1c0.6-0.9,1.4-1.7,2.5-2.2s2.3-0.8,3.6-0.8c2.3,0,4.1,0.6,5.2,1.7s1.8,2.9,1.8,5.4V178H668z"/>
		<path class="st2" d="M685,178.3c-2.8,0-5.1-0.9-6.7-2.6s-2.5-4.1-2.5-7.2c0-3.1,0.8-5.6,2.3-7.4s3.6-2.7,6.2-2.7
			c2.4,0,4.3,0.8,5.7,2.4s2.1,3.7,2.1,6.3v1.8h-13.3c0.1,2.3,0.6,4,1.7,5.2s2.6,1.8,4.6,1.8c2.1,0,4.1-0.4,6.2-1.3v2.6
			c-1,0.4-2,0.8-2.9,1S686.3,178.3,685,178.3z M684.2,160.8c-1.5,0-2.8,0.5-3.7,1.5s-1.5,2.4-1.6,4.2H689c0-1.8-0.4-3.2-1.2-4.2
			S685.8,160.8,684.2,160.8z"/>
		<path class="st2" d="M696.7,176.1c0-0.8,0.2-1.4,0.5-1.8s0.9-0.6,1.5-0.6c0.7,0,1.2,0.2,1.6,0.6s0.6,1,0.6,1.8
			c0,0.8-0.2,1.3-0.6,1.8s-0.9,0.6-1.6,0.6c-0.6,0-1.1-0.2-1.5-0.6S696.7,176.9,696.7,176.1z"/>
	</g>
</g>
</svg>
