<?xml version="1.0" encoding="utf-8"?>
<!-- Generator: Adobe Illustrator 19.0.0, SVG Export Plug-In . SVG Version: 6.00 Build 0)  -->
<svg version="1.1" id="Layer_1" xmlns="http://www.w3.org/2000/svg" xmlns:xlink="http://www.w3.org/1999/xlink" x="0px" y="0px"
	 viewBox="-58 26 82 150" style="enable-background:new -58 26 82 150;" xml:space="preserve">
<style type="text/css">
	.st0{opacity:0.7;}
	.st1{fill:#FFFFFF;}
	.st2{enable-background:new    ;}
</style>
<g class="st0">
	<g>
		<g>
			<path class="st1" d="M-38.2,35c0,2.1-0.6,3.7-1.8,4.9c-1.2,1.1-2.9,1.7-5.1,1.7h-3.6V28.7h4c2,0,3.6,0.6,4.8,1.7
				S-38.2,33-38.2,35z M-40.4,35.1c0-3.1-1.4-4.6-4.3-4.6h-1.8v9.3h1.5C-42,39.8-40.4,38.2-40.4,35.1z"/>
			<path class="st1" d="M-29.6,41.6l-0.4-1.4h-0.1c-0.5,0.6-0.9,1-1.4,1.2c-0.5,0.2-1.1,0.3-1.8,0.3c-1,0-1.7-0.3-2.2-0.8
				s-0.8-1.2-0.8-2.2s0.4-1.8,1.1-2.3s1.9-0.8,3.4-0.8l1.7-0.1V35c0-0.6-0.1-1.1-0.4-1.4c-0.3-0.3-0.7-0.5-1.3-0.5
				c-0.5,0-1,0.1-1.4,0.2c-0.4,0.1-0.9,0.3-1.3,0.5l-0.7-1.5c0.5-0.3,1.1-0.5,1.7-0.6c0.6-0.1,1.2-0.2,1.8-0.2
				c1.2,0,2.2,0.3,2.8,0.8c0.6,0.5,0.9,1.4,0.9,2.5v6.8H-29.6z M-32.7,40.1c0.8,0,1.4-0.2,1.8-0.6c0.5-0.4,0.7-1,0.7-1.8v-0.8
				l-1.2,0.1c-1,0-1.7,0.2-2.1,0.5c-0.4,0.3-0.7,0.7-0.7,1.3c0,0.4,0.1,0.8,0.4,1C-33.5,40-33.2,40.1-32.7,40.1z"/>
			<path class="st1" d="M-21.6,40.1c0.5,0,1-0.1,1.5-0.2v1.6c-0.2,0.1-0.5,0.2-0.9,0.2s-0.7,0.1-1.1,0.1c-2,0-2.9-1-2.9-3.1v-5.2
				h-1.3v-0.9l1.4-0.8l0.7-2.1h1.3v2.2h2.8v1.6H-23v5.1c0,0.5,0.1,0.9,0.4,1.1C-22.2,39.9-22,40.1-21.6,40.1z"/>
			<path class="st1" d="M-12.1,41.6l-0.4-1.4h-0.1c-0.5,0.6-0.9,1-1.4,1.2c-0.5,0.2-1.1,0.3-1.8,0.3c-1,0-1.7-0.3-2.2-0.8
				s-0.8-1.2-0.8-2.2s0.4-1.8,1.1-2.3s1.9-0.8,3.4-0.8l1.7-0.1V35c0-0.6-0.1-1.1-0.4-1.4c-0.3-0.3-0.7-0.5-1.3-0.5
				c-0.5,0-1,0.1-1.4,0.2c-0.4,0.1-0.9,0.3-1.3,0.5l-0.7-1.5c0.5-0.3,1.1-0.5,1.7-0.6c0.6-0.1,1.2-0.2,1.8-0.2
				c1.2,0,2.2,0.3,2.8,0.8c0.6,0.5,0.9,1.4,0.9,2.5v6.8H-12.1z M-15.1,40.1c0.8,0,1.4-0.2,1.8-0.6c0.5-0.4,0.7-1,0.7-1.8v-0.8
				l-1.2,0.1c-1,0-1.7,0.2-2.1,0.5c-0.4,0.3-0.7,0.7-0.7,1.3c0,0.4,0.1,0.8,0.4,1C-16,40-15.7,40.1-15.1,40.1z"/>
			<path class="st1" d="M1.9,31.7c1.2,0,2.2,0.4,2.8,1.3c0.6,0.9,1,2.1,1,3.7s-0.3,2.8-1,3.7s-1.6,1.3-2.9,1.3
				c-1.2,0-2.2-0.4-2.9-1.3h-0.1l-0.3,1.2H-3V27.9h2v3.3c0,0.2,0,0.6,0,1.1c0,0.5,0,0.8-0.1,0.9H-1C-0.3,32.1,0.7,31.7,1.9,31.7z
				 M1.4,33.3c-0.8,0-1.4,0.2-1.8,0.7S-1,35.4-1,36.5v0.1c0,1.2,0.2,2,0.6,2.6s1,0.8,1.8,0.8c0.7,0,1.3-0.3,1.7-0.9
				c0.4-0.6,0.6-1.4,0.6-2.5C3.7,34.4,2.9,33.3,1.4,33.3z"/>
			<path class="st1" d="M6.7,31.8H9l2,5.5c0.3,0.8,0.5,1.5,0.6,2.2h0.1c0.1-0.3,0.1-0.7,0.3-1.2s0.9-2.6,2.2-6.6h2.2l-4.2,11
				c-0.8,2-2,3-3.8,3c-0.5,0-0.9,0-1.3-0.1v-1.6c0.3,0.1,0.7,0.1,1.1,0.1c1,0,1.7-0.6,2.1-1.7l0.4-0.9L6.7,31.8z"/>
		</g>
	</g>
	<g class="st2">
		<path class="st1" d="M-25.2,137.5c0,1.6-0.4,2.9-1.2,3.8s-2,1.4-3.5,1.4s-2.7-0.4-3.5-1.3c-0.8-0.9-1.2-2.2-1.2-3.8
			s0.4-2.9,1.2-3.8s2-1.3,3.5-1.3s2.6,0.4,3.4,1.3S-25.2,135.9-25.2,137.5z M-32.8,137.5c0,1.2,0.2,2.2,0.7,2.8s1.2,1,2.2,1
			s1.7-0.3,2.2-0.9s0.7-1.6,0.7-2.8s-0.2-2.2-0.7-2.8s-1.2-1-2.2-1s-1.7,0.3-2.2,1S-32.8,136.3-32.8,137.5z"/>
		<path class="st1" d="M-19.2,142.8c-1,0-1.7-0.3-2.2-1h-0.1c0.1,0.6,0.1,1,0.1,1.2v3.1h-1.6v-10.9h1.3c0,0.1,0.1,0.5,0.2,1h0.1
			c0.5-0.8,1.3-1.1,2.3-1.1c0.9,0,1.7,0.3,2.2,1s0.8,1.6,0.8,2.9s-0.3,2.2-0.8,2.9S-18.4,142.8-19.2,142.8z M-19.7,136.2
			c-0.6,0-1.1,0.2-1.4,0.6s-0.4,1-0.4,1.8v0.2c0,0.9,0.1,1.6,0.4,2s0.8,0.6,1.4,0.6s1-0.2,1.3-0.7s0.5-1.1,0.5-1.9
			c0-0.8-0.1-1.5-0.4-1.9C-18.7,136.4-19.2,136.2-19.7,136.2z"/>
		<path class="st1" d="M-11.2,142.8c-1.2,0-2.1-0.3-2.8-1c-0.7-0.7-1-1.6-1-2.8s0.3-2.2,0.9-2.9s1.5-1.1,2.5-1.1s1.8,0.3,2.4,0.9
			c0.6,0.6,0.9,1.4,0.9,2.5v0.9h-5c0,0.7,0.2,1.3,0.6,1.7c0.4,0.4,0.9,0.6,1.6,0.6c0.4,0,0.9,0,1.2-0.1c0.4-0.1,0.8-0.2,1.2-0.4v1.3
			c-0.4,0.2-0.8,0.3-1.2,0.4C-10.2,142.6-10.6,142.8-11.2,142.8z M-11.4,136.1c-0.5,0-0.9,0.2-1.2,0.5s-0.5,0.8-0.5,1.4h3.4
			c0-0.6-0.2-1.1-0.5-1.4C-10.5,136.2-10.9,136.1-11.4,136.1z"/>
		<path class="st1" d="M0.3,142.6h-1.6V138c0-0.6-0.1-1-0.4-1.3c-0.2-0.3-0.6-0.4-1.1-0.4c-0.7,0-1.2,0.2-1.5,0.6s-0.5,1.1-0.5,2
			v3.8h-1.6v-7.6h1.3l0.2,1h0.1c0.2-0.4,0.6-0.6,1-0.8s0.9-0.3,1.4-0.3c1.8,0,2.7,0.9,2.7,2.8C0.3,137.8,0.3,142.6,0.3,142.6z"/>
	</g>
	<g class="st2">
		<path class="st1" d="M-35.4,156.6h-1.8l-1.7-6c-0.1-0.3-0.2-0.6-0.3-1.1s-0.2-0.8-0.2-1c0,0.3-0.1,0.7-0.2,1.1s-0.2,0.8-0.3,1
			l-1.7,5.9h-1.8l-1.3-5l-1.3-5h1.7l1.4,5.8c0.2,0.9,0.4,1.8,0.5,2.5c0.1-0.4,0.1-0.8,0.2-1.3s0.2-0.9,0.3-1.2l1.6-5.8h1.6l1.7,5.9
			c0.2,0.5,0.3,1.4,0.5,2.4c0.1-0.7,0.2-1.5,0.5-2.5l1.4-5.8h1.7L-35.4,156.6z"/>
		<path class="st1" d="M-28.2,156.8c-1.2,0-2.1-0.3-2.8-1c-0.7-0.7-1-1.6-1-2.8s0.3-2.2,0.9-2.9s1.5-1.1,2.5-1.1s1.8,0.3,2.4,0.9
			s0.9,1.4,0.9,2.5v0.9h-5c0,0.7,0.2,1.3,0.6,1.7s0.9,0.6,1.6,0.6c0.4,0,0.9,0,1.2-0.1c0.4-0.1,0.8-0.2,1.2-0.4v1.3
			c-0.4,0.2-0.8,0.3-1.2,0.4S-27.8,156.8-28.2,156.8z M-28.6,150.1c-0.5,0-0.9,0.2-1.2,0.5s-0.5,0.8-0.6,1.4h3.4
			c0-0.6-0.2-1.1-0.5-1.4C-27.7,150.2-28.1,150.1-28.6,150.1z"/>
		<path class="st1" d="M-18.8,156.6l-0.3-1.1h-0.1c-0.4,0.5-0.7,0.8-1.1,0.9c-0.4,0.2-0.8,0.2-1.4,0.2c-0.7,0-1.3-0.2-1.7-0.6
			s-0.6-1-0.6-1.7c0-0.8,0.3-1.4,0.9-1.8s1.5-0.6,2.6-0.6h1.3v-0.4c0-0.5-0.1-0.8-0.3-1.1c-0.2-0.2-0.6-0.4-1-0.4s-0.8,0.1-1.1,0.2
			s-0.7,0.2-1,0.4l-0.5-1.1c0.4-0.2,0.9-0.4,1.3-0.5c0.5-0.1,0.9-0.2,1.4-0.2c1,0,1.7,0.2,2.2,0.6s0.7,1.1,0.7,2v5.1h-1.3V156.6z
			 M-21.2,155.5c0.6,0,1.1-0.2,1.4-0.5c0.4-0.3,0.5-0.8,0.5-1.4v-0.7h-1c-0.8,0-1.3,0.2-1.7,0.4c-0.3,0.2-0.5,0.6-0.5,1
			c0,0.3,0.1,0.6,0.3,0.8C-21.9,155.4-21.6,155.5-21.2,155.5z"/>
		<path class="st1" d="M-12.6,155.4c0.4,0,0.8-0.1,1.2-0.2v1.2c-0.2,0.1-0.4,0.1-0.7,0.2c-0.3,0.1-0.6,0.1-0.9,0.1
			c-1.5,0-2.3-0.8-2.3-2.4v-4.1h-1v-0.7l1.1-0.6l0.5-1.6h1v1.7h2.2v1.2h-2.2v4c0,0.4,0.1,0.7,0.3,0.9
			C-13.1,155.3-12.9,155.4-12.6,155.4z"/>
		<path class="st1" d="M-3.2,156.6h-1.6V152c0-0.6-0.1-1-0.4-1.3c-0.2-0.3-0.6-0.4-1.1-0.4c-0.7,0-1.2,0.2-1.5,0.6
			c-0.3,0.4-0.5,1.1-0.5,2v3.8h-1.6v-10.6h1.6v2.7c0,0.4,0,0.9-0.1,1.4h0.1c0.2-0.4,0.5-0.6,0.9-0.8s0.8-0.3,1.4-0.3
			c1.8,0,2.7,0.9,2.7,2.8L-3.2,156.6L-3.2,156.6z"/>
		<path class="st1" d="M2.3,156.8c-1.2,0-2.1-0.3-2.8-1s-1-1.6-1-2.8s0.3-2.2,0.9-2.9s1.5-1.1,2.5-1.1s1.8,0.3,2.4,0.9
			c0.6,0.6,0.9,1.4,0.9,2.5v0.9h-5c0,0.7,0.2,1.3,0.6,1.7s0.9,0.6,1.6,0.6c0.4,0,0.9,0,1.2-0.1c0.4-0.1,0.8-0.2,1.2-0.4v1.3
			c-0.4,0.2-0.8,0.3-1.2,0.4C3.3,156.6,2.8,156.8,2.3,156.8z M2,150.1c-0.5,0-0.9,0.2-1.2,0.5s-0.5,0.8-0.5,1.4h3.4
			c0-0.6-0.2-1.1-0.5-1.4C2.9,150.2,2.5,150.1,2,150.1z"/>
		<path class="st1" d="M10.9,148.9c0.3,0,0.6,0,0.8,0.1l-0.2,1.5c-0.2-0.1-0.5-0.1-0.7-0.1c-0.6,0-1.2,0.2-1.6,0.6
			c-0.4,0.4-0.6,1-0.6,1.6v4H7.1v-7.6h1.3l0.2,1.3h0.1c0.2-0.5,0.6-0.8,1-1.1S10.4,148.9,10.9,148.9z"/>
	</g>
	<g class="st2">
		<path class="st1" d="M-26.2,170.6l-2.9-8.3h-0.1c0.1,1.2,0.1,2.4,0.1,3.5v4.9h-1.5v-10h2.3l2.8,8l0,0l2.9-8h2.3v10h-1.6v-5.1
			c0-0.5,0-1.1,0-1.9s0-1.3,0.1-1.4h-0.1l-3,8.3L-26.2,170.6L-26.2,170.6z"/>
		<path class="st1" d="M-13.1,170.6l-0.3-1.1h-0.1c-0.4,0.5-0.7,0.8-1.1,0.9c-0.4,0.2-0.8,0.2-1.4,0.2c-0.7,0-1.3-0.2-1.7-0.6
			s-0.6-1-0.6-1.7c0-0.8,0.3-1.4,0.9-1.8s1.5-0.6,2.6-0.6h1.3v-0.4c0-0.5-0.1-0.8-0.3-1.1c-0.2-0.2-0.6-0.4-1-0.4s-0.8,0.1-1.1,0.2
			c-0.3,0.1-0.7,0.2-1,0.4l-0.5-1.1c0.4-0.2,0.9-0.4,1.3-0.5c0.5-0.1,0.9-0.2,1.4-0.2c1,0,1.7,0.2,2.2,0.6c0.5,0.4,0.7,1.1,0.7,2
			v5.1h-1.3V170.6z M-15.5,169.5c0.6,0,1.1-0.2,1.4-0.5c0.4-0.3,0.5-0.8,0.5-1.4v-0.7h-1c-0.8,0-1.3,0.2-1.7,0.4
			c-0.3,0.2-0.5,0.6-0.5,1c0,0.3,0.1,0.6,0.3,0.8C-16.2,169.4-15.9,169.5-15.5,169.5z"/>
		<path class="st1" d="M-5.9,170.8c-1,0-1.7-0.3-2.2-1h-0.1c0.1,0.6,0.1,1,0.1,1.2v3.1h-1.6v-10.9h1.3c0,0.1,0.1,0.5,0.2,1h0.1
			c0.5-0.8,1.3-1.1,2.3-1.1c0.9,0,1.7,0.3,2.2,1s0.8,1.6,0.8,2.9s-0.3,2.2-0.8,2.9C-4.2,170.3-4.9,170.8-5.9,170.8z M-6.2,164.2
			c-0.6,0-1.1,0.2-1.4,0.6s-0.4,1-0.4,1.8v0.2c0,0.9,0.1,1.6,0.4,2s0.8,0.6,1.4,0.6s1-0.2,1.3-0.7s0.5-1.1,0.5-1.9
			c0-0.8-0.1-1.5-0.4-1.9C-5.2,164.4-5.7,164.2-6.2,164.2z"/>
	</g>
	<g id="KDcvUg_1_">
		<g>
			<g id="XMLID_16_">
				<path id="XMLID_17_" class="st1" d="M-56,89.7c0-12.8,0-25.7,0-38.6c0-0.7,0.1-0.8,0.8-0.8c25.4,0,50.9,0,76.3,0
					c0.6,0,0.8,0.1,0.8,0.8c0,25.7,0,51.4,0,77.1c0,0.6-0.1,0.7-0.7,0.7c-25.4,0-51,0-76.4,0c-0.7,0-0.7-0.2-0.7-0.8
					C-56,115.4-56,102.5-56,89.7z M-16.8,107.5c10,0,18-8,18.1-17.9c0-10-8-18.1-17.9-18.1s-18,8-18.1,17.9S-26.7,107.4-16.8,107.5z
					 M-9.2,109.5c0-0.6-0.1-0.7-0.8-0.5c-4.2,1.5-8.7,1.5-13.1,0.1c-0.2-0.1-0.6-0.3-0.8,0c-0.2,0.2,0,0.6,0.1,0.8
					c2.1,3.6,4.2,7.2,6.3,10.8c0.7,1.1,1.1,1.1,1.8,0c2.1-3.6,4.1-7.2,6.3-10.8C-9.3,109.9-9.3,109.7-9.2,109.5z M6.4,111.3
					c0-0.1-0.1-0.2-0.1-0.5c-1.1-4-2.3-8.1-3.6-12.1c-0.1-0.2-0.1-0.5-0.3-0.5c-0.2-0.2-0.2,0.2-0.5,0.5c-1.6,3.3-4,6-7.2,8.1
					c-0.7,0.5-1.5,0.8-2.2,1.3c-0.1,0.1-0.5,0.1-0.5,0.5c0,0.3,0.2,0.3,0.5,0.5c0.1,0.1,0.3,0.1,0.5,0.1c2.9,0.7,5.7,1.5,8.6,2.2
					c1.1,0.2,2.4,0.6,3.6,0.8C5.9,112.1,6.4,111.9,6.4,111.3z M-23.8,69.4c0.1,0,0.2-0.1,0.3-0.1c4.5-1.5,8.9-1.5,13.3,0
					c0.1,0.1,0.5,0.2,0.7,0.1c0.2-0.2,0-0.5-0.1-0.7c-2.1-3.6-4.2-7.2-6.3-10.8c-0.7-1.1-1.1-1.1-1.8,0.1c-1.7,2.9-3.4,6-5.2,8.8
					c-0.5,0.7-0.8,1.5-1.1,2.2C-24.1,69.2-24.2,69.6-23.8,69.4z M-26.2,70.5c-0.1-0.3-0.5-0.3-0.6-0.5c-3.9-0.9-7.8-1.9-11.7-2.9
					c-1.5-0.3-1.8,0-1.4,1.4c1.1,3.9,2.2,7.8,3.3,11.7c0.1,0.2,0.1,0.7,0.5,0.7c0.3,0,0.3-0.5,0.5-0.6c1.8-3.9,4.6-6.9,8.2-9.1
					C-27.1,71-26.4,70.8-26.2,70.5z M-35.8,98.1c0,0.5-0.2,0.6-0.2,0.8c-0.9,3.9-1.9,7.9-2.9,11.8c-0.3,1.4,0,1.7,1.4,1.3
					c3.2-0.9,6.4-1.8,9.7-2.7c0.8-0.2,1.6-0.3,2.5-0.8C-30.1,106.1-33.5,102.8-35.8,98.1z M2.8,96.5c0.3-0.1,0.5-0.1,0.6-0.2
					c3.6-2.1,7.1-4.1,10.7-6.2c1.1-0.7,1.1-1.1,0-1.8c-3.3-1.9-6.8-3.9-10.2-5.8c-0.4-0.2-0.6-0.6-1.2-0.6
					C4.6,86.7,4.6,91.6,2.8,96.5z M-36.7,96.2c-1.5-4.9-1.4-9.6,0.2-14.3C-36.7,82-36.8,82-37,82c-3.6,2.1-7.2,4.2-10.9,6.3
					c-0.9,0.5-0.9,1,0,1.5c2.3,1.4,4.6,2.6,6.9,4C-39.5,94.8-38,95.6-36.7,96.2z M1.8,79.5c0.3-0.2,0.3-0.5,0.3-0.6
					C3,75.3,3.9,71.8,4.8,68c0.3-1.4,0-1.7-1.5-1.4c-3.6,1-7.2,2.1-10.8,3.1c-0.1,0.2-0.5,0.2-0.7,0.5C-3.8,72.2-0.6,75.4,1.8,79.5z
					"/>
			</g>
		</g>
	</g>
</g>
</svg>
