<?xml version="1.0" encoding="utf-8"?>
<!-- Generator: Adobe Illustrator 18.0.0, SVG Export Plug-In . SVG Version: 6.00 Build 0)  -->
<!DOCTYPE svg PUBLIC "-//W3C//DTD SVG 1.1//EN" "http://www.w3.org/Graphics/SVG/1.1/DTD/svg11.dtd">
<svg version="1.1" id="Layer_1" xmlns="http://www.w3.org/2000/svg" xmlns:xlink="http://www.w3.org/1999/xlink" x="0px" y="0px"
	 viewBox="0 0 595.3 841.9" enable-background="new 0 0 595.3 841.9" xml:space="preserve">
<text transform="matrix(1 0 0 1 249.1141 624.184)" fill="#FFFFFF" font-family="'ArialMT'" font-size="72.9638">Open</text>
<text transform="matrix(1 0 0 1 201.4072 702.7587)" fill="#FFFFFF" font-family="'ArialMT'" font-size="72.9638">Weather</text>
<text transform="matrix(1 0 0 1 265.951 781.3359)" fill="#FFFFFF" font-family="'ArialMT'" font-size="72.9638">Map</text>
<g id="KDcvUg_1_" opacity="0.8">
	<g id="XMLID_2_">
		<path id="XMLID_56_" fill="#FFFFFF" d="M117.4,323.7c0-71.8,0-144.2,0-216.6c0-3.9,0.6-4.5,4.5-4.5c142.6,0,285.7,0,428.2,0
			c3.4,0,4.5,0.6,4.5,4.5c0,144.2,0,288.5,0,432.7c0,3.4-0.6,3.9-3.9,3.9c-142.6,0-286.2,0-428.8,0c-3.9,0-3.9-1.1-3.9-4.5
			C117.4,467.9,117.4,395.5,117.4,323.7z M336.9,423.6c56.1,0,101-44.9,101.6-100.5c0-56.1-44.9-101.6-100.5-101.6
			S237,266.4,236.4,322C235.9,377.6,281.9,423,336.9,423.6z M379.5,434.8c0-3.4-0.6-3.9-4.5-2.8c-23.6,8.4-48.8,8.4-73.5,0.6
			c-1.1-0.6-3.4-1.7-4.5,0c-1.1,1.1,0,3.4,0.6,4.5c11.8,20.2,23.6,40.4,35.4,60.6c3.9,6.2,6.2,6.2,10.1,0
			c11.8-20.2,23-40.4,35.4-60.6C379,437.1,379,435.9,379.5,434.8z M467.7,444.9c0-0.6-0.6-1.1-0.6-2.8
			c-6.2-22.5-12.9-45.5-20.2-67.9c-0.6-1.1-0.6-2.8-1.7-2.8c-1.1-1.1-1.1,1.1-2.8,2.8c-9,18.5-22.5,33.7-40.4,45.5
			c-3.9,2.8-8.4,4.5-12.3,7.3c-0.6,0.6-2.8,0.6-2.8,2.8c0,1.7,1.1,1.7,2.8,2.8c0.6,0.6,1.7,0.6,2.8,0.6c16.3,3.9,32,8.4,48.3,12.3
			c6.2,1.1,13.5,3.4,20.2,4.5C464.9,449.4,467.7,448.3,467.7,444.9z M298.2,209.8c0.6,0,1.1-0.6,1.7-0.6c25.3-8.4,50-8.4,74.6,0
			c0.6,0.6,2.8,1.1,3.9,0.6c1.1-1.1,0-2.8-0.6-3.9c-11.8-20.2-23.6-40.4-35.4-60.6c-3.9-6.2-6.2-6.2-10.1,0.6
			c-9.5,16.3-19.1,33.7-29.2,49.4c-2.8,3.9-4.5,8.4-6.2,12.3C296.5,208.6,295.9,210.9,298.2,209.8z M284.1,215.9
			c-0.6-1.7-2.8-1.7-3.4-2.8c-21.9-5.1-43.8-10.7-65.7-16.3c-8.4-1.7-10.1,0-7.9,7.9c6.2,21.9,12.3,43.8,18.5,65.7
			c0.6,1.1,0.6,3.9,2.8,3.9c1.7,0,1.7-2.8,2.8-3.4c10.1-21.9,25.8-38.7,46-51.1C279.6,218.7,283,217.6,284.1,215.9z M230.8,370.8
			c-0.6,2.8-1.1,3.4-1.1,4.5c-5.1,21.9-10.7,44.3-16.3,66.2c-1.7,7.9,0,9.5,7.9,7.3c18-5.1,35.9-10.1,54.4-15.2
			c4.5-1.1,9-1.7,14-4.5C262.8,415.7,243.7,397.2,230.8,370.8z M447.5,361.9c1.7-0.6,2.8-0.6,3.4-1.1c20.2-11.8,39.8-23,60.1-34.8
			c6.2-3.9,6.2-6.2,0-10.1c-18.5-10.7-38.2-21.9-57.2-32.6c-2.2-1.1-3.4-3.4-6.7-3.4C457,306.9,457,334.4,447.5,361.9z M225.8,360.2
			c-8.4-27.5-7.9-53.9,1.1-80.3c-1.1,0.6-1.7,0.6-2.8,0.6c-20.2,11.8-40.4,23.6-61.2,35.4c-5.1,2.8-5.1,5.6,0,8.4
			c12.9,7.9,25.8,14.6,38.7,22.5C210,352.3,217.9,356.8,225.8,360.2z M441.8,266.4c1.7-1.1,1.7-2.8,1.7-3.4
			c5.1-20.2,10.1-40.4,15.2-61.2c1.7-7.9,0-9.5-8.4-7.9c-20.2,5.6-40.4,11.8-60.6,17.4c-0.6,1.1-2.8,1.1-3.9,2.8
			C410.4,225.5,428.4,243.4,441.8,266.4z"/>
	</g>
</g>
</svg>
