<?xml version="1.0" encoding="utf-8"?>
<!-- Generator: Adobe Illustrator 19.0.0, SVG Export Plug-In . SVG Version: 6.00 Build 0)  -->
<svg version="1.1" id="Layer_1" xmlns="http://www.w3.org/2000/svg" xmlns:xlink="http://www.w3.org/1999/xlink" x="0px" y="0px"
	 viewBox="-49 51 100 100" style="enable-background:new -49 51 100 100;" xml:space="preserve">
<style type="text/css">
	.st0{fill:#FFFFFF;}
	.st1{fill:#F9ED32;}
	.st2{enable-background:new    ;}
	.st3{fill:#663300;}
</style>
<g>
	<g id="XMLID_1_">
		<path id="XMLID_16_" class="st0" d="M1,56c24.8,0,45,20.2,45,45s-20.2,45-45,45s-45-20.2-45-45S-23.8,56,1,56 M1,51
			c-27.6,0-50,22.4-50,50s22.4,50,50,50s50-22.4,50-50S28.6,51,1,51L1,51z"/>
	</g>
	<g id="XMLID_2_">
		<circle id="XMLID_20_" class="st1" cx="1" cy="101" r="37.3"/>
	</g>
	<g class="st2">
		<path class="st3" d="M-19.7,87.6c0-2.1,0.8-4,2.3-5.5c1.5-1.5,3.4-2.3,5.6-2.3c2.2,0,4,0.8,5.5,2.3c1.5,1.5,2.3,3.4,2.3,5.6
			c0,2.2-0.8,4-2.3,5.5c-1.5,1.5-3.4,2.2-5.5,2.2c-1.4,0-2.7-0.3-3.9-1c-1.2-0.7-2.2-1.6-2.9-2.8C-19.4,90.3-19.7,89-19.7,87.6z
			 M-16.1,87.6c0,1.1,0.4,2.1,1.2,2.9s1.8,1.2,3,1.2s2.2-0.4,3-1.2s1.2-1.8,1.2-2.9c0-1.2-0.4-2.2-1.2-3s-1.8-1.2-2.9-1.2
			s-2.1,0.4-2.9,1.2C-15.7,85.4-16.1,86.4-16.1,87.6z"/>
		<path class="st3" d="M8.7,115H3.1V80.3h19.6v4.8H8.7v10.8h13.1v4.8H8.7V115z"/>
	</g>
</g>
</svg>
