<?xml version="1.0" encoding="utf-8"?>
<!-- Generator: Adobe Illustrator 19.0.0, SVG Export Plug-In . SVG Version: 6.00 Build 0)  -->
<svg version="1.1" id="Layer_1" xmlns="http://www.w3.org/2000/svg" xmlns:xlink="http://www.w3.org/1999/xlink" x="0px" y="0px"
	 viewBox="100 66 400 70" style="enable-background:new 100 66 400 70;" xml:space="preserve">
<style type="text/css">
	.st0{fill:#FF9900;}
	.st1{fill:#FFFFFF;}
	.st2{enable-background:new    ;}
</style>
<g>
	<path class="st0" d="M130,134c-15.4,0-28-12.6-28-28V96c0-15.4,12.6-28,28-28h340c15.4,0,28,12.6,28,28v10c0,15.4-12.6,28-28,28
		H130z"/>
	<path class="st1" d="M470,70c14.3,0,26,11.7,26,26v10c0,14.3-11.7,26-26,26H130c-14.3,0-26-11.7-26-26V96c0-14.3,11.7-26,26-26H470
		 M470,66H130c-16.5,0-30,13.5-30,30v10c0,16.5,13.5,30,30,30h340c16.5,0,30-13.5,30-30V96C500,79.5,486.5,66,470,66L470,66z"/>
</g>
<g class="st2">
	<path class="st1" d="M218.5,111.3V85.6h4.2v25.7H218.5z"/>
	<path class="st1" d="M232.5,85.6l-0.7,9.3h-2.6l-0.7-9.3H232.5z"/>
	<path class="st1" d="M254.1,111.3H250v-12c0-1.5-0.3-2.6-0.8-3.3s-1.4-1.1-2.6-1.1c-1.6,0-2.8,0.5-3.5,1.6s-1.1,2.8-1.1,5.2v9.7
		h-4.1V91.9h3.2l0.6,2.5h0.2c0.5-0.9,1.3-1.6,2.3-2.1s2.2-0.8,3.4-0.8c3,0,5,1,5.9,3.1h0.3c0.6-1,1.4-1.7,2.4-2.2s2.2-0.8,3.6-0.8
		c2.3,0,4,0.6,5.1,1.8s1.6,3,1.6,5.4v12.7h-4.1v-12c0-1.5-0.3-2.6-0.9-3.3s-1.5-1.1-2.6-1.1c-1.6,0-2.8,0.5-3.5,1.5
		s-1.1,2.5-1.1,4.6V111.3z"/>
	<path class="st1" d="M286.2,101.1v10.3H282V85.6h7.3c3.3,0,5.8,0.6,7.4,1.9s2.4,3.1,2.4,5.6c0,3.2-1.7,5.5-5,6.8l7.3,11.4h-4.8
		l-6.2-10.3H286.2z M286.2,97.6h2.9c2,0,3.4-0.4,4.3-1.1s1.3-1.8,1.3-3.2c0-1.5-0.5-2.5-1.4-3.1s-2.4-0.9-4.3-0.9h-2.8V97.6z"/>
	<path class="st1" d="M313,111.7c-3,0-5.4-0.9-7.1-2.6s-2.6-4.2-2.6-7.3c0-3.2,0.8-5.7,2.4-7.5s3.8-2.7,6.5-2.7
		c2.6,0,4.6,0.8,6.1,2.3s2.2,3.7,2.2,6.4v2.2h-13c0.1,1.9,0.6,3.3,1.5,4.4s2.3,1.5,4.1,1.5c1.1,0,2.2-0.1,3.2-0.3s2.1-0.6,3.2-1.1
		v3.4c-1,0.5-2,0.8-3.1,1S314.3,111.7,313,111.7z M312.3,94.7c-1.3,0-2.4,0.4-3.2,1.2s-1.3,2-1.4,3.6h8.8c0-1.6-0.4-2.8-1.2-3.6
		S313.6,94.7,312.3,94.7z"/>
	<path class="st1" d="M337.4,111.3l-0.8-2.7h-0.1c-0.9,1.2-1.9,2-2.8,2.4s-2.2,0.6-3.7,0.6c-1.9,0-3.4-0.5-4.5-1.5s-1.6-2.5-1.6-4.4
		c0-2,0.7-3.5,2.2-4.5s3.8-1.6,6.8-1.7l3.4-0.1v-1c0-1.2-0.3-2.2-0.9-2.8s-1.5-0.9-2.7-0.9c-1,0-2,0.1-2.9,0.4s-1.8,0.6-2.6,1
		l-1.3-3c1.1-0.6,2.2-1,3.5-1.3s2.4-0.4,3.6-0.4c2.5,0,4.3,0.5,5.6,1.6s1.9,2.8,1.9,5.1v13.1H337.4z M331.3,108.5
		c1.5,0,2.7-0.4,3.6-1.3s1.4-2,1.4-3.5v-1.7l-2.5,0.1c-1.9,0.1-3.4,0.4-4.2,1s-1.3,1.5-1.3,2.7c0,0.9,0.3,1.5,0.8,2
		S330.3,108.5,331.3,108.5z"/>
	<path class="st1" d="M352.7,111.7c-2.4,0-4.3-0.9-5.7-2.6s-2-4.2-2-7.4c0-3.2,0.7-5.7,2.1-7.4s3.3-2.7,5.7-2.7
		c2.6,0,4.5,0.9,5.8,2.8h0.2c-0.2-1.4-0.3-2.5-0.3-3.3V84h4.1v27.4h-3.2l-0.7-2.5h-0.2C357.2,110.7,355.3,111.7,352.7,111.7z
		 M353.8,108.4c1.7,0,2.9-0.5,3.7-1.4s1.2-2.5,1.2-4.6v-0.6c0-2.4-0.4-4.2-1.2-5.2s-2-1.5-3.7-1.5c-1.5,0-2.6,0.6-3.4,1.8
		s-1.2,2.9-1.2,5c0,2.2,0.4,3.8,1.1,4.9S352.3,108.4,353.8,108.4z"/>
	<path class="st1" d="M365.6,91.9h4.5l4,11c0.6,1.6,1,3,1.2,4.4h0.1c0.1-0.6,0.3-1.4,0.6-2.3s1.8-5.3,4.5-13.1h4.5l-8.3,22
		c-1.5,4-4,6.1-7.6,6.1c-0.9,0-1.8-0.1-2.7-0.3v-3.3c0.6,0.1,1.3,0.2,2.1,0.2c2,0,3.4-1.2,4.2-3.5l0.7-1.8L365.6,91.9z"/>
</g>
</svg>
