<?xml version="1.0" encoding="utf-8"?>
<!-- Generator: Adobe Illustrator 19.0.0, SVG Export Plug-In . SVG Version: 6.00 Build 0)  -->
<svg version="1.1" id="Layer_1" xmlns="http://www.w3.org/2000/svg" xmlns:xlink="http://www.w3.org/1999/xlink" x="0px" y="0px"
	 viewBox="-61 55 76 92" style="enable-background:new -61 55 76 92;" xml:space="preserve">
<style type="text/css">
	.st0{opacity:0.8;enable-background:new    ;}
	.st1{fill:#FFFFFF;}
</style>
<path id="XMLID_2_" class="st0" d="M3.5,66.7c-14.6-14.7-38.4-14.7-53,0c-14.3,14.3-14.6,37.5-0.8,52.2l0,0l27.3,27.4l25.6-25.7l0,0
	c0.3-0.3,0.6-0.5,0.9-0.8C18.1,105.1,18.1,81.3,3.5,66.7z"/>
<g id="XMLID_28_">
	<path id="XMLID_41_" class="st1" d="M-23,57c9.6,0,18.7,3.8,25.5,10.6c14,14.1,14,37,0,51.1c-0.2,0.2-0.4,0.4-0.6,0.6l-0.2,0.2
		l-1.5,1.4l0,0L-23,144.2l-25.6-25.7l-0.6-0.7c-6.5-6.9-9.9-15.8-9.8-25.2s3.9-18.3,10.5-25C-41.7,60.8-32.6,57-23,57 M-23,55
		c-9.7,0-19.5,3.7-26.9,11.2c-14.6,14.6-14.8,38.1-0.8,53l0,0L-23,147l26-26.1l0,0c0.3-0.3,0.6-0.6,0.9-0.8
		c14.8-14.9,14.8-39,0-53.9C-3.6,58.7-13.3,55-23,55L-23,55z"/>
</g>
</svg>
