<?xml version="1.0" encoding="utf-8"?>
<!-- Generator: Adobe Illustrator 19.0.0, SVG Export Plug-In . SVG Version: 6.00 Build 0)  -->
<svg version="1.1" id="Layer_1" xmlns="http://www.w3.org/2000/svg" xmlns:xlink="http://www.w3.org/1999/xlink" x="0px" y="0px"
	 viewBox="-74 76 50 50" style="enable-background:new -74 76 50 50;" xml:space="preserve">
<style type="text/css">
	.st0{fill:#FFFFFF;}
</style>
<g>
	<path class="st0" d="M-49,126c-13.8,0-25-11.2-25-25s11.2-25,25-25s25,11.2,25,25S-35.2,126-49,126z M-49,79.9
		c-11.7,0-21.1,9.4-21.1,21.1s9.4,21.1,21.1,21.1s21.1-9.4,21.1-21.1S-37.3,79.9-49,79.9z"/>
</g>
<g>
	<path id="XMLID_5_" class="st0" d="M-25.9,102.9h-46.2c-1,0-1.9-0.8-1.9-1.9s0.9-1.9,1.9-1.9H-26c1.1,0,1.9,0.9,1.9,1.9
		C-24,102.1-24.9,102.9-25.9,102.9z"/>
</g>
<g>
	<path class="st0" d="M-49,125.9c-0.5,0-1-0.2-1.4-0.6c-0.4-0.4-10.7-11-10.7-24.3c0-13.4,10.3-23.9,10.7-24.4
		c0.4-0.4,0.9-0.6,1.4-0.6l0,0c0.5,0,1,0.2,1.4,0.6c0.4,0.4,10.7,11,10.7,24.4c0,13.4-10.3,23.9-10.7,24.3
		C-48,125.9-48.5,125.9-49,125.9z M-49,80.9c-2.7,3.2-8.2,11.1-8.2,20.1s5.6,16.8,8.2,20.1c2.7-3.2,8.2-11.1,8.2-20.1
		S-46.3,84.2-49,80.9z"/>
</g>
<g>
	<path id="XMLID_2_" class="st0" d="M-49,92.7c-7,0-13.6-1.4-18.3-3.7c-0.9-0.5-1.3-1.7-0.8-2.6c0.5-1,1.6-1.3,2.6-0.8
		c4.1,2.1,10.1,3.3,16.5,3.3s12.4-1.2,16.5-3.3c1-0.5,2.1-0.1,2.6,0.8s0.1,2.1-0.8,2.6C-35.4,91.3-42,92.7-49,92.7z"/>
</g>
<g>
	<path id="XMLID_1_" class="st0" d="M-66.4,116.7c-0.7,0-1.4-0.4-1.7-1.1c-0.5-0.9-0.1-2.1,0.8-2.6c4.7-2.4,11.3-3.7,18.3-3.7
		s13.6,1.4,18.3,3.7c0.9,0.5,1.3,1.6,0.8,2.6c-0.5,0.9-1.6,1.3-2.6,0.8c-4.1-2.1-10.1-3.3-16.5-3.3s-12.4,1.2-16.5,3.3
		C-65.8,116.6-66.1,116.7-66.4,116.7z"/>
</g>
</svg>
