<?xml version="1.0" encoding="utf-8"?>
<!-- Generator: Adobe Illustrator 19.0.0, SVG Export Plug-In . SVG Version: 6.00 Build 0)  -->
<svg version="1.1" id="Layer_1" xmlns="http://www.w3.org/2000/svg" xmlns:xlink="http://www.w3.org/1999/xlink" x="0px" y="0px"
	 viewBox="-71 73 56 56" style="enable-background:new -71 73 56 56;" xml:space="preserve">
<style type="text/css">
	.st0{fill:#FFFFFF;fill-opacity:0;}
	.st1{fill:#FFFFFF;}
</style>
<g id="XMLID_2942_">
	<g id="XMLID_3338_">
		<rect id="XMLID_3339_" x="-71" y="73" class="st0" width="56" height="56"/>
	</g>
</g>
<g id="XMLID_1_">
	<g>
		<path id="XMLID_3_" class="st1" d="M-54.3,120.1L-54.3,120.1c-2-2-2-5.1,0-6.8l15.8-15.8c2-2,5.1-2,6.8,0l0,0c2,2,2,5.1,0,6.8
			l-15.9,15.8C-49.3,122.1-52.3,122.1-54.3,120.1z"/>
		<path id="XMLID_4_" class="st1" d="M-54.3,81.9L-54.3,81.9c2-2,5.1-2,6.8,0l15.8,15.8c2,2,2,5.1,0,6.8l0,0c-2,2-5.1,2-6.8,0
			l-15.8-15.8C-56.2,87-56.2,83.9-54.3,81.9z"/>
	</g>
</g>
</svg>
