<?xml version="1.0" encoding="utf-8"?>
<!-- Generator: Adobe Illustrator 19.0.0, SVG Export Plug-In . SVG Version: 6.00 Build 0)  -->
<svg version="1.1" id="Layer_1" xmlns="http://www.w3.org/2000/svg" xmlns:xlink="http://www.w3.org/1999/xlink" x="0px" y="0px"
	 viewBox="194 56 587 90" style="enable-background:new 194 56 587 90;" xml:space="preserve">
<style type="text/css">
	.st0{enable-background:new    ;}
	.st1{fill:#FFFFFF;}
</style>
<g>
	<g>
		<g>
			<g>
				<g class="st0">
					<path class="st1" d="M323.5,93.4c0,2.7-0.9,4.7-2.6,6.2s-4.3,2.1-7.5,2.1h-2.7v9.6h-4.2V85.6h7.4c3.2,0,5.6,0.7,7.2,2
						S323.5,90.9,323.5,93.4z M310.7,98.2h2.2c2.2,0,3.7-0.4,4.7-1.1s1.5-1.9,1.5-3.5c0-1.5-0.5-2.6-1.4-3.3s-2.3-1.1-4.2-1.1h-2.9
						V98.2z"/>
					<path class="st1" d="M338,91.6c0.8,0,1.5,0.1,2.1,0.2l-0.4,3.8c-0.6-0.1-1.2-0.2-1.8-0.2c-1.7,0-3,0.5-4,1.6s-1.5,2.5-1.5,4.2
						v10.2h-4.1V91.9h3.2l0.5,3.4h0.2c0.6-1.2,1.5-2.1,2.5-2.8S336.8,91.6,338,91.6z"/>
					<path class="st1" d="M343.4,86.8c0-0.7,0.2-1.3,0.6-1.7s1-0.6,1.7-0.6c0.7,0,1.3,0.2,1.7,0.6s0.6,1,0.6,1.7
						c0,0.7-0.2,1.3-0.6,1.7s-1,0.6-1.7,0.6c-0.8,0-1.3-0.2-1.7-0.6S343.4,87.5,343.4,86.8z M347.8,111.3h-4.1V91.9h4.1V111.3z"/>
					<path class="st1" d="M358.2,111.3l-7.4-19.4h4.4l4,11.3c0.7,1.9,1.1,3.4,1.2,4.6h0.1c0.1-0.8,0.5-2.4,1.2-4.6l4-11.3h4.4
						l-7.4,19.4H358.2z"/>
					<path class="st1" d="M385.2,111.3l-0.8-2.7h-0.1c-0.9,1.2-1.9,2-2.8,2.4s-2.2,0.6-3.7,0.6c-1.9,0-3.4-0.5-4.5-1.5
						s-1.6-2.5-1.6-4.4c0-2,0.7-3.5,2.2-4.5s3.8-1.6,6.8-1.7l3.4-0.1v-1c0-1.2-0.3-2.2-0.9-2.8s-1.5-0.9-2.7-0.9c-1,0-2,0.1-2.9,0.4
						s-1.8,0.6-2.6,1l-1.3-3c1.1-0.6,2.2-1,3.5-1.3s2.4-0.4,3.6-0.4c2.5,0,4.3,0.5,5.6,1.6s1.9,2.8,1.9,5.1v13.1H385.2z M379,108.5
						c1.5,0,2.7-0.4,3.6-1.3s1.4-2,1.4-3.5v-1.7l-2.5,0.1c-1.9,0.1-3.4,0.4-4.2,1s-1.3,1.5-1.3,2.7c0,0.9,0.3,1.5,0.8,2
						S378,108.5,379,108.5z"/>
					<path class="st1" d="M398.2,101.4l-6.5-9.5h4.7l4.4,6.8l4.5-6.8h4.7l-6.5,9.5l6.9,9.9h-4.7l-4.8-7.3l-4.8,7.3h-4.7L398.2,101.4
						z"/>
					<path class="st1" d="M410.7,91.9h4.5l4,11c0.6,1.6,1,3,1.2,4.4h0.1c0.1-0.6,0.3-1.4,0.6-2.3s1.8-5.3,4.5-13.1h4.5l-8.3,22
						c-1.5,4-4,6.1-7.6,6.1c-0.9,0-1.8-0.1-2.7-0.3v-3.3c0.6,0.1,1.3,0.2,2.1,0.2c2,0,3.4-1.2,4.2-3.5l0.7-1.8L410.7,91.9z"/>
					<path class="st1" d="M441.1,104.5c0-1.5,0.4-2.9,1.1-4s2.1-2.3,4.1-3.4c-1.1-1.3-1.9-2.4-2.3-3.3s-0.6-1.8-0.6-2.8
						c0-1.8,0.6-3.2,1.9-4.2s3-1.5,5.1-1.5c2.1,0,3.7,0.5,4.9,1.5s1.8,2.4,1.8,4.1c0,1.3-0.4,2.5-1.2,3.6s-2.1,2.2-4,3.3l6.1,5.9
						c0.9-1.3,1.7-3.1,2.4-5.5h4.3c-0.8,3.3-2.1,6-3.9,8.1l5.3,5.1h-5.3l-2.6-2.5c-1.2,1-2.5,1.7-3.8,2.2s-2.9,0.7-4.5,0.7
						c-2.7,0-4.8-0.6-6.3-1.9S441.1,106.8,441.1,104.5z M449.9,108.1c2.1,0,4-0.6,5.5-1.9l-6.7-6.6c-1.2,0.8-2.1,1.5-2.6,2.2
						s-0.7,1.5-0.7,2.4c0,1.1,0.4,2.1,1.2,2.8S448.6,108.1,449.9,108.1z M447.3,91.2c0,0.7,0.2,1.4,0.6,2.1s0.9,1.4,1.6,2.1
						c1.3-0.8,2.3-1.5,2.8-2.1s0.8-1.4,0.8-2.2c0-0.8-0.3-1.4-0.8-1.8s-1.2-0.7-2-0.7c-0.9,0-1.7,0.2-2.2,0.7S447.3,90.4,447.3,91.2
						z"/>
					<path class="st1" d="M487.7,111.3h-4.2V89.2h-7.6v-3.6h19.3v3.6h-7.6V111.3z"/>
					<path class="st1" d="M507.2,111.7c-3,0-5.4-0.9-7.1-2.6s-2.6-4.2-2.6-7.3c0-3.2,0.8-5.7,2.4-7.5s3.8-2.7,6.5-2.7
						c2.6,0,4.6,0.8,6.1,2.3s2.2,3.7,2.2,6.4v2.2h-13c0.1,1.9,0.6,3.3,1.5,4.4s2.3,1.5,4.1,1.5c1.1,0,2.2-0.1,3.2-0.3
						s2.1-0.6,3.2-1.1v3.4c-1,0.5-2,0.8-3.1,1S508.5,111.7,507.2,111.7z M506.5,94.7c-1.3,0-2.4,0.4-3.2,1.2s-1.3,2-1.4,3.6h8.8
						c0-1.6-0.4-2.8-1.2-3.6S507.8,94.7,506.5,94.7z"/>
					<path class="st1" d="M529.3,91.6c0.8,0,1.5,0.1,2.1,0.2l-0.4,3.8c-0.6-0.1-1.2-0.2-1.8-0.2c-1.7,0-3,0.5-4,1.6
						s-1.5,2.5-1.5,4.2v10.2h-4.1V91.9h3.2l0.5,3.4h0.2c0.6-1.2,1.5-2.1,2.5-2.8S528.1,91.6,529.3,91.6z"/>
					<path class="st1" d="M551.4,111.3h-4.1v-12c0-1.5-0.3-2.6-0.8-3.3s-1.4-1.1-2.6-1.1c-1.6,0-2.8,0.5-3.5,1.6s-1.1,2.8-1.1,5.2
						v9.7H535V91.9h3.2l0.6,2.5h0.2c0.5-0.9,1.3-1.6,2.3-2.1s2.2-0.8,3.4-0.8c3,0,5,1,5.9,3.1h0.3c0.6-1,1.4-1.7,2.4-2.2
						s2.2-0.8,3.6-0.8c2.3,0,4,0.6,5.1,1.8s1.6,3,1.6,5.4v12.7h-4.1v-12c0-1.5-0.3-2.6-0.9-3.3s-1.5-1.1-2.6-1.1
						c-1.6,0-2.8,0.5-3.5,1.5s-1.1,2.5-1.1,4.6V111.3z"/>
					<path class="st1" d="M582.5,105.8c0,1.9-0.7,3.4-2.1,4.4s-3.4,1.5-5.9,1.5c-2.6,0-4.7-0.4-6.2-1.2V107c2.3,1.1,4.4,1.6,6.4,1.6
						c2.5,0,3.8-0.8,3.8-2.3c0-0.5-0.1-0.9-0.4-1.2s-0.7-0.7-1.4-1s-1.5-0.8-2.7-1.2c-2.2-0.9-3.8-1.7-4.5-2.6s-1.2-2-1.2-3.4
						c0-1.7,0.7-3,2-3.9s3.2-1.4,5.5-1.4c2.3,0,4.4,0.5,6.5,1.4l-1.3,3.1c-2.1-0.9-3.9-1.3-5.3-1.3c-2.2,0-3.3,0.6-3.3,1.9
						c0,0.6,0.3,1.1,0.9,1.5s1.8,1,3.7,1.7c1.6,0.6,2.8,1.2,3.5,1.7s1.3,1.1,1.6,1.8S582.5,104.9,582.5,105.8z"/>
				</g>
			</g>
		</g>
	</g>
</g>
<g>
	<g>
		<g>
			<path class="st1" d="M266.5,101c0,6.9,0,13.7,0,20.6c0,2.4-1.4,4.4-3.7,5.1c-0.5,0.2-1.1,0.2-1.6,0.2c-10.3,0-20.6,0-30.9,0
				c-2.6,0-4.8-1.8-5.2-4.4c-0.1-0.3-0.1-0.6-0.1-0.9c0-13.7,0-27.4,0-41.1c0-2.6,1.7-4.7,4.2-5.2c0.4-0.1,0.7-0.1,1.1-0.1
				c10.3,0,20.6,0,30.8,0c2.7,0,4.7,1.8,5.2,4.4c0.1,0.3,0.1,0.7,0.1,1.1C266.5,87.2,266.5,94.2,266.5,101z M230.3,80.2
				c0,13.8,0,27.5,0,41.3c10.3,0,20.7,0,31,0c0-13.8,0-27.5,0-41.3C251,80.2,240.7,80.2,230.3,80.2z"/>
			<path class="st1" d="M245.5,84.8c2.9,0,5.8,0,8.6,0c1.5,0,2.6,1.2,2.6,2.7c0,1.4-1.2,2.5-2.6,2.6c-0.5,0-1,0-1.6,0
				c-5.2,0-10.4,0-15.7,0c-1.4,0-2.4-0.9-2.6-2.2c-0.3-1.5,0.9-3,2.5-3s3.1,0,4.7,0C242.8,84.8,244.2,84.8,245.5,84.8z"/>
			<path class="st1" d="M245.5,99.1c-2.9,0-5.7,0-8.6,0c-1.5,0-2.6-1.2-2.6-2.6s1.1-2.6,2.6-2.6c2.6,0,5.2,0,7.8,0
				c3.2,0,6.3,0,9.5,0c1.5,0,2.6,1.2,2.6,2.7c0,1.4-1.2,2.5-2.6,2.5C251.2,99.1,248.4,99.1,245.5,99.1z"/>
			<path class="st1" d="M240,108.6c-1,0-2.1,0-3.1,0c-1.3,0-2.4-1-2.5-2.3c-0.2-1.2,0.7-2.5,1.9-2.8c0.2-0.1,0.5-0.1,0.7-0.1
				c2,0,4.1,0,6.1,0c1.5,0,2.6,1.2,2.6,2.6s-1.2,2.6-2.6,2.6c0,0,0,0-0.1,0C242,108.6,241,108.6,240,108.6L240,108.6z"/>
		</g>
	</g>
</g>
</svg>
