<?xml version="1.0" encoding="utf-8"?>
<!-- Generator: Adobe Illustrator 19.0.0, SVG Export Plug-In . SVG Version: 6.00 Build 0)  -->
<svg version="1.1" id="Layer_1" xmlns="http://www.w3.org/2000/svg" xmlns:xlink="http://www.w3.org/1999/xlink" x="0px" y="0px"
	 viewBox="274 -25 587 90" style="enable-background:new 274 -25 587 90;" xml:space="preserve">
<style type="text/css">
	.st0{fill:#FFFFFF;}
	.st1{font-family:'OpenSans';}
	.st2{font-size:36px;}
</style>
<g>
	<g>
		<g>
			<g>
				<path class="st0" d="M423.5,20c0,6.9,0,13.7,0,20.6c0,2.4-1.4,4.4-3.7,5.1c-0.5,0.2-1.1,0.2-1.6,0.2c-10.3,0-20.6,0-30.9,0
					c-2.6,0-4.8-1.8-5.2-4.4c-0.1-0.3-0.1-0.6-0.1-0.9c0-13.7,0-27.4,0-41.1c0-2.6,1.7-4.7,4.2-5.2c0.4-0.1,0.7-0.1,1.1-0.1
					c10.3,0,20.6,0,30.8,0c2.7,0,4.7,1.8,5.2,4.4c0.1,0.3,0.1,0.7,0.1,1.1C423.5,6.3,423.5,13.2,423.5,20z M387.3-0.7
					c0,13.8,0,27.5,0,41.3c10.3,0,20.7,0,31,0c0-13.8,0-27.5,0-41.3C408-0.7,397.7-0.7,387.3-0.7z"/>
				<path class="st0" d="M402.5,3.8c2.9,0,5.8,0,8.6,0c1.5,0,2.6,1.2,2.6,2.7c0,1.4-1.2,2.5-2.6,2.6c-0.5,0-1,0-1.6,0
					c-5.2,0-10.4,0-15.7,0c-1.4,0-2.4-0.9-2.6-2.2c-0.3-1.5,0.9-3,2.5-3s3.1,0,4.7,0C399.8,3.8,401.2,3.8,402.5,3.8z"/>
				<path class="st0" d="M402.5,18.1c-2.9,0-5.7,0-8.6,0c-1.5,0-2.6-1.2-2.6-2.6s1.1-2.6,2.6-2.6c2.6,0,5.2,0,7.8,0
					c3.2,0,6.3,0,9.5,0c1.5,0,2.6,1.2,2.6,2.7c0,1.4-1.2,2.5-2.6,2.5C408.2,18.1,405.4,18.1,402.5,18.1z"/>
				<path class="st0" d="M397,27.6c-1,0-2.1,0-3.1,0c-1.3,0-2.4-1-2.5-2.3c-0.2-1.2,0.7-2.5,1.9-2.8c0.2-0.1,0.5-0.1,0.7-0.1
					c2,0,4.1,0,6.1,0c1.5,0,2.6,1.2,2.6,2.6c0,1.4-1.2,2.6-2.6,2.6c0,0,0,0-0.1,0C399,27.6,398,27.6,397,27.6L397,27.6z"/>
			</g>
		</g>
	</g>
	<g>
		<text transform="matrix(1 0 0 1 466.6 32.6412)" class="st0 st1 st2">Privacy &amp; Terms</text>
	</g>
</g>
</svg>
