<?xml version="1.0" encoding="utf-8"?>
<!-- Generator: Adobe Illustrator 19.0.0, SVG Export Plug-In . SVG Version: 6.00 Build 0)  -->
<svg version="1.1" id="Layer_1" xmlns="http://www.w3.org/2000/svg" xmlns:xlink="http://www.w3.org/1999/xlink" x="0px" y="0px"
	 viewBox="194 56 587 90" style="enable-background:new 194 56 587 90;" xml:space="preserve">
<style type="text/css">
	.st0{enable-background:new    ;}
	.st1{fill:#FFFFFF;}
</style>
<g>
	<g>
		<g>
			<g>
				<g class="st0">
					<path class="st1" d="M308.7,103.8V114h-4.2V88.3h7.3c3.3,0,5.8,0.6,7.4,1.9s2.4,3.1,2.4,5.6c0,3.2-1.7,5.5-5,6.8l7.3,11.4H319
						l-6.2-10.3H308.7z M308.7,100.3h2.9c2,0,3.4-0.4,4.3-1.1s1.3-1.8,1.3-3.2c0-1.5-0.5-2.5-1.4-3.1s-2.4-0.9-4.3-0.9h-2.8V100.3z"
						/>
					<path class="st1" d="M339.2,114l-0.8-2.7h-0.1c-0.9,1.2-1.9,2-2.8,2.4s-2.2,0.6-3.7,0.6c-1.9,0-3.4-0.5-4.5-1.5
						s-1.6-2.5-1.6-4.4c0-2,0.7-3.5,2.2-4.5s3.8-1.6,6.8-1.7l3.4-0.1v-1c0-1.2-0.3-2.2-0.9-2.8s-1.5-0.9-2.7-0.9c-1,0-2,0.1-2.9,0.4
						s-1.8,0.6-2.6,1l-1.3-3c1.1-0.6,2.2-1,3.5-1.3s2.4-0.4,3.6-0.4c2.5,0,4.3,0.5,5.6,1.6s1.9,2.8,1.9,5.1V114H339.2z M333.1,111.2
						c1.5,0,2.7-0.4,3.6-1.3s1.4-2,1.4-3.5v-1.7l-2.5,0.1c-1.9,0.1-3.4,0.4-4.2,1s-1.3,1.5-1.3,2.7c0,0.9,0.3,1.5,0.8,2
						S332,111.2,333.1,111.2z"/>
					<path class="st1" d="M355.2,111.1c1,0,2-0.2,3-0.5v3.1c-0.5,0.2-1,0.4-1.8,0.5s-1.5,0.2-2.2,0.2c-3.9,0-5.9-2.1-5.9-6.2V97.7
						h-2.7v-1.8l2.8-1.5l1.4-4.1h2.5v4.3h5.5v3.1h-5.5v10.4c0,1,0.2,1.7,0.7,2.2S354.4,111.1,355.2,111.1z"/>
					<path class="st1" d="M370.6,114.4c-3,0-5.4-0.9-7.1-2.6s-2.6-4.2-2.6-7.3c0-3.2,0.8-5.7,2.4-7.5s3.8-2.7,6.5-2.7
						c2.6,0,4.6,0.8,6.1,2.3s2.2,3.7,2.2,6.4v2.2h-13c0.1,1.9,0.6,3.3,1.5,4.4s2.3,1.5,4.1,1.5c1.1,0,2.2-0.1,3.2-0.3
						s2.1-0.6,3.2-1.1v3.4c-1,0.5-2,0.8-3.1,1S371.9,114.4,370.6,114.4z M369.8,97.4c-1.3,0-2.4,0.4-3.2,1.2s-1.3,2-1.4,3.6h8.8
						c0-1.6-0.4-2.8-1.2-3.6S371.1,97.4,369.8,97.4z"/>
					<path class="st1" d="M399.4,111.1c1,0,2-0.2,3-0.5v3.1c-0.5,0.2-1,0.4-1.8,0.5s-1.5,0.2-2.2,0.2c-3.9,0-5.9-2.1-5.9-6.2V97.7
						h-2.7v-1.8l2.8-1.5l1.4-4.1h2.5v4.3h5.5v3.1h-5.5v10.4c0,1,0.2,1.7,0.7,2.2S398.6,111.1,399.4,111.1z"/>
					<path class="st1" d="M423.4,114h-4.1v-12c0-1.5-0.3-2.6-0.9-3.4s-1.6-1.1-2.9-1.1c-1.7,0-3,0.5-3.8,1.6s-1.2,2.8-1.2,5.2v9.7
						h-4.1V86.7h4.1v6.9c0,1.1-0.1,2.3-0.2,3.6h0.3c0.6-0.9,1.3-1.7,2.3-2.2s2.2-0.8,3.5-0.8c4.7,0,7.1,2.4,7.1,7.1V114z"/>
					<path class="st1" d="M428.9,89.4c0-0.7,0.2-1.3,0.6-1.7s1-0.6,1.7-0.6c0.7,0,1.3,0.2,1.7,0.6s0.6,1,0.6,1.7
						c0,0.7-0.2,1.3-0.6,1.7s-1,0.6-1.7,0.6c-0.8,0-1.3-0.2-1.7-0.6S428.9,90.2,428.9,89.4z M433.3,114h-4.1V94.6h4.1V114z"/>
					<path class="st1" d="M452.3,108.5c0,1.9-0.7,3.4-2.1,4.4s-3.4,1.5-5.9,1.5c-2.6,0-4.7-0.4-6.2-1.2v-3.6
						c2.3,1.1,4.4,1.6,6.4,1.6c2.5,0,3.8-0.8,3.8-2.3c0-0.5-0.1-0.9-0.4-1.2s-0.7-0.7-1.4-1s-1.5-0.8-2.7-1.2
						c-2.2-0.9-3.8-1.7-4.5-2.6s-1.2-2-1.2-3.4c0-1.7,0.7-3,2-3.9s3.2-1.4,5.5-1.4c2.3,0,4.4,0.5,6.5,1.4l-1.3,3.1
						c-2.1-0.9-3.9-1.3-5.3-1.3c-2.2,0-3.3,0.6-3.3,1.9c0,0.6,0.3,1.1,0.9,1.5s1.8,1,3.7,1.7c1.6,0.6,2.8,1.2,3.5,1.7
						s1.3,1.1,1.6,1.8S452.3,107.6,452.3,108.5z"/>
					<path class="st1" d="M482.5,114l-2.6-7.1h-9.8l-2.5,7.1h-4.4l9.6-25.8h4.6l9.6,25.8H482.5z M478.8,103.3l-2.4-7
						c-0.2-0.5-0.4-1.2-0.7-2.2s-0.5-1.7-0.6-2.2c-0.3,1.4-0.8,3-1.4,4.7l-2.3,6.7H478.8z"/>
					<path class="st1" d="M499.8,114.4c-2.5,0-4.4-0.9-5.7-2.7h-0.2c0.2,1.6,0.2,2.6,0.2,3v8h-4.1V94.6h3.3c0.1,0.4,0.3,1.2,0.6,2.6
						h0.2c1.3-2,3.2-3,5.8-3c2.4,0,4.3,0.9,5.7,2.6s2,4.2,2,7.4s-0.7,5.7-2.1,7.4S502.2,114.4,499.8,114.4z M498.8,97.6
						c-1.6,0-2.8,0.5-3.6,1.4s-1.1,2.5-1.1,4.6v0.6c0,2.4,0.4,4.1,1.1,5.1s2,1.6,3.7,1.6c1.4,0,2.5-0.6,3.3-1.8s1.2-2.8,1.2-5
						c0-2.2-0.4-3.8-1.2-4.9S500.2,97.6,498.8,97.6z"/>
					<path class="st1" d="M522.2,114.4c-2.5,0-4.4-0.9-5.7-2.7h-0.2c0.2,1.6,0.2,2.6,0.2,3v8h-4.1V94.6h3.3c0.1,0.4,0.3,1.2,0.6,2.6
						h0.2c1.3-2,3.2-3,5.8-3c2.4,0,4.3,0.9,5.7,2.6s2,4.2,2,7.4s-0.7,5.7-2.1,7.4S524.6,114.4,522.2,114.4z M521.2,97.6
						c-1.6,0-2.8,0.5-3.6,1.4s-1.1,2.5-1.1,4.6v0.6c0,2.4,0.4,4.1,1.1,5.1s2,1.6,3.7,1.6c1.4,0,2.5-0.6,3.3-1.8s1.2-2.8,1.2-5
						c0-2.2-0.4-3.8-1.2-4.9S522.7,97.6,521.2,97.6z"/>
				</g>
			</g>
		</g>
	</g>
	<g>
		<g>
			<polygon class="st1" points="241.9,75.5 250.2,92.2 268.7,95 255.3,108 258.5,126.5 241.9,117.9 225.2,126.5 228.4,108 215,95 
				233.5,92.2 			"/>
		</g>
	</g>
</g>
</svg>
