<?xml version="1.0" encoding="utf-8"?>
<!-- Generator: Adobe Illustrator 19.0.0, SVG Export Plug-In . SVG Version: 6.00 Build 0)  -->
<svg version="1.1" id="Layer_1" xmlns="http://www.w3.org/2000/svg" xmlns:xlink="http://www.w3.org/1999/xlink" x="0px" y="0px"
	 viewBox="55 6 150 30" style="enable-background:new 55 6 150 30;" xml:space="preserve">
<style type="text/css">
	.st0{fill:#FFFFFF;}
</style>
<g>
	<g id="XMLID_2_">
		<path id="XMLID_3_" class="st0" d="M67.5,22.9c0,4.8,3.9,8.6,8.6,8.6c4.8,0,8.6-3.9,8.6-8.6c0-4.8-3.9-8.6-8.6-8.6v4.6l-6.5-6.5
			l6.5-6.5v4.1c7.1,0,12.9,5.8,12.9,13s-5.8,13-13,13s-13-5.8-13-13h4.5V22.9z"/>
	</g>
	<g>
		<path class="st0" d="M115.8,15.3v8.9c0,1.6-0.5,2.8-1.4,3.7c-1,0.9-2.3,1.4-3.9,1.4s-3-0.5-3.9-1.4s-1.4-2.2-1.4-3.7v-8.9h1.6v9
			c0,1.2,0.3,2,0.9,2.7s1.6,0.9,2.8,0.9c1.2,0,2.1-0.3,2.7-0.9s0.9-1.5,0.9-2.7v-9H115.8z"/>
		<path class="st0" d="M127.9,19.3c0,1.4-0.5,2.5-1.4,3.2c-1,0.8-2.3,1.1-4.1,1.1h-1.6v5.4h-1.6V15.3h3.6
			C126.2,15.3,127.9,16.7,127.9,19.3z M120.8,22.3h1.4c1.4,0,2.5-0.2,3.1-0.7s1-1.2,1-2.2c0-0.9-0.3-1.6-0.9-2s-1.5-0.7-2.8-0.7
			h-1.8L120.8,22.3L120.8,22.3z"/>
		<path class="st0" d="M141.6,22.1c0,2.3-0.6,4-1.9,5.2c-1.2,1.2-3,1.8-5.3,1.8h-3.8V15.3h4.2c2.2,0,3.8,0.6,5,1.8
			C141,18.3,141.6,19.9,141.6,22.1z M139.9,22.2c0-1.8-0.5-3.2-1.4-4.1s-2.3-1.4-4-1.4h-2.3v11h2c1.9,0,3.4-0.5,4.3-1.4
			C139.4,25.3,139.9,23.9,139.9,22.2z"/>
		<path class="st0" d="M153.1,29.2l-1.7-4.4h-5.5l-1.7,4.4h-1.6l5.5-13.9h1.4l5.4,13.9H153.1z M150.8,23.3l-1.6-4.3
			c-0.2-0.5-0.4-1.2-0.6-2c-0.1,0.6-0.3,1.3-0.6,2l-1.6,4.3H150.8z"/>
		<path class="st0" d="M160.6,29.2H159V16.8h-4.4v-1.4H165v1.4h-4.4V29.2z"/>
		<path class="st0" d="M166.8,29.2V15.4h1.6v13.8H166.8z"/>
		<path class="st0" d="M182.6,29.2h-1.8l-7.6-11.6h-0.1c0.1,1.4,0.2,2.6,0.2,3.7v7.9h-1.5V15.4h1.8l7.5,11.6h0.1
			c0-0.2,0-0.7-0.1-1.6c0-0.9-0.1-1.6,0-2v-7.9h1.5V29.2L182.6,29.2z"/>
		<path class="st0" d="M192.2,21.8h4.7v6.7c-0.7,0.2-1.5,0.4-2.2,0.5c-0.8,0.1-1.6,0.2-2.6,0.2c-2.1,0-3.7-0.6-4.9-1.9
			c-1.2-1.2-1.8-3-1.8-5.2c0-1.4,0.3-2.7,0.9-3.8c0.6-1.1,1.4-1.9,2.5-2.5s2.4-0.9,3.8-0.9c1.5,0,2.9,0.3,4.1,0.8l-0.6,1.4
			c-1.2-0.5-2.5-0.8-3.6-0.8c-1.7,0-3,0.5-3.9,1.5s-1.4,2.4-1.4,4.2c0,1.9,0.5,3.3,1.4,4.2c0.9,1,2.2,1.4,4,1.4c1,0,1.9-0.1,2.8-0.3
			v-4.3h-3.1v-1.2H192.2z"/>
	</g>
</g>
</svg>
