<?xml version="1.0" encoding="utf-8"?>
<!-- Generator: Adobe Illustrator 19.0.0, SVG Export Plug-In . SVG Version: 6.00 Build 0)  -->
<svg version="1.1" id="Layer_1" xmlns="http://www.w3.org/2000/svg" xmlns:xlink="http://www.w3.org/1999/xlink" x="0px" y="0px"
	 viewBox="26 13.8 92.1 14.2" style="enable-background:new 26 13.8 92.1 14.2;" xml:space="preserve">
<style type="text/css">
	.st0{fill:#FFFFFF;}
</style>
<g>
	<path class="st0" d="M36.7,14v8.9c0,1.6-0.5,2.8-1.4,3.7c-1,0.9-2.3,1.4-3.9,1.4s-3-0.5-3.9-1.4s-1.4-2.2-1.4-3.7V14h1.6v9
		c0,1.2,0.3,2,0.9,2.7c0.6,0.6,1.6,0.9,2.8,0.9c1.2,0,2.1-0.3,2.7-0.9s0.9-1.5,0.9-2.7v-9H36.7z"/>
	<path class="st0" d="M49,18c0,1.4-0.5,2.5-1.4,3.2s-2.3,1.1-4.1,1.1h-1.6v5.4h-1.6V13.9h3.6C47.1,14,49,15.3,49,18z M41.7,21h1.4
		c1.4,0,2.5-0.2,3.1-0.7s1-1.2,1-2.2c0-0.9-0.3-1.6-0.9-2s-1.5-0.7-2.8-0.7h-1.8L41.7,21L41.7,21z"/>
	<path class="st0" d="M62.6,20.8c0,2.3-0.6,4-1.9,5.2c-1.2,1.2-3,1.8-5.3,1.8h-3.8V14h4.2c2.2,0,3.8,0.6,5,1.8S62.6,18.6,62.6,20.8z
		 M60.8,20.8c0-1.8-0.5-3.2-1.4-4.1s-2.3-1.4-4-1.4h-2.3v11h2c1.9,0,3.4-0.5,4.3-1.4C60.3,24.1,60.8,22.7,60.8,20.8z"/>
	<path class="st0" d="M74.1,27.8l-1.7-4.4h-5.5l-1.7,4.4h-1.6L69,13.9h1.4l5.4,13.9H74.1z M71.8,22l-1.6-4.3c-0.2-0.5-0.4-1.2-0.6-2
		c-0.1,0.6-0.3,1.3-0.6,2L67.4,22H71.8z"/>
	<path class="st0" d="M81.6,27.8h-1.6V15.4h-4.4V14h10.4v1.4h-4.4V27.8z"/>
	<path class="st0" d="M87.7,27.8V14h1.6v13.8H87.7z"/>
	<path class="st0" d="M103.6,27.8h-1.8l-7.6-11.6h-0.1c0.1,1.4,0.2,2.6,0.2,3.7v7.9h-1.5V14h1.8l7.5,11.6h0.1c0-0.2,0-0.7-0.1-1.6
		c0-0.9-0.1-1.6,0-2v-7.9h1.5L103.6,27.8L103.6,27.8z"/>
	<path class="st0" d="M113.2,20.6h4.7v6.7c-0.7,0.2-1.5,0.4-2.2,0.5c-0.8,0.1-1.6,0.2-2.6,0.2c-2.1,0-3.7-0.6-4.9-1.9
		c-1.2-1.2-1.8-3-1.8-5.2c0-1.4,0.3-2.7,0.9-3.8c0.6-1.1,1.4-1.9,2.5-2.5s2.4-0.9,3.8-0.9c1.5,0,2.9,0.3,4.1,0.8l-0.6,1.4
		c-1.2-0.5-2.5-0.8-3.6-0.8c-1.7,0-3,0.5-3.9,1.5s-1.4,2.4-1.4,4.2c0,1.9,0.5,3.3,1.4,4.2c0.9,1,2.2,1.4,4,1.4c1,0,1.9-0.1,2.8-0.3
		v-4.3h-3.1L113.2,20.6L113.2,20.6z"/>
</g>
</svg>
