<?xml version="1.0" encoding="utf-8"?>
<!-- Generator: Adobe Illustrator 19.0.0, SVG Export Plug-In . SVG Version: 6.00 Build 0)  -->
<svg version="1.1" id="Layer_1" xmlns="http://www.w3.org/2000/svg" xmlns:xlink="http://www.w3.org/1999/xlink" x="0px" y="0px"
	 viewBox="-24 86 150 30" style="enable-background:new -24 86 150 30;" xml:space="preserve">
<style type="text/css">
	.st0{fill:#FFFFFF;}
</style>
<g>
	<g id="XMLID_2_">
		<path id="XMLID_3_" class="st0" d="M-11.4,102.9c0,4.8,3.9,8.6,8.6,8.6c4.8,0,8.6-3.9,8.6-8.6c0-4.8-3.9-8.6-8.6-8.6v4.6l-6.5-6.5
			l6.5-6.5v4.1c7.1,0,12.9,5.8,12.9,13s-5.8,13-13,13s-13-5.8-13-13h4.5V102.9z"/>
	</g>
	<g>
		<path class="st0" d="M36.9,95.4v8.9c0,1.6-0.5,2.8-1.4,3.7c-1,0.9-2.3,1.4-3.9,1.4c-1.6,0-3-0.5-3.9-1.4c-0.9-0.9-1.4-2.2-1.4-3.7
			v-8.9h1.6v9c0,1.2,0.3,2,0.9,2.7c0.6,0.7,1.6,0.9,2.8,0.9c1.2,0,2.1-0.3,2.7-0.9c0.6-0.6,0.9-1.5,0.9-2.7v-9H36.9z"/>
		<path class="st0" d="M49,99.4c0,1.4-0.5,2.5-1.4,3.2c-1,0.8-2.3,1.1-4.1,1.1h-1.6v5.4h-1.6V95.4h3.6C47.2,95.4,49,96.9,49,99.4z
			 M41.9,102.4h1.4c1.4,0,2.5-0.2,3.1-0.7s1-1.2,1-2.2c0-0.9-0.3-1.6-0.9-2c-0.6-0.4-1.5-0.7-2.8-0.7h-1.8V102.4L41.9,102.4z"/>
		<path class="st0" d="M62.7,102.2c0,2.3-0.6,4-1.9,5.2c-1.2,1.2-3,1.8-5.3,1.8h-3.8V95.4h4.2c2.2,0,3.8,0.6,5,1.8
			C62.1,98.4,62.7,99.9,62.7,102.2z M60.9,102.2c0-1.8-0.5-3.2-1.4-4.1c-0.9-0.9-2.3-1.4-4-1.4h-2.3v11h2c1.9,0,3.4-0.5,4.3-1.4
			C60.4,105.4,60.9,103.9,60.9,102.2z"/>
		<path class="st0" d="M74.2,109.2l-1.7-4.4H67l-1.7,4.4h-1.6l5.5-13.9h1.4l5.4,13.9H74.2z M71.9,103.4l-1.6-4.3
			c-0.2-0.5-0.4-1.2-0.6-2c-0.1,0.6-0.3,1.3-0.6,2l-1.6,4.3H71.9z"/>
		<path class="st0" d="M81.7,109.2h-1.6V96.9h-4.4v-1.4h10.4v1.4h-4.4V109.2z"/>
		<path class="st0" d="M87.9,109.2V95.4h1.6v13.8C89.5,109.2,87.9,109.2,87.9,109.2z"/>
		<path class="st0" d="M103.7,109.2h-1.8l-7.6-11.6h-0.1c0.1,1.4,0.2,2.6,0.2,3.7v7.9h-1.5V95.4h1.8l7.5,11.6h0.1
			c0-0.2,0-0.7-0.1-1.6c0-0.9-0.1-1.6,0-2v-7.9h1.5V109.2L103.7,109.2z"/>
		<path class="st0" d="M113.2,101.9h4.7v6.7c-0.7,0.2-1.5,0.4-2.2,0.5c-0.8,0.1-1.6,0.2-2.6,0.2c-2.1,0-3.7-0.6-4.9-1.9
			c-1.2-1.2-1.8-3-1.8-5.2c0-1.4,0.3-2.7,0.9-3.8s1.4-1.9,2.5-2.5c1.1-0.6,2.4-0.9,3.8-0.9c1.5,0,2.9,0.3,4.1,0.8l-0.6,1.4
			c-1.2-0.5-2.5-0.8-3.6-0.8c-1.7,0-3,0.5-3.9,1.5s-1.4,2.4-1.4,4.2c0,1.9,0.5,3.3,1.4,4.2c0.9,1,2.2,1.4,4,1.4c1,0,1.9-0.1,2.8-0.3
			v-4.4h-3.1L113.2,101.9C113.3,101.9,113.2,101.9,113.2,101.9z"/>
	</g>
</g>
</svg>
