<?xml version="1.0" encoding="utf-8"?>
<!-- Generator: Adobe Illustrator 19.0.0, SVG Export Plug-In . SVG Version: 6.00 Build 0)  -->
<svg version="1.1" id="Layer_1" xmlns="http://www.w3.org/2000/svg" xmlns:xlink="http://www.w3.org/1999/xlink" x="0px" y="0px"
	 viewBox="-53 93.8 92.1 14.2" style="enable-background:new -53 93.8 92.1 14.2;" xml:space="preserve">
<style type="text/css">
	.st0{fill:#FFFFFF;}
</style>
<g>
	<path class="st0" d="M-42.2,94.1v8.9c0,1.6-0.5,2.8-1.4,3.7c-1,0.9-2.3,1.4-3.9,1.4s-3-0.5-3.9-1.4s-1.4-2.2-1.4-3.7v-8.9h1.6v9
		c0,1.2,0.3,2,0.9,2.7c0.6,0.6,1.6,0.9,2.8,0.9c1.2,0,2.1-0.3,2.7-0.9c0.6-0.6,0.9-1.5,0.9-2.7v-9H-42.2z"/>
	<path class="st0" d="M-29.9,98.1c0,1.4-0.5,2.5-1.4,3.2s-2.3,1.1-4.1,1.1H-37v5.4h-1.6V94h3.6C-31.8,94.1-29.9,95.3-29.9,98.1z
		 M-37.2,101.1h1.4c1.4,0,2.5-0.2,3.1-0.7s1-1.2,1-2.2c0-0.9-0.3-1.6-0.9-2c-0.6-0.4-1.5-0.7-2.8-0.7h-1.8V101.1L-37.2,101.1z"/>
	<path class="st0" d="M-16.3,100.8c0,2.3-0.6,4-1.9,5.2c-1.2,1.2-3,1.8-5.3,1.8h-3.8V94.1h4.2c2.2,0,3.8,0.6,5,1.8
		C-16.9,97.1-16.3,98.7-16.3,100.8z M-18.1,100.8c0-1.8-0.5-3.2-1.4-4.1s-2.3-1.4-4-1.4h-2.3v11h2c1.9,0,3.4-0.5,4.3-1.4
		C-18.6,104.2-18.1,102.8-18.1,100.8z"/>
	<path class="st0" d="M-4.8,107.8l-1.7-4.4H-12l-1.7,4.4h-1.6L-9.9,94h1.4l5.4,13.9L-4.8,107.8L-4.8,107.8z M-7.1,102.1l-1.6-4.3
		c-0.2-0.5-0.4-1.2-0.6-2c-0.1,0.6-0.3,1.3-0.6,2l-1.6,4.3H-7.1z"/>
	<path class="st0" d="M2.7,107.8H1.1V95.5h-4.4v-1.4H7.1v1.4H2.7V107.8z"/>
	<path class="st0" d="M8.8,107.8V94.1h1.6v13.8L8.8,107.8L8.8,107.8z"/>
	<path class="st0" d="M24.7,107.8h-1.8l-7.6-11.6h-0.1c0.1,1.4,0.2,2.6,0.2,3.7v7.9h-1.5V94.1h1.8l7.5,11.6h0.1c0-0.2,0-0.7-0.1-1.6
		c0-0.9-0.1-1.6,0-2v-7.9h1.5V107.8L24.7,107.8z"/>
	<path class="st0" d="M34.2,100.7h4.7v6.7c-0.7,0.2-1.5,0.4-2.2,0.5c-0.8,0.1-1.6,0.2-2.6,0.2c-2.1,0-3.7-0.6-4.9-1.9
		c-1.2-1.2-1.8-3-1.8-5.2c0-1.4,0.3-2.7,0.9-3.8s1.4-1.9,2.5-2.5s2.4-0.9,3.8-0.9c1.5,0,2.9,0.3,4.1,0.8L38.1,96
		c-1.2-0.5-2.5-0.8-3.6-0.8c-1.7,0-3,0.5-3.9,1.5s-1.4,2.4-1.4,4.2c0,1.9,0.5,3.3,1.4,4.2c0.9,1,2.2,1.4,4,1.4c1,0,1.9-0.1,2.8-0.3
		v-4.3h-3.1L34.2,100.7L34.2,100.7z"/>
</g>
</svg>
