<?xml version="1.0" encoding="utf-8"?>
<!-- Generator: Adobe Illustrator 19.0.0, SVG Export Plug-In . SVG Version: 6.00 Build 0)  -->
<svg version="1.1" id="Layer_1" xmlns="http://www.w3.org/2000/svg" xmlns:xlink="http://www.w3.org/1999/xlink" x="0px" y="0px"
	 viewBox="100 66 400 70" style="enable-background:new 100 66 400 70;" xml:space="preserve">
<style type="text/css">
	.st0{fill:#FFFF99;}
	.st1{enable-background:new    ;}
	.st2{fill:#3C2415;}
	.st3{fill:#FFFFFF;}
	.st4{fill:#603913;}
</style>
<g>
	<path id="XMLID_1_" class="st0" d="M490,136H110c-5.5,0-10-4.5-10-10V76c0-5.5,4.5-10,10-10h380c5.5,0,10,4.5,10,10v50
		C500,131.5,495.5,136,490,136z"/>
	<g id="XMLID_2_">
		<g class="st1">
			<path class="st2" d="M205.7,103.8c0,1.9-0.7,3.4-2.1,4.5s-3.3,1.6-5.7,1.6s-4.4-0.4-5.9-1.1v-3.3c1,0.5,2,0.8,3.1,1.1
				s2.1,0.4,3.1,0.4c1.4,0,2.4-0.3,3.1-0.8s1-1.2,1-2.1c0-0.8-0.3-1.5-0.9-2s-1.9-1.2-3.8-2c-2-0.8-3.3-1.7-4.1-2.7
				s-1.2-2.2-1.2-3.7c0-1.8,0.6-3.2,1.9-4.2s3-1.5,5.1-1.5c2.1,0,4.1,0.4,6.1,1.3l-1.1,2.9c-1.9-0.8-3.6-1.2-5.1-1.2
				c-1.1,0-2,0.2-2.6,0.7s-0.9,1.1-0.9,2c0,0.6,0.1,1,0.4,1.4c0.2,0.4,0.6,0.8,1.2,1.1s1.5,0.8,2.9,1.4c1.6,0.7,2.7,1.3,3.5,1.8
				s1.3,1.2,1.6,1.9S205.7,102.8,205.7,103.8z"/>
			<path class="st2" d="M216.6,109.9c-2.5,0-4.5-0.7-5.9-2.2c-1.4-1.5-2.1-3.5-2.1-6.1c0-2.6,0.7-4.7,2-6.2s3.1-2.3,5.4-2.3
				c2.1,0,3.8,0.6,5.1,1.9s1.9,3.1,1.9,5.4v1.9h-10.8c0,1.6,0.5,2.8,1.3,3.6c0.8,0.8,1.9,1.3,3.4,1.3c1,0,1.8-0.1,2.7-0.3
				c0.8-0.2,1.7-0.5,2.7-0.9v2.8c-0.8,0.4-1.7,0.7-2.5,0.8S217.7,109.9,216.6,109.9z M216,95.7c-1.1,0-2,0.3-2.6,1s-1.1,1.7-1.2,3
				h7.4c0-1.3-0.3-2.4-1-3C217.9,96.1,217.1,95.7,216,95.7z"/>
			<path class="st2" d="M236.9,109.6l-0.7-2.3h-0.1c-0.8,1-1.6,1.7-2.4,2c-0.8,0.4-1.8,0.5-3,0.5c-1.6,0-2.8-0.4-3.7-1.3
				s-1.3-2.1-1.3-3.6c0-1.7,0.6-2.9,1.9-3.8s3.1-1.3,5.7-1.4l2.8-0.1v-0.9c0-1-0.2-1.8-0.7-2.3c-0.5-0.5-1.2-0.8-2.2-0.8
				c-0.8,0-1.6,0.1-2.4,0.4s-1.5,0.5-2.2,0.9l-1.1-2.5c0.9-0.5,1.8-0.8,2.9-1s2-0.4,3-0.4c2.1,0,3.6,0.4,4.7,1.3s1.6,2.3,1.6,4.2
				v10.9H236.9z M231.8,107.3c1.2,0,2.3-0.3,3-1s1.1-1.7,1.1-2.9v-1.4l-2.1,0.1c-1.6,0.1-2.8,0.3-3.5,0.8c-0.7,0.5-1.1,1.2-1.1,2.2
				c0,0.7,0.2,1.3,0.6,1.7C230.3,107.1,230.9,107.3,231.8,107.3z"/>
			<path class="st2" d="M252.4,93.1c0.7,0,1.3,0,1.7,0.1l-0.3,3.2c-0.5-0.1-1-0.2-1.5-0.2c-1.4,0-2.5,0.4-3.3,1.3s-1.3,2.1-1.3,3.5
				v8.5h-3.4V93.4h2.7l0.5,2.9h0.2c0.5-1,1.2-1.7,2.1-2.3S251.4,93.1,252.4,93.1z"/>
			<path class="st2" d="M263.7,109.9c-2.5,0-4.3-0.7-5.6-2.1c-1.3-1.4-1.9-3.5-1.9-6.2c0-2.7,0.7-4.8,2-6.3s3.3-2.2,5.8-2.2
				c1.7,0,3.2,0.3,4.6,1l-1,2.8c-1.5-0.6-2.7-0.8-3.6-0.8c-2.8,0-4.2,1.9-4.2,5.6c0,1.8,0.3,3.2,1,4.1s1.7,1.4,3.1,1.4
				c1.5,0,3-0.4,4.4-1.1v3c-0.6,0.4-1.3,0.6-2,0.8S264.7,109.9,263.7,109.9z"/>
			<path class="st2" d="M286.2,109.6h-3.5v-10c0-1.2-0.3-2.2-0.8-2.8s-1.3-0.9-2.4-0.9c-1.4,0-2.5,0.4-3.2,1.3c-0.7,0.9-1,2.3-1,4.3
				v8H272V86.8h3.4v5.8c0,0.9-0.1,1.9-0.2,3h0.2c0.5-0.8,1.1-1.4,2-1.8s1.8-0.6,2.9-0.6c3.9,0,5.9,2,5.9,5.9V109.6z"/>
			<path class="st2" d="M312.5,109.6H309v-10c0-1.2-0.2-2.2-0.7-2.8s-1.2-0.9-2.2-0.9c-1.3,0-2.3,0.4-2.9,1.3
				c-0.6,0.9-0.9,2.3-0.9,4.3v8.1h-3.4V93.4h2.7l0.5,2.1h0.2c0.4-0.8,1.1-1.4,2-1.8c0.9-0.4,1.8-0.6,2.8-0.6c2.5,0,4.1,0.8,5,2.5
				h0.2c0.5-0.8,1.2-1.4,2-1.9s1.9-0.7,3-0.7c1.9,0,3.3,0.5,4.2,1.5s1.3,2.5,1.3,4.5v10.6h-3.4v-10c0-1.2-0.2-2.2-0.7-2.8
				c-0.5-0.6-1.2-0.9-2.2-0.9c-1.3,0-2.3,0.4-2.9,1.3c-0.6,0.8-0.9,2.1-0.9,3.8V109.6z"/>
			<path class="st2" d="M325,93.4h3.8l3.3,9.2c0.5,1.3,0.8,2.5,1,3.7h0.1c0.1-0.5,0.2-1.2,0.5-2c0.2-0.8,1.5-4.4,3.7-10.9h3.7
				l-6.9,18.4c-1.3,3.4-3.4,5.1-6.3,5.1c-0.8,0-1.5-0.1-2.2-0.2v-2.7c0.5,0.1,1.1,0.2,1.8,0.2c1.7,0,2.8-1,3.5-2.9l0.6-1.5L325,93.4
				z"/>
			<path class="st2" d="M354.8,109.6h-3.4V86.8h3.4V109.6z"/>
			<path class="st2" d="M374.1,101.5c0,2.6-0.7,4.7-2,6.2s-3.2,2.2-5.7,2.2c-1.5,0-2.9-0.3-4-1s-2.1-1.7-2.7-2.9s-0.9-2.8-0.9-4.5
				c0-2.6,0.7-4.7,2-6.2s3.2-2.2,5.7-2.2c2.3,0,4.2,0.8,5.6,2.3C373.4,96.9,374.1,98.9,374.1,101.5z M362.3,101.5
				c0,3.7,1.4,5.6,4.1,5.6c2.7,0,4.1-1.9,4.1-5.6c0-3.7-1.4-5.6-4.1-5.6c-1.4,0-2.5,0.5-3.1,1.4C362.6,98.3,362.3,99.7,362.3,101.5z
				"/>
			<path class="st2" d="M384.6,109.9c-2.5,0-4.3-0.7-5.6-2.1c-1.3-1.4-1.9-3.5-1.9-6.2c0-2.7,0.7-4.8,2-6.3c1.3-1.5,3.3-2.2,5.8-2.2
				c1.7,0,3.2,0.3,4.6,1l-1,2.8c-1.5-0.6-2.7-0.8-3.6-0.8c-2.8,0-4.2,1.9-4.2,5.6c0,1.8,0.3,3.2,1,4.1s1.7,1.4,3.1,1.4
				c1.5,0,3-0.4,4.4-1.1v3c-0.6,0.4-1.3,0.6-2,0.8S385.6,109.9,384.6,109.9z"/>
			<path class="st2" d="M403.1,109.6l-0.7-2.3h-0.1c-0.8,1-1.6,1.7-2.4,2c-0.8,0.4-1.8,0.5-3,0.5c-1.6,0-2.8-0.4-3.7-1.3
				c-0.9-0.9-1.3-2.1-1.3-3.6c0-1.7,0.6-2.9,1.9-3.8s3.1-1.3,5.7-1.4l2.8-0.1v-0.9c0-1-0.2-1.8-0.7-2.3c-0.5-0.5-1.2-0.8-2.2-0.8
				c-0.8,0-1.6,0.1-2.4,0.4s-1.5,0.5-2.2,0.9l-1.1-2.5c0.9-0.5,1.8-0.8,2.9-1s2-0.4,3-0.4c2.1,0,3.6,0.4,4.7,1.3
				c1,0.9,1.6,2.3,1.6,4.2v10.9H403.1z M397.9,107.3c1.2,0,2.3-0.3,3-1s1.1-1.7,1.1-2.9v-1.4L400,102c-1.6,0.1-2.8,0.3-3.5,0.8
				c-0.7,0.5-1.1,1.2-1.1,2.2c0,0.7,0.2,1.3,0.6,1.7C396.4,107.1,397.1,107.3,397.9,107.3z"/>
			<path class="st2" d="M416.4,107.1c0.8,0,1.7-0.1,2.5-0.4v2.6c-0.4,0.2-0.9,0.3-1.5,0.4c-0.6,0.1-1.2,0.2-1.9,0.2
				c-3.3,0-4.9-1.7-4.9-5.2V96h-2.2v-1.5l2.4-1.3l1.2-3.4h2.1v3.6h4.6V96h-4.6v8.7c0,0.8,0.2,1.4,0.6,1.8
				C415.1,106.9,415.7,107.1,416.4,107.1z"/>
			<path class="st2" d="M421.9,89.1c0-0.6,0.2-1.1,0.5-1.4c0.3-0.3,0.8-0.5,1.4-0.5c0.6,0,1.1,0.2,1.4,0.5c0.3,0.3,0.5,0.8,0.5,1.4
				c0,0.6-0.2,1-0.5,1.4c-0.3,0.3-0.8,0.5-1.4,0.5c-0.6,0-1.1-0.2-1.4-0.5C422.1,90.2,421.9,89.7,421.9,89.1z M425.6,109.6h-3.4
				V93.4h3.4V109.6z"/>
			<path class="st2" d="M444.9,101.5c0,2.6-0.7,4.7-2,6.2s-3.2,2.2-5.7,2.2c-1.5,0-2.9-0.3-4-1s-2.1-1.7-2.7-2.9s-0.9-2.8-0.9-4.5
				c0-2.6,0.7-4.7,2-6.2s3.2-2.2,5.7-2.2c2.3,0,4.2,0.8,5.6,2.3C444.2,96.9,444.9,98.9,444.9,101.5z M433.1,101.5
				c0,3.7,1.4,5.6,4.1,5.6c2.7,0,4.1-1.9,4.1-5.6c0-3.7-1.4-5.6-4.1-5.6c-1.4,0-2.5,0.5-3.1,1.4C433.4,98.3,433.1,99.7,433.1,101.5z
				"/>
			<path class="st2" d="M463.1,109.6h-3.5v-10c0-1.2-0.3-2.2-0.8-2.8s-1.3-0.9-2.4-0.9c-1.5,0-2.5,0.4-3.2,1.3s-1,2.3-1,4.3v8.1
				h-3.4V93.4h2.7l0.5,2.1h0.2c0.5-0.8,1.2-1.4,2.1-1.8s1.9-0.6,3-0.6c3.9,0,5.8,2,5.8,5.9V109.6z"/>
		</g>
	</g>
	<circle class="st3" cx="143" cy="101" r="29"/>
	<g>
		<path class="st4" d="M145.7,108c-0.4,0.2-0.9,0.5-1.3,0.7c-2.1,0.9-4.3,1.3-6.6,1.1c-4.5-0.5-7.8-2.8-10-6.7
			c-0.8-1.5-1.3-3.1-1.4-4.7c-0.3-4,0.9-7.4,3.7-10.3c2.1-2.1,4.6-3.3,7.5-3.6c3.9-0.4,7.4,0.7,10.3,3.4c2.2,2,3.4,4.5,3.8,7.4
			c0.4,3-0.1,5.8-1.7,8.4c-0.1,0.1-0.1,0.2,0,0.2c2.7,2.7,5.5,5.3,8.2,8c0.4,0.4,0.8,0.8,1,1.3c0.9,2.1-0.7,4.4-3,4.3
			c-0.8,0-1.5-0.4-2-1c-2.5-2.5-5.1-4.9-7.6-7.4C146.4,108.7,146,108.4,145.7,108z M146.8,97.1c0-4.2-3.4-7.6-7.6-7.6
			s-7.8,3.5-7.7,7.8c0.1,4.1,3.5,7.6,7.7,7.5C143.4,104.6,146.8,101.2,146.8,97.1z"/>
	</g>
</g>
</svg>
