<?xml version="1.0" encoding="utf-8"?>
<!-- Generator: Adobe Illustrator 19.0.0, SVG Export Plug-In . SVG Version: 6.00 Build 0)  -->
<svg version="1.1" id="Layer_1" xmlns="http://www.w3.org/2000/svg" xmlns:xlink="http://www.w3.org/1999/xlink" x="0px" y="0px"
	 viewBox="274 -25 587 90" style="enable-background:new 274 -25 587 90;" xml:space="preserve">
<style type="text/css">
	.st0{fill:#FFFFFF;}
	.st1{font-family:'OpenSans';}
	.st2{font-size:36px;}
</style>
<g>
	<g>
		<g>
			<text transform="matrix(1 0 0 1 468.0378 32.1587)" class="st0 st1 st2">Send Feedback</text>
		</g>
	</g>
	<g>
		<g>
			<g>
				<path class="st0" d="M418.9,39.1c0.2,0.4,0.4,0.9,0.6,1.3c0.8,1.5,1.6,3,2.5,4.5c0.6,1,0.4,1.8-0.7,2.2
					c-0.9,0.3-1.8,0.5-2.7,0.5c-2.7,0.2-5.2-0.5-7.6-1.8c-1.8-0.9-3.4-2.1-4.9-3.5c-0.1-0.1-0.3-0.2-0.4-0.2
					c-5.5-0.3-10.5-2.2-14.7-5.7c-4.3-3.6-7.1-8.1-8.4-13.6c-0.6-2.5-0.8-5.1-0.5-7.6c0.6-6.4,3.2-11.8,8-16.2
					c3.4-3.2,7.5-5.2,12.1-6.1c2.4-0.5,4.9-0.6,7.3-0.3c6.3,0.7,11.6,3.4,15.9,8.2c3,3.3,4.9,7.2,5.8,11.5c0.5,2.3,0.6,4.7,0.4,7.1
					c-0.4,4.6-2,8.9-4.7,12.6c-2,2.7-4.5,5-7.4,6.7C419.2,38.9,419.1,39,418.9,39.1z M407,14.8c3,0,5.9,0,8.9,0c2.6,0,4.2-2.7,3-4.9
					c-0.7-1.2-1.7-1.7-3-1.7c-5.9,0-11.7,0-17.6,0c-0.1,0-0.3,0-0.4,0c-2.1,0.2-3.5,2.2-2.9,4.2c0.4,1.4,1.7,2.4,3.3,2.4
					C401.1,14.8,404,14.8,407,14.8z M404.5,19.1c-2.3,0-4.7,0-7,0c-0.8,0-1.5,0.3-2,1c-1,1.3-1,3.3,0,4.6c0.5,0.6,1.1,1,2,1
					c4.7,0,9.4,0,14.1,0c0.7,0,1.3-0.2,1.7-0.7c1-1.1,1.2-2.3,0.8-3.7c-0.4-1.5-1.4-2.2-2.9-2.2C409,19.1,406.8,19.1,404.5,19.1z"/>
			</g>
		</g>
	</g>
</g>
</svg>
