<?xml version="1.0" encoding="utf-8"?>
<!-- Generator: Adobe Illustrator 19.0.0, SVG Export Plug-In . SVG Version: 6.00 Build 0)  -->
<svg version="1.1" id="Layer_1" xmlns="http://www.w3.org/2000/svg" xmlns:xlink="http://www.w3.org/1999/xlink" x="0px" y="0px"
	 viewBox="194 56 587 90" style="enable-background:new 194 56 587 90;" xml:space="preserve">
<style type="text/css">
	.st0{enable-background:new    ;}
	.st1{fill:#FFFFFF;}
</style>
<g>
	<g>
		<g>
			<g>
				<g class="st0">
					<path class="st1" d="M323.3,106.1c0,2.3-0.8,4.1-2.5,5.4s-3.9,2-6.8,2s-5.3-0.5-7.1-1.4v-4c1.2,0.6,2.4,1,3.7,1.3
						s2.5,0.5,3.7,0.5c1.7,0,2.9-0.3,3.7-0.9s1.2-1.5,1.2-2.5c0-1-0.4-1.8-1.1-2.4s-2.2-1.5-4.5-2.4c-2.3-0.9-4-2-5-3.3
						s-1.4-2.7-1.4-4.4c0-2.1,0.8-3.8,2.3-5.1s3.6-1.8,6.1-1.8c2.5,0,4.9,0.5,7.3,1.6l-1.3,3.4c-2.3-1-4.3-1.4-6.1-1.4
						c-1.4,0-2.4,0.3-3.1,0.9s-1.1,1.4-1.1,2.3c0,0.7,0.1,1.2,0.4,1.7s0.7,0.9,1.4,1.3s1.8,1,3.5,1.7c1.9,0.8,3.3,1.5,4.1,2.2
						s1.5,1.4,1.9,2.3S323.3,105,323.3,106.1z"/>
					<path class="st1" d="M336.3,113.4c-3,0-5.4-0.9-7.1-2.6s-2.6-4.2-2.6-7.3c0-3.2,0.8-5.7,2.4-7.5s3.8-2.7,6.5-2.7
						c2.6,0,4.6,0.8,6.1,2.3s2.2,3.7,2.2,6.4v2.2h-13c0.1,1.9,0.6,3.3,1.5,4.4s2.3,1.5,4.1,1.5c1.1,0,2.2-0.1,3.2-0.3
						s2.1-0.6,3.2-1.1v3.4c-1,0.5-2,0.8-3.1,1S337.6,113.4,336.3,113.4z M335.5,96.4c-1.3,0-2.4,0.4-3.2,1.2s-1.3,2-1.4,3.6h8.8
						c0-1.6-0.4-2.8-1.2-3.6S336.9,96.4,335.5,96.4z"/>
					<path class="st1" d="M365.7,113.1h-4.1v-12c0-1.5-0.3-2.6-0.9-3.4s-1.6-1.1-2.9-1.1c-1.7,0-3,0.5-3.8,1.5s-1.2,2.8-1.2,5.2v9.7
						h-4.1V93.7h3.2l0.6,2.5h0.2c0.6-0.9,1.4-1.6,2.5-2.1s2.3-0.8,3.6-0.8c4.7,0,7,2.4,7,7.1V113.1z"/>
					<path class="st1" d="M378,113.4c-2.4,0-4.3-0.9-5.7-2.6s-2-4.2-2-7.4c0-3.2,0.7-5.7,2.1-7.4s3.3-2.7,5.7-2.7
						c2.6,0,4.5,0.9,5.8,2.8h0.2c-0.2-1.4-0.3-2.5-0.3-3.3v-7.1h4.1v27.4h-3.2l-0.7-2.5h-0.2C382.5,112.5,380.5,113.4,378,113.4z
						 M379.1,110.1c1.7,0,2.9-0.5,3.7-1.4s1.2-2.5,1.2-4.6v-0.6c0-2.4-0.4-4.2-1.2-5.2s-2-1.5-3.7-1.5c-1.5,0-2.6,0.6-3.4,1.8
						s-1.2,2.9-1.2,5c0,2.2,0.4,3.8,1.1,4.9S377.5,110.1,379.1,110.1z"/>
					<path class="st1" d="M407.8,113.1h-4.2V87.4h14.5v3.6h-10.3v8h9.7v3.6h-9.7V113.1z"/>
					<path class="st1" d="M430.8,113.4c-3,0-5.4-0.9-7.1-2.6s-2.6-4.2-2.6-7.3c0-3.2,0.8-5.7,2.4-7.5s3.8-2.7,6.5-2.7
						c2.6,0,4.6,0.8,6.1,2.3s2.2,3.7,2.2,6.4v2.2h-13c0.1,1.9,0.6,3.3,1.5,4.4s2.3,1.5,4.1,1.5c1.1,0,2.2-0.1,3.2-0.3
						s2.1-0.6,3.2-1.1v3.4c-1,0.5-2,0.8-3.1,1S432.2,113.4,430.8,113.4z M430.1,96.4c-1.3,0-2.4,0.4-3.2,1.2s-1.3,2-1.4,3.6h8.8
						c0-1.6-0.4-2.8-1.2-3.6S431.4,96.4,430.1,96.4z"/>
					<path class="st1" d="M451.6,113.4c-3,0-5.4-0.9-7.1-2.6s-2.6-4.2-2.6-7.3c0-3.2,0.8-5.7,2.4-7.5s3.8-2.7,6.5-2.7
						c2.6,0,4.6,0.8,6.1,2.3s2.2,3.7,2.2,6.4v2.2h-13c0.1,1.9,0.6,3.3,1.5,4.4s2.3,1.5,4.1,1.5c1.1,0,2.2-0.1,3.2-0.3
						s2.1-0.6,3.2-1.1v3.4c-1,0.5-2,0.8-3.1,1S452.9,113.4,451.6,113.4z M450.8,96.4c-1.3,0-2.4,0.4-3.2,1.2s-1.3,2-1.4,3.6h8.8
						c0-1.6-0.4-2.8-1.2-3.6S452.1,96.4,450.8,96.4z"/>
					<path class="st1" d="M470.4,113.4c-2.4,0-4.3-0.9-5.7-2.6s-2-4.2-2-7.4c0-3.2,0.7-5.7,2.1-7.4s3.3-2.7,5.7-2.7
						c2.6,0,4.5,0.9,5.8,2.8h0.2c-0.2-1.4-0.3-2.5-0.3-3.3v-7.1h4.1v27.4h-3.2l-0.7-2.5h-0.2C474.9,112.5,472.9,113.4,470.4,113.4z
						 M471.5,110.1c1.7,0,2.9-0.5,3.7-1.4s1.2-2.5,1.2-4.6v-0.6c0-2.4-0.4-4.2-1.2-5.2s-2-1.5-3.7-1.5c-1.5,0-2.6,0.6-3.4,1.8
						s-1.2,2.9-1.2,5c0,2.2,0.4,3.8,1.1,4.9S470,110.1,471.5,110.1z"/>
					<path class="st1" d="M496.2,93.3c2.4,0,4.3,0.9,5.7,2.6s2,4.2,2,7.4c0,3.2-0.7,5.7-2.1,7.4s-3.3,2.7-5.7,2.7
						c-2.5,0-4.4-0.9-5.7-2.7h-0.3l-0.8,2.3h-3.1V85.7h4.1v6.5c0,0.5,0,1.2-0.1,2.1s-0.1,1.6-0.1,1.8h0.2
						C491.7,94.3,493.6,93.3,496.2,93.3z M495.1,96.7c-1.7,0-2.9,0.5-3.6,1.5s-1.1,2.6-1.1,4.9v0.3c0,2.4,0.4,4.1,1.1,5.1
						s2,1.6,3.7,1.6c1.5,0,2.6-0.6,3.3-1.7s1.1-2.8,1.1-5C499.7,98.9,498.1,96.7,495.1,96.7z"/>
					<path class="st1" d="M520.9,113.1l-0.8-2.7h-0.1c-0.9,1.2-1.9,2-2.8,2.4s-2.2,0.6-3.7,0.6c-1.9,0-3.4-0.5-4.5-1.5
						s-1.6-2.5-1.6-4.4c0-2,0.7-3.5,2.2-4.5s3.8-1.6,6.8-1.7l3.4-0.1v-1c0-1.2-0.3-2.2-0.9-2.8s-1.5-0.9-2.7-0.9c-1,0-2,0.1-2.9,0.4
						s-1.8,0.6-2.6,1l-1.3-3c1.1-0.6,2.2-1,3.5-1.3s2.4-0.4,3.6-0.4c2.5,0,4.3,0.5,5.6,1.6s1.9,2.8,1.9,5.1v13.1H520.9z
						 M514.7,110.3c1.5,0,2.7-0.4,3.6-1.3s1.4-2,1.4-3.5v-1.7l-2.5,0.1c-1.9,0.1-3.4,0.4-4.2,1s-1.3,1.5-1.3,2.7
						c0,0.9,0.3,1.5,0.8,2S513.7,110.3,514.7,110.3z"/>
					<path class="st1" d="M537.4,113.4c-2.9,0-5.2-0.9-6.7-2.6s-2.3-4.2-2.3-7.4c0-3.3,0.8-5.8,2.4-7.5s3.9-2.6,6.9-2.6
						c2.1,0,3.9,0.4,5.5,1.1l-1.2,3.3c-1.7-0.7-3.2-1-4.3-1c-3.4,0-5,2.2-5,6.7c0,2.2,0.4,3.8,1.3,4.9s2.1,1.6,3.7,1.6
						c1.8,0,3.6-0.5,5.2-1.4v3.6c-0.7,0.4-1.5,0.7-2.4,0.9S538.6,113.4,537.4,113.4z"/>
					<path class="st1" d="M551.4,102.8l2.3-2.9l5.9-6.3h4.8l-7.8,8.3l8.3,11.1H560l-6.2-8.5l-2.3,1.9v6.7h-4.1V85.7h4.1v13.3
						l-0.2,3.7H551.4z"/>
				</g>
			</g>
		</g>
	</g>
	<g>
		<g>
			<g>
				<path class="st1" d="M263.9,120.1c0.2,0.4,0.4,0.9,0.6,1.3c0.8,1.5,1.6,3,2.5,4.5c0.6,1,0.4,1.8-0.7,2.2
					c-0.9,0.3-1.8,0.5-2.7,0.5c-2.7,0.2-5.2-0.5-7.6-1.8c-1.8-0.9-3.4-2.1-4.9-3.5c-0.1-0.1-0.3-0.2-0.4-0.2
					c-5.5-0.3-10.5-2.2-14.7-5.7c-4.3-3.6-7.1-8.1-8.4-13.6c-0.6-2.5-0.8-5.1-0.5-7.6c0.6-6.4,3.2-11.8,8-16.2
					c3.4-3.2,7.5-5.2,12.1-6.1c2.4-0.5,4.9-0.6,7.3-0.3c6.3,0.7,11.6,3.4,15.9,8.2c3,3.3,4.9,7.2,5.8,11.5c0.5,2.3,0.6,4.7,0.4,7.1
					c-0.4,4.6-2,8.9-4.7,12.6c-2,2.7-4.5,5-7.4,6.7C264.2,119.9,264.1,120,263.9,120.1z M252,95.8c3,0,5.9,0,8.9,0
					c2.6,0,4.2-2.7,3-4.9c-0.7-1.2-1.7-1.7-3-1.7c-5.9,0-11.7,0-17.6,0c-0.1,0-0.3,0-0.4,0c-2.1,0.2-3.5,2.2-2.9,4.2
					c0.4,1.4,1.7,2.4,3.3,2.4C246.1,95.8,249,95.8,252,95.8z M249.5,100.1c-2.3,0-4.7,0-7,0c-0.8,0-1.5,0.3-2,1c-1,1.3-1,3.3,0,4.6
					c0.5,0.6,1.1,1,2,1c4.7,0,9.4,0,14.1,0c0.7,0,1.3-0.2,1.7-0.7c1-1.1,1.2-2.3,0.8-3.7c-0.4-1.5-1.4-2.2-2.9-2.2
					C254,100.1,251.8,100.1,249.5,100.1z"/>
			</g>
		</g>
	</g>
</g>
</svg>
