<?xml version="1.0" encoding="utf-8"?>
<!-- Generator: Adobe Illustrator 19.0.0, SVG Export Plug-In . SVG Version: 6.00 Build 0)  -->
<svg version="1.1" id="Layer_1" xmlns="http://www.w3.org/2000/svg" xmlns:xlink="http://www.w3.org/1999/xlink" x="0px" y="0px"
	 viewBox="194 56 587 90" style="enable-background:new 194 56 587 90;" xml:space="preserve">
<style type="text/css">
	.st0{enable-background:new    ;}
	.st1{fill:#FFFFFF;}
</style>
<g>
	<g>
		<g>
			<g class="st0">
				<path class="st1" d="M321.7,107c0,2.3-0.8,4.1-2.5,5.4s-3.9,2-6.8,2s-5.3-0.5-7.1-1.4v-4c1.2,0.6,2.4,1,3.7,1.3s2.5,0.5,3.7,0.5
					c1.7,0,2.9-0.3,3.7-0.9s1.2-1.5,1.2-2.5c0-1-0.4-1.8-1.1-2.4s-2.2-1.5-4.5-2.4c-2.3-0.9-4-2-5-3.3s-1.4-2.7-1.4-4.4
					c0-2.1,0.8-3.8,2.3-5.1s3.6-1.8,6.1-1.8c2.5,0,4.9,0.5,7.3,1.6L320,93c-2.3-1-4.3-1.4-6.1-1.4c-1.4,0-2.4,0.3-3.1,0.9
					s-1.1,1.4-1.1,2.3c0,0.7,0.1,1.2,0.4,1.7s0.7,0.9,1.4,1.3s1.8,1,3.5,1.7c1.9,0.8,3.3,1.5,4.1,2.2s1.5,1.4,1.9,2.3
					S321.7,105.8,321.7,107z"/>
				<path class="st1" d="M343.3,114h-4.1v-12c0-1.5-0.3-2.6-0.9-3.4s-1.6-1.1-2.9-1.1c-1.7,0-3,0.5-3.8,1.6s-1.2,2.8-1.2,5.2v9.7
					h-4.1V86.6h4.1v6.9c0,1.1-0.1,2.3-0.2,3.6h0.3c0.6-0.9,1.3-1.7,2.3-2.2s2.2-0.8,3.5-0.8c4.7,0,7.1,2.4,7.1,7.1V114z"/>
				<path class="st1" d="M361.3,114l-0.8-2.7h-0.1c-0.9,1.2-1.9,2-2.8,2.4s-2.2,0.6-3.7,0.6c-1.9,0-3.4-0.5-4.5-1.5
					s-1.6-2.5-1.6-4.4c0-2,0.7-3.5,2.2-4.5s3.8-1.6,6.8-1.7l3.4-0.1v-1c0-1.2-0.3-2.2-0.9-2.8s-1.5-0.9-2.7-0.9c-1,0-2,0.1-2.9,0.4
					s-1.8,0.6-2.6,1l-1.3-3c1.1-0.6,2.2-1,3.5-1.3s2.4-0.4,3.6-0.4c2.5,0,4.3,0.5,5.6,1.6s1.9,2.8,1.9,5.1V114H361.3z M355.1,111.2
					c1.5,0,2.7-0.4,3.6-1.3s1.4-2,1.4-3.5v-1.7l-2.5,0.1c-1.9,0.1-3.4,0.4-4.2,1s-1.3,1.5-1.3,2.7c0,0.9,0.3,1.5,0.8,2
					S354.1,111.2,355.1,111.2z"/>
				<path class="st1" d="M379.8,94.2c0.8,0,1.5,0.1,2.1,0.2l-0.4,3.8c-0.6-0.1-1.2-0.2-1.8-0.2c-1.7,0-3,0.5-4,1.6s-1.5,2.5-1.5,4.2
					V114H370V94.5h3.2l0.5,3.4h0.2c0.6-1.2,1.5-2.1,2.5-2.8S378.6,94.2,379.8,94.2z"/>
				<path class="st1" d="M394,114.3c-3,0-5.4-0.9-7.1-2.6s-2.6-4.2-2.6-7.3c0-3.2,0.8-5.7,2.4-7.5s3.8-2.7,6.5-2.7
					c2.6,0,4.6,0.8,6.1,2.3s2.2,3.7,2.2,6.4v2.2h-13c0.1,1.9,0.6,3.3,1.5,4.4s2.3,1.5,4.1,1.5c1.1,0,2.2-0.1,3.2-0.3
					s2.1-0.6,3.2-1.1v3.4c-1,0.5-2,0.8-3.1,1S395.3,114.3,394,114.3z M393.2,97.3c-1.3,0-2.4,0.4-3.2,1.2s-1.3,2-1.4,3.6h8.8
					c0-1.6-0.4-2.8-1.2-3.6S394.5,97.3,393.2,97.3z"/>
				<path class="st1" d="M424.9,114h-4.2V91.9h-7.6v-3.6h19.3v3.6h-7.6V114z"/>
				<path class="st1" d="M453.1,114h-4.1v-12c0-1.5-0.3-2.6-0.9-3.4s-1.6-1.1-2.9-1.1c-1.7,0-3,0.5-3.8,1.6s-1.2,2.8-1.2,5.2v9.7
					H436V86.6h4.1v6.9c0,1.1-0.1,2.3-0.2,3.6h0.3c0.6-0.9,1.3-1.7,2.3-2.2s2.2-0.8,3.5-0.8c4.7,0,7.1,2.4,7.1,7.1V114z"/>
				<path class="st1" d="M458.6,89.4c0-0.7,0.2-1.3,0.6-1.7s1-0.6,1.7-0.6c0.7,0,1.3,0.2,1.7,0.6s0.6,1,0.6,1.7
					c0,0.7-0.2,1.3-0.6,1.7s-1,0.6-1.7,0.6c-0.8,0-1.3-0.2-1.7-0.6S458.6,90.1,458.6,89.4z M462.9,114h-4.1V94.5h4.1V114z"/>
				<path class="st1" d="M481.9,108.4c0,1.9-0.7,3.4-2.1,4.4s-3.4,1.5-5.9,1.5c-2.6,0-4.7-0.4-6.2-1.2v-3.6c2.3,1.1,4.4,1.6,6.4,1.6
					c2.5,0,3.8-0.8,3.8-2.3c0-0.5-0.1-0.9-0.4-1.2s-0.7-0.7-1.4-1s-1.5-0.8-2.7-1.2c-2.2-0.9-3.8-1.7-4.5-2.6s-1.2-2-1.2-3.4
					c0-1.7,0.7-3,2-3.9s3.2-1.4,5.5-1.4c2.3,0,4.4,0.5,6.5,1.4l-1.3,3.1c-2.1-0.9-3.9-1.3-5.3-1.3c-2.2,0-3.3,0.6-3.3,1.9
					c0,0.6,0.3,1.1,0.9,1.5s1.8,1,3.7,1.7c1.6,0.6,2.8,1.2,3.5,1.7s1.3,1.1,1.6,1.8S481.9,107.5,481.9,108.4z"/>
				<path class="st1" d="M512.1,114l-2.6-7.1h-9.8l-2.5,7.1h-4.4l9.6-25.8h4.6l9.6,25.8H512.1z M508.4,103.2l-2.4-7
					c-0.2-0.5-0.4-1.2-0.7-2.2s-0.5-1.7-0.6-2.2c-0.3,1.4-0.8,3-1.4,4.7l-2.3,6.7H508.4z"/>
				<path class="st1" d="M529.4,114.3c-2.5,0-4.4-0.9-5.7-2.7h-0.2c0.2,1.6,0.2,2.6,0.2,3v8h-4.1V94.5h3.3c0.1,0.4,0.3,1.2,0.6,2.6
					h0.2c1.3-2,3.2-3,5.8-3c2.4,0,4.3,0.9,5.7,2.6s2,4.2,2,7.4s-0.7,5.7-2.1,7.4S531.8,114.3,529.4,114.3z M528.4,97.6
					c-1.6,0-2.8,0.5-3.6,1.4s-1.1,2.5-1.1,4.6v0.6c0,2.4,0.4,4.1,1.1,5.1s2,1.6,3.7,1.6c1.4,0,2.5-0.6,3.3-1.8s1.2-2.8,1.2-5
					c0-2.2-0.4-3.8-1.2-4.9S529.9,97.6,528.4,97.6z"/>
				<path class="st1" d="M551.8,114.3c-2.5,0-4.4-0.9-5.7-2.7h-0.2c0.2,1.6,0.2,2.6,0.2,3v8H542V94.5h3.3c0.1,0.4,0.3,1.2,0.6,2.6
					h0.2c1.3-2,3.2-3,5.8-3c2.4,0,4.3,0.9,5.7,2.6s2,4.2,2,7.4s-0.7,5.7-2.1,7.4S554.2,114.3,551.8,114.3z M550.8,97.6
					c-1.6,0-2.8,0.5-3.6,1.4s-1.1,2.5-1.1,4.6v0.6c0,2.4,0.4,4.1,1.1,5.1s2,1.6,3.7,1.6c1.4,0,2.5-0.6,3.3-1.8s1.2-2.8,1.2-5
					c0-2.2-0.4-3.8-1.2-4.9S552.3,97.6,550.8,97.6z"/>
			</g>
		</g>
	</g>
	<g>
		<g>
			<g>
				<path class="st1" d="M263.9,79.5c-0.4-0.1-0.8-0.1-1.3-0.1l-14.8,0.1c-2,0-3.6,1.6-3.6,3.6s1.6,3.6,3.6,3.6h6.2h0.3l-9.6,9.6
					c-1.4,1.4-1.4,3.8,0,5.2s3.8,1.4,5.2,0l9.7-9.7v0.1v6.4c0,2,1.6,3.6,3.6,3.6s3.6-1.6,3.6-3.6l-0.1-14.8c0-0.4,0-0.8-0.1-1.2
					c-0.1-0.8-0.5-1.5-1.1-2C265.2,79.9,264.6,79.6,263.9,79.5z"/>
				<g>
					<path class="st1" d="M258.7,122.4h-26.4c-4.6,0-8.3-3.7-8.3-8.3V87.7c0-4.6,3.7-8.3,8.3-8.3h4.9c1.9,0,3.4,1.5,3.4,3.4
						s-1.5,3.4-3.4,3.4h-4.9c-0.9,0-1.6,0.7-1.6,1.6v26.4c0,0.9,0.7,1.6,1.6,1.6h26.4c0.9,0,1.6-0.7,1.6-1.6V109
						c0-1.9,1.5-3.4,3.4-3.4s3.4,1.5,3.4,3.4v5.2C267,118.7,263.3,122.4,258.7,122.4z"/>
				</g>
			</g>
		</g>
	</g>
</g>
</svg>
