<?xml version="1.0" encoding="utf-8"?>
<!-- Generator: Adobe Illustrator 19.0.0, SVG Export Plug-In . SVG Version: 6.00 Build 0)  -->
<svg version="1.1" id="Layer_1" xmlns="http://www.w3.org/2000/svg" xmlns:xlink="http://www.w3.org/1999/xlink" x="0px" y="0px"
	 viewBox="274 -25 587 90" style="enable-background:new 274 -25 587 90;" xml:space="preserve">
<style type="text/css">
	.st0{fill:#FFFFFF;}
	.st1{font-family:'OpenSans-Semibold';}
	.st2{font-size:36px;}
</style>
<g>
	<path d="M1666.1-370.5c16,37.3,34.6,72.4,55.6,106.2c2.7,4.3,5.2,9,6.6,13.9c2.7,9.2-1,16.6-8.1,22.5c-8.4,6.9-18.8,9.1-29,11.5
		c-53.7,12.5-104.8,3.7-154.3-18.5c-40.7-18.2-76.5-43.7-109-74.1c-1.9-1.7-4.7-3.2-7.2-3.4c-103.2-5.3-195.1-40.2-274.5-106.2
		c-80-66.5-131.7-151-155.2-252.4c-10.9-46.7-13.9-94.1-9.7-142c8.7-98.2,44.9-185.2,108.9-260c67.3-78.6,151.9-129,253-151.4
		c48.4-10.7,97.4-13.3,146.6-7.8c112.4,12.6,208.1,59.8,286.1,141.7c60.6,63.5,99.4,138.7,117.2,224.6
		c10.3,49.7,12.1,99.8,5.7,150.1c-12.2,95.5-50.7,179.1-114.7,250.8c-32.5,36.5-70.2,66.8-112.5,91.3
		C1670-372.8,1668.3-371.8,1666.1-370.5z M1445.3-945c-52.5,0-105,0-157.5,0c-4.3,0-8.7,0-13,0.3c-43.4,3-70.3,48.7-51.1,87.8
		c11.7,23.8,31.7,35.1,58.1,35.1c98.8,0,197.7,0,296.5,0c10.8,0,21.7,0.2,32.5,0c43.2-0.8,72.4-41.3,58.7-81.4
		c-8.7-25.5-31.8-41.6-60.3-41.6C1554.6-945,1499.9-945,1445.3-945z M1399-741.9c-43.3,0-86.6,0.1-129.9-0.1
		c-15.3-0.1-27.4,6-36.9,17.7c-19.6,24.2-19.7,63-0.3,87.4c9.2,11.6,21.1,18.2,36.2,18.2c87.3,0,174.6,0,261.9,0
		c12.5,0,23-4.6,31.8-13.3c18.6-18.5,24.1-50.7,13.2-76.8c-9.4-22.5-25.2-33-49.5-33C1483.3-741.9,1441.2-741.9,1399-741.9z"/>
</g>
<g>
	<g>
		<text transform="matrix(1 0 0 1 458.5 33.0912)" class="st0 st1 st2">Share This App</text>
	</g>
</g>
<g>
	<g>
		<g>
			<path class="st0" d="M415.9-1.4c-0.4-0.1-0.8-0.1-1.3-0.1l-14.8,0.1c-2,0-3.6,1.6-3.6,3.6s1.6,3.6,3.6,3.6h6.2h0.3l-9.6,9.6
				c-1.4,1.4-1.4,3.8,0,5.2s3.8,1.4,5.2,0l9.7-9.7V11v6.4c0,2,1.6,3.6,3.6,3.6s3.6-1.6,3.6-3.6l-0.1-14.8c0-0.4,0-0.8-0.1-1.2
				c-0.1-0.8-0.5-1.5-1.1-2C417.2-1,416.6-1.3,415.9-1.4z"/>
			<g>
				<path class="st0" d="M410.7,41.5h-26.4c-4.6,0-8.3-3.7-8.3-8.3V6.8c0-4.6,3.7-8.3,8.3-8.3h4.9c1.9,0,3.4,1.5,3.4,3.4
					s-1.5,3.4-3.4,3.4h-4.9c-0.9,0-1.6,0.7-1.6,1.6v26.4c0,0.9,0.7,1.6,1.6,1.6h26.4c0.9,0,1.6-0.7,1.6-1.6v-5.2
					c0-1.9,1.5-3.4,3.4-3.4c1.9,0,3.4,1.5,3.4,3.4v5.2C419,37.8,415.3,41.5,410.7,41.5z"/>
			</g>
		</g>
	</g>
</g>
</svg>
