<?xml version="1.0" encoding="utf-8"?>
<!-- Generator: Adobe Illustrator 19.0.0, SVG Export Plug-In . SVG Version: 6.00 Build 0)  -->
<svg version="1.1" id="Layer_1" xmlns="http://www.w3.org/2000/svg" xmlns:xlink="http://www.w3.org/1999/xlink" x="0px" y="0px"
	 viewBox="-71 73 56 56" style="enable-background:new -71 73 56 56;" xml:space="preserve">
<style type="text/css">
	.st0{fill:#FFFFFF;fill-opacity:0;}
	.st1{fill:#FFFFFF;}
	.st2{opacity:0.6;}
	.st3{opacity:0.2;}
</style>
<g>
	<g id="XMLID_2942_">
		<g id="XMLID_3338_">
			<rect id="XMLID_3339_" x="-71" y="73" class="st0" width="56" height="56"/>
		</g>
	</g>
	<g id="XMLID_1_">
		<g>
			<path id="XMLID_3_" class="st1" d="M-44.3,122.7L-44.3,122.7c-2.3-2.3-2.3-5.9,0-7.7l17.9-17.9c2.3-2.3,5.9-2.3,7.7,0l0,0
				c2.3,2.3,2.3,5.9,0,7.7l-18,17.9C-38.7,124.9-42,124.9-44.3,122.7z"/>
			<path id="XMLID_4_" class="st1" d="M-44.3,79.3L-44.3,79.3c2.3-2.3,5.9-2.3,7.7,0l17.9,17.9c2.3,2.3,2.3,5.9,0,7.7l0,0
				c-2.3,2.3-5.9,2.3-7.7,0L-44.3,87C-46.5,85.1-46.5,81.6-44.3,79.3z"/>
		</g>
	</g>
	<g id="XMLID_2_" class="st2">
		<g>
			<path id="XMLID_7_" class="st1" d="M-55.5,111.1L-55.5,111.1c-1.1-1.1-1.1-2.7,0-3.6l8.4-8.4c1.1-1.1,2.7-1.1,3.6,0l0,0
				c1.1,1.1,1.1,2.7,0,3.6l-8.4,8.4C-52.8,112.1-54.5,112.1-55.5,111.1z"/>
			<path id="XMLID_6_" class="st1" d="M-55.5,90.9L-55.5,90.9c1.1-1.1,2.7-1.1,3.6,0l8.4,8.4c1.1,1.1,1.1,2.7,0,3.6l0,0
				c-1.1,1.1-2.7,1.1-3.6,0l-8.4-8.4C-56.4,93.6-56.4,92-55.5,90.9z"/>
		</g>
	</g>
	<g id="XMLID_8_" class="st3">
		<g>
			<path id="XMLID_10_" class="st1" d="M-64.3,105.5L-64.3,105.5c-0.5-0.5-0.5-1.2,0-1.7l3.8-3.8c0.5-0.5,1.2-0.5,1.7,0l0,0
				c0.5,0.5,0.5,1.2,0,1.7l-3.8,3.8C-63.1,106-63.8,106-64.3,105.5z"/>
			<path id="XMLID_9_" class="st1" d="M-64.3,96.5L-64.3,96.5c0.5-0.5,1.2-0.5,1.7,0l3.8,3.8c0.5,0.5,0.5,1.2,0,1.7l0,0
				c-0.5,0.5-1.2,0.5-1.7,0l-3.8-3.8C-64.7,97.7-64.7,96.9-64.3,96.5z"/>
		</g>
	</g>
</g>
</svg>
