<?xml version="1.0" encoding="utf-8"?>
<!-- Generator: Adobe Illustrator 19.0.0, SVG Export Plug-In . SVG Version: 6.00 Build 0)  -->
<svg version="1.1" id="Layer_1" xmlns="http://www.w3.org/2000/svg" xmlns:xlink="http://www.w3.org/1999/xlink" x="0px" y="0px"
	 viewBox="-71 73 56 56" style="enable-background:new -71 73 56 56;" xml:space="preserve">
<style type="text/css">
	.st0{fill:#FFFFFF;fill-opacity:0;}
	.st1{fill:#FFFFFF;}
	.st2{opacity:0.6;}
	.st3{opacity:0.2;}
</style>
<g>
	<g id="XMLID_2942_">
		<g id="XMLID_3338_">
			<rect id="XMLID_3339_" x="-71" y="73" class="st0" width="56" height="56"/>
		</g>
	</g>
	<g id="XMLID_1_">
		<g>
			<path id="XMLID_3_" class="st1" d="M-41.7,79.3L-41.7,79.3c2.3,2.3,2.3,5.9,0,7.7l-17.9,17.9c-2.3,2.3-5.9,2.3-7.7,0l0,0
				c-2.3-2.3-2.3-5.9,0-7.7l18-17.9C-47.3,77.1-44,77.1-41.7,79.3z"/>
			<path id="XMLID_4_" class="st1" d="M-41.7,122.7L-41.7,122.7c-2.3,2.3-5.9,2.3-7.7,0l-17.9-17.9c-2.3-2.3-2.3-5.9,0-7.7l0,0
				c2.3-2.3,5.9-2.3,7.7,0l17.9,17.9C-39.5,116.9-39.5,120.4-41.7,122.7z"/>
		</g>
	</g>
	<g id="XMLID_2_" class="st2">
		<g>
			<path id="XMLID_7_" class="st1" d="M-30.5,90.9L-30.5,90.9c1.1,1.1,1.1,2.7,0,3.6l-8.4,8.4c-1.1,1.1-2.7,1.1-3.6,0l0,0
				c-1.1-1.1-1.1-2.7,0-3.6l8.4-8.4C-33.2,89.9-31.5,89.9-30.5,90.9z"/>
			<path id="XMLID_6_" class="st1" d="M-30.5,111.1L-30.5,111.1c-1.1,1.1-2.7,1.1-3.6,0l-8.4-8.4c-1.1-1.1-1.1-2.7,0-3.6l0,0
				c1.1-1.1,2.7-1.1,3.6,0l8.4,8.4C-29.6,108.4-29.6,110-30.5,111.1z"/>
		</g>
	</g>
	<g id="XMLID_8_" class="st3">
		<g>
			<path id="XMLID_10_" class="st1" d="M-21.7,96.5L-21.7,96.5c0.5,0.5,0.5,1.2,0,1.7l-3.8,3.8c-0.5,0.5-1.2,0.5-1.7,0l0,0
				c-0.5-0.5-0.5-1.2,0-1.7l3.8-3.8C-22.9,96-22.2,96-21.7,96.5z"/>
			<path id="XMLID_9_" class="st1" d="M-21.7,105.5L-21.7,105.5c-0.5,0.5-1.2,0.5-1.7,0l-3.8-3.8c-0.5-0.5-0.5-1.2,0-1.7l0,0
				c0.5-0.5,1.2-0.5,1.7,0l3.8,3.8C-21.3,104.3-21.3,105.1-21.7,105.5z"/>
		</g>
	</g>
</g>
</svg>
