<?xml version="1.0" encoding="utf-8"?>
<!-- Generator: Adobe Illustrator 19.0.0, SVG Export Plug-In . SVG Version: 6.00 Build 0)  -->
<svg version="1.1" id="Layer_1" xmlns="http://www.w3.org/2000/svg" xmlns:xlink="http://www.w3.org/1999/xlink" x="0px" y="0px"
	 viewBox="274 -25 587 90" style="enable-background:new 274 -25 587 90;" xml:space="preserve">
<style type="text/css">
	.st0{fill:#FFFFFF;}
	.st1{font-family:'OpenSans-Semibold';}
	.st2{font-size:36px;}
	.st3{fill:#389504;}
	.st4{fill:none;stroke:#FFFFFF;stroke-miterlimit:10;}
</style>
<g>
	<g>
		<text transform="matrix(1 0 0 1 458.5 33.0912)" class="st0 st1 st2">Units</text>
	</g>
</g>
<g>
	<g>
		<text transform="matrix(1 0 0 1 631.1667 33.0912)" class="st0 st1 st2">ºC</text>
	</g>
</g>
<circle class="st0" cx="598.2" cy="23.1" r="17"/>
<circle class="st3" cx="598.2" cy="23.1" r="11"/>
<g>
	<g>
		<text transform="matrix(1 0 0 1 773.1667 33.0912)" class="st0 st1 st2">ºF</text>
	</g>
</g>
<circle class="st0" cx="740.2" cy="23.1" r="17"/>
<line class="st4" x1="696.8" y1="50.8" x2="696.8" y2="-5.8"/>
<g>
	<g>
		<g>
			<path class="st0" d="M407.4,27.7V-2c0-6.1-5-11-11.1-11c-6.1,0-11.1,4.9-11.1,11v29.8c-2.1,2.5-3.2,5.7-3.2,9.1
				c0,7.9,6.5,14.3,14.3,14.3c7.8,0,14.3-6.4,14.3-14.3C410.7,33.5,409.5,30.3,407.4,27.7z M396.4,45.6c-4.9,0-8.9-3.9-8.9-8.8
				c0-2.8,1.2-5.2,3.2-6.8V-2c0-3.1,2.5-5.5,5.5-5.5c3.1,0,5.5,2.5,5.5,5.5v32c2.1,1.6,3.4,4.1,3.4,6.8
				C405.2,41.7,401.3,45.6,396.4,45.6z"/>
			<path class="st0" d="M399.1,31.3V8.5c0-1.5-1.3-2.7-2.8-2.7s-2.8,1.2-2.8,2.7v22.9c-1.4,1-3.3,3.1-3.3,5.4c0,3.4,2.8,6.1,6.2,6.1
				s6.1-2.7,6.1-6.1C402.5,34.4,401.2,32.3,399.1,31.3z"/>
		</g>
	</g>
</g>
</svg>
