<?xml version="1.0" encoding="utf-8"?>
<!-- Generator: Adobe Illustrator 19.0.0, SVG Export Plug-In . SVG Version: 6.00 Build 0)  -->
<svg version="1.1" id="Layer_1" xmlns="http://www.w3.org/2000/svg" xmlns:xlink="http://www.w3.org/1999/xlink" x="0px" y="0px"
	 viewBox="194 56 587 90" style="enable-background:new 194 56 587 90;" xml:space="preserve">
<style type="text/css">
	.st0{enable-background:new    ;}
	.st1{fill:#FFFFFF;}
	.st2{fill:none;stroke:#FFFFFF;stroke-miterlimit:10;}
	.st3{fill:#389504;}
</style>
<g>
	<g>
		<g>
			<g>
				<g class="st0">
					<path class="st1" d="M324,89.3v16.6c0,1.9-0.4,3.6-1.2,5s-2,2.5-3.5,3.3s-3.4,1.2-5.5,1.2c-3.2,0-5.7-0.8-7.4-2.5s-2.7-4-2.7-7
						V89.3h4.2v16.3c0,2.1,0.5,3.7,1.5,4.7s2.5,1.5,4.5,1.5c4,0,5.9-2.1,5.9-6.2V89.3H324z"/>
					<path class="st1" d="M347.3,115h-4.1v-12c0-1.5-0.3-2.6-0.9-3.4s-1.6-1.1-2.9-1.1c-1.7,0-3,0.5-3.8,1.5s-1.2,2.8-1.2,5.2v9.7
						h-4.1V95.5h3.2l0.6,2.5h0.2c0.6-0.9,1.4-1.6,2.5-2.1s2.3-0.8,3.6-0.8c4.7,0,7,2.4,7,7.1V115z"/>
					<path class="st1" d="M352.8,90.4c0-0.7,0.2-1.3,0.6-1.7s1-0.6,1.7-0.6c0.7,0,1.3,0.2,1.7,0.6s0.6,1,0.6,1.7
						c0,0.7-0.2,1.3-0.6,1.7s-1,0.6-1.7,0.6c-0.8,0-1.3-0.2-1.7-0.6S352.8,91.1,352.8,90.4z M357.2,115H353V95.5h4.1V115z"/>
					<path class="st1" d="M370.3,112c1,0,2-0.2,3-0.5v3.1c-0.5,0.2-1,0.4-1.8,0.5s-1.5,0.2-2.2,0.2c-3.9,0-5.9-2.1-5.9-6.2V98.7
						h-2.7v-1.8l2.8-1.5l1.4-4.1h2.5v4.3h5.5v3.1h-5.5v10.4c0,1,0.2,1.7,0.7,2.2S369.5,112,370.3,112z"/>
					<path class="st1" d="M390.3,109.5c0,1.9-0.7,3.4-2.1,4.4s-3.4,1.5-5.9,1.5c-2.6,0-4.7-0.4-6.2-1.2v-3.6
						c2.3,1.1,4.4,1.6,6.4,1.6c2.5,0,3.8-0.8,3.8-2.3c0-0.5-0.1-0.9-0.4-1.2s-0.7-0.7-1.4-1s-1.5-0.8-2.7-1.2
						c-2.2-0.9-3.8-1.7-4.5-2.6s-1.2-2-1.2-3.4c0-1.7,0.7-3,2-3.9s3.2-1.4,5.5-1.4c2.3,0,4.4,0.5,6.5,1.4l-1.3,3.1
						c-2.1-0.9-3.9-1.3-5.3-1.3c-2.2,0-3.3,0.6-3.3,1.9c0,0.6,0.3,1.1,0.9,1.5s1.8,1,3.7,1.7c1.6,0.6,2.8,1.2,3.5,1.7
						s1.3,1.1,1.6,1.8S390.3,108.5,390.3,109.5z"/>
				</g>
			</g>
		</g>
		<g>
			<g>
				<g class="st0">
					<path class="st1" d="M485.8,95.2c0,1.9-0.5,3.4-1.5,4.6s-2.5,1.7-4.3,1.7c-1.8,0-3.2-0.6-4.2-1.7s-1.5-2.6-1.5-4.5
						c0-2,0.5-3.5,1.6-4.6s2.5-1.6,4.2-1.6c1.8,0,3.2,0.6,4.2,1.7S485.8,93.3,485.8,95.2z M477.1,95.2c0,1.3,0.2,2.3,0.7,2.9
						s1.2,1,2.2,1s1.8-0.3,2.2-1s0.7-1.6,0.7-2.9c0-1.3-0.2-2.3-0.7-2.9s-1.2-1-2.2-1s-1.8,0.3-2.2,1S477.1,93.9,477.1,95.2z"/>
					<path class="st1" d="M501.2,92.5c-2.4,0-4.3,0.9-5.7,2.6s-2.1,4.1-2.1,7.1c0,3.2,0.7,5.5,2,7.2s3.3,2.4,5.8,2.4
						c1.1,0,2.1-0.1,3.2-0.3s2.1-0.5,3.2-0.8v3.6c-2,0.8-4.3,1.1-6.9,1.1c-3.8,0-6.7-1.1-8.7-3.4s-3-5.5-3-9.8c0-2.7,0.5-5,1.5-7
						s2.4-3.5,4.2-4.6s4-1.6,6.5-1.6c2.6,0,5.1,0.6,7.3,1.7l-1.5,3.5c-0.9-0.4-1.8-0.8-2.8-1.1S502.3,92.5,501.2,92.5z"/>
				</g>
			</g>
		</g>
		<circle class="st1" cx="440.2" cy="105" r="17"/>
		<g>
			<g>
				<g class="st0">
					<path class="st1" d="M627.8,95.2c0,1.9-0.5,3.4-1.5,4.6s-2.5,1.7-4.3,1.7c-1.8,0-3.2-0.6-4.2-1.7s-1.5-2.6-1.5-4.5
						c0-2,0.5-3.5,1.6-4.6s2.5-1.6,4.2-1.6c1.8,0,3.2,0.6,4.2,1.7S627.8,93.3,627.8,95.2z M619.1,95.2c0,1.3,0.2,2.3,0.7,2.9
						s1.2,1,2.2,1s1.8-0.3,2.2-1s0.7-1.6,0.7-2.9c0-1.3-0.2-2.3-0.7-2.9s-1.2-1-2.2-1s-1.8,0.3-2.2,1S619.1,93.9,619.1,95.2z"/>
					<path class="st1" d="M636.4,115h-4.2V89.3h14.5v3.6h-10.3v8h9.7v3.6h-9.7V115z"/>
				</g>
			</g>
		</g>
		<circle class="st1" cx="582.2" cy="105" r="17"/>
		<line class="st2" x1="538.8" y1="132.7" x2="538.8" y2="76.1"/>
		<g>
			<g>
				<g>
					<path class="st1" d="M249.4,109.6V79.9c0-6.1-5-11-11.1-11s-11.1,4.9-11.1,11v29.8c-2.1,2.5-3.2,5.7-3.2,9.1
						c0,7.9,6.5,14.3,14.3,14.3s14.3-6.4,14.3-14.3C252.7,115.4,251.5,112.2,249.4,109.6z M238.4,127.5c-4.9,0-8.9-3.9-8.9-8.8
						c0-2.8,1.2-5.2,3.2-6.8v-32c0-3.1,2.5-5.5,5.5-5.5c3.1,0,5.5,2.5,5.5,5.5v32c2.1,1.6,3.4,4.1,3.4,6.8
						C247.2,123.6,243.3,127.5,238.4,127.5z"/>
					<path class="st1" d="M241.1,113.2V90.4c0-1.5-1.3-2.7-2.8-2.7s-2.8,1.2-2.8,2.7v22.9c-1.4,1-3.3,3.1-3.3,5.4
						c0,3.4,2.8,6.1,6.2,6.1s6.1-2.7,6.1-6.1C244.5,116.3,243.2,114.2,241.1,113.2z"/>
				</g>
			</g>
		</g>
	</g>
	<circle class="st3" cx="441" cy="105" r="11"/>
</g>
</svg>
